<?xml version="1.0" encoding="UTF-8"?>
<svg xmlns="http://www.w3.org/2000/svg" xmlns:xlink="http://www.w3.org/1999/xlink" width="80pt" height="80pt" viewBox="0 0 80 80" version="1.1">
<g id="surface1">
<path style=" stroke:none;fill-rule:evenodd;fill:rgb(100%,100%,100%);fill-opacity:1;" d="M 37.023438 2.851562 C 33.472656 3.1875 29.898438 4.898438 28.886719 7.441406 C 28.566406 8.242188 28.921875 8.828125 29.210938 9.96875 C 29.414062 10.769531 30.089844 11.203125 30.78125 11.5625 C 32.304688 12.355469 34.328125 12.585938 36.234375 12.402344 C 39.765625 12.066406 43.378906 10.289062 44.316406 7.757812 C 44.980469 5.964844 43.953125 4.578125 42.457031 3.734375 C 41.054688 2.9375 38.847656 2.679688 37.023438 2.851562 M 26.792969 8.300781 C 24.683594 8.9375 21.472656 10.738281 19.589844 12.023438 C 18.496094 12.765625 16.738281 14.105469 15.777344 15.015625 C 13.074219 17.574219 11.050781 20.070312 9.152344 23.429688 C 7.992188 25.488281 6.546875 28.632812 6.011719 31.25 L 7.710938 31.273438 C 8.1875 29.214844 9.691406 26.132812 10.753906 24.34375 C 11.84375 22.511719 13.679688 20.21875 15.199219 18.761719 C 16.578125 17.4375 16.597656 17.472656 17.835938 16.386719 C 19.1875 15.199219 22.410156 13.152344 23.945312 12.460938 C 24.660156 12.140625 26.785156 11.066406 27.519531 10.96875 C 27.820312 11.644531 28.957031 12.476562 29.792969 12.890625 C 32.910156 14.4375 37.269531 14.222656 40.398438 13.1875 C 42.492188 12.496094 44.539062 11.472656 45.832031 10.238281 C 47.292969 8.847656 48.914062 6.894531 48.21875 4.492188 C 47.65625 2.558594 45.746094 1.3125 43.597656 0.738281 C 38.492188 -0.621094 31.214844 1.3125 28.097656 5.351562 C 27.332031 6.347656 27.140625 6.878906 26.792969 8.300781 Z M 26.792969 8.300781 "/>
<path style=" stroke:none;fill-rule:evenodd;fill:rgb(100%,100%,100%);fill-opacity:1;" d="M 64.15625 50.054688 L 57.652344 50.054688 C 57.355469 50.421875 57.15625 50.730469 56.835938 51.113281 C 56.136719 51.953125 55.328125 52.675781 54.570312 53.453125 C 53.539062 54.507812 51.269531 56.199219 49.730469 56.996094 C 48.085938 57.84375 46.285156 58.578125 44.238281 58.925781 C 38.585938 59.890625 32.796875 58.621094 28.273438 55.207031 C 27.929688 54.945312 27.527344 54.671875 27.242188 54.386719 L 26.289062 53.488281 C 25.957031 53.167969 25.714844 52.90625 25.359375 52.558594 C 24.945312 52.160156 23.984375 51 23.644531 50.5625 C 23.199219 49.984375 23.242188 50.019531 22.34375 50.023438 C 20.75 50.027344 18.164062 49.945312 16.800781 50.03125 C 16.800781 50.609375 17.996094 52.722656 18.3125 53.214844 C 19 54.28125 19.566406 55.113281 20.351562 55.984375 C 20.761719 56.433594 21.097656 56.828125 21.503906 57.238281 C 30.230469 66.027344 45.183594 67.203125 55.289062 60.484375 C 58.304688 58.480469 60.503906 56.285156 62.492188 53.265625 C 62.832031 52.746094 64.054688 50.726562 64.15625 50.054688 "/>
<path style=" stroke:none;fill-rule:evenodd;fill:rgb(100%,100%,100%);fill-opacity:1;" d="M 16.867188 30.953125 C 18.773438 30.953125 21.097656 30.996094 22.964844 30.957031 C 23.429688 30.949219 23.46875 30.707031 24.03125 29.996094 C 25.101562 28.644531 26.808594 26.953125 28.171875 25.894531 C 33.242188 21.953125 40.902344 20.515625 47.457031 22.980469 C 50.613281 24.164062 52.554688 25.707031 54.933594 27.871094 C 55.601562 28.476562 56.339844 29.261719 56.933594 29.988281 C 57.113281 30.207031 57.234375 30.347656 57.386719 30.566406 C 57.597656 30.871094 57.539062 30.957031 57.992188 30.960938 C 59.277344 30.976562 63.304688 31.015625 64.136719 30.941406 C 64.175781 30.488281 62.835938 28.28125 62.574219 27.851562 C 58.199219 20.667969 49.375 16.230469 40.546875 16.230469 C 33.664062 16.234375 27.4375 18.574219 22.855469 22.566406 C 21.957031 23.347656 21.207031 24.054688 20.449219 24.972656 C 19.617188 25.976562 19.140625 26.496094 18.398438 27.730469 C 18.132812 28.171875 16.785156 30.421875 16.867188 30.953125 "/>
<path style=" stroke:none;fill-rule:evenodd;fill:rgb(100%,100%,100%);fill-opacity:1;" d="M 29.027344 52.265625 C 29.066406 52.171875 29.191406 52.199219 29.296875 52.269531 C 29.214844 52.167969 29.183594 52.042969 29.273438 51.992188 C 29.421875 51.90625 29.546875 52.257812 29.507812 52.410156 C 29.480469 52.402344 29.453125 52.394531 29.429688 52.378906 C 29.445312 52.402344 29.460938 52.425781 29.472656 52.445312 C 29.300781 52.535156 28.964844 52.425781 29.027344 52.265625 M 29.734375 53.140625 C 29.59375 53.183594 29.4375 53.179688 29.292969 53.121094 C 28.9375 52.980469 28.769531 52.570312 28.910156 52.207031 C 29 51.988281 29.175781 51.835938 29.382812 51.777344 L 29.398438 51.855469 C 29.21875 51.90625 29.058594 52.042969 28.980469 52.234375 C 28.855469 52.558594 29.007812 52.925781 29.324219 53.046875 C 29.453125 53.101562 29.589844 53.101562 29.714844 53.066406 Z M 34.472656 50.90625 C 34.605469 50.90625 34.714844 50.996094 34.75 51.121094 C 34.320312 51.464844 34.304688 51.480469 33.875 51.828125 C 33.773438 51.78125 33.703125 51.679688 33.703125 51.5625 C 33.703125 51.480469 33.738281 51.40625 33.796875 51.355469 C 33.765625 51.308594 33.746094 51.253906 33.746094 51.195312 C 33.746094 51.035156 33.875 50.90625 34.03125 50.90625 C 34.121094 50.90625 34.199219 50.945312 34.25 51.011719 C 34.304688 50.945312 34.382812 50.90625 34.472656 50.90625 Z M 34.234375 51.695312 L 34.773438 51.257812 L 35.414062 52.851562 L 34.996094 52.582031 L 35.152344 52.570312 L 35.152344 52.46875 L 34.84375 52.480469 L 34.691406 52.378906 L 35.003906 52.394531 L 34.996094 52.296875 L 34.5625 52.296875 L 34.414062 52.183594 L 34.839844 52.183594 L 34.855469 52.097656 L 34.246094 52.089844 L 34.121094 51.988281 L 34.667969 52.019531 L 34.679688 51.941406 L 34.027344 51.886719 L 34.136719 51.792969 L 34.535156 51.847656 L 34.566406 51.757812 Z M 35.175781 56.34375 C 35.175781 56.34375 35.09375 56.195312 35.199219 56.128906 C 35.238281 56.109375 35.261719 56.085938 35.273438 56.066406 C 35.234375 55.980469 35.136719 55.910156 35.136719 55.910156 C 35.136719 55.910156 34.996094 55.773438 35.148438 55.839844 C 35.222656 55.875 35.273438 55.941406 35.304688 56.003906 C 35.339844 56 35.453125 55.992188 35.5 56.082031 C 35.707031 56.5 35.761719 56.664062 35.898438 56.777344 C 36.03125 56.882812 36.242188 56.945312 36.789062 56.917969 C 36.789062 56.917969 36.308594 57.167969 35.773438 57.039062 C 35.253906 56.800781 35.242188 56.460938 35.242188 56.460938 C 35.242188 56.460938 35.28125 56.421875 35.304688 56.355469 C 35.324219 56.289062 35.3125 56.25 35.3125 56.25 C 35.3125 56.25 35.199219 56.46875 35.175781 56.34375 Z M 37.015625 56.25 C 37.015625 56.25 37.175781 56.152344 37.15625 56.070312 C 37.140625 55.988281 37.113281 55.949219 37.117188 55.925781 C 37.207031 55.894531 37.324219 55.917969 37.324219 55.917969 C 37.324219 55.917969 37.480469 55.90625 37.367188 55.859375 C 37.253906 55.8125 37.207031 55.839844 37.140625 55.859375 C 37.121094 55.832031 36.988281 55.78125 36.882812 55.816406 C 36.78125 55.847656 36.5625 56.230469 36.136719 56.171875 C 35.710938 56.113281 35.367188 55.652344 35.367188 55.652344 C 35.367188 55.652344 35.523438 56.167969 35.988281 56.460938 C 36.519531 56.671875 36.910156 56.347656 36.910156 56.347656 C 36.882812 56.25 36.847656 56.089844 36.960938 56.027344 C 36.960938 56.027344 36.90625 56.320312 37.015625 56.25 Z M 39.570312 52.949219 L 39.757812 53.074219 L 39.890625 52.691406 Z M 40.195312 52.757812 L 40.371094 52.828125 L 40.230469 53.121094 L 40.007812 53.070312 Z M 40.625 52.882812 L 40.441406 53.128906 L 40.667969 53.191406 L 40.816406 52.9375 Z M 41.027344 52.917969 L 40.945312 53.152344 L 41.320312 52.960938 Z M 40.707031 52.492188 C 40.882812 52.140625 40.539062 52.296875 40.671875 51.882812 C 40.355469 52.167969 40.714844 52.234375 40.707031 52.492188 Z M 40.898438 52.414062 C 41.179688 51.816406 40.726562 52.066406 40.972656 51.605469 C 40.570312 51.96875 40.957031 51.972656 40.898438 52.414062 Z M 39.355469 52.894531 C 39.355469 52.894531 39.636719 52.371094 40.363281 52.589844 C 41.09375 52.808594 41.238281 52.757812 41.238281 52.757812 C 41.238281 52.757812 41.667969 52.785156 41.464844 53.316406 C 41.066406 53.726562 39.347656 53.574219 39.351562 53.28125 Z M 41.496094 56.699219 C 41.4375 56.699219 41.359375 56.667969 41.425781 56.59375 C 41.488281 56.519531 41.679688 56.375 42.007812 56.421875 C 42.050781 56.359375 42.097656 56.332031 42.136719 56.324219 C 42.164062 56.320312 42.097656 56.445312 42.121094 56.449219 C 42.136719 56.453125 42.253906 56.332031 42.277344 56.34375 C 42.328125 56.363281 42.382812 56.394531 42.394531 56.425781 C 42.410156 56.476562 42.425781 56.597656 42.390625 56.644531 C 42.355469 56.695312 42.296875 56.75 42.234375 56.757812 C 42.175781 56.765625 42.152344 56.707031 42.152344 56.707031 C 42.152344 56.707031 42.226562 56.601562 42.195312 56.597656 C 42.164062 56.59375 42.101562 56.578125 42.097656 56.605469 C 42.09375 56.628906 42.074219 56.765625 42.074219 56.765625 C 42.074219 56.765625 42.054688 56.773438 42.011719 56.726562 C 41.972656 56.683594 41.953125 56.535156 41.953125 56.535156 C 41.953125 56.535156 41.640625 56.507812 41.496094 56.699219 Z M 42.273438 57.03125 C 42.21875 57.035156 42.136719 57.003906 42.203125 56.925781 C 42.265625 56.851562 42.457031 56.710938 42.789062 56.753906 C 42.828125 56.691406 42.875 56.667969 42.914062 56.660156 C 42.941406 56.652344 42.878906 56.78125 42.898438 56.785156 C 42.917969 56.789062 43.03125 56.667969 43.058594 56.675781 C 43.105469 56.699219 43.164062 56.730469 43.171875 56.761719 C 43.1875 56.8125 43.203125 56.929688 43.167969 56.980469 C 43.136719 57.027344 43.074219 57.085938 43.015625 57.09375 C 42.957031 57.101562 42.933594 57.042969 42.933594 57.042969 C 42.933594 57.042969 43.003906 56.933594 42.972656 56.929688 C 42.945312 56.925781 42.878906 56.910156 42.875 56.9375 C 42.871094 56.964844 42.855469 57.097656 42.855469 57.097656 C 42.855469 57.097656 42.832031 57.105469 42.789062 57.0625 C 42.746094 57.015625 42.730469 56.871094 42.730469 56.871094 C 42.730469 56.871094 42.417969 56.839844 42.273438 57.03125 Z M 43.082031 56.300781 C 43.128906 56.339844 43.164062 56.425781 43.058594 56.433594 C 42.953125 56.445312 42.695312 56.410156 42.476562 56.125 C 42.398438 56.140625 42.34375 56.125 42.304688 56.101562 C 42.277344 56.085938 42.425781 56.035156 42.410156 56.015625 C 42.402344 56 42.222656 56.007812 42.210938 55.980469 C 42.1875 55.925781 42.167969 55.859375 42.183594 55.824219 C 42.210938 55.777344 42.289062 55.671875 42.351562 55.660156 C 42.414062 55.648438 42.503906 55.652344 42.554688 55.691406 C 42.609375 55.730469 42.582031 55.792969 42.582031 55.792969 C 42.582031 55.792969 42.445312 55.820312 42.464844 55.847656 C 42.484375 55.871094 42.523438 55.929688 42.546875 55.914062 C 42.566406 55.898438 42.683594 55.808594 42.683594 55.808594 C 42.683594 55.808594 42.707031 55.820312 42.707031 55.886719 C 42.703125 55.953125 42.605469 56.078125 42.605469 56.078125 C 42.605469 56.078125 42.824219 56.335938 43.082031 56.300781 Z M 46.804688 52.792969 C 47.726562 52.574219 48.609375 53.445312 48.097656 54.105469 C 47.359375 55.058594 46.128906 52.953125 46.804688 52.792969 Z M 46.132812 52.597656 C 46.09375 52.636719 45.96875 52.78125 45.875 52.78125 C 45.785156 52.78125 45.65625 52.6875 45.65625 52.566406 C 45.65625 52.460938 45.734375 52.375 45.839844 52.359375 C 45.839844 52.34375 45.839844 52.335938 45.839844 52.320312 C 45.839844 52.203125 45.9375 52.109375 46.058594 52.109375 C 46.179688 52.109375 46.230469 52.359375 46.230469 52.421875 C 46.230469 52.484375 46.597656 52.753906 46.550781 52.8125 C 46.464844 52.921875 46.097656 52.589844 46.132812 52.597656 Z M 47.085938 52.945312 L 47.554688 52.953125 L 47.363281 53.046875 L 47.71875 53.066406 L 47.585938 53.136719 L 47.886719 53.171875 L 47.75 53.234375 L 48.03125 53.289062 L 47.421875 53.28125 L 47.46875 53.128906 L 47.191406 53.101562 L 47.289062 52.992188 L 47.015625 53.011719 Z M 46.121094 52.746094 C 46.070312 52.847656 45.964844 52.914062 45.839844 52.914062 C 45.671875 52.914062 45.53125 52.78125 45.53125 52.617188 C 45.53125 52.46875 45.644531 52.347656 45.789062 52.324219 C 45.785156 52.308594 45.785156 52.289062 45.785156 52.273438 C 45.785156 52.109375 45.921875 51.976562 46.09375 51.976562 C 46.265625 51.976562 46.402344 52.109375 46.402344 52.273438 C 46.402344 52.328125 46.386719 52.378906 46.359375 52.425781 C 46.453125 52.519531 46.660156 52.636719 46.769531 52.695312 C 47.839844 52.5 48.816406 53.4375 48.21875 54.207031 C 47.617188 54.980469 46.484375 53.972656 46.492188 53.019531 C 46.402344 52.886719 46.269531 52.808594 46.160156 52.761719 C 46.144531 52.757812 46.132812 52.75 46.121094 52.746094 Z M 52.402344 52.707031 C 52.429688 52.730469 52.429688 52.769531 52.40625 52.792969 L 52.226562 52.992188 C 52.203125 53.019531 52.164062 53.019531 52.140625 52.996094 C 52.101562 52.960938 52.0625 52.875 52.113281 52.816406 L 52.21875 52.699219 C 52.265625 52.640625 52.363281 52.671875 52.402344 52.707031 Z M 52.199219 52.65625 L 52.074219 52.792969 C 51.957031 52.921875 51.878906 52.710938 51.945312 52.628906 L 52.007812 52.554688 C 52.097656 52.453125 52.289062 52.554688 52.199219 52.65625 Z M 52.070312 52.285156 C 52.105469 52.316406 52.109375 52.371094 52.078125 52.402344 L 51.832031 52.675781 C 51.800781 52.710938 51.746094 52.710938 51.710938 52.679688 C 51.660156 52.632812 51.605469 52.515625 51.675781 52.4375 L 51.816406 52.273438 C 51.886719 52.195312 52.019531 52.238281 52.070312 52.285156 Z M 51.789062 52.261719 L 51.664062 52.398438 C 51.546875 52.527344 51.472656 52.316406 51.539062 52.234375 L 51.601562 52.160156 C 51.6875 52.058594 51.878906 52.160156 51.789062 52.261719 Z M 51.660156 51.890625 C 51.695312 51.921875 51.699219 51.976562 51.667969 52.011719 L 51.421875 52.28125 C 51.390625 52.316406 51.335938 52.320312 51.300781 52.289062 C 51.25 52.242188 51.195312 52.121094 51.265625 52.042969 L 51.40625 51.878906 C 51.476562 51.800781 51.609375 51.84375 51.660156 51.890625 Z M 51.117188 51.550781 C 51.195312 51.550781 51.265625 51.589844 51.304688 51.65625 L 51.230469 51.675781 C 51.203125 51.644531 51.164062 51.625 51.117188 51.625 C 51.039062 51.625 50.972656 51.6875 50.972656 51.765625 C 50.972656 51.84375 51.039062 51.910156 51.117188 51.910156 C 51.175781 51.910156 51.226562 51.871094 51.25 51.820312 L 51.324219 51.835938 C 51.320312 51.847656 51.3125 51.859375 51.308594 51.871094 L 51.347656 51.90625 L 51.269531 51.992188 L 51.230469 51.953125 C 51.195312 51.972656 51.15625 51.984375 51.117188 51.984375 C 50.996094 51.984375 50.902344 51.886719 50.902344 51.765625 C 50.902344 51.644531 51 51.550781 51.117188 51.550781 Z M 52.703125 52.082031 C 52.730469 52.101562 52.730469 52.144531 52.707031 52.167969 L 52.527344 52.367188 C 52.503906 52.394531 52.464844 52.394531 52.441406 52.371094 C 52.402344 52.335938 52.363281 52.25 52.414062 52.191406 L 52.519531 52.074219 C 52.566406 52.015625 52.664062 52.046875 52.703125 52.082031 Z M 52.5 52.03125 L 52.375 52.167969 C 52.257812 52.296875 52.179688 52.085938 52.25 52.003906 L 52.3125 51.929688 C 52.398438 51.828125 52.589844 51.929688 52.5 52.03125 Z M 52.371094 51.660156 C 52.40625 51.691406 52.410156 51.746094 52.378906 51.78125 L 52.132812 52.050781 C 52.101562 52.085938 52.046875 52.089844 52.011719 52.058594 C 51.960938 52.011719 51.90625 51.890625 51.976562 51.8125 L 52.117188 51.648438 C 52.1875 51.570312 52.320312 51.613281 52.371094 51.660156 Z M 52.089844 51.636719 L 51.964844 51.773438 C 51.847656 51.902344 51.773438 51.691406 51.839844 51.609375 L 51.902344 51.535156 C 51.988281 51.433594 52.179688 51.535156 52.089844 51.636719 Z M 51.960938 51.265625 C 51.996094 51.296875 52 51.351562 51.96875 51.386719 L 51.722656 51.65625 C 51.691406 51.691406 51.636719 51.695312 51.601562 51.664062 C 51.550781 51.617188 51.496094 51.496094 51.566406 51.417969 L 51.707031 51.253906 C 51.777344 51.175781 51.910156 51.21875 51.960938 51.265625 Z M 51.417969 50.925781 C 51.496094 50.925781 51.566406 50.964844 51.605469 51.027344 L 51.527344 51.050781 C 51.503906 51.019531 51.460938 50.996094 51.417969 50.996094 C 51.339844 50.996094 51.273438 51.0625 51.273438 51.140625 C 51.273438 51.21875 51.339844 51.285156 51.417969 51.285156 C 51.476562 51.285156 51.527344 51.246094 51.550781 51.195312 L 51.625 51.210938 C 51.621094 51.222656 51.613281 51.234375 51.609375 51.246094 L 51.648438 51.28125 L 51.570312 51.363281 L 51.527344 51.328125 C 51.496094 51.347656 51.457031 51.359375 51.417969 51.359375 C 51.296875 51.359375 51.199219 51.261719 51.199219 51.140625 C 51.203125 51.019531 51.300781 50.925781 51.417969 50.925781 Z M 52.621094 52.339844 L 52.6875 52.265625 L 52.847656 52.472656 Z M 52.320312 52.964844 L 52.386719 52.890625 L 52.542969 53.097656 Z M 29.585938 53.0625 C 29.476562 53.078125 29.441406 52.9375 29.449219 52.796875 C 29.382812 52.917969 29.273438 53 29.191406 52.929688 C 29.125 52.871094 29.167969 52.78125 29.246094 52.703125 C 29.136719 52.738281 29.03125 52.722656 29.011719 52.632812 C 28.976562 52.464844 29.347656 52.449219 29.480469 52.535156 C 29.472656 52.550781 29.460938 52.5625 29.453125 52.578125 C 29.46875 52.570312 29.488281 52.566406 29.503906 52.566406 C 29.503906 52.578125 29.503906 52.589844 29.503906 52.597656 C 29.507812 52.597656 29.511719 52.59375 29.511719 52.589844 C 29.675781 52.691406 29.753906 53.039062 29.585938 53.0625 Z M 39.65625 58.898438 L 40.480469 58.898438 C 43.910156 58.898438 47.785156 57.542969 50.277344 56.164062 C 52.03125 55.195312 54.242188 53.417969 55.371094 51.847656 C 55.890625 51.125 56.148438 51.105469 56.660156 50.042969 C 56.277344 50.003906 25.84375 49.96875 23.871094 50.03125 C 23.996094 50.472656 24.820312 51.453125 25.09375 51.792969 C 25.578125 52.40625 25.996094 52.78125 26.601562 53.378906 C 27.671875 54.4375 28.398438 54.929688 29.632812 55.703125 C 32.308594 57.378906 35.921875 58.898438 39.65625 58.898438 Z M 39.65625 58.898438 "/>
<path style=" stroke:none;fill-rule:evenodd;fill:rgb(100%,100%,100%);fill-opacity:1;" d="M 28.671875 28.351562 C 28.761719 28.03125 28.542969 28.195312 28.652344 27.917969 C 28.449219 28.136719 28.671875 28.128906 28.671875 28.351562 M 28.808594 28.296875 C 29.023438 27.949219 28.691406 28.070312 28.863281 27.71875 C 28.523438 27.945312 28.847656 28.042969 28.808594 28.296875 Z M 33.933594 25.460938 C 33.933594 25.460938 34.414062 24.949219 34.804688 24.949219 C 34.957031 25.152344 35.25 25.542969 35.25 25.542969 C 35.25 25.542969 34.582031 25.78125 34.402344 26.132812 C 34.324219 26.054688 33.933594 25.460938 33.933594 25.460938 Z M 33.804688 25.457031 C 33.804688 25.457031 33.515625 25.621094 33.535156 25.320312 C 33.546875 25.113281 33.738281 25.101562 33.875 25.050781 C 33.796875 24.933594 33.453125 24.726562 33.84375 24.398438 C 34.035156 24.238281 34.097656 24.242188 34.222656 24.285156 C 34.402344 24.351562 34.496094 24.476562 34.503906 24.652344 L 34.601562 24.65625 C 34.652344 24.480469 34.726562 24.265625 34.964844 24.378906 C 35.09375 24.4375 35.199219 24.597656 35.101562 24.738281 C 35.035156 24.832031 34.964844 24.839844 34.863281 24.855469 C 34.414062 24.917969 34.265625 25.03125 33.804688 25.457031 Z M 35.300781 25.632812 C 35.101562 25.617188 34.457031 26.113281 34.484375 26.1875 C 34.652344 26.175781 35.257812 25.789062 35.300781 25.632812 Z M 34.546875 25.796875 C 34.546875 25.796875 34.15625 25.335938 34.257812 25.292969 C 34.363281 25.246094 34.640625 25.671875 34.652344 25.714844 C 34.664062 25.757812 34.324219 25.378906 34.324219 25.378906 Z M 34.730469 25.664062 C 34.730469 25.664062 34.335938 25.207031 34.441406 25.160156 C 34.542969 25.117188 34.824219 25.539062 34.835938 25.585938 C 34.847656 25.628906 34.503906 25.25 34.503906 25.25 Z M 34.960938 25.558594 C 34.960938 25.558594 34.570312 25.097656 34.671875 25.054688 C 34.773438 25.011719 35.054688 25.433594 35.066406 25.476562 C 35.078125 25.523438 34.734375 25.144531 34.734375 25.144531 Z M 34.34375 25.941406 C 34.34375 25.941406 33.949219 25.484375 34.054688 25.4375 C 34.15625 25.394531 34.433594 25.820312 34.445312 25.863281 C 34.457031 25.90625 34.117188 25.527344 34.117188 25.527344 Z M 33.703125 25 C 33.148438 24.539062 34.34375 23.753906 34.566406 24.488281 C 34.964844 23.832031 35.605469 24.851562 34.902344 24.929688 C 35.03125 25.109375 35.21875 25.367188 35.390625 25.621094 C 35.191406 26.144531 34.390625 26.269531 34.390625 26.269531 L 33.84375 25.511719 C 33.574219 25.792969 33.132812 25.175781 33.703125 25 Z M 36.851562 28.660156 C 36.957031 28.414062 36.710938 28.464844 36.828125 28.226562 C 36.601562 28.429688 36.832031 28.476562 36.851562 28.660156 Z M 36.988281 28.605469 C 37.171875 28.242188 36.859375 28.34375 37.042969 28.027344 C 36.703125 28.253906 37.027344 28.351562 36.988281 28.605469 Z M 37.144531 28.738281 C 37.210938 28.746094 37.253906 28.75 37.253906 28.75 C 37.253906 28.75 37.496094 28.445312 37.554688 28.417969 C 37.496094 28.597656 37.503906 28.796875 37.503906 28.796875 L 37.722656 29.089844 C 37.589844 29.050781 37.449219 28.980469 37.320312 28.941406 C 37.304688 28.964844 37.285156 28.988281 37.265625 29.007812 Z M 36.773438 28.71875 C 36.867188 28.71875 36.972656 28.726562 37.0625 28.730469 L 37.214844 29.070312 C 37.152344 29.140625 37.085938 29.207031 37.019531 29.269531 Z M 36.34375 28.578125 C 36.429688 28.621094 36.578125 28.699219 36.621094 28.730469 C 36.640625 28.726562 36.667969 28.722656 36.695312 28.722656 L 36.964844 29.316406 C 36.894531 29.375 36.824219 29.429688 36.753906 29.472656 Z M 36.136719 29.183594 C 36.175781 29.183594 36.207031 29.21875 36.207031 29.257812 C 36.207031 29.296875 36.175781 29.328125 36.136719 29.328125 C 36.097656 29.328125 36.066406 29.296875 36.066406 29.257812 C 36.066406 29.21875 36.097656 29.183594 36.136719 29.183594 Z M 35.882812 29.460938 C 35.886719 29.363281 35.988281 29.007812 36.191406 28.871094 C 36.214844 28.765625 36.25 28.648438 36.269531 28.585938 L 36.691406 29.515625 L 36.6875 29.515625 L 36.722656 29.714844 L 36.527344 29.589844 C 36.523438 29.589844 35.996094 29.597656 35.882812 29.460938 Z M 41.21875 24.417969 L 41.21875 24.550781 C 41.242188 24.609375 41.300781 24.652344 41.367188 24.652344 C 41.457031 24.652344 41.53125 24.574219 41.53125 24.484375 C 41.53125 24.394531 41.457031 24.320312 41.367188 24.320312 C 41.300781 24.320312 41.242188 24.359375 41.21875 24.417969 Z M 40.066406 25.121094 L 41.367188 25.121094 L 41.238281 25.328125 L 40.214844 25.328125 Z M 40.664062 24.042969 C 40.765625 23.800781 40.523438 23.851562 40.640625 23.609375 C 40.414062 23.816406 40.644531 23.859375 40.664062 24.042969 Z M 40.800781 23.992188 C 40.984375 23.628906 40.671875 23.730469 40.851562 23.414062 C 40.515625 23.640625 40.839844 23.734375 40.800781 23.992188 Z M 41.367188 24.214844 C 41.515625 24.214844 41.632812 24.335938 41.632812 24.484375 C 41.632812 24.632812 41.515625 24.753906 41.367188 24.753906 C 41.3125 24.753906 41.261719 24.738281 41.21875 24.707031 L 41.21875 24.785156 C 41.21875 24.90625 41.121094 25.003906 40.996094 25.003906 L 40.410156 25.003906 C 40.289062 25.003906 40.191406 24.90625 40.191406 24.785156 L 40.191406 24.128906 L 41.21875 24.128906 L 41.21875 24.261719 C 41.257812 24.230469 41.3125 24.214844 41.367188 24.214844 Z M 45.054688 27.195312 C 45.511719 27.195312 45.882812 27.402344 45.882812 27.65625 C 45.882812 27.910156 45.511719 28.117188 45.054688 28.117188 C 44.59375 28.117188 44.222656 27.910156 44.222656 27.65625 C 44.222656 27.402344 44.597656 27.195312 45.054688 27.195312 Z M 44.230469 27.972656 L 44.121094 27.964844 L 44.136719 28.058594 L 44.105469 28.167969 C 44.105469 28.167969 44.222656 28.179688 44.230469 28.203125 C 44.238281 28.226562 44.261719 28.324219 44.261719 28.324219 C 44.261719 28.324219 44.703125 28.511719 44.746094 28.511719 C 44.792969 28.511719 45 28.363281 45 28.363281 C 45 28.363281 45.195312 28.476562 45.25 28.496094 C 45.300781 28.511719 45.476562 28.53125 45.523438 28.5 C 45.574219 28.464844 45.769531 28.335938 45.769531 28.335938 L 45.742188 28.203125 L 45.894531 28.082031 L 45.898438 28.003906 L 46 28.039062 L 46.070312 27.898438 L 45.980469 27.824219 C 45.980469 27.824219 45.761719 28.066406 45.398438 28.136719 C 45.039062 28.207031 44.742188 28.199219 44.625 28.148438 C 44.507812 28.101562 44.230469 27.972656 44.230469 27.972656 Z M 44.316406 28.429688 C 44.316406 28.429688 44.902344 28.605469 44.933594 28.605469 C 44.960938 28.605469 45.460938 28.570312 45.503906 28.558594 C 45.542969 28.546875 45.847656 28.417969 45.847656 28.417969 L 45.601562 28.617188 L 45.113281 28.671875 L 44.730469 28.636719 L 44.480469 28.527344 Z M 44.242188 28.574219 C 44.46875 28.730469 44.753906 28.917969 45.09375 28.910156 C 45.226562 28.90625 45.464844 28.878906 45.566406 28.796875 C 45.644531 28.738281 45.828125 28.613281 45.828125 28.613281 C 45.144531 28.9375 44.9375 28.804688 44.242188 28.574219 Z M 45.054688 27.71875 C 45.085938 27.71875 45.109375 27.738281 45.109375 27.761719 C 45.109375 27.785156 45.085938 27.804688 45.054688 27.804688 C 45.023438 27.804688 45 27.785156 45 27.761719 C 45 27.738281 45.027344 27.71875 45.054688 27.71875 Z M 45.203125 27.535156 C 45.234375 27.535156 45.261719 27.5625 45.261719 27.601562 C 45.261719 27.636719 45.234375 27.664062 45.203125 27.664062 C 45.175781 27.664062 45.148438 27.636719 45.148438 27.601562 C 45.148438 27.5625 45.171875 27.535156 45.203125 27.535156 Z M 45.296875 27.347656 C 45.335938 27.347656 45.367188 27.375 45.367188 27.410156 C 45.367188 27.445312 45.335938 27.472656 45.296875 27.472656 C 45.261719 27.472656 45.230469 27.445312 45.230469 27.410156 C 45.230469 27.375 45.261719 27.347656 45.296875 27.347656 Z M 45.085938 27.300781 C 45.132812 27.300781 45.171875 27.328125 45.171875 27.367188 C 45.171875 27.402344 45.132812 27.433594 45.085938 27.433594 C 45.035156 27.433594 44.996094 27.402344 44.996094 27.367188 C 44.996094 27.332031 45.035156 27.300781 45.085938 27.300781 Z M 44.921875 27.410156 C 44.957031 27.410156 44.980469 27.4375 44.980469 27.46875 C 44.980469 27.503906 44.957031 27.53125 44.921875 27.53125 C 44.890625 27.53125 44.867188 27.503906 44.867188 27.46875 C 44.867188 27.4375 44.890625 27.410156 44.921875 27.410156 Z M 44.796875 27.601562 C 44.8125 27.601562 44.828125 27.613281 44.828125 27.628906 C 44.828125 27.644531 44.8125 27.65625 44.796875 27.65625 C 44.777344 27.65625 44.761719 27.644531 44.761719 27.628906 C 44.761719 27.613281 44.777344 27.601562 44.796875 27.601562 Z M 44.621094 27.511719 C 44.652344 27.511719 44.671875 27.539062 44.671875 27.570312 C 44.671875 27.601562 44.652344 27.628906 44.621094 27.628906 C 44.59375 27.628906 44.570312 27.601562 44.570312 27.570312 C 44.570312 27.539062 44.59375 27.511719 44.621094 27.511719 Z M 44.675781 27.402344 C 44.710938 27.402344 44.738281 27.421875 44.738281 27.445312 C 44.738281 27.464844 44.710938 27.484375 44.675781 27.484375 C 44.644531 27.484375 44.613281 27.464844 44.613281 27.445312 C 44.613281 27.421875 44.644531 27.402344 44.675781 27.402344 Z M 44.441406 27.503906 C 44.472656 27.503906 44.496094 27.53125 44.496094 27.566406 C 44.496094 27.597656 44.472656 27.625 44.441406 27.625 C 44.414062 27.625 44.390625 27.597656 44.390625 27.566406 C 44.390625 27.53125 44.414062 27.503906 44.441406 27.503906 Z M 45.421875 27.589844 C 45.453125 27.589844 45.476562 27.613281 45.476562 27.640625 C 45.476562 27.667969 45.453125 27.691406 45.421875 27.691406 C 45.390625 27.691406 45.367188 27.667969 45.367188 27.640625 C 45.367188 27.613281 45.390625 27.589844 45.421875 27.589844 Z M 45.054688 27.140625 C 45.570312 27.140625 45.988281 27.371094 45.988281 27.65625 C 45.988281 27.675781 45.988281 27.695312 45.980469 27.710938 C 46.046875 27.738281 46.167969 27.804688 46.167969 27.910156 C 46.167969 28.058594 46.152344 28.167969 46.128906 28.171875 C 46.101562 28.175781 45.984375 28.117188 45.984375 28.117188 C 45.984375 28.117188 45.972656 28.167969 45.972656 28.253906 L 45.972656 28.59375 C 45.746094 29.097656 44.644531 29.191406 44.179688 28.65625 C 44.152344 28.621094 44.160156 28.292969 44.160156 28.292969 C 44.160156 28.292969 43.964844 28.285156 43.976562 28.222656 C 43.988281 28.160156 44.046875 28.089844 44.050781 28.0625 C 44.054688 28.039062 43.960938 27.925781 43.980469 27.90625 C 44 27.886719 44.136719 27.871094 44.136719 27.871094 L 44.21875 27.890625 C 44.15625 27.820312 44.121094 27.738281 44.121094 27.65625 C 44.121094 27.371094 44.539062 27.140625 45.054688 27.140625 Z M 47.171875 24.917969 C 47.175781 24.816406 47.300781 24.796875 47.425781 24.820312 C 47.3125 24.757812 47.234375 24.652344 47.296875 24.574219 C 47.40625 24.441406 47.652344 24.71875 47.671875 24.875 C 47.644531 24.878906 47.617188 24.878906 47.589844 24.878906 C 47.613281 24.890625 47.636719 24.90625 47.652344 24.925781 C 47.527344 25.066406 47.171875 25.089844 47.171875 24.917969 Z M 48.152344 25.472656 C 48.035156 25.5625 47.890625 25.617188 47.734375 25.617188 C 47.351562 25.617188 47.042969 25.296875 47.042969 24.902344 C 47.042969 24.667969 47.152344 24.460938 47.324219 24.332031 L 47.367188 24.398438 C 47.21875 24.511719 47.121094 24.695312 47.121094 24.902344 C 47.121094 25.253906 47.394531 25.535156 47.734375 25.535156 C 47.875 25.535156 48.003906 25.488281 48.105469 25.40625 Z M 47.980469 25.457031 C 47.890625 25.507812 47.800781 25.390625 47.761719 25.257812 C 47.742188 25.390625 47.667969 25.507812 47.570312 25.476562 C 47.484375 25.445312 47.492188 25.34375 47.539062 25.242188 C 47.445312 25.316406 47.339844 25.34375 47.289062 25.265625 C 47.195312 25.121094 47.539062 24.972656 47.691406 25.003906 C 47.691406 25.019531 47.6875 25.035156 47.679688 25.050781 C 47.695312 25.039062 47.710938 25.03125 47.726562 25.023438 C 47.730469 25.03125 47.734375 25.042969 47.738281 25.054688 C 47.742188 25.046875 47.742188 25.042969 47.742188 25.039062 C 47.933594 25.074219 48.132812 25.371094 47.980469 25.457031 Z M 52.515625 29.21875 C 52.558594 29.578125 51.761719 30.207031 51.453125 30.179688 C 51.4375 30.066406 51.484375 29.914062 51.566406 29.753906 L 51.636719 29.828125 C 51.660156 29.851562 51.699219 29.851562 51.722656 29.828125 C 51.746094 29.808594 51.75 29.769531 51.726562 29.746094 L 51.628906 29.644531 C 51.664062 29.589844 51.703125 29.53125 51.746094 29.480469 L 51.90625 29.644531 C 51.929688 29.667969 51.96875 29.671875 51.992188 29.648438 C 52.015625 29.625 52.015625 29.585938 51.992188 29.5625 L 51.820312 29.386719 C 51.871094 29.328125 51.925781 29.273438 51.980469 29.226562 L 52.105469 29.355469 C 52.128906 29.378906 52.167969 29.378906 52.191406 29.355469 C 52.214844 29.332031 52.214844 29.296875 52.191406 29.269531 L 52.074219 29.148438 C 52.164062 29.085938 52.25 29.046875 52.324219 29.046875 L 52.363281 28.730469 L 52.4375 28.730469 L 52.453125 28.957031 L 52.707031 28.691406 L 52.773438 28.761719 L 52.550781 29.019531 L 52.945312 28.921875 L 52.949219 29.03125 Z M 28.136719 28.855469 C 28.136719 28.855469 28.703125 28.046875 29.203125 28.691406 C 28.90625 28.738281 28.59375 28.878906 28.660156 29.210938 C 28.84375 28.878906 29.097656 28.851562 29.277344 28.886719 C 29.457031 28.925781 29.402344 28.648438 29.402344 28.648438 C 29.402344 28.648438 29.503906 28.507812 29.585938 28.644531 C 29.667969 28.777344 29.699219 28.757812 29.734375 28.796875 C 29.769531 28.839844 29.777344 28.882812 29.742188 28.925781 C 29.703125 28.96875 29.480469 28.914062 29.464844 28.992188 C 29.421875 29.195312 29.289062 29.335938 29.253906 29.390625 L 28.242188 29.394531 C 28.242188 29.394531 28.007812 29.128906 27.902344 29.003906 C 27.875 28.972656 27.761719 28.71875 28.03125 28.738281 Z M 23.949219 30.953125 L 56.652344 30.953125 C 56.117188 29.820312 55.859375 29.820312 55.394531 29.1875 C 52.207031 24.816406 45.476562 22.152344 40.34375 22.136719 C 37.050781 22.128906 35.316406 22.695312 32.523438 23.785156 C 31.75 24.089844 31.144531 24.496094 30.433594 24.855469 C 30.222656 24.960938 27.808594 26.507812 27.578125 26.738281 C 26.421875 27.910156 25.542969 28.578125 24.523438 30.003906 C 24.367188 30.222656 23.976562 30.683594 23.949219 30.953125 Z M 23.949219 30.953125 "/>
<path style=" stroke:none;fill-rule:evenodd;fill:rgb(100%,100%,100%);fill-opacity:1;" d="M 50.792969 70.886719 C 50.816406 71.757812 50.96875 72.269531 50.8125 73.257812 C 50.621094 74.460938 50.292969 75.152344 49.507812 75.933594 C 48.765625 76.671875 47.863281 77.015625 46.824219 77.300781 C 44.582031 77.921875 40.980469 78.117188 38.484375 78.25 C 38.265625 78.261719 38.042969 78.292969 37.863281 78.289062 C 37.550781 78.277344 37.519531 78.25 37.476562 78.035156 C 37.707031 77.902344 39.4375 77.53125 39.859375 77.425781 C 40.640625 77.226562 41.550781 77.023438 42.355469 76.816406 C 43.199219 76.601562 43.980469 76.441406 44.789062 76.238281 C 45.234375 76.125 45.570312 76.0625 45.863281 75.789062 C 46.558594 75.144531 46.605469 73.3125 44.324219 73.648438 C 43.441406 73.777344 42.523438 73.890625 41.660156 74.050781 C 40.757812 74.21875 39.847656 74.34375 38.964844 74.464844 C 38.273438 74.558594 36.609375 74.984375 36.34375 74.667969 C 36.410156 74.382812 36.941406 74.328125 37.410156 74.21875 C 38.433594 73.976562 44.613281 72.3125 45.003906 71.984375 C 45.714844 71.378906 45.550781 70.554688 45.078125 70.070312 C 44.449219 69.429688 42.46875 70.074219 41.101562 70.277344 C 40.269531 70.402344 36.226562 71.238281 35.75 70.972656 C 35.808594 70.5625 36.601562 70.472656 36.988281 70.347656 C 37.488281 70.191406 37.898438 70.0625 38.394531 69.90625 C 40.300781 69.296875 42.34375 68.710938 44.289062 68.308594 C 46.226562 67.910156 46.96875 68.871094 47.378906 70.644531 C 47.488281 71.125 47.511719 71.839844 47.640625 72.242188 C 47.960938 73.210938 49.71875 73.128906 49.453125 71.464844 C 49.144531 69.53125 48.210938 67.355469 46.507812 66.84375 C 45.441406 66.523438 44.378906 66.882812 43.386719 67.140625 C 42.324219 67.410156 41.4375 67.652344 40.425781 67.941406 C 39.417969 68.234375 38.539062 68.519531 37.574219 68.808594 C 36.667969 69.074219 35.585938 69.390625 34.738281 69.746094 C 33.890625 70.101562 33.429688 71.402344 34.246094 72.109375 C 35.113281 72.863281 36.238281 72.46875 37.320312 72.28125 L 42.125 71.4375 C 42.601562 71.351562 43.207031 71.21875 43.675781 71.195312 L 38.722656 72.496094 C 37.988281 72.707031 35.742188 73.171875 35.128906 73.644531 C 33.96875 74.539062 34.480469 76.179688 36.148438 76.203125 C 37.195312 76.214844 43.527344 74.824219 44.546875 74.988281 C 44.464844 74.96875 37.941406 76.527344 37.050781 76.738281 C 34.847656 77.257812 35.570312 78.953125 36.101562 79.324219 C 36.96875 79.929688 39.121094 79.617188 40.34375 79.582031 C 42.984375 79.503906 46.378906 79.230469 48.5 78.429688 C 48.976562 78.246094 49.265625 78.125 49.652344 77.867188 C 49.921875 77.691406 49.996094 77.753906 50.375 77.421875 L 50.691406 77.117188 C 51.664062 76.339844 52.460938 74.625 52.609375 73.195312 C 54.429688 72.804688 58.511719 70.515625 60.054688 69.449219 C 62.441406 67.800781 64.15625 66.300781 66.078125 64.273438 C 66.210938 64.132812 66.257812 64.03125 66.382812 63.890625 C 67.246094 62.910156 67.742188 62.316406 68.546875 61.175781 C 69.328125 60.0625 70.023438 58.988281 70.726562 57.726562 C 71.398438 56.523438 72.015625 55.257812 72.527344 53.894531 C 72.957031 52.757812 73.695312 50.832031 73.855469 49.613281 L 72.199219 49.601562 C 71 53.421875 70.179688 55.394531 67.964844 58.671875 C 67.601562 59.210938 67.167969 59.667969 66.800781 60.1875 C 66.613281 60.453125 66.429688 60.644531 66.207031 60.894531 C 66.070312 61.046875 66.042969 61.121094 65.890625 61.269531 C 65.722656 61.433594 65.707031 61.4375 65.5625 61.628906 C 65.203125 62.085938 64.632812 62.570312 64.230469 62.976562 C 63.992188 63.21875 63.160156 64.046875 62.886719 64.242188 C 62.640625 64.417969 62.457031 64.617188 62.179688 64.839844 C 59.394531 67.085938 56.257812 68.972656 52.828125 70.253906 C 52.179688 70.496094 51.386719 70.644531 50.792969 70.886719 "/>
<path style=" stroke:none;fill-rule:evenodd;fill:rgb(100%,100%,100%);fill-opacity:1;" d="M 17.667969 65.933594 C 18.011719 66.089844 18.496094 66.507812 18.84375 66.761719 C 19.230469 67.039062 19.644531 67.292969 20.035156 67.5625 C 20.992188 68.21875 22.796875 69.210938 23.933594 69.710938 C 24.65625 70.035156 24.554688 70.0625 25.457031 70.175781 C 26.046875 70.25 28.761719 70.640625 29.128906 70.527344 C 29.28125 70.070312 28.980469 70.105469 28.558594 69.960938 C 27.800781 69.703125 26.371094 69.191406 25.722656 68.882812 C 23.277344 67.726562 21.191406 66.664062 19.074219 65.023438 C 16.53125 63.050781 16.867188 63.171875 14.890625 61.304688 C 13.035156 59.554688 10.71875 55.835938 9.644531 53.433594 C 9.371094 52.820312 9.132812 52.210938 8.886719 51.585938 C 8.742188 51.207031 8.34375 49.855469 8.191406 49.621094 L 6.207031 49.605469 C 6.445312 51.382812 7.519531 54.21875 8.207031 55.765625 C 9.40625 58.460938 11.144531 61.226562 12.964844 63.371094 C 16.433594 67.460938 19.535156 69.898438 24.554688 72.390625 C 25.308594 72.765625 27.8125 72.925781 29.023438 73.085938 C 29.664062 73.171875 29.585938 72.820312 29.484375 72.6875 C 29.371094 72.539062 28.25 72.207031 27.988281 72.113281 C 24.90625 71.019531 22.488281 69.566406 19.941406 67.796875 C 19.46875 67.46875 17.902344 66.292969 17.667969 65.933594 "/>
<path style=" stroke:none;fill-rule:evenodd;fill:rgb(100%,100%,100%);fill-opacity:1;" d="M 63.8125 15.933594 C 62.078125 14.4375 59.445312 12.585938 57.421875 11.574219 C 56.769531 11.25 56.652344 11.085938 55.828125 10.960938 C 55.171875 10.863281 52.488281 10.328125 52.03125 10.464844 C 51.890625 10.921875 52.109375 10.859375 52.546875 11.027344 C 53.292969 11.3125 54.617188 11.851562 55.25 12.167969 C 57.816406 13.453125 60.523438 15.074219 62.628906 16.949219 L 64.347656 18.523438 C 64.796875 18.972656 65.113281 19.371094 65.578125 19.832031 C 65.988281 20.234375 66.339844 20.746094 66.742188 21.210938 C 68.898438 23.699219 71.042969 28.167969 71.9375 31.460938 L 73.992188 31.453125 C 73.027344 26.203125 70.546875 21.5625 67.363281 17.5 C 66.6875 16.632812 65.210938 15.007812 64.40625 14.277344 C 63.253906 13.230469 62.375 12.40625 61.042969 11.457031 C 60.152344 10.820312 56.992188 8.65625 55.796875 8.464844 C 54.609375 8.277344 53.394531 8.066406 52.222656 7.90625 C 51.753906 7.839844 51.484375 8.035156 51.851562 8.34375 C 51.917969 8.398438 52.457031 8.597656 52.585938 8.648438 C 53.085938 8.847656 53.5625 9.046875 54.042969 9.253906 C 57.257812 10.644531 59.621094 12.324219 62.230469 14.460938 C 62.433594 14.628906 62.574219 14.785156 62.769531 14.945312 C 63.160156 15.273438 63.46875 15.601562 63.8125 15.933594 "/>
<path style=" stroke:none;fill-rule:evenodd;fill:rgb(100%,100%,100%);fill-opacity:1;" d="M 28.671875 28.351562 C 28.761719 28.03125 28.542969 28.195312 28.652344 27.917969 C 28.449219 28.136719 28.671875 28.128906 28.671875 28.351562 M 28.808594 28.296875 C 29.023438 27.949219 28.691406 28.070312 28.863281 27.71875 C 28.523438 27.945312 28.847656 28.042969 28.808594 28.296875 Z M 33.933594 25.460938 C 33.933594 25.460938 34.414062 24.949219 34.804688 24.949219 C 34.957031 25.152344 35.25 25.542969 35.25 25.542969 C 35.25 25.542969 34.582031 25.78125 34.402344 26.132812 C 34.324219 26.054688 33.933594 25.460938 33.933594 25.460938 Z M 33.804688 25.457031 C 33.804688 25.457031 33.515625 25.621094 33.535156 25.320312 C 33.546875 25.113281 33.738281 25.101562 33.875 25.050781 C 33.796875 24.933594 33.453125 24.726562 33.84375 24.398438 C 34.035156 24.238281 34.097656 24.242188 34.222656 24.285156 C 34.402344 24.351562 34.496094 24.476562 34.503906 24.652344 L 34.601562 24.65625 C 34.652344 24.480469 34.726562 24.265625 34.964844 24.378906 C 35.09375 24.4375 35.199219 24.597656 35.101562 24.738281 C 35.035156 24.832031 34.964844 24.839844 34.863281 24.855469 C 34.414062 24.917969 34.265625 25.03125 33.804688 25.457031 Z M 35.300781 25.632812 C 35.101562 25.617188 34.457031 26.113281 34.484375 26.1875 C 34.652344 26.175781 35.257812 25.789062 35.300781 25.632812 Z M 34.546875 25.796875 C 34.546875 25.796875 34.15625 25.335938 34.257812 25.292969 C 34.363281 25.246094 34.640625 25.671875 34.652344 25.714844 C 34.664062 25.757812 34.324219 25.378906 34.324219 25.378906 Z M 34.730469 25.664062 C 34.730469 25.664062 34.335938 25.207031 34.441406 25.160156 C 34.542969 25.117188 34.824219 25.539062 34.835938 25.585938 C 34.847656 25.628906 34.503906 25.25 34.503906 25.25 Z M 34.960938 25.558594 C 34.960938 25.558594 34.570312 25.097656 34.671875 25.054688 C 34.773438 25.011719 35.054688 25.433594 35.066406 25.476562 C 35.078125 25.523438 34.734375 25.144531 34.734375 25.144531 Z M 34.34375 25.941406 C 34.34375 25.941406 33.949219 25.484375 34.054688 25.4375 C 34.15625 25.394531 34.433594 25.820312 34.445312 25.863281 C 34.457031 25.90625 34.117188 25.527344 34.117188 25.527344 Z M 33.703125 25 C 33.148438 24.539062 34.34375 23.753906 34.566406 24.488281 C 34.964844 23.832031 35.605469 24.851562 34.902344 24.929688 C 35.03125 25.109375 35.21875 25.367188 35.390625 25.621094 C 35.191406 26.144531 34.390625 26.269531 34.390625 26.269531 L 33.84375 25.511719 C 33.574219 25.792969 33.132812 25.175781 33.703125 25 Z M 36.851562 28.660156 C 36.957031 28.414062 36.710938 28.464844 36.828125 28.226562 C 36.601562 28.429688 36.832031 28.476562 36.851562 28.660156 Z M 36.988281 28.605469 C 37.171875 28.242188 36.859375 28.34375 37.042969 28.027344 C 36.703125 28.253906 37.027344 28.351562 36.988281 28.605469 Z M 37.144531 28.738281 C 37.210938 28.746094 37.253906 28.75 37.253906 28.75 C 37.253906 28.75 37.496094 28.445312 37.554688 28.417969 C 37.496094 28.597656 37.503906 28.796875 37.503906 28.796875 L 37.722656 29.089844 C 37.589844 29.050781 37.449219 28.980469 37.320312 28.941406 C 37.304688 28.964844 37.285156 28.988281 37.265625 29.007812 Z M 36.773438 28.71875 C 36.867188 28.71875 36.972656 28.726562 37.0625 28.730469 L 37.214844 29.070312 C 37.152344 29.140625 37.085938 29.207031 37.019531 29.269531 Z M 36.34375 28.578125 C 36.429688 28.621094 36.578125 28.699219 36.621094 28.730469 C 36.640625 28.726562 36.667969 28.722656 36.695312 28.722656 L 36.964844 29.316406 C 36.894531 29.375 36.824219 29.429688 36.753906 29.472656 Z M 36.136719 29.183594 C 36.175781 29.183594 36.207031 29.21875 36.207031 29.257812 C 36.207031 29.296875 36.175781 29.328125 36.136719 29.328125 C 36.097656 29.328125 36.066406 29.296875 36.066406 29.257812 C 36.066406 29.21875 36.097656 29.183594 36.136719 29.183594 Z M 35.882812 29.460938 C 35.886719 29.363281 35.988281 29.007812 36.191406 28.871094 C 36.214844 28.765625 36.25 28.648438 36.269531 28.585938 L 36.691406 29.515625 L 36.6875 29.515625 L 36.722656 29.714844 L 36.527344 29.589844 C 36.523438 29.589844 35.996094 29.597656 35.882812 29.460938 Z M 41.21875 24.417969 L 41.21875 24.550781 C 41.242188 24.609375 41.300781 24.652344 41.367188 24.652344 C 41.457031 24.652344 41.53125 24.574219 41.53125 24.484375 C 41.53125 24.394531 41.457031 24.320312 41.367188 24.320312 C 41.300781 24.320312 41.242188 24.359375 41.21875 24.417969 Z M 40.066406 25.121094 L 41.367188 25.121094 L 41.238281 25.328125 L 40.214844 25.328125 Z M 40.664062 24.042969 C 40.765625 23.800781 40.523438 23.851562 40.640625 23.609375 C 40.414062 23.816406 40.644531 23.859375 40.664062 24.042969 Z M 40.800781 23.992188 C 40.984375 23.628906 40.671875 23.730469 40.851562 23.414062 C 40.515625 23.640625 40.839844 23.734375 40.800781 23.992188 Z M 41.367188 24.214844 C 41.515625 24.214844 41.632812 24.335938 41.632812 24.484375 C 41.632812 24.632812 41.515625 24.753906 41.367188 24.753906 C 41.3125 24.753906 41.261719 24.738281 41.21875 24.707031 L 41.21875 24.785156 C 41.21875 24.90625 41.121094 25.003906 40.996094 25.003906 L 40.410156 25.003906 C 40.289062 25.003906 40.191406 24.90625 40.191406 24.785156 L 40.191406 24.128906 L 41.21875 24.128906 L 41.21875 24.261719 C 41.257812 24.230469 41.3125 24.214844 41.367188 24.214844 Z M 45.054688 27.195312 C 45.511719 27.195312 45.882812 27.402344 45.882812 27.65625 C 45.882812 27.910156 45.511719 28.117188 45.054688 28.117188 C 44.59375 28.117188 44.222656 27.910156 44.222656 27.65625 C 44.222656 27.402344 44.597656 27.195312 45.054688 27.195312 Z M 44.230469 27.972656 L 44.121094 27.964844 L 44.136719 28.058594 L 44.105469 28.167969 C 44.105469 28.167969 44.222656 28.179688 44.230469 28.203125 C 44.238281 28.226562 44.261719 28.324219 44.261719 28.324219 C 44.261719 28.324219 44.703125 28.511719 44.746094 28.511719 C 44.792969 28.511719 45 28.363281 45 28.363281 C 45 28.363281 45.195312 28.476562 45.25 28.496094 C 45.300781 28.511719 45.476562 28.53125 45.523438 28.5 C 45.574219 28.464844 45.769531 28.335938 45.769531 28.335938 L 45.742188 28.203125 L 45.894531 28.082031 L 45.898438 28.003906 L 46 28.039062 L 46.070312 27.898438 L 45.980469 27.824219 C 45.980469 27.824219 45.761719 28.066406 45.398438 28.136719 C 45.039062 28.207031 44.742188 28.199219 44.625 28.148438 C 44.507812 28.101562 44.230469 27.972656 44.230469 27.972656 Z M 44.316406 28.429688 C 44.316406 28.429688 44.902344 28.605469 44.933594 28.605469 C 44.960938 28.605469 45.460938 28.570312 45.503906 28.558594 C 45.542969 28.546875 45.847656 28.417969 45.847656 28.417969 L 45.601562 28.617188 L 45.113281 28.671875 L 44.730469 28.636719 L 44.480469 28.527344 Z M 44.242188 28.574219 C 44.46875 28.730469 44.753906 28.917969 45.09375 28.910156 C 45.226562 28.90625 45.464844 28.878906 45.566406 28.796875 C 45.644531 28.738281 45.828125 28.613281 45.828125 28.613281 C 45.144531 28.9375 44.9375 28.804688 44.242188 28.574219 Z M 45.054688 27.71875 C 45.085938 27.71875 45.109375 27.738281 45.109375 27.761719 C 45.109375 27.785156 45.085938 27.804688 45.054688 27.804688 C 45.023438 27.804688 45 27.785156 45 27.761719 C 45 27.738281 45.027344 27.71875 45.054688 27.71875 Z M 45.203125 27.535156 C 45.234375 27.535156 45.261719 27.5625 45.261719 27.601562 C 45.261719 27.636719 45.234375 27.664062 45.203125 27.664062 C 45.175781 27.664062 45.148438 27.636719 45.148438 27.601562 C 45.148438 27.5625 45.171875 27.535156 45.203125 27.535156 Z M 45.296875 27.347656 C 45.335938 27.347656 45.367188 27.375 45.367188 27.410156 C 45.367188 27.445312 45.335938 27.472656 45.296875 27.472656 C 45.261719 27.472656 45.230469 27.445312 45.230469 27.410156 C 45.230469 27.375 45.261719 27.347656 45.296875 27.347656 Z M 45.085938 27.300781 C 45.132812 27.300781 45.171875 27.328125 45.171875 27.367188 C 45.171875 27.402344 45.132812 27.433594 45.085938 27.433594 C 45.035156 27.433594 44.996094 27.402344 44.996094 27.367188 C 44.996094 27.332031 45.035156 27.300781 45.085938 27.300781 Z M 44.921875 27.410156 C 44.957031 27.410156 44.980469 27.4375 44.980469 27.46875 C 44.980469 27.503906 44.957031 27.53125 44.921875 27.53125 C 44.890625 27.53125 44.867188 27.503906 44.867188 27.46875 C 44.867188 27.4375 44.890625 27.410156 44.921875 27.410156 Z M 44.796875 27.601562 C 44.8125 27.601562 44.828125 27.613281 44.828125 27.628906 C 44.828125 27.644531 44.8125 27.65625 44.796875 27.65625 C 44.777344 27.65625 44.761719 27.644531 44.761719 27.628906 C 44.761719 27.613281 44.777344 27.601562 44.796875 27.601562 Z M 44.621094 27.511719 C 44.652344 27.511719 44.671875 27.539062 44.671875 27.570312 C 44.671875 27.601562 44.652344 27.628906 44.621094 27.628906 C 44.59375 27.628906 44.570312 27.601562 44.570312 27.570312 C 44.570312 27.539062 44.59375 27.511719 44.621094 27.511719 Z M 44.675781 27.402344 C 44.710938 27.402344 44.738281 27.421875 44.738281 27.445312 C 44.738281 27.464844 44.710938 27.484375 44.675781 27.484375 C 44.644531 27.484375 44.613281 27.464844 44.613281 27.445312 C 44.613281 27.421875 44.644531 27.402344 44.675781 27.402344 Z M 44.441406 27.503906 C 44.472656 27.503906 44.496094 27.53125 44.496094 27.566406 C 44.496094 27.597656 44.472656 27.625 44.441406 27.625 C 44.414062 27.625 44.390625 27.597656 44.390625 27.566406 C 44.390625 27.53125 44.414062 27.503906 44.441406 27.503906 Z M 45.421875 27.589844 C 45.453125 27.589844 45.476562 27.613281 45.476562 27.640625 C 45.476562 27.667969 45.453125 27.691406 45.421875 27.691406 C 45.390625 27.691406 45.367188 27.667969 45.367188 27.640625 C 45.367188 27.613281 45.390625 27.589844 45.421875 27.589844 Z M 45.054688 27.140625 C 45.570312 27.140625 45.988281 27.371094 45.988281 27.65625 C 45.988281 27.675781 45.988281 27.695312 45.980469 27.710938 C 46.046875 27.738281 46.167969 27.804688 46.167969 27.910156 C 46.167969 28.058594 46.152344 28.167969 46.128906 28.171875 C 46.101562 28.175781 45.984375 28.117188 45.984375 28.117188 C 45.984375 28.117188 45.972656 28.167969 45.972656 28.253906 L 45.972656 28.59375 C 45.746094 29.097656 44.644531 29.191406 44.179688 28.65625 C 44.152344 28.621094 44.160156 28.292969 44.160156 28.292969 C 44.160156 28.292969 43.964844 28.285156 43.976562 28.222656 C 43.988281 28.160156 44.046875 28.089844 44.050781 28.0625 C 44.054688 28.039062 43.960938 27.925781 43.980469 27.90625 C 44 27.886719 44.136719 27.871094 44.136719 27.871094 L 44.21875 27.890625 C 44.15625 27.820312 44.121094 27.738281 44.121094 27.65625 C 44.121094 27.371094 44.539062 27.140625 45.054688 27.140625 Z M 47.171875 24.917969 C 47.175781 24.816406 47.300781 24.796875 47.425781 24.820312 C 47.3125 24.757812 47.234375 24.652344 47.296875 24.574219 C 47.40625 24.441406 47.652344 24.71875 47.671875 24.875 C 47.644531 24.878906 47.617188 24.878906 47.589844 24.878906 C 47.613281 24.890625 47.636719 24.90625 47.652344 24.925781 C 47.527344 25.066406 47.171875 25.089844 47.171875 24.917969 Z M 48.152344 25.472656 C 48.035156 25.5625 47.890625 25.617188 47.734375 25.617188 C 47.351562 25.617188 47.042969 25.296875 47.042969 24.902344 C 47.042969 24.667969 47.152344 24.460938 47.324219 24.332031 L 47.367188 24.398438 C 47.21875 24.511719 47.121094 24.695312 47.121094 24.902344 C 47.121094 25.253906 47.394531 25.535156 47.734375 25.535156 C 47.875 25.535156 48.003906 25.488281 48.105469 25.40625 Z M 47.980469 25.457031 C 47.890625 25.507812 47.800781 25.390625 47.761719 25.257812 C 47.742188 25.390625 47.667969 25.507812 47.570312 25.476562 C 47.484375 25.445312 47.492188 25.34375 47.539062 25.242188 C 47.445312 25.316406 47.339844 25.34375 47.289062 25.265625 C 47.195312 25.121094 47.539062 24.972656 47.691406 25.003906 C 47.691406 25.019531 47.6875 25.035156 47.679688 25.050781 C 47.695312 25.039062 47.710938 25.03125 47.726562 25.023438 C 47.730469 25.03125 47.734375 25.042969 47.738281 25.054688 C 47.742188 25.046875 47.742188 25.042969 47.742188 25.039062 C 47.933594 25.074219 48.132812 25.371094 47.980469 25.457031 Z M 52.515625 29.21875 C 52.558594 29.578125 51.761719 30.207031 51.453125 30.179688 C 51.4375 30.066406 51.484375 29.914062 51.566406 29.753906 L 51.636719 29.828125 C 51.660156 29.851562 51.699219 29.851562 51.722656 29.828125 C 51.746094 29.808594 51.75 29.769531 51.726562 29.746094 L 51.628906 29.644531 C 51.664062 29.589844 51.703125 29.53125 51.746094 29.480469 L 51.90625 29.644531 C 51.929688 29.667969 51.96875 29.671875 51.992188 29.648438 C 52.015625 29.625 52.015625 29.585938 51.992188 29.5625 L 51.820312 29.386719 C 51.871094 29.328125 51.925781 29.273438 51.980469 29.226562 L 52.105469 29.355469 C 52.128906 29.378906 52.167969 29.378906 52.191406 29.355469 C 52.214844 29.332031 52.214844 29.296875 52.191406 29.269531 L 52.074219 29.148438 C 52.164062 29.085938 52.25 29.046875 52.324219 29.046875 L 52.363281 28.730469 L 52.4375 28.730469 L 52.453125 28.957031 L 52.707031 28.691406 L 52.773438 28.761719 L 52.550781 29.019531 L 52.945312 28.921875 L 52.949219 29.03125 Z M 28.136719 28.855469 C 28.136719 28.855469 28.703125 28.046875 29.203125 28.691406 C 28.90625 28.738281 28.59375 28.878906 28.660156 29.210938 C 28.84375 28.878906 29.097656 28.851562 29.277344 28.886719 C 29.457031 28.925781 29.402344 28.648438 29.402344 28.648438 C 29.402344 28.648438 29.503906 28.507812 29.585938 28.644531 C 29.667969 28.777344 29.699219 28.757812 29.734375 28.796875 C 29.769531 28.839844 29.777344 28.882812 29.742188 28.925781 C 29.703125 28.96875 29.480469 28.914062 29.464844 28.992188 C 29.421875 29.195312 29.289062 29.335938 29.253906 29.390625 L 28.242188 29.394531 C 28.242188 29.394531 28.007812 29.128906 27.902344 29.003906 C 27.875 28.972656 27.761719 28.71875 28.03125 28.738281 Z M 28.136719 28.855469 "/>
<path style=" stroke:none;fill-rule:evenodd;fill:rgb(100%,100%,100%);fill-opacity:1;" d="M 52.394531 39.078125 C 52.394531 40.042969 52.734375 40.886719 53.503906 41.488281 C 53.917969 41.808594 54.398438 41.945312 54.914062 41.945312 C 56.011719 41.945312 56.796875 41.40625 57.269531 40.417969 C 57.464844 40.011719 57.546875 39.578125 57.546875 39.125 L 57.546875 38.960938 C 57.546875 37.996094 57.179688 37.164062 56.375 36.605469 C 55.957031 36.316406 55.484375 36.1875 54.980469 36.1875 C 54.242188 36.1875 53.628906 36.472656 53.140625 37.027344 C 52.628906 37.609375 52.394531 38.304688 52.394531 39.078125 M 18.214844 39.136719 C 18.214844 40.152344 18.589844 41.035156 19.453125 41.609375 C 19.859375 41.882812 20.316406 42.003906 20.804688 42.003906 C 21.519531 42.003906 22.125 41.707031 22.59375 41.167969 C 23.078125 40.617188 23.390625 39.953125 23.390625 39.207031 L 23.390625 39.019531 C 23.390625 38.054688 22.96875 37.257812 22.191406 36.683594 C 21.796875 36.390625 21.339844 36.246094 20.847656 36.246094 C 19.992188 36.246094 19.292969 36.601562 18.796875 37.304688 C 18.410156 37.851562 18.214844 38.46875 18.214844 39.136719 Z M 63.21875 36.613281 C 63.046875 36.238281 62.777344 36.039062 62.359375 36.039062 C 61.859375 36.039062 61.613281 36.382812 61.480469 36.824219 L 61.480469 37.035156 C 61.480469 37.675781 62.21875 37.957031 62.730469 38.105469 C 63.394531 38.296875 64.09375 38.632812 64.480469 39.230469 C 64.757812 39.65625 64.828125 40.207031 64.828125 40.707031 C 64.828125 41.613281 64.402344 42.335938 63.617188 42.796875 C 63.199219 43.039062 62.726562 43.128906 62.246094 43.128906 C 60.890625 43.128906 59.910156 42.316406 59.796875 40.9375 L 59.746094 40.304688 L 59.929688 40.113281 L 60.878906 40.113281 C 61.050781 40.113281 61.105469 40.28125 61.132812 40.417969 C 61.167969 40.566406 61.1875 40.726562 61.203125 40.878906 C 61.382812 41.414062 61.695312 41.796875 62.292969 41.796875 C 62.859375 41.796875 63.179688 41.496094 63.355469 40.976562 L 63.375 40.792969 L 63.375 40.636719 C 63.375 39.960938 62.777344 39.632812 62.207031 39.445312 C 61.5625 39.230469 60.699219 38.867188 60.347656 38.242188 C 60.136719 37.863281 60.074219 37.414062 60.074219 36.988281 C 60.074219 36.207031 60.4375 35.5625 61.0625 35.101562 C 61.46875 34.800781 61.976562 34.707031 62.476562 34.707031 L 62.519531 34.707031 C 63.691406 34.707031 64.398438 35.347656 64.6875 36.464844 L 64.691406 36.480469 L 64.714844 36.886719 L 64.714844 37.015625 L 64.539062 37.199219 L 63.542969 37.199219 C 63.285156 37.199219 63.242188 36.816406 63.21875 36.613281 Z M 55.027344 34.859375 C 56.566406 34.859375 57.707031 35.652344 58.429688 36.996094 C 58.769531 37.625 58.957031 38.3125 58.957031 39.03125 C 58.957031 40.460938 58.386719 41.675781 57.238281 42.550781 C 56.558594 43.066406 55.757812 43.277344 54.914062 43.277344 C 53.792969 43.277344 52.804688 42.871094 52.078125 42 C 51.371094 41.148438 50.988281 40.140625 50.988281 39.03125 C 50.988281 37.679688 51.566406 36.542969 52.605469 35.683594 C 53.300781 35.105469 54.132812 34.859375 55.027344 34.859375 Z M 48.59375 39.003906 L 43.925781 39.003906 L 43.746094 38.820312 L 43.746094 37.878906 L 43.90625 37.722656 L 49.953125 37.722656 C 50.101562 37.722656 50.191406 37.839844 50.191406 37.984375 C 50.191406 39.03125 49.855469 40.019531 49.269531 40.890625 C 48.265625 42.378906 46.792969 43.128906 45.007812 43.128906 C 43.726562 43.128906 42.546875 42.75 41.613281 41.84375 C 40.488281 40.742188 39.894531 39.363281 39.894531 37.792969 L 39.894531 37.578125 C 39.894531 35.8125 40.617188 34.316406 42.046875 33.253906 C 42.96875 32.5625 44.074219 32.3125 45.214844 32.3125 C 47.195312 32.3125 48.621094 33.296875 49.59375 34.992188 L 49.613281 35.023438 L 49.65625 35.269531 L 49.488281 35.445312 L 48.382812 35.445312 C 48.246094 35.445312 48.140625 35.332031 48.058594 35.238281 C 47.9375 35.109375 47.824219 34.96875 47.710938 34.832031 C 47.039062 34.046875 46.140625 33.691406 45.125 33.691406 C 44.082031 33.691406 43.160156 34.050781 42.4375 34.816406 C 41.679688 35.617188 41.28125 36.59375 41.28125 37.695312 C 41.28125 38.96875 41.765625 40.066406 42.722656 40.917969 C 43.394531 41.519531 44.210938 41.773438 45.101562 41.773438 C 46.257812 41.773438 47.1875 41.203125 47.914062 40.324219 C 48.238281 39.933594 48.457031 39.488281 48.59375 39.003906 Z M 38.019531 35.160156 L 38.945312 35.160156 L 39.097656 35.320312 L 39.097656 42.96875 L 38.945312 43.128906 L 37.984375 43.128906 L 37.953125 43.117188 C 37.8125 43.066406 37.757812 42.933594 37.757812 42.796875 L 37.757812 35.492188 C 37.757812 35.335938 37.835938 35.160156 38.019531 35.160156 Z M 38.019531 32.671875 L 38.945312 32.671875 L 39.097656 32.832031 L 39.097656 34.476562 L 38.945312 34.640625 L 37.984375 34.640625 L 37.953125 34.628906 C 37.8125 34.578125 37.757812 34.445312 37.757812 34.304688 L 37.757812 33.003906 C 37.757812 32.847656 37.835938 32.671875 38.019531 32.671875 Z M 31.351562 36.175781 C 32.054688 35.433594 32.917969 34.992188 33.96875 34.992188 L 33.992188 34.992188 C 35.628906 34.992188 36.804688 35.964844 36.914062 37.636719 L 36.960938 38.308594 L 36.960938 42.945312 L 36.785156 43.128906 L 35.800781 43.128906 L 35.621094 42.945312 L 35.621094 38.21875 C 35.621094 37.4375 35.3125 36.851562 34.625 36.476562 C 34.371094 36.398438 34.074219 36.324219 33.808594 36.324219 C 32.699219 36.324219 31.96875 36.960938 31.90625 38.089844 L 31.882812 38.484375 L 31.882812 42.941406 L 31.703125 43.128906 L 30.765625 43.128906 L 30.589844 42.941406 L 30.589844 38.148438 C 30.589844 37.433594 30.292969 36.898438 29.695312 36.519531 C 29.390625 36.414062 29.050781 36.324219 28.726562 36.324219 C 27.710938 36.324219 27.1875 36.925781 26.933594 37.867188 C 26.859375 38.132812 26.847656 38.464844 26.847656 38.738281 L 26.847656 42.96875 L 26.691406 43.128906 L 25.734375 43.128906 L 25.703125 43.117188 C 25.5625 43.066406 25.507812 42.933594 25.507812 42.796875 L 25.507812 35.539062 C 25.507812 35.382812 25.585938 35.203125 25.765625 35.203125 L 26.695312 35.203125 L 26.847656 35.371094 L 26.847656 35.746094 C 27.4375 35.261719 28.121094 34.992188 28.910156 34.992188 C 29.839844 34.992188 30.621094 35.433594 31.277344 36.066406 L 31.296875 36.082031 Z M 23.390625 35.957031 L 23.390625 35.894531 L 23.367188 35.410156 L 23.378906 35.371094 C 23.421875 35.261719 23.492188 35.152344 23.628906 35.152344 L 24.554688 35.152344 L 24.707031 35.3125 L 24.707031 42.960938 L 24.554688 43.125 L 23.546875 43.125 L 23.363281 42.933594 L 23.390625 42.382812 L 23.390625 42.300781 C 22.660156 42.996094 21.761719 43.335938 20.710938 43.335938 C 19.539062 43.335938 18.523438 42.902344 17.800781 41.957031 C 17.1875 41.152344 16.808594 40.207031 16.808594 39.183594 C 16.808594 37.75 17.371094 36.523438 18.523438 35.644531 C 19.203125 35.125 20.003906 34.914062 20.847656 34.914062 L 20.871094 34.914062 C 21.855469 34.914062 22.6875 35.324219 23.390625 35.957031 Z M 23.390625 35.957031 "/>
<path style=" stroke:none;fill-rule:nonzero;fill:rgb(100%,100%,100%);fill-opacity:1;" d="M 27.761719 44.503906 L 28.054688 44.503906 L 28.070312 44.523438 L 28.070312 46.554688 L 28.085938 46.570312 C 28.617188 45.863281 28.925781 45.464844 29 45.375 L 29.34375 45.375 L 29.359375 45.394531 L 29.359375 45.402344 L 28.46875 46.597656 C 28.46875 46.617188 28.507812 46.675781 28.585938 46.769531 L 29.558594 48.007812 L 29.558594 48.015625 L 29.542969 48.03125 L 29.183594 48.03125 C 29.148438 48.03125 29.066406 47.9375 28.9375 47.75 L 28.085938 46.6875 L 28.070312 46.703125 L 28.070312 48.015625 L 28.054688 48.03125 L 27.761719 48.03125 C 27.742188 48.027344 27.734375 48.007812 27.734375 47.980469 L 27.734375 44.558594 C 27.738281 44.523438 27.746094 44.503906 27.761719 44.503906 Z M 27.761719 44.503906 "/>
<path style=" stroke:none;fill-rule:nonzero;fill:rgb(100%,100%,100%);fill-opacity:1;" d="M 31.695312 44.503906 L 31.988281 44.503906 L 32.003906 44.523438 L 32.003906 45.042969 L 31.988281 45.0625 L 31.695312 45.0625 C 31.679688 45.054688 31.671875 45.039062 31.671875 45.011719 L 31.671875 44.554688 C 31.675781 44.523438 31.683594 44.503906 31.695312 44.503906 Z M 31.695312 45.375 L 31.988281 45.375 L 32.003906 45.394531 L 32.003906 48.011719 L 31.988281 48.03125 L 31.695312 48.03125 C 31.679688 48.023438 31.671875 48.007812 31.671875 47.980469 L 31.671875 45.425781 C 31.675781 45.394531 31.683594 45.375 31.695312 45.375 Z M 31.695312 45.375 "/>
<path style=" stroke:none;fill-rule:nonzero;fill:rgb(100%,100%,100%);fill-opacity:1;" d="M 34.617188 44.503906 L 34.921875 44.503906 L 34.9375 44.523438 L 34.9375 45.367188 L 34.976562 45.375 L 35.40625 45.375 L 35.421875 45.394531 L 35.421875 45.707031 L 35.398438 45.734375 L 34.953125 45.734375 L 34.9375 45.75 L 34.9375 48.003906 L 34.914062 48.03125 L 34.625 48.03125 L 34.601562 48.003906 L 34.601562 45.75 L 34.585938 45.734375 L 34.132812 45.734375 L 34.117188 45.714844 L 34.117188 45.394531 L 34.132812 45.375 L 34.5625 45.375 L 34.601562 45.367188 L 34.601562 44.523438 Z M 34.617188 44.503906 "/>
<path style=" stroke:none;fill-rule:nonzero;fill:rgb(100%,100%,100%);fill-opacity:1;" d="M 38.878906 45.28125 L 38.886719 45.28125 C 39.34375 45.28125 39.707031 45.5 39.976562 45.929688 C 40.046875 46.054688 40.082031 46.132812 40.082031 46.164062 L 40.058594 46.179688 L 39.757812 46.179688 C 39.722656 46.179688 39.683594 46.132812 39.636719 46.039062 C 39.429688 45.757812 39.171875 45.613281 38.863281 45.613281 C 38.425781 45.613281 38.117188 45.855469 37.941406 46.335938 C 37.910156 46.457031 37.894531 46.570312 37.894531 46.675781 C 37.894531 47.058594 38.046875 47.371094 38.355469 47.621094 C 38.535156 47.714844 38.703125 47.761719 38.847656 47.761719 C 39.195312 47.761719 39.464844 47.601562 39.660156 47.28125 C 39.691406 47.210938 39.714844 47.175781 39.726562 47.175781 L 40.066406 47.175781 C 40.078125 47.175781 40.082031 47.183594 40.082031 47.199219 C 40.042969 47.355469 39.941406 47.527344 39.78125 47.714844 C 39.53125 47.96875 39.226562 48.09375 38.863281 48.09375 C 38.34375 48.09375 37.949219 47.835938 37.679688 47.316406 C 37.582031 47.089844 37.535156 46.875 37.535156 46.667969 C 37.535156 46.234375 37.722656 45.859375 38.101562 45.539062 C 38.335938 45.367188 38.597656 45.28125 38.878906 45.28125 Z M 38.878906 45.28125 "/>
<path style=" stroke:none;fill-rule:nonzero;fill:rgb(100%,100%,100%);fill-opacity:1;" d="M 42.21875 44.503906 L 42.511719 44.503906 L 42.527344 44.523438 L 42.527344 45.640625 L 42.542969 45.660156 C 42.726562 45.433594 42.980469 45.320312 43.308594 45.320312 L 43.332031 45.320312 C 43.808594 45.320312 44.125 45.542969 44.289062 46 C 44.324219 46.132812 44.34375 46.253906 44.34375 46.363281 L 44.34375 48.003906 L 44.320312 48.03125 L 44.03125 48.03125 L 44.007812 48.003906 L 44.007812 46.371094 C 44.007812 46.0625 43.875 45.839844 43.609375 45.707031 C 43.488281 45.671875 43.382812 45.652344 43.300781 45.652344 C 42.914062 45.652344 42.671875 45.839844 42.566406 46.214844 C 42.539062 46.308594 42.527344 46.410156 42.527344 46.53125 L 42.527344 48.015625 L 42.511719 48.03125 L 42.21875 48.03125 C 42.199219 48.027344 42.191406 48.007812 42.191406 47.980469 L 42.191406 44.558594 C 42.199219 44.523438 42.207031 44.503906 42.21875 44.503906 Z M 42.21875 44.503906 "/>
<path style=" stroke:none;fill-rule:nonzero;fill:rgb(100%,100%,100%);fill-opacity:1;" d="M 47.832031 45.300781 C 48.378906 45.300781 48.769531 45.597656 49.011719 46.1875 C 49.074219 46.402344 49.105469 46.601562 49.105469 46.792969 L 49.082031 46.808594 L 46.828125 46.808594 C 46.820312 46.808594 46.8125 46.816406 46.8125 46.835938 C 46.8125 47.074219 46.929688 47.316406 47.164062 47.554688 C 47.347656 47.707031 47.546875 47.78125 47.769531 47.78125 C 48.15625 47.78125 48.449219 47.585938 48.644531 47.191406 L 48.996094 47.191406 L 49.011719 47.207031 L 49.011719 47.214844 C 48.882812 47.570312 48.652344 47.828125 48.320312 47.996094 C 48.148438 48.074219 47.972656 48.109375 47.785156 48.109375 C 47.332031 48.109375 46.964844 47.902344 46.679688 47.480469 C 46.53125 47.226562 46.457031 46.953125 46.457031 46.660156 C 46.457031 46.226562 46.636719 45.855469 46.996094 45.539062 C 47.242188 45.378906 47.519531 45.300781 47.832031 45.300781 Z M 46.828125 46.503906 L 46.835938 46.511719 L 48.707031 46.511719 L 48.726562 46.492188 C 48.710938 46.339844 48.628906 46.160156 48.476562 45.945312 C 48.296875 45.730469 48.0625 45.625 47.777344 45.625 C 47.339844 45.625 47.035156 45.847656 46.871094 46.304688 C 46.84375 46.378906 46.828125 46.445312 46.828125 46.503906 Z M 46.828125 46.503906 "/>
<path style=" stroke:none;fill-rule:nonzero;fill:rgb(100%,100%,100%);fill-opacity:1;" d="M 52.363281 45.320312 L 52.378906 45.320312 C 52.835938 45.320312 53.152344 45.550781 53.320312 46.015625 C 53.351562 46.136719 53.367188 46.25 53.367188 46.355469 L 53.367188 48.003906 L 53.34375 48.03125 L 53.058594 48.03125 L 53.035156 48.003906 L 53.035156 46.371094 C 53.035156 46.101562 52.925781 45.890625 52.714844 45.742188 C 52.578125 45.679688 52.453125 45.652344 52.332031 45.652344 C 51.929688 45.652344 51.675781 45.855469 51.578125 46.265625 C 51.5625 46.347656 51.554688 46.445312 51.554688 46.5625 L 51.554688 48.011719 L 51.535156 48.03125 L 51.242188 48.03125 C 51.226562 48.023438 51.21875 48.007812 51.21875 47.980469 L 51.21875 45.441406 C 51.222656 45.410156 51.230469 45.394531 51.242188 45.394531 L 51.535156 45.394531 L 51.554688 45.410156 L 51.554688 45.632812 L 51.570312 45.652344 C 51.796875 45.429688 52.0625 45.320312 52.363281 45.320312 Z M 52.363281 45.320312 "/>
</g>
</svg>
