<?xml version="1.0" encoding="UTF-8"?>
<svg xmlns="http://www.w3.org/2000/svg" xmlns:xlink="http://www.w3.org/1999/xlink" width="154pt" height="57pt" viewBox="0 0 154 57" version="1.1">
<g id="surface1">
<path style=" stroke:none;fill-rule:evenodd;fill:rgb(94.901961%,40.392157%,12.941176%);fill-opacity:1;" d="M 22.109375 1.871094 C 19.578125 2.109375 17.027344 3.335938 16.304688 5.160156 C 16.078125 5.734375 16.332031 6.15625 16.539062 6.972656 C 16.726562 7.5 17.136719 7.917969 17.65625 8.113281 C 18.871094 8.671875 20.21875 8.882812 21.546875 8.714844 C 24.0625 8.472656 26.636719 7.203125 27.308594 5.390625 C 27.699219 4.226562 27.117188 2.957031 25.980469 2.503906 C 24.773438 1.9375 23.433594 1.71875 22.109375 1.875 M 14.816406 5.777344 C 13 6.445312 11.273438 7.34375 9.679688 8.445312 C 8.726562 9.097656 7.820312 9.816406 6.964844 10.589844 C 5.082031 12.335938 3.484375 14.375 2.238281 16.621094 C 1.234375 18.375 0.476562 20.261719 -0.00390625 22.226562 L 1.207031 22.242188 C 1.714844 20.5 2.445312 18.832031 3.378906 17.277344 C 4.273438 15.824219 5.335938 14.480469 6.550781 13.277344 C 7.53125 12.328125 7.546875 12.355469 8.429688 11.574219 C 9.78125 10.484375 11.238281 9.542969 12.785156 8.761719 C 13.601562 8.335938 14.457031 7.976562 15.335938 7.691406 C 15.738281 8.292969 16.296875 8.769531 16.953125 9.070312 C 19.363281 10.0625 22.050781 10.136719 24.515625 9.28125 C 25.9375 8.855469 27.257812 8.132812 28.386719 7.164062 C 29.429688 6.164062 30.585938 4.761719 30.089844 3.042969 C 29.527344 1.632812 28.28125 0.613281 26.792969 0.351562 C 23.15625 -0.621094 17.964844 0.761719 15.746094 3.65625 C 15.257812 4.269531 14.9375 5 14.816406 5.777344 Z M 14.816406 5.777344 "/>
<path style=" stroke:none;fill-rule:evenodd;fill:rgb(94.901961%,40.392157%,12.941176%);fill-opacity:1;" d="M 41.449219 35.707031 L 36.8125 35.707031 C 36.601562 35.96875 36.457031 36.191406 36.230469 36.46875 C 35.734375 37.066406 35.164062 37.585938 34.617188 38.144531 C 33.578125 39.132812 32.417969 39.988281 31.167969 40.683594 C 29.941406 41.34375 28.621094 41.8125 27.25 42.066406 C 23.253906 42.792969 19.136719 41.828125 15.871094 39.398438 C 15.613281 39.21875 15.367188 39.023438 15.136719 38.8125 L 14.453125 38.167969 C 14.21875 37.9375 14.046875 37.75 13.792969 37.503906 C 13.496094 37.214844 12.8125 36.382812 12.570312 36.070312 C 12.25 35.65625 12.28125 35.679688 11.640625 35.683594 C 10.503906 35.683594 8.664062 35.628906 7.695312 35.691406 C 7.949219 36.496094 8.3125 37.265625 8.773438 37.972656 C 9.199219 38.675781 9.6875 39.339844 10.226562 39.957031 C 10.515625 40.277344 10.761719 40.5625 11.046875 40.855469 C 17.269531 47.15625 27.925781 48 35.128906 43.1875 C 37.1875 41.84375 38.9375 40.082031 40.265625 38.007812 C 40.75 37.289062 41.144531 36.519531 41.449219 35.707031 "/>
<path style=" stroke:none;fill-rule:evenodd;fill:rgb(94.901961%,40.392157%,12.941176%);fill-opacity:1;" d="M 7.738281 22.015625 C 9.097656 22.015625 10.753906 22.046875 12.085938 22.015625 C 12.417969 22.007812 12.445312 21.835938 12.847656 21.324219 C 13.722656 20.242188 14.714844 19.253906 15.796875 18.382812 C 19.738281 15.40625 24.90625 14.621094 29.546875 16.292969 C 31.546875 17.078125 33.359375 18.269531 34.875 19.800781 C 35.382812 20.277344 35.859375 20.785156 36.300781 21.328125 C 36.429688 21.480469 36.515625 21.585938 36.621094 21.742188 C 36.769531 21.957031 36.726562 22.019531 37.046875 22.023438 C 37.964844 22.035156 40.835938 22.0625 41.421875 22.011719 C 41.140625 21.230469 40.769531 20.488281 40.308594 19.796875 C 37.191406 14.644531 30.898438 11.464844 24.609375 11.464844 C 19.996094 11.398438 15.515625 13.011719 11.996094 16.007812 C 11.375 16.53125 10.800781 17.109375 10.28125 17.730469 C 9.734375 18.34375 9.246094 19.007812 8.820312 19.707031 C 8.34375 20.421875 7.976562 21.199219 7.726562 22.019531 "/>
<path style=" stroke:none;fill-rule:evenodd;fill:rgb(94.901961%,40.392157%,12.941176%);fill-opacity:1;" d="M 16.410156 37.292969 C 16.433594 37.226562 16.523438 37.246094 16.601562 37.292969 C 16.542969 37.21875 16.515625 37.128906 16.582031 37.09375 C 16.6875 37.035156 16.777344 37.285156 16.75 37.394531 C 16.730469 37.390625 16.710938 37.382812 16.695312 37.371094 C 16.707031 37.386719 16.71875 37.402344 16.722656 37.421875 C 16.601562 37.484375 16.363281 37.40625 16.40625 37.292969 M 16.90625 37.917969 C 16.804688 37.949219 16.691406 37.945312 16.589844 37.902344 C 16.332031 37.796875 16.210938 37.503906 16.316406 37.25 C 16.375 37.097656 16.5 36.984375 16.652344 36.941406 L 16.664062 36.996094 C 16.527344 37.035156 16.417969 37.136719 16.367188 37.269531 C 16.273438 37.496094 16.382812 37.757812 16.609375 37.851562 C 16.699219 37.886719 16.796875 37.890625 16.890625 37.863281 Z M 20.285156 36.316406 C 20.375 36.316406 20.457031 36.378906 20.480469 36.46875 L 19.859375 36.976562 C 19.796875 36.949219 19.75 36.890625 19.738281 36.824219 C 19.726562 36.753906 19.75 36.683594 19.800781 36.636719 C 19.777344 36.601562 19.765625 36.5625 19.765625 36.523438 C 19.765625 36.4375 19.820312 36.359375 19.902344 36.332031 C 19.980469 36.300781 20.070312 36.324219 20.128906 36.390625 C 20.167969 36.34375 20.226562 36.316406 20.289062 36.320312 Z M 20.113281 36.882812 L 20.5 36.566406 L 20.957031 37.710938 L 20.660156 37.519531 L 20.765625 37.511719 L 20.765625 37.4375 L 20.546875 37.445312 L 20.4375 37.371094 L 20.660156 37.382812 L 20.660156 37.3125 L 20.351562 37.3125 L 20.246094 37.230469 L 20.546875 37.230469 L 20.558594 37.171875 L 20.125 37.164062 L 20.035156 37.089844 L 20.425781 37.113281 L 20.433594 37.058594 L 19.96875 37.019531 L 20.046875 36.953125 L 20.332031 36.992188 L 20.355469 36.929688 Z M 20.785156 40.214844 C 20.785156 40.214844 20.726562 40.105469 20.804688 40.0625 C 20.824219 40.050781 20.839844 40.035156 20.855469 40.015625 C 20.832031 39.972656 20.800781 39.9375 20.757812 39.910156 C 20.757812 39.910156 20.660156 39.808594 20.765625 39.859375 C 20.816406 39.882812 20.855469 39.925781 20.878906 39.976562 C 20.933594 39.964844 20.984375 39.984375 21.015625 40.03125 C 21.164062 40.332031 21.203125 40.449219 21.300781 40.53125 C 21.398438 40.609375 21.546875 40.648438 21.933594 40.632812 C 21.710938 40.738281 21.457031 40.769531 21.210938 40.71875 C 20.839844 40.546875 20.832031 40.304688 20.832031 40.304688 C 20.851562 40.28125 20.867188 40.253906 20.875 40.226562 C 20.886719 40.203125 20.886719 40.175781 20.882812 40.152344 C 20.882812 40.152344 20.808594 40.304688 20.789062 40.210938 Z M 22.097656 40.144531 C 22.097656 40.144531 22.210938 40.078125 22.203125 40.015625 C 22.195312 39.957031 22.171875 39.933594 22.175781 39.910156 C 22.222656 39.894531 22.273438 39.894531 22.320312 39.902344 C 22.320312 39.902344 22.429688 39.894531 22.351562 39.859375 C 22.300781 39.835938 22.242188 39.835938 22.191406 39.859375 C 22.136719 39.824219 22.070312 39.8125 22.007812 39.828125 C 21.933594 39.851562 21.777344 40.128906 21.472656 40.085938 C 21.253906 40.027344 21.0625 39.894531 20.925781 39.710938 C 21.007812 39.949219 21.160156 40.152344 21.367188 40.292969 C 21.585938 40.382812 21.835938 40.351562 22.027344 40.210938 C 22.003906 40.140625 21.980469 40.027344 22.0625 39.980469 C 22.0625 39.988281 22.023438 40.199219 22.101562 40.148438 Z M 23.921875 37.785156 L 24.050781 37.875 L 24.148438 37.597656 Z M 24.363281 37.648438 L 24.488281 37.699219 L 24.390625 37.914062 L 24.230469 37.875 Z M 24.671875 37.738281 L 24.542969 37.914062 L 24.703125 37.957031 L 24.808594 37.773438 Z M 24.957031 37.761719 L 24.902344 37.929688 L 25.164062 37.792969 Z M 24.726562 37.457031 C 24.855469 37.207031 24.609375 37.316406 24.707031 37.019531 C 24.484375 37.222656 24.738281 37.269531 24.734375 37.453125 Z M 24.867188 37.402344 C 25.066406 36.972656 24.742188 37.152344 24.917969 36.820312 C 24.636719 37.082031 24.914062 37.082031 24.871094 37.398438 Z M 23.765625 37.746094 C 23.921875 37.503906 24.226562 37.414062 24.484375 37.53125 C 25.003906 37.6875 25.109375 37.648438 25.109375 37.648438 C 25.109375 37.648438 25.414062 37.667969 25.269531 38.050781 C 24.988281 38.34375 23.761719 38.234375 23.761719 38.023438 Z M 25.292969 40.472656 C 25.25 40.472656 25.195312 40.449219 25.242188 40.398438 C 25.351562 40.289062 25.507812 40.242188 25.65625 40.273438 C 25.675781 40.238281 25.710938 40.214844 25.75 40.203125 C 25.769531 40.203125 25.722656 40.292969 25.738281 40.292969 C 25.753906 40.296875 25.832031 40.210938 25.851562 40.21875 C 25.886719 40.234375 25.925781 40.253906 25.933594 40.277344 C 25.949219 40.328125 25.949219 40.382812 25.933594 40.433594 C 25.90625 40.472656 25.871094 40.503906 25.824219 40.515625 C 25.800781 40.515625 25.777344 40.503906 25.765625 40.480469 C 25.765625 40.480469 25.816406 40.402344 25.796875 40.398438 C 25.773438 40.394531 25.730469 40.386719 25.726562 40.402344 L 25.710938 40.519531 C 25.710938 40.519531 25.695312 40.523438 25.664062 40.492188 C 25.640625 40.449219 25.628906 40.402344 25.621094 40.355469 C 25.5 40.34375 25.382812 40.382812 25.296875 40.46875 Z M 25.84375 40.710938 C 25.804688 40.710938 25.75 40.691406 25.796875 40.636719 C 25.90625 40.527344 26.0625 40.480469 26.210938 40.511719 C 26.230469 40.480469 26.265625 40.453125 26.300781 40.445312 C 26.324219 40.445312 26.277344 40.53125 26.292969 40.535156 C 26.304688 40.535156 26.386719 40.449219 26.40625 40.457031 C 26.441406 40.472656 26.480469 40.496094 26.488281 40.519531 C 26.503906 40.570312 26.503906 40.625 26.488281 40.675781 C 26.460938 40.714844 26.425781 40.742188 26.378906 40.753906 C 26.355469 40.757812 26.332031 40.742188 26.320312 40.71875 C 26.320312 40.71875 26.371094 40.640625 26.351562 40.640625 C 26.328125 40.636719 26.285156 40.625 26.28125 40.644531 L 26.265625 40.761719 C 26.265625 40.761719 26.25 40.761719 26.21875 40.734375 C 26.195312 40.691406 26.179688 40.644531 26.175781 40.597656 C 26.054688 40.582031 25.9375 40.625 25.851562 40.710938 Z M 26.421875 40.1875 C 26.453125 40.214844 26.480469 40.277344 26.40625 40.285156 C 26.238281 40.285156 26.082031 40.199219 25.992188 40.0625 C 25.949219 40.074219 25.90625 40.066406 25.867188 40.042969 C 25.851562 40.03125 25.957031 39.996094 25.945312 39.984375 C 25.933594 39.96875 25.808594 39.976562 25.800781 39.957031 C 25.78125 39.925781 25.777344 39.886719 25.78125 39.847656 C 25.800781 39.8125 25.859375 39.742188 25.902344 39.730469 C 25.953125 39.71875 26.003906 39.726562 26.046875 39.753906 C 26.070312 39.769531 26.078125 39.800781 26.066406 39.824219 C 26.066406 39.824219 25.96875 39.847656 25.984375 39.863281 C 25.996094 39.882812 26.023438 39.925781 26.039062 39.914062 L 26.140625 39.835938 C 26.140625 39.835938 26.15625 39.84375 26.15625 39.890625 C 26.140625 39.941406 26.117188 39.988281 26.085938 40.03125 C 26.167969 40.128906 26.292969 40.1875 26.425781 40.183594 Z M 29.074219 37.671875 C 29.734375 37.515625 30.363281 38.140625 29.996094 38.613281 C 29.476562 39.292969 28.597656 37.785156 29.078125 37.667969 Z M 28.597656 37.535156 C 28.570312 37.5625 28.480469 37.664062 28.414062 37.664062 C 28.332031 37.660156 28.265625 37.59375 28.257812 37.511719 C 28.257812 37.4375 28.3125 37.371094 28.390625 37.359375 L 28.390625 37.335938 C 28.390625 37.25 28.460938 37.183594 28.546875 37.183594 C 28.632812 37.183594 28.667969 37.363281 28.667969 37.410156 C 28.667969 37.453125 28.929688 37.644531 28.894531 37.6875 C 28.839844 37.761719 28.578125 37.53125 28.601562 37.53125 Z M 29.277344 37.78125 L 29.609375 37.78125 L 29.480469 37.851562 L 29.734375 37.867188 L 29.636719 37.914062 L 29.851562 37.941406 L 29.753906 37.984375 L 29.953125 38.023438 L 29.519531 38.023438 L 29.550781 37.917969 L 29.355469 37.898438 L 29.425781 37.820312 L 29.230469 37.832031 Z M 28.59375 37.636719 C 28.554688 37.710938 28.476562 37.757812 28.394531 37.757812 C 28.277344 37.769531 28.171875 37.679688 28.160156 37.5625 C 28.152344 37.441406 28.238281 37.339844 28.355469 37.328125 C 28.355469 37.316406 28.355469 37.304688 28.355469 37.292969 C 28.363281 37.175781 28.460938 37.085938 28.578125 37.085938 C 28.695312 37.085938 28.789062 37.175781 28.796875 37.292969 C 28.796875 37.332031 28.785156 37.367188 28.765625 37.402344 C 28.855469 37.476562 28.953125 37.542969 29.058594 37.597656 C 29.820312 37.457031 30.515625 38.128906 30.09375 38.679688 C 29.667969 39.230469 28.855469 38.511719 28.859375 37.820312 C 28.800781 37.738281 28.71875 37.675781 28.625 37.636719 Z M 33.074219 37.605469 C 33.082031 37.613281 33.085938 37.625 33.085938 37.636719 C 33.085938 37.652344 33.082031 37.660156 33.074219 37.671875 L 32.945312 37.8125 C 32.929688 37.828125 32.902344 37.828125 32.882812 37.8125 C 32.84375 37.78125 32.835938 37.726562 32.863281 37.683594 L 32.9375 37.597656 C 32.980469 37.570312 33.035156 37.574219 33.074219 37.609375 Z M 32.925781 37.570312 L 32.835938 37.667969 C 32.753906 37.761719 32.699219 37.609375 32.746094 37.554688 L 32.792969 37.5 C 32.851562 37.421875 32.988281 37.5 32.925781 37.570312 Z M 32.835938 37.304688 C 32.859375 37.328125 32.859375 37.367188 32.835938 37.390625 L 32.660156 37.585938 C 32.636719 37.609375 32.597656 37.609375 32.574219 37.585938 C 32.523438 37.542969 32.511719 37.46875 32.550781 37.410156 L 32.652344 37.292969 C 32.703125 37.242188 32.796875 37.273438 32.835938 37.304688 Z M 32.636719 37.289062 L 32.546875 37.386719 C 32.464844 37.480469 32.410156 37.328125 32.457031 37.269531 L 32.5 37.214844 C 32.558594 37.144531 32.699219 37.21875 32.632812 37.289062 Z M 32.542969 37.023438 C 32.554688 37.035156 32.5625 37.050781 32.5625 37.066406 C 32.5625 37.082031 32.554688 37.097656 32.542969 37.109375 L 32.371094 37.304688 C 32.34375 37.328125 32.308594 37.328125 32.285156 37.304688 C 32.230469 37.261719 32.21875 37.183594 32.257812 37.128906 L 32.363281 37.011719 C 32.410156 36.960938 32.503906 36.992188 32.539062 37.023438 Z M 32.15625 36.777344 C 32.210938 36.777344 32.257812 36.804688 32.285156 36.855469 L 32.234375 36.871094 C 32.214844 36.84375 32.1875 36.832031 32.15625 36.832031 C 32.109375 36.84375 32.078125 36.886719 32.078125 36.933594 C 32.078125 36.980469 32.109375 37.023438 32.15625 37.035156 C 32.195312 37.035156 32.234375 37.011719 32.25 36.972656 L 32.300781 36.984375 C 32.296875 36.992188 32.292969 37 32.289062 37.007812 L 32.316406 37.035156 L 32.261719 37.09375 L 32.234375 37.066406 C 32.210938 37.082031 32.183594 37.089844 32.15625 37.089844 C 32.097656 37.09375 32.039062 37.066406 32.011719 37.015625 C 31.980469 36.964844 31.980469 36.902344 32.011719 36.851562 C 32.039062 36.800781 32.097656 36.773438 32.15625 36.777344 Z M 33.285156 37.160156 C 33.304688 37.175781 33.304688 37.203125 33.285156 37.222656 L 33.15625 37.363281 C 33.140625 37.382812 33.113281 37.382812 33.09375 37.363281 C 33.058594 37.332031 33.046875 37.277344 33.074219 37.238281 L 33.148438 37.152344 C 33.1875 37.113281 33.257812 37.132812 33.285156 37.160156 Z M 33.140625 37.121094 L 33.050781 37.222656 C 32.964844 37.3125 32.914062 37.164062 32.960938 37.105469 L 33.007812 37.050781 C 33.066406 36.976562 33.203125 37.050781 33.140625 37.125 Z M 33.050781 36.855469 C 33.070312 36.878906 33.070312 36.917969 33.050781 36.941406 L 32.875 37.136719 C 32.851562 37.160156 32.8125 37.160156 32.789062 37.136719 C 32.738281 37.09375 32.726562 37.019531 32.761719 36.964844 L 32.867188 36.84375 C 32.917969 36.792969 33.011719 36.824219 33.050781 36.859375 Z M 32.847656 36.839844 L 32.757812 36.9375 C 32.675781 37.03125 32.621094 36.878906 32.667969 36.824219 L 32.714844 36.769531 C 32.773438 36.695312 32.914062 36.769531 32.847656 36.839844 Z M 32.757812 36.574219 C 32.769531 36.585938 32.773438 36.601562 32.773438 36.617188 C 32.773438 36.632812 32.769531 36.648438 32.757812 36.660156 L 32.582031 36.855469 C 32.570312 36.867188 32.554688 36.871094 32.539062 36.871094 C 32.523438 36.871094 32.507812 36.867188 32.496094 36.855469 C 32.445312 36.8125 32.433594 36.734375 32.46875 36.679688 L 32.570312 36.5625 C 32.625 36.519531 32.703125 36.527344 32.753906 36.574219 Z M 32.371094 36.328125 C 32.421875 36.328125 32.472656 36.359375 32.5 36.40625 L 32.449219 36.421875 C 32.417969 36.378906 32.363281 36.363281 32.316406 36.382812 C 32.269531 36.40625 32.242188 36.457031 32.257812 36.507812 C 32.269531 36.558594 32.316406 36.59375 32.371094 36.589844 C 32.410156 36.585938 32.445312 36.5625 32.464844 36.523438 L 32.515625 36.535156 L 32.503906 36.5625 L 32.53125 36.585938 L 32.476562 36.644531 L 32.449219 36.621094 C 32.425781 36.632812 32.398438 36.640625 32.371094 36.640625 C 32.285156 36.640625 32.214844 36.570312 32.214844 36.484375 C 32.214844 36.398438 32.285156 36.328125 32.371094 36.328125 Z M 33.222656 37.34375 L 33.269531 37.292969 L 33.382812 37.441406 Z M 33.007812 37.792969 L 33.054688 37.738281 L 33.167969 37.890625 Z M 16.800781 37.863281 C 16.722656 37.875 16.695312 37.773438 16.707031 37.671875 C 16.660156 37.757812 16.578125 37.816406 16.523438 37.769531 C 16.464844 37.71875 16.503906 37.660156 16.5625 37.605469 C 16.484375 37.628906 16.40625 37.617188 16.394531 37.554688 C 16.367188 37.433594 16.632812 37.421875 16.726562 37.484375 C 16.722656 37.496094 16.714844 37.503906 16.707031 37.515625 C 16.71875 37.511719 16.730469 37.507812 16.742188 37.507812 L 16.742188 37.53125 L 16.75 37.523438 C 16.871094 37.597656 16.925781 37.851562 16.804688 37.863281 Z M 23.980469 42.046875 L 24.566406 42.046875 C 27.015625 41.949219 29.40625 41.277344 31.554688 40.089844 C 32.949219 39.300781 34.179688 38.25 35.179688 36.992188 C 35.546875 36.605469 35.855469 36.171875 36.101562 35.699219 C 35.828125 35.671875 14.132812 35.644531 12.726562 35.6875 C 12.960938 36.144531 13.253906 36.570312 13.597656 36.953125 C 13.929688 37.355469 14.289062 37.734375 14.671875 38.089844 C 15.316406 38.734375 16.046875 39.296875 16.832031 39.757812 C 18.964844 41.164062 21.4375 41.957031 23.984375 42.046875 Z M 23.980469 42.046875 "/>
<path style=" stroke:none;fill-rule:evenodd;fill:rgb(94.901961%,40.392157%,12.941176%);fill-opacity:1;" d="M 16.15625 20.144531 C 16.21875 19.914062 16.0625 20.035156 16.140625 19.835938 C 15.996094 19.992188 16.152344 19.988281 16.15625 20.144531 M 16.253906 20.109375 C 16.40625 19.859375 16.167969 19.945312 16.289062 19.695312 C 16.050781 19.859375 16.28125 19.933594 16.253906 20.109375 Z M 19.902344 18.074219 C 19.902344 18.074219 20.25 17.710938 20.523438 17.707031 L 20.84375 18.136719 C 20.84375 18.136719 20.371094 18.308594 20.242188 18.5625 C 20.183594 18.5 19.902344 18.078125 19.902344 18.078125 Z M 19.8125 18.074219 C 19.8125 18.074219 19.605469 18.191406 19.621094 17.976562 C 19.628906 17.828125 19.765625 17.820312 19.863281 17.78125 C 19.808594 17.699219 19.5625 17.550781 19.839844 17.316406 C 19.976562 17.199219 20.023438 17.207031 20.109375 17.234375 C 20.226562 17.269531 20.308594 17.375 20.3125 17.5 L 20.375 17.5 C 20.414062 17.371094 20.464844 17.21875 20.636719 17.300781 C 20.6875 17.316406 20.726562 17.355469 20.746094 17.40625 C 20.765625 17.457031 20.757812 17.511719 20.734375 17.558594 C 20.695312 17.613281 20.632812 17.644531 20.566406 17.640625 C 20.269531 17.683594 20 17.839844 19.8125 18.074219 Z M 20.878906 18.199219 C 20.648438 18.269531 20.445312 18.40625 20.296875 18.597656 C 20.523438 18.523438 20.726562 18.386719 20.878906 18.199219 Z M 20.347656 18.316406 C 20.347656 18.316406 20.066406 17.988281 20.140625 17.957031 C 20.210938 17.925781 20.414062 18.226562 20.421875 18.261719 C 20.335938 18.1875 20.257812 18.105469 20.1875 18.019531 Z M 20.476562 18.222656 C 20.476562 18.222656 20.195312 17.894531 20.269531 17.863281 C 20.34375 17.828125 20.542969 18.132812 20.550781 18.164062 C 20.558594 18.199219 20.316406 17.925781 20.316406 17.925781 Z M 20.644531 18.144531 C 20.644531 18.144531 20.363281 17.816406 20.4375 17.785156 C 20.507812 17.753906 20.707031 18.058594 20.71875 18.089844 C 20.726562 18.121094 20.480469 17.847656 20.480469 17.847656 Z M 20.199219 18.421875 C 20.199219 18.421875 19.921875 18.09375 19.992188 18.0625 C 20.066406 18.03125 20.265625 18.335938 20.277344 18.363281 C 20.285156 18.394531 20.039062 18.125 20.039062 18.125 Z M 19.746094 17.746094 C 19.347656 17.414062 20.199219 16.851562 20.359375 17.378906 C 20.644531 16.910156 21.109375 17.640625 20.601562 17.699219 C 20.691406 17.828125 20.824219 18.015625 20.945312 18.195312 C 20.804688 18.570312 20.234375 18.660156 20.234375 18.660156 L 19.84375 18.117188 C 19.648438 18.316406 19.335938 17.871094 19.742188 17.746094 Z M 21.988281 20.371094 C 22.0625 20.195312 21.886719 20.230469 21.972656 20.058594 C 21.808594 20.207031 21.976562 20.238281 21.984375 20.371094 Z M 22.085938 20.332031 C 22.214844 20.074219 21.992188 20.144531 22.121094 19.917969 C 21.878906 20.078125 22.113281 20.144531 22.082031 20.332031 Z M 22.191406 20.425781 L 22.269531 20.4375 C 22.332031 20.351562 22.40625 20.269531 22.484375 20.195312 C 22.457031 20.285156 22.445312 20.378906 22.449219 20.46875 L 22.601562 20.675781 C 22.511719 20.652344 22.410156 20.601562 22.316406 20.570312 L 22.28125 20.617188 Z M 21.925781 20.414062 C 21.992188 20.414062 22.070312 20.414062 22.132812 20.421875 L 22.238281 20.664062 C 22.195312 20.714844 22.148438 20.761719 22.101562 20.804688 Z M 21.621094 20.304688 C 21.683594 20.335938 21.785156 20.394531 21.816406 20.414062 L 21.871094 20.414062 L 22.0625 20.839844 C 22.015625 20.882812 21.964844 20.917969 21.910156 20.953125 Z M 21.472656 20.742188 C 21.492188 20.738281 21.511719 20.75 21.523438 20.769531 C 21.53125 20.789062 21.527344 20.8125 21.511719 20.828125 C 21.5 20.84375 21.476562 20.851562 21.457031 20.84375 C 21.4375 20.835938 21.421875 20.816406 21.421875 20.792969 C 21.425781 20.765625 21.449219 20.746094 21.476562 20.746094 Z M 21.292969 20.9375 C 21.3125 20.777344 21.386719 20.628906 21.503906 20.515625 C 21.523438 20.441406 21.550781 20.355469 21.5625 20.3125 L 21.863281 20.976562 L 21.886719 21.121094 L 21.746094 21.03125 C 21.746094 21.03125 21.375 21.042969 21.296875 20.945312 Z M 25.09375 17.324219 L 25.09375 17.417969 C 25.113281 17.460938 25.152344 17.492188 25.199219 17.492188 C 25.261719 17.484375 25.308594 17.433594 25.308594 17.371094 C 25.308594 17.3125 25.261719 17.257812 25.199219 17.253906 C 25.152344 17.253906 25.113281 17.285156 25.097656 17.328125 Z M 24.273438 17.828125 L 25.203125 17.828125 L 25.109375 17.976562 L 24.378906 17.976562 Z M 24.699219 17.054688 C 24.773438 16.878906 24.601562 16.917969 24.683594 16.746094 C 24.523438 16.898438 24.6875 16.925781 24.703125 17.0625 Z M 24.796875 17.015625 C 24.929688 16.757812 24.707031 16.828125 24.835938 16.601562 C 24.597656 16.773438 24.828125 16.839844 24.800781 17.023438 Z M 25.203125 17.179688 C 25.308594 17.179688 25.394531 17.265625 25.394531 17.371094 C 25.394531 17.476562 25.308594 17.566406 25.203125 17.566406 C 25.164062 17.566406 25.128906 17.554688 25.097656 17.53125 L 25.097656 17.589844 C 25.097656 17.675781 25.027344 17.746094 24.941406 17.746094 L 24.519531 17.746094 C 24.433594 17.746094 24.363281 17.675781 24.363281 17.589844 L 24.363281 17.121094 L 25.097656 17.121094 L 25.097656 17.21875 C 25.128906 17.195312 25.164062 17.183594 25.203125 17.183594 Z M 27.832031 19.316406 C 28.15625 19.316406 28.421875 19.464844 28.421875 19.644531 C 28.421875 19.828125 28.15625 19.976562 27.832031 19.976562 C 27.503906 19.976562 27.238281 19.828125 27.238281 19.644531 C 27.238281 19.464844 27.503906 19.320312 27.832031 19.320312 Z M 27.246094 19.871094 L 27.164062 19.867188 L 27.175781 19.933594 L 27.15625 20.011719 C 27.15625 20.011719 27.238281 20.019531 27.246094 20.035156 C 27.25 20.054688 27.269531 20.121094 27.269531 20.121094 C 27.269531 20.121094 27.582031 20.257812 27.613281 20.257812 C 27.675781 20.230469 27.738281 20.195312 27.792969 20.152344 C 27.847656 20.183594 27.910156 20.21875 27.96875 20.246094 C 28.035156 20.261719 28.101562 20.261719 28.167969 20.246094 L 28.34375 20.128906 L 28.320312 20.035156 L 28.429688 19.949219 L 28.429688 19.890625 L 28.5 19.914062 L 28.550781 19.816406 L 28.484375 19.761719 C 28.375 19.878906 28.230469 19.957031 28.074219 19.988281 C 27.894531 20.035156 27.703125 20.035156 27.519531 19.996094 C 27.441406 19.96875 27.246094 19.878906 27.246094 19.878906 Z M 27.304688 20.195312 C 27.304688 20.195312 27.722656 20.320312 27.746094 20.320312 C 27.765625 20.320312 28.121094 20.296875 28.152344 20.289062 C 28.179688 20.28125 28.398438 20.1875 28.398438 20.1875 L 28.222656 20.328125 L 27.875 20.371094 L 27.601562 20.34375 L 27.421875 20.265625 Z M 27.253906 20.300781 C 27.425781 20.441406 27.636719 20.527344 27.859375 20.542969 C 27.976562 20.542969 28.09375 20.515625 28.195312 20.460938 C 28.25 20.417969 28.382812 20.328125 28.382812 20.328125 C 27.894531 20.570312 27.75 20.472656 27.253906 20.3125 Z M 27.832031 19.6875 C 27.851562 19.683594 27.867188 19.699219 27.871094 19.71875 C 27.867188 19.726562 27.863281 19.734375 27.855469 19.742188 C 27.847656 19.746094 27.839844 19.75 27.832031 19.75 C 27.8125 19.75 27.796875 19.738281 27.792969 19.71875 C 27.800781 19.703125 27.816406 19.691406 27.832031 19.695312 Z M 27.9375 19.554688 C 27.957031 19.550781 27.976562 19.5625 27.984375 19.578125 C 27.996094 19.59375 27.992188 19.617188 27.980469 19.632812 C 27.96875 19.648438 27.949219 19.652344 27.929688 19.644531 C 27.910156 19.640625 27.898438 19.621094 27.898438 19.601562 C 27.902344 19.582031 27.917969 19.5625 27.941406 19.5625 Z M 28.003906 19.421875 C 28.015625 19.421875 28.027344 19.425781 28.039062 19.433594 C 28.046875 19.441406 28.050781 19.453125 28.054688 19.464844 C 28.050781 19.476562 28.046875 19.488281 28.039062 19.5 C 28.027344 19.507812 28.015625 19.511719 28.003906 19.511719 C 27.980469 19.511719 27.957031 19.492188 27.957031 19.464844 C 27.960938 19.441406 27.984375 19.429688 28.007812 19.429688 Z M 27.851562 19.386719 C 27.886719 19.386719 27.914062 19.40625 27.914062 19.433594 C 27.910156 19.464844 27.882812 19.488281 27.851562 19.484375 C 27.820312 19.488281 27.792969 19.464844 27.789062 19.433594 C 27.796875 19.40625 27.824219 19.390625 27.855469 19.394531 Z M 27.738281 19.464844 C 27.753906 19.464844 27.769531 19.476562 27.777344 19.492188 C 27.785156 19.507812 27.78125 19.527344 27.769531 19.539062 C 27.757812 19.550781 27.738281 19.554688 27.722656 19.546875 C 27.707031 19.542969 27.695312 19.527344 27.695312 19.507812 C 27.699219 19.488281 27.71875 19.472656 27.738281 19.476562 Z M 27.648438 19.609375 C 27.65625 19.609375 27.660156 19.609375 27.664062 19.613281 C 27.667969 19.617188 27.671875 19.625 27.671875 19.628906 C 27.671875 19.640625 27.660156 19.652344 27.648438 19.652344 C 27.644531 19.652344 27.636719 19.648438 27.632812 19.644531 C 27.628906 19.640625 27.625 19.636719 27.625 19.628906 C 27.625 19.625 27.628906 19.617188 27.632812 19.613281 C 27.636719 19.609375 27.644531 19.609375 27.648438 19.609375 Z M 27.523438 19.546875 C 27.546875 19.546875 27.5625 19.566406 27.5625 19.589844 C 27.5625 19.609375 27.546875 19.628906 27.523438 19.628906 C 27.503906 19.628906 27.484375 19.609375 27.488281 19.589844 C 27.488281 19.566406 27.503906 19.550781 27.523438 19.546875 Z M 27.5625 19.46875 C 27.585938 19.46875 27.605469 19.480469 27.605469 19.496094 C 27.605469 19.511719 27.585938 19.527344 27.5625 19.527344 C 27.539062 19.527344 27.519531 19.511719 27.519531 19.496094 C 27.519531 19.480469 27.539062 19.46875 27.5625 19.46875 Z M 27.398438 19.542969 C 27.414062 19.539062 27.429688 19.546875 27.4375 19.566406 C 27.445312 19.582031 27.445312 19.597656 27.433594 19.613281 C 27.421875 19.625 27.402344 19.628906 27.386719 19.625 C 27.371094 19.617188 27.359375 19.601562 27.359375 19.585938 C 27.359375 19.5625 27.375 19.542969 27.398438 19.542969 Z M 28.09375 19.601562 C 28.113281 19.605469 28.128906 19.621094 28.125 19.640625 C 28.125 19.660156 28.109375 19.675781 28.089844 19.675781 C 28.070312 19.671875 28.054688 19.65625 28.054688 19.640625 C 28.058594 19.621094 28.078125 19.609375 28.09375 19.609375 Z M 27.832031 19.28125 C 28.199219 19.28125 28.496094 19.449219 28.496094 19.652344 C 28.5 19.664062 28.5 19.679688 28.496094 19.691406 C 28.546875 19.710938 28.632812 19.757812 28.632812 19.835938 C 28.632812 19.941406 28.621094 20.019531 28.601562 20.019531 C 28.566406 20.011719 28.527344 20 28.496094 19.980469 C 28.488281 20.015625 28.484375 20.046875 28.484375 20.078125 L 28.484375 20.324219 C 28.324219 20.6875 27.539062 20.753906 27.207031 20.367188 C 27.191406 20.28125 27.1875 20.195312 27.191406 20.109375 C 27.191406 20.109375 27.050781 20.101562 27.058594 20.058594 C 27.074219 20.019531 27.09375 19.980469 27.113281 19.945312 C 27.113281 19.925781 27.046875 19.847656 27.0625 19.835938 C 27.097656 19.824219 27.132812 19.8125 27.167969 19.808594 L 27.230469 19.824219 C 27.183594 19.777344 27.160156 19.71875 27.15625 19.65625 C 27.167969 19.445312 27.464844 19.28125 27.832031 19.28125 Z M 29.339844 17.6875 C 29.339844 17.617188 29.429688 17.601562 29.519531 17.621094 C 29.4375 17.574219 29.382812 17.5 29.425781 17.441406 C 29.503906 17.347656 29.679688 17.546875 29.691406 17.65625 C 29.671875 17.660156 29.652344 17.660156 29.632812 17.65625 C 29.652344 17.664062 29.667969 17.675781 29.679688 17.6875 C 29.59375 17.796875 29.339844 17.8125 29.339844 17.6875 Z M 30.035156 18.085938 C 29.953125 18.152344 29.847656 18.191406 29.738281 18.191406 C 29.460938 18.1875 29.242188 17.960938 29.246094 17.683594 C 29.246094 17.519531 29.320312 17.371094 29.445312 17.273438 L 29.476562 17.316406 C 29.363281 17.40625 29.300781 17.539062 29.300781 17.683594 C 29.296875 17.929688 29.492188 18.132812 29.738281 18.136719 C 29.835938 18.136719 29.929688 18.101562 30.003906 18.042969 Z M 29.914062 18.074219 C 29.847656 18.113281 29.785156 18.027344 29.757812 17.933594 C 29.746094 18.027344 29.691406 18.113281 29.621094 18.085938 C 29.550781 18.0625 29.566406 17.992188 29.597656 17.921875 C 29.535156 17.972656 29.457031 17.992188 29.421875 17.9375 C 29.355469 17.828125 29.597656 17.722656 29.710938 17.75 C 29.707031 17.761719 29.707031 17.773438 29.703125 17.785156 C 29.710938 17.773438 29.722656 17.769531 29.734375 17.761719 L 29.742188 17.785156 L 29.742188 17.773438 C 29.882812 17.800781 30.027344 18.011719 29.917969 18.074219 Z M 33.144531 20.773438 C 33.179688 21.027344 32.613281 21.480469 32.390625 21.460938 C 32.386719 21.355469 32.414062 21.246094 32.472656 21.15625 L 32.523438 21.207031 C 32.539062 21.226562 32.566406 21.226562 32.582031 21.207031 C 32.589844 21.199219 32.597656 21.1875 32.597656 21.175781 C 32.597656 21.164062 32.589844 21.15625 32.582031 21.148438 L 32.515625 21.074219 C 32.539062 21.035156 32.570312 20.996094 32.597656 20.957031 L 32.710938 21.074219 C 32.730469 21.089844 32.753906 21.09375 32.773438 21.074219 C 32.789062 21.058594 32.789062 21.035156 32.773438 21.015625 L 32.652344 20.890625 C 32.6875 20.847656 32.726562 20.808594 32.765625 20.773438 L 32.855469 20.867188 C 32.863281 20.875 32.875 20.878906 32.882812 20.878906 C 32.894531 20.878906 32.90625 20.875 32.914062 20.867188 C 32.929688 20.851562 32.929688 20.824219 32.914062 20.804688 L 32.832031 20.71875 C 32.882812 20.679688 32.941406 20.652344 33.007812 20.644531 L 33.035156 20.417969 L 33.089844 20.417969 L 33.097656 20.582031 L 33.28125 20.390625 L 33.328125 20.441406 L 33.179688 20.628906 L 33.460938 20.558594 L 33.460938 20.640625 Z M 15.769531 20.511719 C 15.769531 20.511719 16.171875 19.933594 16.527344 20.394531 C 16.316406 20.425781 16.09375 20.527344 16.140625 20.765625 C 16.214844 20.59375 16.398438 20.496094 16.582031 20.535156 C 16.710938 20.558594 16.671875 20.363281 16.671875 20.363281 C 16.671875 20.363281 16.746094 20.261719 16.800781 20.363281 C 16.859375 20.460938 16.882812 20.441406 16.910156 20.46875 C 16.933594 20.496094 16.933594 20.535156 16.910156 20.5625 C 16.882812 20.589844 16.722656 20.550781 16.710938 20.609375 C 16.683594 20.714844 16.632812 20.8125 16.5625 20.894531 L 15.839844 20.894531 C 15.839844 20.894531 15.671875 20.703125 15.597656 20.613281 C 15.578125 20.589844 15.5 20.410156 15.6875 20.421875 Z M 12.78125 22.011719 L 36.101562 22.011719 C 35.871094 21.542969 35.570312 21.117188 35.203125 20.746094 C 32.929688 17.613281 28.132812 15.703125 24.472656 15.691406 C 22.550781 15.667969 20.648438 16.070312 18.898438 16.871094 C 18.390625 17.101562 17.890625 17.359375 17.40625 17.640625 C 17.257812 17.714844 15.535156 18.820312 15.371094 18.992188 C 14.578125 19.703125 13.847656 20.484375 13.195312 21.332031 C 13.019531 21.53125 12.878906 21.761719 12.789062 22.015625 Z M 12.78125 22.011719 "/>
<path style=" stroke:none;fill-rule:evenodd;fill:rgb(92.941176%,12.941176%,14.117647%);fill-opacity:1;" d="M 31.921875 50.640625 C 31.992188 51.207031 31.996094 51.777344 31.9375 52.339844 C 31.867188 53.074219 31.535156 53.753906 31.007812 54.257812 C 30.46875 54.75 29.808594 55.089844 29.09375 55.238281 C 27.136719 55.648438 25.148438 55.875 23.148438 55.921875 C 22.992188 55.929688 22.835938 55.953125 22.707031 55.945312 C 22.484375 55.941406 22.460938 55.921875 22.429688 55.765625 C 22.59375 55.671875 23.828125 55.40625 24.128906 55.328125 C 24.6875 55.183594 25.335938 55.042969 25.910156 54.890625 C 26.507812 54.738281 27.066406 54.625 27.640625 54.476562 C 27.921875 54.441406 28.183594 54.332031 28.40625 54.15625 C 28.90625 53.695312 28.941406 52.382812 27.3125 52.621094 C 26.683594 52.714844 26.03125 52.796875 25.414062 52.910156 C 24.773438 53.03125 24.121094 53.125 23.492188 53.207031 C 23 53.273438 21.8125 53.578125 21.625 53.351562 C 21.671875 53.148438 22.050781 53.109375 22.382812 53.03125 C 24.214844 52.589844 26.019531 52.054688 27.796875 51.429688 C 28.003906 51.265625 28.128906 51.019531 28.136719 50.753906 C 28.148438 50.488281 28.039062 50.234375 27.84375 50.054688 C 27.398438 49.597656 25.984375 50.054688 25.011719 50.207031 C 23.757812 50.492188 22.480469 50.660156 21.195312 50.703125 C 21.238281 50.410156 21.804688 50.34375 22.078125 50.257812 C 22.433594 50.140625 22.726562 50.050781 23.082031 49.933594 C 24.460938 49.480469 25.863281 49.101562 27.285156 48.796875 C 28.671875 48.511719 29.199219 49.199219 29.488281 50.472656 C 29.566406 50.816406 29.582031 51.328125 29.675781 51.617188 C 29.902344 52.308594 31.15625 52.25 30.96875 51.058594 C 30.746094 49.671875 30.082031 48.113281 28.871094 47.746094 C 28.121094 47.609375 27.351562 47.683594 26.640625 47.960938 C 25.886719 48.15625 25.253906 48.328125 24.53125 48.535156 C 23.8125 48.746094 23.1875 48.949219 22.5 49.15625 C 21.859375 49.347656 21.082031 49.574219 20.480469 49.828125 C 20.160156 49.960938 19.929688 50.242188 19.859375 50.582031 C 19.789062 50.921875 19.890625 51.273438 20.128906 51.523438 C 20.746094 52.058594 21.546875 51.78125 22.320312 51.648438 L 25.742188 51.042969 C 26.109375 50.964844 26.476562 50.90625 26.847656 50.867188 L 23.320312 51.800781 C 22.4375 51.976562 21.578125 52.253906 20.757812 52.625 C 19.933594 53.269531 20.296875 54.441406 21.484375 54.457031 C 22.234375 54.464844 26.746094 53.46875 27.472656 53.585938 C 27.414062 53.574219 22.765625 54.691406 22.128906 54.84375 C 20.558594 55.214844 21.074219 56.429688 21.453125 56.695312 C 22.070312 57.128906 23.605469 56.910156 24.476562 56.878906 C 26.445312 56.886719 28.402344 56.609375 30.289062 56.050781 C 30.582031 55.953125 30.855469 55.820312 31.113281 55.648438 C 31.296875 55.566406 31.472656 55.457031 31.628906 55.328125 L 31.855469 55.113281 C 32.625 54.367188 33.109375 53.371094 33.222656 52.300781 C 35.097656 51.644531 36.882812 50.742188 38.527344 49.621094 C 40.089844 48.542969 41.53125 47.296875 42.820312 45.898438 C 42.914062 45.800781 42.949219 45.722656 43.03125 45.625 C 43.589844 45.007812 44.105469 44.359375 44.574219 43.679688 C 45.136719 42.882812 45.65625 42.058594 46.128906 41.210938 C 46.625 40.328125 47.050781 39.410156 47.410156 38.464844 C 47.820312 37.472656 48.136719 36.445312 48.355469 35.394531 L 47.183594 35.382812 C 46.554688 37.710938 45.535156 39.910156 44.164062 41.886719 C 43.90625 42.269531 43.597656 42.601562 43.332031 42.972656 C 43.203125 43.148438 43.058594 43.316406 42.90625 43.476562 C 42.8125 43.585938 42.792969 43.640625 42.683594 43.746094 C 42.597656 43.824219 42.519531 43.910156 42.449219 44.003906 C 42.148438 44.34375 41.832031 44.664062 41.5 44.96875 C 41.328125 45.144531 40.738281 45.738281 40.539062 45.878906 C 40.363281 46.003906 40.234375 46.144531 40.035156 46.308594 C 38.035156 47.953125 35.785156 49.261719 33.375 50.191406 C 32.910156 50.367188 32.347656 50.472656 31.921875 50.644531 "/>
<path style=" stroke:none;fill-rule:evenodd;fill:rgb(94.901961%,40.392157%,12.941176%);fill-opacity:1;" d="M 8.308594 47.089844 C 8.605469 47.265625 8.886719 47.464844 9.148438 47.683594 C 9.425781 47.882812 9.71875 48.066406 10.003906 48.261719 C 10.890625 48.839844 11.816406 49.355469 12.777344 49.800781 C 13.109375 49.996094 13.480469 50.109375 13.863281 50.132812 C 14.730469 50.277344 15.605469 50.359375 16.480469 50.386719 C 16.589844 50.054688 16.375 50.082031 16.078125 49.980469 C 15.535156 49.792969 14.515625 49.425781 14.050781 49.207031 C 12.371094 48.464844 10.78125 47.535156 9.3125 46.4375 C 8.25 45.628906 7.253906 44.738281 6.332031 43.769531 C 4.792969 42.101562 3.53125 40.199219 2.597656 38.128906 C 2.402344 37.6875 2.230469 37.25 2.054688 36.800781 C 1.949219 36.53125 1.667969 35.5625 1.558594 35.394531 L 0.140625 35.382812 C 0.445312 36.90625 0.921875 38.386719 1.566406 39.796875 C 3.925781 45.03125 8.054688 49.253906 13.21875 51.71875 C 14.261719 51.984375 15.328125 52.152344 16.40625 52.21875 C 16.863281 52.28125 16.804688 52.027344 16.734375 51.933594 C 16.390625 51.761719 16.035156 51.625 15.664062 51.523438 C 13.621094 50.761719 11.691406 49.71875 9.929688 48.425781 C 9.351562 48.03125 8.808594 47.585938 8.308594 47.089844 "/>
<path style=" stroke:none;fill-rule:evenodd;fill:rgb(92.941176%,12.941176%,14.117647%);fill-opacity:1;" d="M 41.203125 11.25 C 39.804688 10.042969 38.277344 8.992188 36.648438 8.121094 C 36.304688 7.894531 35.917969 7.746094 35.511719 7.683594 C 34.621094 7.492188 33.714844 7.371094 32.804688 7.324219 C 32.707031 7.65625 32.859375 7.609375 33.171875 7.730469 C 33.703125 7.933594 34.648438 8.320312 35.101562 8.546875 C 36.992188 9.460938 38.757812 10.613281 40.359375 11.976562 L 41.585938 13.101562 C 41.90625 13.425781 42.132812 13.710938 42.464844 14.042969 C 42.753906 14.332031 43.007812 14.699219 43.292969 15.03125 C 44.988281 17.214844 46.246094 19.710938 46.996094 22.378906 L 48.457031 22.378906 C 47.71875 18.707031 46.097656 15.273438 43.734375 12.375 C 43.082031 11.558594 42.378906 10.785156 41.625 10.058594 C 40.871094 9.335938 40.070312 8.660156 39.226562 8.039062 C 38.082031 7.160156 36.824219 6.4375 35.488281 5.894531 C 34.644531 5.757812 33.78125 5.609375 32.941406 5.492188 C 32.605469 5.445312 32.414062 5.585938 32.675781 5.804688 C 32.847656 5.886719 33.023438 5.960938 33.199219 6.019531 C 33.558594 6.164062 33.894531 6.308594 34.238281 6.457031 C 36.355469 7.402344 38.320312 8.660156 40.074219 10.1875 C 40.222656 10.308594 40.320312 10.421875 40.460938 10.535156 C 40.738281 10.769531 40.957031 11.003906 41.207031 11.246094 "/>
<path style=" stroke:none;fill-rule:evenodd;fill:rgb(100%,100%,100%);fill-opacity:1;" d="M 16.15625 20.144531 C 16.21875 19.914062 16.0625 20.035156 16.140625 19.835938 C 15.996094 19.992188 16.152344 19.988281 16.15625 20.144531 M 16.253906 20.109375 C 16.40625 19.859375 16.167969 19.945312 16.289062 19.695312 C 16.050781 19.859375 16.28125 19.933594 16.253906 20.109375 Z M 19.902344 18.074219 C 19.902344 18.074219 20.25 17.710938 20.523438 17.707031 L 20.84375 18.136719 C 20.84375 18.136719 20.371094 18.308594 20.242188 18.5625 C 20.183594 18.5 19.902344 18.078125 19.902344 18.078125 Z M 19.8125 18.074219 C 19.8125 18.074219 19.605469 18.191406 19.621094 17.976562 C 19.628906 17.828125 19.765625 17.820312 19.863281 17.78125 C 19.808594 17.699219 19.5625 17.550781 19.839844 17.316406 C 19.976562 17.199219 20.023438 17.207031 20.109375 17.234375 C 20.226562 17.269531 20.308594 17.375 20.3125 17.5 L 20.375 17.5 C 20.414062 17.371094 20.464844 17.21875 20.636719 17.300781 C 20.6875 17.316406 20.726562 17.355469 20.746094 17.40625 C 20.765625 17.457031 20.757812 17.511719 20.734375 17.558594 C 20.695312 17.613281 20.632812 17.644531 20.566406 17.640625 C 20.269531 17.683594 20 17.839844 19.8125 18.074219 Z M 20.878906 18.199219 C 20.648438 18.269531 20.445312 18.40625 20.296875 18.597656 C 20.523438 18.523438 20.726562 18.386719 20.878906 18.199219 Z M 20.347656 18.316406 C 20.347656 18.316406 20.066406 17.988281 20.140625 17.957031 C 20.210938 17.925781 20.414062 18.226562 20.421875 18.261719 C 20.335938 18.1875 20.257812 18.105469 20.1875 18.019531 Z M 20.476562 18.222656 C 20.476562 18.222656 20.195312 17.894531 20.269531 17.863281 C 20.34375 17.828125 20.542969 18.132812 20.550781 18.164062 C 20.558594 18.199219 20.316406 17.925781 20.316406 17.925781 Z M 20.644531 18.144531 C 20.644531 18.144531 20.363281 17.816406 20.4375 17.785156 C 20.507812 17.753906 20.707031 18.058594 20.71875 18.089844 C 20.726562 18.121094 20.480469 17.847656 20.480469 17.847656 Z M 20.199219 18.421875 C 20.199219 18.421875 19.921875 18.09375 19.992188 18.0625 C 20.066406 18.03125 20.265625 18.335938 20.277344 18.363281 C 20.285156 18.394531 20.039062 18.125 20.039062 18.125 Z M 19.746094 17.746094 C 19.347656 17.414062 20.199219 16.851562 20.359375 17.378906 C 20.644531 16.910156 21.109375 17.640625 20.601562 17.699219 C 20.691406 17.828125 20.824219 18.015625 20.945312 18.195312 C 20.804688 18.570312 20.234375 18.660156 20.234375 18.660156 L 19.84375 18.117188 C 19.648438 18.316406 19.335938 17.871094 19.742188 17.746094 Z M 21.988281 20.371094 C 22.0625 20.195312 21.886719 20.230469 21.972656 20.058594 C 21.808594 20.207031 21.976562 20.238281 21.984375 20.371094 Z M 22.085938 20.332031 C 22.214844 20.074219 21.992188 20.144531 22.121094 19.917969 C 21.878906 20.078125 22.113281 20.144531 22.082031 20.332031 Z M 22.191406 20.425781 L 22.269531 20.4375 C 22.332031 20.351562 22.40625 20.269531 22.484375 20.195312 C 22.457031 20.285156 22.445312 20.378906 22.449219 20.46875 L 22.601562 20.675781 C 22.511719 20.652344 22.410156 20.601562 22.316406 20.570312 L 22.28125 20.617188 Z M 21.925781 20.414062 C 21.992188 20.414062 22.070312 20.414062 22.132812 20.421875 L 22.238281 20.664062 C 22.195312 20.714844 22.148438 20.761719 22.101562 20.804688 Z M 21.621094 20.304688 C 21.683594 20.335938 21.785156 20.394531 21.816406 20.414062 L 21.871094 20.414062 L 22.0625 20.839844 C 22.015625 20.882812 21.964844 20.917969 21.910156 20.953125 Z M 21.472656 20.742188 C 21.492188 20.738281 21.511719 20.75 21.523438 20.769531 C 21.53125 20.789062 21.527344 20.8125 21.511719 20.828125 C 21.5 20.84375 21.476562 20.851562 21.457031 20.84375 C 21.4375 20.835938 21.421875 20.816406 21.421875 20.792969 C 21.425781 20.765625 21.449219 20.746094 21.476562 20.746094 Z M 21.292969 20.9375 C 21.3125 20.777344 21.386719 20.628906 21.503906 20.515625 C 21.523438 20.441406 21.550781 20.355469 21.5625 20.3125 L 21.863281 20.976562 L 21.886719 21.121094 L 21.746094 21.03125 C 21.746094 21.03125 21.375 21.042969 21.296875 20.945312 Z M 25.09375 17.324219 L 25.09375 17.417969 C 25.113281 17.460938 25.152344 17.492188 25.199219 17.492188 C 25.261719 17.484375 25.308594 17.433594 25.308594 17.371094 C 25.308594 17.3125 25.261719 17.257812 25.199219 17.253906 C 25.152344 17.253906 25.113281 17.285156 25.097656 17.328125 Z M 24.273438 17.828125 L 25.203125 17.828125 L 25.109375 17.976562 L 24.378906 17.976562 Z M 24.699219 17.054688 C 24.773438 16.878906 24.601562 16.917969 24.683594 16.746094 C 24.523438 16.898438 24.6875 16.925781 24.703125 17.0625 Z M 24.796875 17.015625 C 24.929688 16.757812 24.707031 16.828125 24.835938 16.601562 C 24.597656 16.773438 24.828125 16.839844 24.800781 17.023438 Z M 25.203125 17.179688 C 25.308594 17.179688 25.394531 17.265625 25.394531 17.371094 C 25.394531 17.476562 25.308594 17.566406 25.203125 17.566406 C 25.164062 17.566406 25.128906 17.554688 25.097656 17.53125 L 25.097656 17.589844 C 25.097656 17.675781 25.027344 17.746094 24.941406 17.746094 L 24.519531 17.746094 C 24.433594 17.746094 24.363281 17.675781 24.363281 17.589844 L 24.363281 17.121094 L 25.097656 17.121094 L 25.097656 17.21875 C 25.128906 17.195312 25.164062 17.183594 25.203125 17.183594 Z M 27.832031 19.316406 C 28.15625 19.316406 28.421875 19.464844 28.421875 19.644531 C 28.421875 19.828125 28.15625 19.976562 27.832031 19.976562 C 27.503906 19.976562 27.238281 19.828125 27.238281 19.644531 C 27.238281 19.464844 27.503906 19.320312 27.832031 19.320312 Z M 27.246094 19.871094 L 27.164062 19.867188 L 27.175781 19.933594 L 27.15625 20.011719 C 27.15625 20.011719 27.238281 20.019531 27.246094 20.035156 C 27.25 20.054688 27.269531 20.121094 27.269531 20.121094 C 27.269531 20.121094 27.582031 20.257812 27.613281 20.257812 C 27.675781 20.230469 27.738281 20.195312 27.792969 20.152344 C 27.847656 20.183594 27.910156 20.21875 27.96875 20.246094 C 28.035156 20.261719 28.101562 20.261719 28.167969 20.246094 L 28.34375 20.128906 L 28.320312 20.035156 L 28.429688 19.949219 L 28.429688 19.890625 L 28.5 19.914062 L 28.550781 19.816406 L 28.484375 19.761719 C 28.375 19.878906 28.230469 19.957031 28.074219 19.988281 C 27.894531 20.035156 27.703125 20.035156 27.519531 19.996094 C 27.441406 19.96875 27.246094 19.878906 27.246094 19.878906 Z M 27.304688 20.195312 C 27.304688 20.195312 27.722656 20.320312 27.746094 20.320312 C 27.765625 20.320312 28.121094 20.296875 28.152344 20.289062 C 28.179688 20.28125 28.398438 20.1875 28.398438 20.1875 L 28.222656 20.328125 L 27.875 20.371094 L 27.601562 20.34375 L 27.421875 20.265625 Z M 27.253906 20.300781 C 27.425781 20.441406 27.636719 20.527344 27.859375 20.542969 C 27.976562 20.542969 28.09375 20.515625 28.195312 20.460938 C 28.25 20.417969 28.382812 20.328125 28.382812 20.328125 C 27.894531 20.570312 27.75 20.472656 27.253906 20.3125 Z M 27.832031 19.6875 C 27.851562 19.683594 27.867188 19.699219 27.871094 19.71875 C 27.867188 19.726562 27.863281 19.734375 27.855469 19.742188 C 27.847656 19.746094 27.839844 19.75 27.832031 19.75 C 27.8125 19.75 27.796875 19.738281 27.792969 19.71875 C 27.800781 19.703125 27.816406 19.691406 27.832031 19.695312 Z M 27.9375 19.554688 C 27.957031 19.550781 27.976562 19.5625 27.984375 19.578125 C 27.996094 19.59375 27.992188 19.617188 27.980469 19.632812 C 27.96875 19.648438 27.949219 19.652344 27.929688 19.644531 C 27.910156 19.640625 27.898438 19.621094 27.898438 19.601562 C 27.902344 19.582031 27.917969 19.5625 27.941406 19.5625 Z M 28.003906 19.421875 C 28.015625 19.421875 28.027344 19.425781 28.039062 19.433594 C 28.046875 19.441406 28.050781 19.453125 28.054688 19.464844 C 28.050781 19.476562 28.046875 19.488281 28.039062 19.5 C 28.027344 19.507812 28.015625 19.511719 28.003906 19.511719 C 27.980469 19.511719 27.957031 19.492188 27.957031 19.464844 C 27.960938 19.441406 27.984375 19.429688 28.007812 19.429688 Z M 27.851562 19.386719 C 27.886719 19.386719 27.914062 19.40625 27.914062 19.433594 C 27.910156 19.464844 27.882812 19.488281 27.851562 19.484375 C 27.820312 19.488281 27.792969 19.464844 27.789062 19.433594 C 27.796875 19.40625 27.824219 19.390625 27.855469 19.394531 Z M 27.738281 19.464844 C 27.753906 19.464844 27.769531 19.476562 27.777344 19.492188 C 27.785156 19.507812 27.78125 19.527344 27.769531 19.539062 C 27.757812 19.550781 27.738281 19.554688 27.722656 19.546875 C 27.707031 19.542969 27.695312 19.527344 27.695312 19.507812 C 27.699219 19.488281 27.71875 19.472656 27.738281 19.476562 Z M 27.648438 19.609375 C 27.65625 19.609375 27.660156 19.609375 27.664062 19.613281 C 27.667969 19.617188 27.671875 19.625 27.671875 19.628906 C 27.671875 19.640625 27.660156 19.652344 27.648438 19.652344 C 27.644531 19.652344 27.636719 19.648438 27.632812 19.644531 C 27.628906 19.640625 27.625 19.636719 27.625 19.628906 C 27.625 19.625 27.628906 19.617188 27.632812 19.613281 C 27.636719 19.609375 27.644531 19.609375 27.648438 19.609375 Z M 27.523438 19.546875 C 27.546875 19.546875 27.5625 19.566406 27.5625 19.589844 C 27.5625 19.609375 27.546875 19.628906 27.523438 19.628906 C 27.503906 19.628906 27.484375 19.609375 27.488281 19.589844 C 27.488281 19.566406 27.503906 19.550781 27.523438 19.546875 Z M 27.5625 19.46875 C 27.585938 19.46875 27.605469 19.480469 27.605469 19.496094 C 27.605469 19.511719 27.585938 19.527344 27.5625 19.527344 C 27.539062 19.527344 27.519531 19.511719 27.519531 19.496094 C 27.519531 19.480469 27.539062 19.46875 27.5625 19.46875 Z M 27.398438 19.542969 C 27.414062 19.539062 27.429688 19.546875 27.4375 19.566406 C 27.445312 19.582031 27.445312 19.597656 27.433594 19.613281 C 27.421875 19.625 27.402344 19.628906 27.386719 19.625 C 27.371094 19.617188 27.359375 19.601562 27.359375 19.585938 C 27.359375 19.5625 27.375 19.542969 27.398438 19.542969 Z M 28.09375 19.601562 C 28.113281 19.605469 28.128906 19.621094 28.125 19.640625 C 28.125 19.660156 28.109375 19.675781 28.089844 19.675781 C 28.070312 19.671875 28.054688 19.65625 28.054688 19.640625 C 28.058594 19.621094 28.078125 19.609375 28.09375 19.609375 Z M 27.832031 19.28125 C 28.199219 19.28125 28.496094 19.449219 28.496094 19.652344 C 28.5 19.664062 28.5 19.679688 28.496094 19.691406 C 28.546875 19.710938 28.632812 19.757812 28.632812 19.835938 C 28.632812 19.941406 28.621094 20.019531 28.601562 20.019531 C 28.566406 20.011719 28.527344 20 28.496094 19.980469 C 28.488281 20.015625 28.484375 20.046875 28.484375 20.078125 L 28.484375 20.324219 C 28.324219 20.6875 27.539062 20.753906 27.207031 20.367188 C 27.191406 20.28125 27.1875 20.195312 27.191406 20.109375 C 27.191406 20.109375 27.050781 20.101562 27.058594 20.058594 C 27.074219 20.019531 27.09375 19.980469 27.113281 19.945312 C 27.113281 19.925781 27.046875 19.847656 27.0625 19.835938 C 27.097656 19.824219 27.132812 19.8125 27.167969 19.808594 L 27.230469 19.824219 C 27.183594 19.777344 27.160156 19.71875 27.15625 19.65625 C 27.167969 19.445312 27.464844 19.28125 27.832031 19.28125 Z M 29.339844 17.6875 C 29.339844 17.617188 29.429688 17.601562 29.519531 17.621094 C 29.4375 17.574219 29.382812 17.5 29.425781 17.441406 C 29.503906 17.347656 29.679688 17.546875 29.691406 17.65625 C 29.671875 17.660156 29.652344 17.660156 29.632812 17.65625 C 29.652344 17.664062 29.667969 17.675781 29.679688 17.6875 C 29.59375 17.796875 29.339844 17.8125 29.339844 17.6875 Z M 30.035156 18.085938 C 29.953125 18.152344 29.847656 18.191406 29.738281 18.191406 C 29.460938 18.1875 29.242188 17.960938 29.246094 17.683594 C 29.246094 17.519531 29.320312 17.371094 29.445312 17.273438 L 29.476562 17.316406 C 29.363281 17.40625 29.300781 17.539062 29.300781 17.683594 C 29.296875 17.929688 29.492188 18.132812 29.738281 18.136719 C 29.835938 18.136719 29.929688 18.101562 30.003906 18.042969 Z M 29.914062 18.074219 C 29.847656 18.113281 29.785156 18.027344 29.757812 17.933594 C 29.746094 18.027344 29.691406 18.113281 29.621094 18.085938 C 29.550781 18.0625 29.566406 17.992188 29.597656 17.921875 C 29.535156 17.972656 29.457031 17.992188 29.421875 17.9375 C 29.355469 17.828125 29.597656 17.722656 29.710938 17.75 C 29.707031 17.761719 29.707031 17.773438 29.703125 17.785156 C 29.710938 17.773438 29.722656 17.769531 29.734375 17.761719 L 29.742188 17.785156 L 29.742188 17.773438 C 29.882812 17.800781 30.027344 18.011719 29.917969 18.074219 Z M 33.144531 20.773438 C 33.179688 21.027344 32.613281 21.480469 32.390625 21.460938 C 32.386719 21.355469 32.414062 21.246094 32.472656 21.15625 L 32.523438 21.207031 C 32.539062 21.226562 32.566406 21.226562 32.582031 21.207031 C 32.589844 21.199219 32.597656 21.1875 32.597656 21.175781 C 32.597656 21.164062 32.589844 21.15625 32.582031 21.148438 L 32.515625 21.074219 C 32.539062 21.035156 32.570312 20.996094 32.597656 20.957031 L 32.710938 21.074219 C 32.730469 21.089844 32.753906 21.09375 32.773438 21.074219 C 32.789062 21.058594 32.789062 21.035156 32.773438 21.015625 L 32.652344 20.890625 C 32.6875 20.847656 32.726562 20.808594 32.765625 20.773438 L 32.855469 20.867188 C 32.863281 20.875 32.875 20.878906 32.882812 20.878906 C 32.894531 20.878906 32.90625 20.875 32.914062 20.867188 C 32.929688 20.851562 32.929688 20.824219 32.914062 20.804688 L 32.832031 20.71875 C 32.882812 20.679688 32.941406 20.652344 33.007812 20.644531 L 33.035156 20.417969 L 33.089844 20.417969 L 33.097656 20.582031 L 33.28125 20.390625 L 33.328125 20.441406 L 33.179688 20.628906 L 33.460938 20.558594 L 33.460938 20.640625 Z M 15.769531 20.511719 C 15.769531 20.511719 16.171875 19.933594 16.527344 20.394531 C 16.316406 20.425781 16.09375 20.527344 16.140625 20.765625 C 16.214844 20.59375 16.398438 20.496094 16.582031 20.535156 C 16.710938 20.558594 16.671875 20.363281 16.671875 20.363281 C 16.671875 20.363281 16.746094 20.261719 16.800781 20.363281 C 16.859375 20.460938 16.882812 20.441406 16.910156 20.46875 C 16.933594 20.496094 16.933594 20.535156 16.910156 20.5625 C 16.882812 20.589844 16.722656 20.550781 16.710938 20.609375 C 16.683594 20.714844 16.632812 20.8125 16.5625 20.894531 L 15.839844 20.894531 C 15.839844 20.894531 15.671875 20.703125 15.597656 20.613281 C 15.578125 20.589844 15.5 20.410156 15.6875 20.421875 Z M 15.769531 20.511719 "/>
<path style=" stroke:none;fill-rule:evenodd;fill:rgb(94.901961%,40.392157%,12.941176%);fill-opacity:1;" d="M 33.066406 27.839844 C 33.039062 28.511719 33.332031 29.152344 33.859375 29.566406 C 34.144531 29.789062 34.5 29.902344 34.863281 29.894531 C 35.59375 29.917969 36.261719 29.480469 36.542969 28.800781 C 36.675781 28.511719 36.742188 28.195312 36.738281 27.875 L 36.738281 27.753906 C 36.765625 27.085938 36.449219 26.449219 35.902344 26.066406 C 35.609375 25.863281 35.265625 25.761719 34.910156 25.765625 C 34.40625 25.757812 33.921875 25.980469 33.597656 26.367188 C 33.242188 26.773438 33.050781 27.300781 33.066406 27.839844 M 8.699219 27.882812 C 8.664062 28.585938 9 29.257812 9.582031 29.65625 C 9.867188 29.84375 10.203125 29.941406 10.542969 29.9375 C 11.035156 29.941406 11.507812 29.71875 11.824219 29.335938 C 12.175781 28.957031 12.378906 28.453125 12.390625 27.933594 L 12.390625 27.796875 C 12.398438 27.128906 12.078125 26.503906 11.535156 26.121094 C 11.257812 25.914062 10.921875 25.804688 10.578125 25.808594 C 9.992188 25.792969 9.441406 26.078125 9.113281 26.566406 C 8.839844 26.949219 8.695312 27.410156 8.699219 27.882812 Z M 40.78125 26.070312 C 40.6875 25.816406 40.441406 25.648438 40.167969 25.660156 C 39.8125 25.660156 39.632812 25.90625 39.542969 26.222656 L 39.542969 26.371094 C 39.542969 26.832031 40.066406 27.03125 40.433594 27.136719 C 40.929688 27.25 41.371094 27.535156 41.679688 27.945312 C 41.859375 28.265625 41.945312 28.632812 41.929688 29.003906 C 41.941406 29.625 41.609375 30.203125 41.066406 30.5 C 40.765625 30.667969 40.429688 30.75 40.085938 30.738281 C 39.648438 30.769531 39.210938 30.621094 38.882812 30.324219 C 38.554688 30.03125 38.359375 29.613281 38.34375 29.167969 L 38.304688 28.714844 L 38.4375 28.578125 L 39.113281 28.578125 C 39.234375 28.578125 39.273438 28.699219 39.296875 28.792969 C 39.316406 28.902344 39.332031 29.011719 39.34375 29.125 C 39.414062 29.5 39.738281 29.777344 40.121094 29.78125 C 40.480469 29.796875 40.800781 29.546875 40.878906 29.191406 L 40.890625 29.0625 L 40.890625 28.953125 C 40.890625 28.472656 40.464844 28.234375 40.058594 28.09375 C 39.535156 27.96875 39.066406 27.667969 38.734375 27.238281 C 38.59375 26.957031 38.527344 26.648438 38.539062 26.335938 C 38.535156 25.796875 38.800781 25.292969 39.242188 24.984375 C 39.539062 24.785156 39.894531 24.6875 40.25 24.703125 L 40.28125 24.703125 C 41.039062 24.667969 41.707031 25.207031 41.828125 25.960938 L 41.828125 25.976562 L 41.84375 26.265625 L 41.84375 26.359375 L 41.714844 26.492188 L 41.011719 26.492188 C 40.828125 26.492188 40.796875 26.214844 40.78125 26.070312 Z M 34.941406 24.8125 C 35.980469 24.800781 36.929688 25.402344 37.367188 26.347656 C 38.09375 27.703125 37.730469 29.390625 36.515625 30.328125 C 36.035156 30.679688 35.453125 30.863281 34.859375 30.847656 C 34.078125 30.875 33.328125 30.539062 32.832031 29.933594 C 32.328125 29.339844 32.050781 28.585938 32.050781 27.804688 C 32.050781 26.867188 32.480469 25.980469 33.214844 25.402344 C 33.703125 25.007812 34.316406 24.796875 34.941406 24.8125 Z M 30.355469 27.785156 L 27.027344 27.785156 L 26.898438 27.652344 L 26.898438 26.980469 L 27.011719 26.867188 L 31.324219 26.867188 C 31.371094 26.867188 31.417969 26.886719 31.449219 26.921875 C 31.480469 26.957031 31.5 27.003906 31.496094 27.054688 C 31.488281 27.796875 31.261719 28.523438 30.835938 29.136719 C 30.171875 30.167969 29.023438 30.78125 27.800781 30.746094 C 26.902344 30.777344 26.03125 30.445312 25.382812 29.824219 C 24.589844 29.066406 24.144531 28.015625 24.15625 26.921875 L 24.15625 26.769531 C 24.121094 25.75 24.511719 24.761719 25.234375 24.046875 C 25.953125 23.328125 26.9375 22.945312 27.953125 22.988281 C 29.273438 22.976562 30.488281 23.722656 31.074219 24.910156 L 31.085938 24.933594 L 31.117188 25.109375 L 30.996094 25.234375 L 30.210938 25.234375 C 30.117188 25.21875 30.03125 25.167969 29.976562 25.085938 C 29.894531 24.996094 29.8125 24.894531 29.730469 24.796875 C 29.273438 24.257812 28.59375 23.957031 27.886719 23.976562 C 27.164062 23.960938 26.46875 24.253906 25.972656 24.785156 C 25.4375 25.335938 25.144531 26.078125 25.148438 26.851562 C 25.132812 27.734375 25.507812 28.582031 26.175781 29.160156 C 26.644531 29.570312 27.25 29.789062 27.871094 29.773438 C 29.039062 29.710938 30.039062 28.914062 30.363281 27.785156 Z M 22.8125 25.03125 L 23.472656 25.03125 L 23.582031 25.144531 L 23.582031 30.628906 L 23.472656 30.742188 L 22.789062 30.742188 L 22.765625 30.734375 C 22.675781 30.695312 22.621094 30.605469 22.628906 30.503906 L 22.628906 25.269531 C 22.632812 25.15625 22.6875 25.03125 22.816406 25.03125 Z M 22.8125 23.246094 L 23.472656 23.246094 L 23.582031 23.359375 L 23.582031 24.542969 L 23.472656 24.660156 L 22.789062 24.660156 L 22.765625 24.652344 C 22.671875 24.613281 22.617188 24.519531 22.625 24.417969 L 22.625 23.484375 C 22.632812 23.371094 22.6875 23.246094 22.816406 23.246094 Z M 18.0625 25.757812 C 18.535156 25.222656 19.214844 24.914062 19.929688 24.910156 L 19.949219 24.910156 C 20.480469 24.871094 21.003906 25.050781 21.398438 25.40625 C 21.792969 25.765625 22.023438 26.273438 22.035156 26.808594 L 22.066406 27.285156 L 22.066406 30.613281 L 21.9375 30.746094 L 21.238281 30.746094 L 21.109375 30.613281 L 21.109375 27.226562 C 21.144531 26.707031 20.863281 26.214844 20.398438 25.980469 C 20.210938 25.917969 20.015625 25.878906 19.820312 25.871094 C 19.46875 25.839844 19.117188 25.957031 18.859375 26.195312 C 18.597656 26.4375 18.453125 26.773438 18.457031 27.128906 L 18.4375 27.414062 L 18.4375 30.609375 L 18.3125 30.742188 L 17.640625 30.742188 L 17.515625 30.609375 L 17.515625 27.175781 C 17.53125 26.699219 17.285156 26.25 16.875 26.007812 C 16.65625 25.925781 16.421875 25.878906 16.1875 25.867188 C 15.542969 25.855469 14.988281 26.332031 14.90625 26.972656 C 14.859375 27.179688 14.839844 27.390625 14.847656 27.601562 L 14.847656 30.632812 L 14.738281 30.746094 L 14.054688 30.746094 L 14.035156 30.738281 C 13.941406 30.699219 13.886719 30.605469 13.894531 30.507812 L 13.894531 25.304688 C 13.894531 25.195312 13.949219 25.0625 14.082031 25.0625 L 14.742188 25.0625 L 14.847656 25.179688 L 14.847656 25.449219 C 15.261719 25.101562 15.78125 24.910156 16.320312 24.914062 C 16.960938 24.933594 17.566406 25.210938 18.007812 25.683594 L 18.019531 25.695312 Z M 12.390625 25.601562 L 12.390625 25.558594 L 12.371094 25.210938 L 12.382812 25.183594 C 12.410156 25.101562 12.460938 25.027344 12.558594 25.027344 L 13.21875 25.027344 L 13.324219 25.140625 L 13.324219 30.621094 L 13.21875 30.738281 L 12.5 30.738281 L 12.371094 30.601562 L 12.390625 30.207031 L 12.390625 30.148438 C 11.878906 30.640625 11.1875 30.910156 10.480469 30.890625 C 9.667969 30.921875 8.894531 30.550781 8.40625 29.902344 C 7.957031 29.335938 7.707031 28.636719 7.695312 27.914062 C 7.671875 26.917969 8.125 25.972656 8.917969 25.375 C 9.398438 25.019531 9.980469 24.835938 10.578125 24.855469 L 10.59375 24.855469 C 11.265625 24.863281 11.90625 25.132812 12.390625 25.601562 Z M 12.390625 25.601562 "/>
<path style=" stroke:none;fill-rule:nonzero;fill:rgb(100%,40%,0%);fill-opacity:1;" d="M 15.503906 31.734375 L 15.71875 31.734375 L 15.730469 31.746094 L 15.730469 33.203125 L 15.738281 33.214844 C 16.121094 32.707031 16.335938 32.421875 16.394531 32.355469 L 16.636719 32.355469 L 16.648438 32.367188 L 16.011719 33.226562 C 16.03125 33.273438 16.0625 33.316406 16.097656 33.351562 L 16.789062 34.238281 L 16.789062 34.242188 L 16.777344 34.253906 L 16.523438 34.253906 C 16.5 34.253906 16.441406 34.1875 16.347656 34.054688 L 15.738281 33.292969 L 15.730469 33.304688 L 15.730469 34.242188 L 15.71875 34.253906 L 15.503906 34.253906 C 15.492188 34.253906 15.488281 34.238281 15.488281 34.21875 L 15.488281 31.765625 C 15.488281 31.742188 15.496094 31.734375 15.503906 31.734375 Z M 15.503906 31.734375 "/>
<path style=" stroke:none;fill-rule:nonzero;fill:rgb(100%,40%,0%);fill-opacity:1;" d="M 18.308594 31.734375 L 18.523438 31.734375 L 18.53125 31.746094 L 18.53125 32.121094 L 18.523438 32.132812 L 18.308594 32.132812 C 18.296875 32.132812 18.292969 32.117188 18.292969 32.097656 L 18.292969 31.777344 C 18.296875 31.742188 18.300781 31.734375 18.308594 31.734375 Z M 18.308594 32.359375 L 18.523438 32.359375 L 18.53125 32.371094 L 18.53125 34.25 L 18.523438 34.261719 L 18.308594 34.261719 C 18.296875 34.261719 18.292969 34.246094 18.292969 34.226562 L 18.292969 32.390625 C 18.296875 32.367188 18.300781 32.355469 18.308594 32.355469 Z M 18.308594 32.359375 "/>
<path style=" stroke:none;fill-rule:nonzero;fill:rgb(100%,40%,0%);fill-opacity:1;" d="M 20.394531 31.734375 L 20.605469 31.734375 L 20.617188 31.746094 L 20.617188 32.351562 L 20.648438 32.359375 L 20.953125 32.359375 L 20.964844 32.371094 L 20.964844 32.597656 L 20.949219 32.613281 L 20.628906 32.613281 L 20.617188 32.625 L 20.617188 34.242188 L 20.597656 34.261719 L 20.394531 34.261719 L 20.378906 34.242188 L 20.378906 32.621094 L 20.375 32.609375 L 20.054688 32.609375 L 20.042969 32.597656 L 20.042969 32.367188 L 20.054688 32.355469 L 20.363281 32.355469 L 20.390625 32.347656 L 20.390625 31.742188 Z M 20.394531 31.734375 "/>
<path style=" stroke:none;fill-rule:nonzero;fill:rgb(100%,40%,0%);fill-opacity:1;" d="M 23.429688 32.285156 L 23.4375 32.285156 C 23.761719 32.285156 24.058594 32.464844 24.214844 32.75 C 24.246094 32.800781 24.273438 32.859375 24.289062 32.917969 L 24.269531 32.929688 L 24.058594 32.929688 C 24.035156 32.929688 24.003906 32.894531 23.972656 32.828125 C 23.824219 32.605469 23.5625 32.488281 23.296875 32.535156 C 23.035156 32.582031 22.824219 32.78125 22.765625 33.042969 C 22.742188 33.121094 22.730469 33.203125 22.730469 33.285156 C 22.726562 33.550781 22.847656 33.804688 23.058594 33.964844 C 23.167969 34.023438 23.285156 34.058594 23.410156 34.066406 C 23.652344 34.066406 23.875 33.933594 23.988281 33.71875 C 24.011719 33.667969 24.027344 33.644531 24.035156 33.644531 L 24.277344 33.644531 C 24.285156 33.644531 24.289062 33.644531 24.289062 33.660156 C 24.246094 33.796875 24.175781 33.925781 24.078125 34.03125 C 23.90625 34.207031 23.671875 34.308594 23.425781 34.304688 C 23.054688 34.304688 22.722656 34.085938 22.578125 33.742188 C 22.511719 33.597656 22.476562 33.441406 22.472656 33.28125 C 22.476562 32.960938 22.625 32.664062 22.875 32.472656 C 23.035156 32.351562 23.230469 32.285156 23.429688 32.285156 Z M 23.429688 32.285156 "/>
<path style=" stroke:none;fill-rule:nonzero;fill:rgb(100%,40%,0%);fill-opacity:1;" d="M 25.808594 31.734375 L 26.023438 31.734375 L 26.035156 31.746094 L 26.035156 32.550781 L 26.046875 32.5625 C 26.179688 32.398438 26.382812 32.308594 26.589844 32.316406 L 26.609375 32.316406 C 26.921875 32.300781 27.203125 32.5 27.289062 32.804688 C 27.3125 32.890625 27.328125 32.976562 27.328125 33.066406 L 27.328125 34.246094 L 27.3125 34.265625 L 27.109375 34.265625 L 27.089844 34.246094 L 27.089844 33.066406 C 27.101562 32.867188 26.988281 32.675781 26.808594 32.589844 C 26.734375 32.566406 26.660156 32.550781 26.585938 32.550781 C 26.335938 32.53125 26.109375 32.707031 26.0625 32.953125 C 26.042969 33.027344 26.035156 33.105469 26.035156 33.179688 L 26.035156 34.246094 L 26.023438 34.257812 L 25.808594 34.257812 C 25.800781 34.257812 25.792969 34.242188 25.792969 34.21875 L 25.792969 31.765625 C 25.796875 31.742188 25.800781 31.734375 25.808594 31.734375 Z M 25.808594 31.734375 "/>
<path style=" stroke:none;fill-rule:nonzero;fill:rgb(100%,40%,0%);fill-opacity:1;" d="M 29.8125 32.296875 C 30.203125 32.296875 30.546875 32.558594 30.652344 32.933594 C 30.695312 33.074219 30.71875 33.222656 30.71875 33.371094 L 30.703125 33.382812 L 29.101562 33.382812 C 29.09375 33.382812 29.09375 33.382812 29.09375 33.398438 C 29.105469 33.597656 29.195312 33.785156 29.34375 33.914062 C 29.503906 34.054688 29.726562 34.109375 29.9375 34.058594 C 30.144531 34.003906 30.316406 33.855469 30.398438 33.65625 L 30.648438 33.65625 L 30.660156 33.667969 C 30.574219 33.910156 30.394531 34.113281 30.164062 34.226562 C 30.046875 34.28125 29.917969 34.308594 29.785156 34.308594 C 29.460938 34.308594 29.160156 34.136719 28.996094 33.859375 C 28.890625 33.679688 28.835938 33.476562 28.835938 33.269531 C 28.835938 32.957031 28.980469 32.660156 29.222656 32.464844 C 29.398438 32.351562 29.605469 32.296875 29.8125 32.296875 Z M 29.097656 33.15625 L 30.4375 33.15625 L 30.449219 33.144531 C 30.425781 33 30.363281 32.867188 30.273438 32.753906 C 30.152344 32.601562 29.964844 32.515625 29.773438 32.523438 C 29.472656 32.511719 29.203125 32.714844 29.125 33.007812 C 29.109375 33.058594 29.097656 33.109375 29.097656 33.160156 Z M 29.097656 33.15625 "/>
<path style=" stroke:none;fill-rule:nonzero;fill:rgb(100%,40%,0%);fill-opacity:1;" d="M 33.042969 32.3125 L 33.054688 32.3125 C 33.367188 32.300781 33.644531 32.507812 33.722656 32.8125 C 33.746094 32.890625 33.757812 32.972656 33.757812 33.054688 L 33.757812 34.234375 L 33.742188 34.253906 L 33.539062 34.253906 L 33.519531 34.234375 L 33.519531 33.066406 C 33.527344 32.886719 33.441406 32.714844 33.292969 32.613281 C 33.207031 32.574219 33.117188 32.550781 33.019531 32.550781 C 32.753906 32.53125 32.519531 32.722656 32.480469 32.988281 C 32.46875 33.058594 32.464844 33.132812 32.464844 33.203125 L 32.464844 34.246094 L 32.453125 34.257812 L 32.238281 34.257812 C 32.230469 34.257812 32.222656 34.242188 32.222656 34.21875 L 32.222656 32.394531 C 32.222656 32.371094 32.230469 32.359375 32.238281 32.359375 L 32.453125 32.359375 L 32.464844 32.371094 L 32.464844 32.53125 L 32.476562 32.542969 C 32.625 32.394531 32.832031 32.3125 33.042969 32.3125 Z M 33.042969 32.3125 "/>
<path style=" stroke:none;fill-rule:nonzero;fill:rgb(0%,0%,0%);fill-opacity:1;" d="M 61.859375 10.199219 L 61.90625 10.199219 C 63.992188 10.242188 65.964844 11.152344 67.359375 12.710938 L 67.40625 12.710938 L 67.40625 11.734375 L 67.359375 10.851562 C 67.40625 10.726562 67.453125 10.664062 67.496094 10.664062 L 69.203125 10.664062 L 69.296875 10.757812 L 69.296875 25.441406 L 69.203125 25.535156 L 67.496094 25.535156 L 67.359375 25.394531 L 67.40625 24.464844 L 67.40625 23.390625 L 67.359375 23.390625 C 65.914062 25.074219 63.792969 26.011719 61.582031 25.949219 C 59.433594 25.984375 57.378906 25.046875 55.992188 23.390625 C 54.820312 21.902344 54.140625 20.085938 54.050781 18.1875 C 54.0625 15.570312 55.292969 13.109375 57.378906 11.542969 C 58.707031 10.660156 60.265625 10.191406 61.859375 10.199219 Z M 56.128906 18.097656 C 56.117188 20.160156 57.121094 22.09375 58.808594 23.257812 C 59.710938 23.78125 60.726562 24.070312 61.769531 24.09375 C 63.261719 24.078125 64.683594 23.4375 65.695312 22.328125 C 66.730469 21.214844 67.335938 19.765625 67.402344 18.238281 L 67.402344 17.867188 C 67.347656 15.925781 66.390625 14.117188 64.816406 12.988281 C 63.933594 12.410156 62.910156 12.085938 61.859375 12.058594 C 60.097656 12.042969 58.433594 12.871094 57.375 14.289062 C 56.589844 15.402344 56.152344 16.730469 56.128906 18.097656 Z M 56.128906 18.097656 "/>
<path style=" stroke:none;fill-rule:nonzero;fill:rgb(0%,0%,0%);fill-opacity:1;" d="M 78.875 10.351562 C 80.585938 10.398438 82.207031 11.117188 83.402344 12.347656 L 83.722656 12.859375 L 83.816406 12.859375 C 85.128906 11.273438 87.074219 10.355469 89.128906 10.351562 L 89.175781 10.351562 C 92.085938 10.351562 93.9375 11.960938 94.722656 15.179688 L 94.816406 16.480469 L 94.816406 25.402344 L 94.675781 25.542969 L 93.011719 25.542969 L 92.875 25.402344 L 92.875 16.296875 C 92.949219 14.699219 92.054688 13.210938 90.613281 12.535156 C 90.027344 12.34375 89.421875 12.234375 88.808594 12.210938 C 86.515625 12.210938 85.097656 13.484375 84.558594 16.023438 L 84.511719 16.8125 L 84.511719 25.402344 L 84.375 25.542969 L 82.800781 25.542969 L 82.664062 25.402344 L 82.664062 16.160156 C 82.699219 14.691406 81.914062 13.324219 80.628906 12.628906 C 79.949219 12.375 79.230469 12.234375 78.503906 12.210938 C 76.527344 12.128906 74.804688 13.546875 74.484375 15.507812 C 74.34375 16.101562 74.28125 16.710938 74.300781 17.320312 L 74.300781 25.453125 L 74.207031 25.546875 L 72.5 25.546875 C 72.40625 25.515625 72.359375 25.421875 72.359375 25.265625 L 72.359375 11.046875 C 72.382812 10.863281 72.429688 10.769531 72.5 10.769531 L 74.207031 10.769531 L 74.300781 10.863281 L 74.300781 12.117188 L 74.394531 12.210938 C 75.582031 11.019531 77.195312 10.351562 78.875 10.351562 Z M 78.875 10.351562 "/>
<path style=" stroke:none;fill-rule:nonzero;fill:rgb(0%,0%,0%);fill-opacity:1;" d="M 98.011719 5.796875 L 99.71875 5.796875 L 99.8125 5.890625 L 99.8125 8.816406 L 99.71875 8.910156 L 98.011719 8.910156 C 97.921875 8.878906 97.875 8.785156 97.875 8.632812 L 97.875 6.074219 C 97.898438 5.890625 97.949219 5.796875 98.011719 5.796875 Z M 98.011719 10.675781 L 99.71875 10.675781 L 99.8125 10.769531 L 99.8125 25.453125 L 99.71875 25.546875 L 98.011719 25.546875 C 97.921875 25.515625 97.875 25.421875 97.875 25.265625 L 97.875 10.953125 C 97.898438 10.769531 97.949219 10.675781 98.011719 10.675781 Z M 98.011719 10.675781 "/>
<path style=" stroke:none;fill-rule:nonzero;fill:rgb(0%,0%,0%);fill-opacity:1;" d="M 113.273438 5.097656 C 116.84375 5.023438 120.152344 6.984375 121.820312 10.164062 L 121.867188 10.398438 L 121.773438 10.488281 L 119.695312 10.488281 C 119.53125 10.488281 119.175781 10.132812 118.628906 9.417969 C 117.175781 7.898438 115.171875 7.042969 113.078125 7.046875 C 110.941406 7.046875 108.886719 7.878906 107.347656 9.371094 C 105.820312 10.957031 104.945312 13.066406 104.894531 15.273438 C 104.933594 17.808594 106.042969 20.207031 107.945312 21.871094 C 109.390625 23.019531 111.183594 23.644531 113.027344 23.636719 C 115.367188 23.578125 117.5625 22.492188 119.035156 20.664062 C 119.789062 19.742188 120.324219 18.660156 120.605469 17.503906 L 120.570312 17.464844 L 110.820312 17.464844 L 110.679688 17.324219 L 110.679688 15.789062 L 110.773438 15.695312 L 122.878906 15.695312 C 122.941406 15.695312 122.972656 15.742188 122.972656 15.832031 C 122.898438 17.796875 122.273438 19.695312 121.167969 21.316406 C 119.242188 23.996094 116.140625 25.574219 112.851562 25.546875 C 110.429688 25.578125 108.078125 24.71875 106.246094 23.128906 C 104.148438 21.128906 102.933594 18.367188 102.871094 15.460938 L 102.871094 15.042969 C 102.90625 11.800781 104.464844 8.769531 107.074219 6.867188 C 108.929688 5.6875 111.082031 5.074219 113.273438 5.097656 Z M 113.273438 5.097656 "/>
<path style=" stroke:none;fill-rule:nonzero;fill:rgb(0%,0%,0%);fill-opacity:1;" d="M 133.84375 10.082031 C 136.601562 10.082031 139.128906 11.621094 140.40625 14.078125 C 141.039062 15.25 141.386719 16.558594 141.421875 17.890625 C 141.40625 20.492188 140.175781 22.9375 138.09375 24.488281 C 136.765625 25.371094 135.207031 25.839844 133.613281 25.835938 C 131.546875 25.851562 129.566406 24.992188 128.160156 23.464844 C 126.851562 21.898438 126.101562 19.933594 126.035156 17.886719 C 126.09375 15.425781 127.246094 13.125 129.175781 11.613281 C 130.527344 10.609375 132.164062 10.074219 133.84375 10.082031 Z M 128.113281 17.984375 C 128.105469 19.9375 128.988281 21.789062 130.515625 23 C 131.871094 23.925781 133.558594 24.210938 135.136719 23.785156 C 136.71875 23.355469 138.035156 22.253906 138.742188 20.773438 C 139.128906 19.925781 139.335938 19.007812 139.34375 18.074219 L 139.34375 17.753906 C 139.328125 15.796875 138.382812 13.964844 136.800781 12.828125 C 135.875 12.273438 134.828125 11.96875 133.75 11.945312 C 132.222656 11.929688 130.757812 12.570312 129.730469 13.710938 C 128.675781 14.878906 128.097656 16.40625 128.113281 17.984375 Z M 128.113281 17.984375 "/>
<path style=" stroke:none;fill-rule:nonzero;fill:rgb(0%,0%,0%);fill-opacity:1;" d="M 149.609375 9.792969 L 149.703125 9.792969 C 151.648438 9.65625 153.382812 11.019531 153.722656 12.953125 L 153.769531 13.695312 L 153.769531 13.789062 L 153.628906 13.929688 L 151.78125 13.929688 C 151.667969 13.929688 151.574219 13.632812 151.503906 13.046875 C 151.164062 12.171875 150.3125 11.613281 149.378906 11.652344 C 148.300781 11.652344 147.382812 12.441406 147.207031 13.511719 L 147.207031 13.976562 C 147.207031 15.128906 148.148438 15.953125 150.023438 16.445312 C 151.332031 16.726562 152.507812 17.445312 153.351562 18.488281 C 153.828125 19.304688 154.050781 20.242188 154 21.183594 C 153.972656 22.757812 153.109375 24.195312 151.734375 24.945312 C 150.929688 25.34375 150.046875 25.550781 149.148438 25.550781 C 146.78125 25.550781 145.257812 24.234375 144.574219 21.601562 L 144.480469 20.527344 L 144.617188 20.390625 L 146.375 20.390625 C 146.46875 20.390625 146.558594 20.792969 146.652344 21.597656 C 146.910156 22.824219 147.992188 23.695312 149.238281 23.6875 C 150.429688 23.742188 151.492188 22.945312 151.78125 21.78125 L 151.828125 21.363281 L 151.828125 21.042969 C 151.828125 19.804688 150.949219 18.90625 149.195312 18.347656 C 147.328125 17.75 146.144531 17.023438 145.636719 16.164062 C 145.273438 15.460938 145.097656 14.675781 145.125 13.886719 C 145.171875 12.523438 145.855469 11.265625 146.976562 10.496094 C 147.769531 10.011719 148.683594 9.769531 149.609375 9.792969 Z M 149.609375 9.792969 "/>
<path style=" stroke:none;fill-rule:nonzero;fill:rgb(0%,0%,0%);fill-opacity:1;" d="M 56.035156 31.699219 L 57.742188 31.699219 L 57.832031 31.789062 L 57.832031 42.386719 L 57.925781 42.480469 L 57.972656 42.480469 C 58.101562 42.253906 61.089844 38.660156 66.933594 31.699219 L 69.0625 31.699219 L 69.15625 31.789062 L 69.15625 31.84375 L 61.394531 41.230469 L 61.394531 41.277344 L 68.925781 51.308594 L 68.925781 51.402344 L 68.878906 51.445312 L 66.707031 51.445312 C 66.421875 51.191406 64.773438 49.070312 61.761719 45.082031 L 60.007812 42.894531 C 59.164062 43.707031 58.433594 44.628906 57.835938 45.636719 L 57.835938 51.351562 L 57.742188 51.445312 L 56.035156 51.445312 C 55.941406 51.414062 55.898438 51.320312 55.898438 51.164062 L 55.898438 31.976562 C 55.917969 31.789062 55.964844 31.699219 56.035156 31.699219 Z M 56.035156 31.699219 "/>
<path style=" stroke:none;fill-rule:nonzero;fill:rgb(0%,0%,0%);fill-opacity:1;" d="M 72.355469 31.699219 L 74.0625 31.699219 L 74.152344 31.789062 L 74.152344 34.71875 L 74.0625 34.8125 L 72.355469 34.8125 C 72.261719 34.78125 72.214844 34.6875 72.214844 34.53125 L 72.214844 31.976562 C 72.238281 31.789062 72.285156 31.699219 72.355469 31.699219 Z M 72.355469 36.578125 L 74.0625 36.578125 L 74.152344 36.671875 L 74.152344 51.355469 L 74.0625 51.445312 L 72.355469 51.445312 C 72.261719 51.417969 72.214844 51.324219 72.214844 51.167969 L 72.214844 36.855469 C 72.238281 36.671875 72.285156 36.578125 72.355469 36.578125 Z M 72.355469 36.578125 "/>
<path style=" stroke:none;fill-rule:nonzero;fill:rgb(0%,0%,0%);fill-opacity:1;" d="M 80.128906 31.699219 L 81.886719 31.699219 L 81.976562 31.789062 L 81.976562 36.53125 L 82.207031 36.578125 L 84.703125 36.578125 L 84.796875 36.671875 L 84.796875 38.433594 L 84.65625 38.574219 L 82.066406 38.574219 L 81.976562 38.667969 L 81.976562 51.308594 L 81.835938 51.445312 L 80.171875 51.445312 L 80.03125 51.308594 L 80.03125 38.667969 L 79.941406 38.574219 L 77.308594 38.574219 L 77.214844 38.484375 L 77.214844 36.671875 L 77.308594 36.578125 L 79.800781 36.578125 L 80.03125 36.53125 L 80.03125 31.789062 Z M 80.128906 31.699219 "/>
<path style=" stroke:none;fill-rule:nonzero;fill:rgb(0%,0%,0%);fill-opacity:1;" d="M 95.660156 36.054688 L 95.707031 36.054688 C 98.3125 36.03125 100.726562 37.414062 102.039062 39.675781 C 102.308594 40.074219 102.511719 40.511719 102.640625 40.976562 L 102.5 41.070312 L 100.742188 41.070312 C 100.550781 41.070312 100.320312 40.804688 100.050781 40.277344 C 99.03125 38.800781 97.359375 37.914062 95.570312 37.910156 C 93.011719 37.910156 91.226562 39.257812 90.210938 41.953125 C 90.035156 42.570312 89.941406 43.210938 89.933594 43.855469 C 89.914062 45.957031 90.914062 47.933594 92.613281 49.160156 C 93.496094 49.640625 94.476562 49.910156 95.476562 49.949219 C 97.421875 49.984375 99.226562 48.953125 100.1875 47.253906 C 100.375 46.851562 100.496094 46.648438 100.558594 46.648438 L 102.546875 46.648438 C 102.605469 46.648438 102.636719 46.695312 102.636719 46.789062 C 102.277344 47.871094 101.675781 48.855469 100.882812 49.667969 C 99.472656 51.078125 97.554688 51.851562 95.566406 51.808594 C 92.613281 51.855469 89.910156 50.140625 88.683594 47.4375 C 88.15625 46.300781 87.875 45.066406 87.851562 43.8125 C 87.890625 41.304688 89.109375 38.964844 91.132812 37.496094 C 92.453125 36.550781 94.039062 36.046875 95.660156 36.054688 Z M 95.660156 36.054688 "/>
<path style=" stroke:none;fill-rule:nonzero;fill:rgb(0%,0%,0%);fill-opacity:1;" d="M 105.835938 31.699219 L 107.542969 31.699219 L 107.636719 31.789062 L 107.636719 38.066406 L 107.730469 38.160156 C 108.832031 36.863281 110.472656 36.160156 112.164062 36.253906 L 112.304688 36.253906 C 114.808594 36.078125 117.105469 37.652344 117.851562 40.0625 C 118.054688 40.726562 118.160156 41.414062 118.171875 42.109375 L 118.171875 51.308594 L 118.035156 51.445312 L 116.371094 51.445312 L 116.230469 51.308594 L 116.230469 42.15625 C 116.3125 40.550781 115.390625 39.066406 113.921875 38.433594 C 113.339844 38.242188 112.730469 38.132812 112.117188 38.113281 C 110.117188 37.945312 108.296875 39.296875 107.871094 41.269531 C 107.710938 41.84375 107.632812 42.441406 107.640625 43.035156 L 107.640625 51.355469 L 107.546875 51.445312 L 105.839844 51.445312 C 105.75 51.417969 105.703125 51.324219 105.703125 51.167969 L 105.703125 31.976562 C 105.71875 31.789062 105.765625 31.699219 105.835938 31.699219 Z M 105.835938 31.699219 "/>
<path style=" stroke:none;fill-rule:nonzero;fill:rgb(0%,0%,0%);fill-opacity:1;" d="M 129.226562 36.148438 C 132.390625 36.148438 134.671875 37.804688 136.066406 41.121094 C 136.421875 42.214844 136.605469 43.359375 136.621094 44.511719 L 136.484375 44.605469 L 123.40625 44.605469 C 123.34375 44.605469 123.3125 44.652344 123.3125 44.746094 C 123.414062 46.316406 124.148438 47.773438 125.347656 48.785156 C 126.339844 49.597656 127.578125 50.042969 128.859375 50.042969 C 131.058594 50.078125 133.066406 48.773438 133.941406 46.742188 L 135.96875 46.742188 L 136.0625 46.835938 L 136.0625 46.882812 C 135.34375 48.8125 133.902344 50.382812 132.039062 51.25 C 128.59375 52.769531 124.558594 51.550781 122.523438 48.367188 C 121.671875 46.984375 121.226562 45.394531 121.230469 43.769531 C 121.25 41.300781 122.410156 38.980469 124.371094 37.496094 C 125.828125 36.585938 127.511719 36.121094 129.226562 36.148438 Z M 123.40625 42.886719 L 123.453125 42.933594 L 134.308594 42.933594 L 134.402344 42.839844 C 134.207031 41.707031 133.714844 40.644531 132.972656 39.773438 C 131.957031 38.582031 130.460938 37.917969 128.90625 37.960938 C 126.488281 37.863281 124.316406 39.433594 123.636719 41.769531 C 123.496094 42.125 123.417969 42.503906 123.40625 42.886719 Z M 123.40625 42.886719 "/>
<path style=" stroke:none;fill-rule:nonzero;fill:rgb(0%,0%,0%);fill-opacity:1;" d="M 146.332031 36.25 L 146.425781 36.25 C 148.917969 36.140625 151.167969 37.75 151.878906 40.15625 C 152.054688 40.773438 152.148438 41.417969 152.15625 42.0625 L 152.15625 51.308594 L 152.019531 51.445312 L 150.355469 51.445312 L 150.214844 51.308594 L 150.214844 42.15625 C 150.269531 40.730469 149.566406 39.382812 148.367188 38.621094 C 147.667969 38.304688 146.914062 38.128906 146.148438 38.109375 C 144.023438 37.9375 142.117188 39.429688 141.757812 41.542969 C 141.660156 42.097656 141.613281 42.65625 141.621094 43.21875 L 141.621094 51.351562 L 141.527344 51.441406 L 139.820312 51.441406 C 139.730469 51.414062 139.683594 51.320312 139.683594 51.164062 L 139.683594 36.949219 C 139.707031 36.761719 139.753906 36.671875 139.820312 36.671875 L 141.527344 36.671875 L 141.621094 36.761719 L 141.621094 38.019531 L 141.714844 38.109375 C 142.953125 36.910156 144.609375 36.242188 146.332031 36.25 Z M 146.332031 36.25 "/>
</g>
</svg>
