<?xml version="1.0" encoding="UTF-8"?>
<svg xmlns="http://www.w3.org/2000/svg" xmlns:xlink="http://www.w3.org/1999/xlink" width="119pt" height="44pt" viewBox="0 0 119 44" version="1.1">
<g id="surface1">
<path style=" stroke:none;fill-rule:evenodd;fill:rgb(94.901961%,40.392157%,12.941176%);fill-opacity:1;" d="M 16.96875 1.445312 C 15.023438 1.628906 13.070312 2.574219 12.515625 3.984375 C 12.339844 4.421875 12.535156 4.75 12.691406 5.378906 C 12.832031 5.785156 13.148438 6.105469 13.546875 6.257812 C 14.480469 6.691406 15.515625 6.851562 16.53125 6.722656 C 18.464844 6.539062 20.4375 5.554688 20.953125 4.15625 C 21.253906 3.257812 20.808594 2.28125 19.9375 1.929688 C 19.011719 1.492188 17.980469 1.324219 16.964844 1.445312 M 11.367188 4.453125 C 9.972656 4.972656 8.652344 5.664062 7.429688 6.511719 C 6.699219 7.019531 6.003906 7.574219 5.34375 8.171875 C 3.902344 9.523438 2.675781 11.097656 1.71875 12.832031 C 0.949219 14.1875 0.371094 15.644531 0.00390625 17.160156 L 0.933594 17.167969 C 1.324219 15.824219 1.882812 14.539062 2.597656 13.335938 C 3.28125 12.214844 4.097656 11.175781 5.027344 10.25 C 5.785156 9.515625 5.792969 9.535156 6.476562 8.929688 C 7.507812 8.089844 8.628906 7.363281 9.816406 6.761719 C 10.445312 6.429688 11.097656 6.152344 11.773438 5.933594 C 12.078125 6.394531 12.507812 6.761719 13.011719 6.996094 C 14.863281 7.761719 16.925781 7.820312 18.816406 7.164062 C 19.910156 6.832031 20.921875 6.273438 21.789062 5.523438 C 22.589844 4.753906 23.476562 3.675781 23.097656 2.34375 C 22.667969 1.257812 21.707031 0.476562 20.5625 0.273438 C 17.773438 -0.480469 13.789062 0.585938 12.085938 2.824219 C 11.710938 3.296875 11.46875 3.859375 11.371094 4.457031 Z M 11.367188 4.453125 "/>
<path style=" stroke:none;fill-rule:evenodd;fill:rgb(94.901961%,40.392157%,12.941176%);fill-opacity:1;" d="M 31.808594 27.558594 L 28.25 27.558594 C 28.085938 27.761719 27.980469 27.933594 27.800781 28.148438 C 27.421875 28.613281 26.984375 29.015625 26.566406 29.441406 C 25.769531 30.207031 24.882812 30.863281 23.921875 31.402344 C 22.980469 31.914062 21.964844 32.273438 20.914062 32.46875 C 17.847656 33.027344 14.683594 32.285156 12.183594 30.410156 C 11.984375 30.269531 11.796875 30.117188 11.617188 29.953125 L 11.09375 29.457031 C 10.917969 29.28125 10.777344 29.136719 10.585938 28.945312 C 10.359375 28.722656 9.835938 28.082031 9.648438 27.839844 C 9.40625 27.519531 9.429688 27.539062 8.9375 27.539062 C 8.0625 27.539062 6.648438 27.5 5.910156 27.546875 C 6.101562 28.171875 6.378906 28.761719 6.734375 29.308594 C 7.0625 29.851562 7.433594 30.363281 7.851562 30.839844 C 8.070312 31.089844 8.261719 31.308594 8.480469 31.535156 C 13.488281 36.347656 21.125 37.089844 26.957031 33.332031 C 28.539062 32.296875 29.878906 30.933594 30.894531 29.335938 C 31.269531 28.78125 31.574219 28.183594 31.804688 27.558594 "/>
<path style=" stroke:none;fill-rule:evenodd;fill:rgb(94.901961%,40.392157%,12.941176%);fill-opacity:1;" d="M 5.941406 16.992188 C 6.988281 16.992188 8.257812 17.019531 9.277344 16.992188 C 9.53125 16.988281 9.550781 16.851562 9.859375 16.457031 C 10.535156 15.621094 11.292969 14.863281 12.125 14.1875 C 15.144531 11.890625 19.113281 11.285156 22.675781 12.578125 C 24.210938 13.183594 25.605469 14.101562 26.765625 15.28125 C 27.15625 15.648438 27.519531 16.042969 27.859375 16.460938 C 27.957031 16.582031 28.019531 16.660156 28.105469 16.78125 C 28.21875 16.949219 28.1875 16.996094 28.433594 17 C 29.132812 17.007812 31.335938 17.03125 31.789062 16.992188 C 31.574219 16.386719 31.285156 15.816406 30.933594 15.28125 C 28.542969 11.304688 23.714844 8.847656 18.886719 8.851562 C 15.34375 8.800781 11.90625 10.046875 9.207031 12.355469 C 8.734375 12.761719 8.292969 13.207031 7.894531 13.6875 C 7.476562 14.160156 7.101562 14.671875 6.773438 15.214844 C 6.410156 15.761719 6.128906 16.363281 5.9375 16.996094 "/>
<path style=" stroke:none;fill-rule:evenodd;fill:rgb(94.901961%,40.392157%,12.941176%);fill-opacity:1;" d="M 12.59375 28.785156 C 12.613281 28.734375 12.683594 28.75 12.742188 28.785156 C 12.695312 28.726562 12.679688 28.660156 12.726562 28.632812 C 12.808594 28.582031 12.878906 28.78125 12.855469 28.863281 C 12.84375 28.859375 12.828125 28.855469 12.8125 28.847656 C 12.824219 28.859375 12.832031 28.871094 12.835938 28.882812 C 12.746094 28.929688 12.558594 28.871094 12.589844 28.785156 M 12.976562 29.269531 C 12.894531 29.292969 12.808594 29.289062 12.730469 29.257812 C 12.535156 29.175781 12.445312 28.949219 12.523438 28.753906 C 12.566406 28.636719 12.664062 28.546875 12.785156 28.511719 L 12.792969 28.554688 C 12.652344 28.597656 12.550781 28.722656 12.542969 28.871094 C 12.53125 29.019531 12.617188 29.15625 12.75 29.214844 C 12.820312 29.242188 12.894531 29.246094 12.964844 29.226562 Z M 15.566406 28.03125 C 15.640625 28.03125 15.703125 28.082031 15.722656 28.152344 L 15.242188 28.542969 C 15.195312 28.519531 15.160156 28.476562 15.148438 28.421875 C 15.140625 28.371094 15.160156 28.316406 15.199219 28.277344 C 15.152344 28.207031 15.171875 28.117188 15.234375 28.066406 C 15.300781 28.019531 15.394531 28.027344 15.449219 28.089844 C 15.476562 28.050781 15.523438 28.03125 15.570312 28.035156 Z M 15.4375 28.46875 L 15.734375 28.230469 L 16.085938 29.109375 L 15.855469 28.960938 L 15.9375 28.953125 L 15.9375 28.898438 L 15.769531 28.902344 L 15.6875 28.847656 L 15.863281 28.855469 L 15.863281 28.800781 L 15.625 28.800781 L 15.542969 28.738281 L 15.773438 28.738281 L 15.785156 28.691406 L 15.449219 28.691406 L 15.382812 28.632812 L 15.683594 28.648438 L 15.6875 28.605469 L 15.335938 28.578125 L 15.390625 28.523438 L 15.609375 28.554688 L 15.628906 28.507812 Z M 15.953125 31.042969 C 15.953125 31.042969 15.910156 30.960938 15.96875 30.925781 C 15.984375 30.914062 15.996094 30.902344 16.007812 30.890625 C 15.988281 30.855469 15.964844 30.828125 15.933594 30.808594 C 15.933594 30.808594 15.855469 30.730469 15.941406 30.769531 C 15.976562 30.789062 16.007812 30.820312 16.027344 30.855469 C 16.070312 30.847656 16.109375 30.863281 16.132812 30.898438 C 16.246094 31.132812 16.273438 31.222656 16.351562 31.285156 C 16.425781 31.347656 16.539062 31.371094 16.839844 31.363281 C 16.664062 31.445312 16.472656 31.46875 16.285156 31.433594 C 15.996094 31.296875 15.992188 31.113281 15.992188 31.113281 C 16.007812 31.09375 16.019531 31.074219 16.023438 31.050781 C 16.03125 31.03125 16.035156 31.011719 16.03125 30.992188 C 16.03125 30.992188 15.972656 31.113281 15.960938 31.039062 Z M 16.957031 30.988281 C 16.957031 30.988281 17.046875 30.9375 17.039062 30.890625 C 17.035156 30.84375 17.015625 30.824219 17.019531 30.808594 C 17.058594 30.796875 17.097656 30.796875 17.132812 30.808594 C 17.132812 30.808594 17.214844 30.800781 17.15625 30.773438 C 17.117188 30.753906 17.074219 30.753906 17.035156 30.773438 C 16.992188 30.746094 16.941406 30.734375 16.890625 30.75 C 16.835938 30.765625 16.714844 30.980469 16.480469 30.949219 C 16.3125 30.902344 16.164062 30.800781 16.058594 30.660156 C 16.121094 30.84375 16.242188 31 16.402344 31.105469 C 16.566406 31.175781 16.757812 31.152344 16.902344 31.042969 C 16.890625 30.988281 16.871094 30.898438 16.929688 30.867188 C 16.929688 30.875 16.902344 31.035156 16.960938 31 Z M 18.359375 29.167969 L 18.457031 29.238281 L 18.535156 29.023438 Z M 18.695312 29.0625 L 18.792969 29.101562 L 18.71875 29.265625 L 18.59375 29.238281 Z M 18.933594 29.128906 L 18.832031 29.265625 L 18.957031 29.300781 L 19.039062 29.160156 Z M 19.152344 29.148438 L 19.109375 29.28125 L 19.3125 29.175781 Z M 18.976562 28.914062 C 19.074219 28.722656 18.890625 28.804688 18.960938 28.582031 C 18.785156 28.734375 18.988281 28.773438 18.980469 28.914062 Z M 19.082031 28.871094 C 19.234375 28.542969 18.988281 28.679688 19.125 28.425781 C 18.90625 28.625 19.117188 28.625 19.085938 28.871094 Z M 18.238281 29.136719 C 18.355469 28.949219 18.59375 28.878906 18.792969 28.972656 C 19.1875 29.09375 19.269531 29.0625 19.269531 29.0625 C 19.269531 29.0625 19.503906 29.078125 19.390625 29.371094 C 19.175781 29.597656 18.234375 29.515625 18.234375 29.351562 Z M 19.410156 31.238281 C 19.378906 31.238281 19.335938 31.226562 19.371094 31.1875 C 19.453125 31.101562 19.574219 31.0625 19.691406 31.089844 C 19.707031 31.0625 19.730469 31.042969 19.757812 31.035156 C 19.777344 31.035156 19.738281 31.101562 19.753906 31.105469 C 19.765625 31.109375 19.824219 31.039062 19.839844 31.042969 C 19.855469 31.046875 19.898438 31.074219 19.902344 31.09375 C 19.914062 31.132812 19.914062 31.175781 19.902344 31.210938 C 19.882812 31.242188 19.851562 31.265625 19.820312 31.273438 C 19.800781 31.277344 19.78125 31.265625 19.773438 31.246094 C 19.773438 31.246094 19.816406 31.1875 19.796875 31.1875 C 19.78125 31.183594 19.746094 31.175781 19.742188 31.1875 L 19.734375 31.273438 C 19.734375 31.273438 19.71875 31.273438 19.695312 31.253906 C 19.679688 31.21875 19.667969 31.183594 19.664062 31.144531 C 19.570312 31.136719 19.480469 31.171875 19.414062 31.238281 Z M 19.835938 31.425781 C 19.804688 31.425781 19.757812 31.410156 19.796875 31.371094 C 19.878906 31.285156 20 31.25 20.113281 31.273438 C 20.128906 31.25 20.15625 31.230469 20.183594 31.21875 C 20.199219 31.21875 20.167969 31.289062 20.175781 31.289062 C 20.1875 31.289062 20.25 31.226562 20.265625 31.230469 C 20.292969 31.238281 20.3125 31.253906 20.328125 31.277344 C 20.34375 31.316406 20.34375 31.359375 20.328125 31.398438 C 20.308594 31.429688 20.28125 31.449219 20.246094 31.460938 C 20.226562 31.460938 20.210938 31.453125 20.203125 31.433594 C 20.203125 31.433594 20.242188 31.375 20.222656 31.371094 C 20.207031 31.367188 20.171875 31.359375 20.171875 31.371094 L 20.160156 31.457031 C 20.160156 31.457031 20.144531 31.457031 20.125 31.4375 C 20.105469 31.40625 20.09375 31.367188 20.089844 31.332031 C 20 31.320312 19.90625 31.355469 19.839844 31.417969 Z M 20.273438 31.023438 C 20.300781 31.042969 20.316406 31.09375 20.257812 31.097656 C 20.128906 31.09375 20.011719 31.027344 19.941406 30.917969 C 19.910156 30.929688 19.875 30.925781 19.847656 30.910156 C 19.835938 30.898438 19.917969 30.871094 19.90625 30.859375 C 19.894531 30.851562 19.804688 30.855469 19.796875 30.839844 C 19.78125 30.816406 19.777344 30.785156 19.78125 30.757812 C 19.804688 30.71875 19.835938 30.6875 19.875 30.664062 C 19.914062 30.65625 19.953125 30.660156 19.984375 30.683594 C 20.003906 30.695312 20.007812 30.71875 20 30.738281 C 20 30.738281 19.921875 30.753906 19.9375 30.769531 C 19.949219 30.78125 19.96875 30.816406 19.980469 30.804688 L 20.058594 30.746094 C 20.058594 30.746094 20.070312 30.746094 20.066406 30.789062 C 20.058594 30.828125 20.039062 30.863281 20.015625 30.894531 C 20.078125 30.976562 20.175781 31.019531 20.277344 31.015625 Z M 22.3125 29.078125 C 22.820312 28.957031 23.300781 29.441406 23.023438 29.804688 C 22.621094 30.332031 21.949219 29.164062 22.320312 29.074219 Z M 21.949219 28.972656 C 21.925781 28.992188 21.855469 29.070312 21.808594 29.070312 C 21.746094 29.066406 21.695312 29.019531 21.6875 28.953125 C 21.6875 28.894531 21.730469 28.847656 21.789062 28.839844 L 21.789062 28.816406 C 21.789062 28.753906 21.84375 28.699219 21.90625 28.699219 C 21.976562 28.699219 22.003906 28.839844 22.003906 28.875 C 22.003906 28.914062 22.203125 29.0625 22.179688 29.09375 C 22.132812 29.152344 21.933594 28.972656 21.953125 28.972656 Z M 22.472656 29.164062 L 22.726562 29.164062 L 22.625 29.214844 L 22.820312 29.226562 L 22.746094 29.265625 L 22.910156 29.285156 L 22.835938 29.320312 L 22.988281 29.351562 L 22.65625 29.351562 L 22.683594 29.269531 L 22.53125 29.253906 L 22.582031 29.191406 L 22.4375 29.203125 Z M 21.949219 29.050781 C 21.917969 29.109375 21.859375 29.144531 21.792969 29.144531 C 21.703125 29.152344 21.625 29.082031 21.617188 28.992188 C 21.609375 28.902344 21.675781 28.820312 21.765625 28.8125 L 21.765625 28.785156 C 21.773438 28.699219 21.847656 28.628906 21.933594 28.625 C 21.996094 28.621094 22.050781 28.648438 22.082031 28.703125 C 22.113281 28.753906 22.113281 28.820312 22.082031 28.871094 C 22.148438 28.925781 22.222656 28.976562 22.304688 29.019531 C 22.890625 28.914062 23.425781 29.429688 23.097656 29.855469 C 22.769531 30.28125 22.152344 29.726562 22.152344 29.191406 C 22.105469 29.128906 22.042969 29.082031 21.972656 29.050781 Z M 25.386719 29.027344 C 25.394531 29.035156 25.398438 29.042969 25.398438 29.050781 C 25.398438 29.0625 25.394531 29.070312 25.386719 29.074219 L 25.289062 29.183594 C 25.28125 29.191406 25.273438 29.195312 25.265625 29.195312 C 25.253906 29.195312 25.246094 29.191406 25.238281 29.183594 C 25.207031 29.160156 25.203125 29.117188 25.226562 29.085938 L 25.28125 29.019531 C 25.3125 29 25.355469 29.003906 25.382812 29.027344 Z M 25.273438 29 L 25.207031 29.074219 C 25.140625 29.148438 25.101562 29.03125 25.136719 28.988281 L 25.171875 28.945312 C 25.214844 28.886719 25.320312 28.945312 25.269531 29 Z M 25.207031 28.792969 C 25.222656 28.8125 25.222656 28.84375 25.207031 28.863281 L 25.070312 29.015625 C 25.050781 29.03125 25.023438 29.03125 25.003906 29.015625 C 24.964844 28.980469 24.957031 28.921875 24.984375 28.875 L 25.0625 28.789062 C 25.101562 28.746094 25.175781 28.769531 25.203125 28.796875 Z M 25.046875 28.785156 L 24.980469 28.859375 C 24.917969 28.925781 24.878906 28.8125 24.910156 28.765625 L 24.945312 28.726562 C 24.988281 28.667969 25.09375 28.726562 25.042969 28.785156 Z M 24.980469 28.578125 C 24.992188 28.585938 24.996094 28.597656 24.992188 28.613281 C 24.996094 28.625 24.988281 28.636719 24.980469 28.644531 L 24.847656 28.792969 C 24.828125 28.8125 24.796875 28.8125 24.777344 28.792969 C 24.738281 28.757812 24.730469 28.703125 24.757812 28.660156 L 24.839844 28.570312 C 24.878906 28.535156 24.949219 28.558594 24.976562 28.582031 Z M 24.679688 28.386719 C 24.722656 28.386719 24.761719 28.410156 24.78125 28.445312 L 24.742188 28.460938 C 24.726562 28.441406 24.703125 28.429688 24.679688 28.429688 C 24.644531 28.441406 24.621094 28.472656 24.625 28.507812 C 24.625 28.542969 24.644531 28.574219 24.679688 28.585938 C 24.710938 28.585938 24.738281 28.566406 24.753906 28.539062 L 24.792969 28.546875 C 24.792969 28.554688 24.789062 28.558594 24.785156 28.566406 L 24.804688 28.585938 L 24.765625 28.632812 L 24.742188 28.613281 C 24.722656 28.621094 24.699219 28.628906 24.679688 28.628906 C 24.636719 28.632812 24.59375 28.609375 24.570312 28.570312 C 24.546875 28.53125 24.546875 28.484375 24.570312 28.445312 C 24.589844 28.40625 24.632812 28.386719 24.675781 28.386719 Z M 25.546875 28.683594 C 25.554688 28.691406 25.558594 28.699219 25.558594 28.707031 C 25.558594 28.714844 25.554688 28.726562 25.546875 28.730469 L 25.449219 28.839844 C 25.433594 28.851562 25.417969 28.851562 25.402344 28.839844 C 25.375 28.816406 25.367188 28.773438 25.386719 28.742188 L 25.445312 28.675781 C 25.476562 28.652344 25.523438 28.65625 25.550781 28.683594 Z M 25.4375 28.652344 L 25.367188 28.730469 C 25.304688 28.800781 25.261719 28.683594 25.300781 28.640625 L 25.335938 28.597656 C 25.378906 28.542969 25.484375 28.597656 25.4375 28.65625 Z M 25.367188 28.449219 C 25.382812 28.46875 25.382812 28.496094 25.367188 28.515625 L 25.234375 28.667969 C 25.214844 28.683594 25.1875 28.683594 25.167969 28.667969 C 25.128906 28.632812 25.117188 28.574219 25.148438 28.527344 L 25.230469 28.441406 C 25.269531 28.414062 25.324219 28.417969 25.363281 28.449219 Z M 25.210938 28.4375 L 25.144531 28.511719 C 25.078125 28.582031 25.039062 28.46875 25.074219 28.421875 L 25.109375 28.382812 C 25.152344 28.324219 25.261719 28.382812 25.210938 28.4375 Z M 25.144531 28.230469 C 25.164062 28.25 25.164062 28.28125 25.144531 28.296875 L 25.007812 28.445312 C 25 28.457031 24.984375 28.460938 24.972656 28.460938 C 24.960938 28.460938 24.949219 28.457031 24.941406 28.445312 C 24.902344 28.414062 24.894531 28.355469 24.921875 28.3125 L 25 28.226562 C 25.042969 28.191406 25.105469 28.195312 25.140625 28.234375 Z M 24.847656 28.039062 C 24.886719 28.042969 24.925781 28.0625 24.945312 28.101562 L 24.90625 28.113281 C 24.882812 28.078125 24.84375 28.066406 24.804688 28.082031 C 24.769531 28.101562 24.75 28.140625 24.757812 28.179688 C 24.769531 28.21875 24.804688 28.242188 24.84375 28.242188 C 24.875 28.242188 24.90625 28.222656 24.917969 28.191406 L 24.957031 28.203125 L 24.949219 28.21875 L 24.96875 28.242188 L 24.925781 28.285156 L 24.902344 28.265625 C 24.886719 28.277344 24.867188 28.28125 24.84375 28.28125 C 24.8125 28.28125 24.78125 28.269531 24.757812 28.246094 C 24.734375 28.222656 24.722656 28.191406 24.722656 28.15625 C 24.726562 28.09375 24.777344 28.039062 24.84375 28.039062 Z M 25.5 28.824219 L 25.539062 28.785156 L 25.625 28.902344 Z M 25.335938 29.171875 L 25.371094 29.128906 L 25.460938 29.242188 Z M 12.898438 29.226562 C 12.839844 29.234375 12.816406 29.15625 12.828125 29.078125 C 12.789062 29.144531 12.726562 29.1875 12.6875 29.152344 C 12.644531 29.113281 12.671875 29.070312 12.714844 29.027344 C 12.65625 29.042969 12.597656 29.039062 12.585938 28.984375 C 12.566406 28.894531 12.773438 28.886719 12.84375 28.933594 C 12.835938 28.941406 12.832031 28.949219 12.828125 28.953125 C 12.835938 28.953125 12.84375 28.953125 12.855469 28.953125 L 12.855469 28.972656 L 12.859375 28.972656 C 12.953125 29.027344 12.996094 29.222656 12.902344 29.238281 Z M 18.410156 32.453125 L 18.863281 32.453125 C 20.742188 32.378906 22.578125 31.863281 24.21875 30.941406 C 25.292969 30.335938 26.242188 29.523438 27.003906 28.554688 C 27.285156 28.253906 27.519531 27.917969 27.707031 27.550781 C 27.496094 27.53125 10.851562 27.515625 9.769531 27.546875 C 9.953125 27.898438 10.175781 28.226562 10.441406 28.527344 C 10.695312 28.835938 10.96875 29.128906 11.261719 29.40625 C 11.757812 29.902344 12.316406 30.335938 12.921875 30.691406 C 14.554688 31.777344 16.453125 32.386719 18.410156 32.457031 Z M 18.410156 32.453125 "/>
<path style=" stroke:none;fill-rule:evenodd;fill:rgb(94.901961%,40.392157%,12.941176%);fill-opacity:1;" d="M 12.398438 15.550781 C 12.449219 15.375 12.328125 15.460938 12.386719 15.308594 C 12.277344 15.429688 12.398438 15.429688 12.398438 15.550781 M 12.476562 15.519531 C 12.589844 15.328125 12.410156 15.394531 12.503906 15.199219 C 12.316406 15.328125 12.496094 15.382812 12.476562 15.523438 Z M 15.273438 13.953125 C 15.273438 13.953125 15.535156 13.667969 15.75 13.667969 L 15.996094 14 C 15.996094 14 15.628906 14.128906 15.53125 14.324219 C 15.488281 14.28125 15.277344 13.953125 15.277344 13.953125 Z M 15.207031 13.953125 C 15.207031 13.953125 15.046875 14.039062 15.054688 13.875 C 15.0625 13.761719 15.167969 13.753906 15.242188 13.726562 C 15.199219 13.664062 15.011719 13.550781 15.226562 13.363281 C 15.328125 13.277344 15.367188 13.28125 15.433594 13.300781 C 15.523438 13.328125 15.585938 13.410156 15.585938 13.503906 L 15.636719 13.503906 C 15.664062 13.410156 15.703125 13.292969 15.835938 13.355469 C 15.875 13.367188 15.90625 13.398438 15.921875 13.4375 C 15.9375 13.476562 15.933594 13.515625 15.914062 13.550781 C 15.882812 13.59375 15.835938 13.617188 15.78125 13.613281 C 15.554688 13.648438 15.351562 13.769531 15.207031 13.953125 Z M 16.023438 14.046875 C 15.847656 14.101562 15.691406 14.207031 15.574219 14.351562 C 15.753906 14.296875 15.910156 14.191406 16.023438 14.046875 Z M 15.613281 14.136719 C 15.613281 14.136719 15.402344 13.882812 15.457031 13.859375 C 15.511719 13.835938 15.664062 14.066406 15.671875 14.09375 C 15.605469 14.035156 15.546875 13.972656 15.488281 13.90625 Z M 15.714844 14.0625 C 15.714844 14.0625 15.5 13.808594 15.554688 13.785156 C 15.609375 13.761719 15.761719 13.996094 15.769531 14.019531 C 15.707031 13.964844 15.644531 13.902344 15.589844 13.835938 Z M 15.839844 14.003906 C 15.839844 14.003906 15.625 13.75 15.679688 13.726562 C 15.738281 13.703125 15.894531 13.9375 15.898438 13.960938 C 15.835938 13.902344 15.777344 13.839844 15.722656 13.773438 Z M 15.503906 14.21875 C 15.503906 14.21875 15.289062 13.964844 15.34375 13.941406 C 15.398438 13.917969 15.550781 14.148438 15.558594 14.175781 C 15.492188 14.117188 15.433594 14.054688 15.375 13.988281 Z M 15.152344 13.695312 C 14.851562 13.441406 15.503906 13.007812 15.625 13.414062 C 15.84375 13.050781 16.199219 13.613281 15.808594 13.660156 C 15.882812 13.761719 15.984375 13.90625 16.074219 14.042969 C 15.964844 14.332031 15.527344 14.40625 15.527344 14.40625 L 15.226562 13.980469 C 15.082031 14.136719 14.839844 13.792969 15.152344 13.695312 Z M 16.875 15.71875 C 16.929688 15.585938 16.796875 15.613281 16.863281 15.484375 C 16.738281 15.59375 16.863281 15.621094 16.871094 15.71875 Z M 16.953125 15.691406 C 17.050781 15.488281 16.878906 15.542969 16.980469 15.375 C 16.792969 15.496094 16.972656 15.550781 16.949219 15.691406 Z M 17.035156 15.765625 L 17.089844 15.773438 C 17.140625 15.703125 17.195312 15.644531 17.257812 15.585938 C 17.238281 15.65625 17.226562 15.726562 17.230469 15.800781 L 17.347656 15.957031 C 17.277344 15.9375 17.199219 15.898438 17.128906 15.875 L 17.097656 15.914062 Z M 16.828125 15.753906 C 16.882812 15.753906 16.933594 15.753906 16.984375 15.761719 L 17.066406 15.945312 C 17.035156 15.984375 17 16.023438 16.960938 16.058594 Z M 16.59375 15.671875 C 16.640625 15.695312 16.722656 15.742188 16.742188 15.753906 L 16.785156 15.753906 L 16.929688 16.085938 C 16.894531 16.117188 16.859375 16.144531 16.820312 16.171875 Z M 16.480469 16.007812 C 16.496094 16.003906 16.511719 16.015625 16.519531 16.03125 C 16.523438 16.042969 16.523438 16.0625 16.511719 16.074219 C 16.5 16.085938 16.480469 16.09375 16.464844 16.085938 C 16.449219 16.078125 16.441406 16.0625 16.441406 16.046875 C 16.445312 16.027344 16.464844 16.011719 16.484375 16.011719 Z M 16.34375 16.160156 C 16.359375 16.035156 16.417969 15.921875 16.507812 15.839844 C 16.519531 15.785156 16.53125 15.730469 16.546875 15.679688 L 16.78125 16.195312 L 16.796875 16.304688 L 16.6875 16.238281 C 16.6875 16.238281 16.40625 16.246094 16.34375 16.167969 Z M 19.257812 13.375 L 19.257812 13.449219 C 19.273438 13.484375 19.304688 13.503906 19.339844 13.507812 C 19.390625 13.5 19.425781 13.460938 19.425781 13.414062 C 19.425781 13.363281 19.390625 13.324219 19.339844 13.320312 C 19.304688 13.324219 19.273438 13.347656 19.261719 13.382812 Z M 18.628906 13.765625 L 19.339844 13.765625 L 19.269531 13.882812 L 18.710938 13.882812 Z M 18.957031 13.167969 C 19.011719 13.035156 18.882812 13.0625 18.945312 12.929688 C 18.820312 13.046875 18.945312 13.070312 18.957031 13.171875 Z M 19.035156 13.136719 C 19.132812 12.9375 18.960938 12.992188 19.058594 12.816406 C 18.875 12.949219 19.054688 13.003906 19.035156 13.144531 Z M 19.34375 13.265625 C 19.425781 13.265625 19.492188 13.332031 19.492188 13.414062 C 19.492188 13.496094 19.425781 13.5625 19.34375 13.5625 C 19.316406 13.5625 19.285156 13.554688 19.261719 13.535156 L 19.261719 13.582031 C 19.261719 13.648438 19.207031 13.703125 19.140625 13.703125 L 18.816406 13.703125 C 18.75 13.699219 18.695312 13.648438 18.695312 13.582031 L 18.695312 13.222656 L 19.257812 13.222656 L 19.257812 13.285156 C 19.28125 13.269531 19.3125 13.261719 19.339844 13.261719 Z M 21.355469 14.914062 C 21.605469 14.914062 21.8125 15.027344 21.8125 15.167969 C 21.8125 15.308594 21.605469 15.421875 21.355469 15.421875 C 21.105469 15.421875 20.902344 15.3125 20.902344 15.167969 C 20.902344 15.027344 21.105469 14.917969 21.355469 14.917969 Z M 20.90625 15.34375 L 20.84375 15.339844 L 20.855469 15.390625 L 20.835938 15.453125 C 20.835938 15.453125 20.902344 15.457031 20.90625 15.472656 L 20.921875 15.535156 C 21.007812 15.574219 21.09375 15.609375 21.183594 15.640625 C 21.234375 15.621094 21.28125 15.589844 21.320312 15.558594 C 21.363281 15.585938 21.410156 15.609375 21.457031 15.628906 C 21.507812 15.644531 21.558594 15.644531 21.609375 15.628906 L 21.742188 15.542969 L 21.726562 15.46875 L 21.808594 15.40625 L 21.808594 15.359375 L 21.863281 15.378906 L 21.902344 15.300781 L 21.855469 15.261719 C 21.769531 15.351562 21.65625 15.414062 21.535156 15.4375 C 21.398438 15.472656 21.253906 15.476562 21.113281 15.445312 C 21.050781 15.421875 20.902344 15.355469 20.902344 15.355469 Z M 20.953125 15.59375 C 20.953125 15.59375 21.273438 15.6875 21.289062 15.6875 C 21.300781 15.6875 21.578125 15.671875 21.601562 15.664062 C 21.625 15.65625 21.789062 15.585938 21.789062 15.585938 L 21.652344 15.695312 L 21.390625 15.730469 L 21.183594 15.710938 L 21.046875 15.648438 Z M 20.910156 15.675781 C 21.042969 15.785156 21.207031 15.847656 21.378906 15.859375 C 21.46875 15.859375 21.558594 15.839844 21.640625 15.796875 C 21.679688 15.765625 21.785156 15.695312 21.785156 15.695312 C 21.40625 15.882812 21.292969 15.808594 20.914062 15.679688 Z M 21.355469 15.199219 C 21.363281 15.199219 21.371094 15.203125 21.375 15.207031 C 21.378906 15.210938 21.382812 15.21875 21.382812 15.222656 C 21.382812 15.230469 21.378906 15.238281 21.375 15.242188 C 21.367188 15.246094 21.363281 15.25 21.355469 15.25 C 21.34375 15.246094 21.328125 15.238281 21.324219 15.222656 C 21.332031 15.210938 21.34375 15.203125 21.355469 15.207031 Z M 21.4375 15.097656 C 21.453125 15.097656 21.46875 15.105469 21.476562 15.117188 C 21.480469 15.132812 21.480469 15.148438 21.46875 15.160156 C 21.460938 15.167969 21.445312 15.171875 21.429688 15.167969 C 21.417969 15.164062 21.410156 15.148438 21.40625 15.136719 C 21.40625 15.117188 21.421875 15.105469 21.4375 15.105469 Z M 21.488281 14.992188 C 21.5 14.996094 21.507812 15 21.511719 15.003906 C 21.519531 15.011719 21.523438 15.019531 21.527344 15.027344 C 21.527344 15.039062 21.519531 15.050781 21.511719 15.054688 C 21.507812 15.058594 21.5 15.0625 21.488281 15.0625 C 21.480469 15.0625 21.46875 15.058594 21.464844 15.054688 C 21.457031 15.046875 21.453125 15.039062 21.453125 15.027344 C 21.457031 15.011719 21.472656 15 21.488281 15 Z M 21.375 14.957031 C 21.402344 14.957031 21.425781 14.976562 21.425781 14.996094 C 21.421875 15.019531 21.398438 15.039062 21.375 15.035156 C 21.351562 15.035156 21.328125 15.019531 21.328125 14.996094 C 21.335938 14.976562 21.355469 14.960938 21.378906 14.964844 Z M 21.285156 15.019531 C 21.300781 15.019531 21.3125 15.027344 21.316406 15.042969 C 21.320312 15.054688 21.316406 15.066406 21.3125 15.078125 C 21.300781 15.085938 21.285156 15.089844 21.273438 15.085938 C 21.261719 15.078125 21.253906 15.066406 21.253906 15.054688 C 21.257812 15.039062 21.269531 15.027344 21.285156 15.027344 Z M 21.21875 15.132812 L 21.230469 15.132812 L 21.234375 15.144531 C 21.234375 15.152344 21.226562 15.160156 21.21875 15.160156 C 21.210938 15.160156 21.207031 15.160156 21.203125 15.160156 L 21.199219 15.148438 L 21.203125 15.136719 C 21.203125 15.136719 21.214844 15.136719 21.21875 15.136719 Z M 21.125 15.085938 C 21.132812 15.085938 21.136719 15.089844 21.144531 15.09375 C 21.148438 15.101562 21.152344 15.109375 21.152344 15.117188 C 21.152344 15.125 21.148438 15.132812 21.144531 15.136719 C 21.136719 15.144531 21.132812 15.148438 21.125 15.148438 C 21.117188 15.148438 21.105469 15.144531 21.101562 15.140625 C 21.097656 15.132812 21.09375 15.125 21.09375 15.117188 C 21.09375 15.109375 21.097656 15.101562 21.105469 15.097656 C 21.109375 15.089844 21.117188 15.089844 21.125 15.089844 Z M 21.152344 15.023438 C 21.171875 15.023438 21.183594 15.035156 21.183594 15.046875 C 21.183594 15.058594 21.167969 15.070312 21.152344 15.070312 C 21.132812 15.070312 21.121094 15.058594 21.121094 15.046875 C 21.121094 15.03125 21.136719 15.027344 21.15625 15.027344 Z M 21.023438 15.078125 C 21.039062 15.078125 21.050781 15.085938 21.058594 15.097656 C 21.0625 15.109375 21.058594 15.125 21.050781 15.132812 C 21.042969 15.144531 21.03125 15.148438 21.015625 15.144531 C 21.007812 15.136719 21.003906 15.128906 21 15.117188 C 21 15.101562 21.011719 15.085938 21.027344 15.082031 Z M 21.5625 15.125 C 21.574219 15.128906 21.585938 15.144531 21.585938 15.15625 C 21.582031 15.171875 21.570312 15.179688 21.558594 15.183594 C 21.546875 15.183594 21.539062 15.179688 21.53125 15.171875 C 21.527344 15.164062 21.527344 15.152344 21.53125 15.144531 C 21.539062 15.136719 21.546875 15.132812 21.558594 15.132812 Z M 21.359375 14.878906 C 21.640625 14.878906 21.867188 15.007812 21.867188 15.164062 C 21.871094 15.175781 21.871094 15.183594 21.867188 15.195312 C 21.90625 15.210938 21.96875 15.246094 21.96875 15.304688 C 21.96875 15.386719 21.964844 15.445312 21.949219 15.449219 C 21.921875 15.445312 21.894531 15.433594 21.867188 15.417969 C 21.863281 15.445312 21.859375 15.46875 21.859375 15.496094 L 21.859375 15.683594 C 21.738281 15.960938 21.132812 16.015625 20.875 15.71875 C 20.867188 15.652344 20.863281 15.582031 20.867188 15.515625 C 20.867188 15.515625 20.761719 15.515625 20.765625 15.476562 C 20.765625 15.441406 20.792969 15.417969 20.804688 15.390625 C 20.804688 15.375 20.757812 15.3125 20.765625 15.300781 C 20.792969 15.292969 20.820312 15.285156 20.847656 15.28125 L 20.898438 15.296875 C 20.863281 15.261719 20.84375 15.214844 20.84375 15.164062 C 20.847656 15.011719 21.082031 14.882812 21.359375 14.882812 Z M 22.515625 13.648438 C 22.515625 13.59375 22.582031 13.582031 22.652344 13.597656 C 22.589844 13.558594 22.546875 13.5 22.582031 13.457031 C 22.644531 13.382812 22.777344 13.542969 22.789062 13.625 L 22.742188 13.625 C 22.753906 13.628906 22.765625 13.636719 22.777344 13.648438 C 22.710938 13.734375 22.515625 13.75 22.515625 13.652344 Z M 23.050781 13.953125 C 22.988281 14.007812 22.90625 14.035156 22.820312 14.035156 C 22.609375 14.03125 22.441406 13.859375 22.441406 13.644531 C 22.441406 13.519531 22.5 13.402344 22.597656 13.328125 L 22.621094 13.363281 C 22.5 13.453125 22.453125 13.609375 22.5 13.75 C 22.542969 13.890625 22.671875 13.992188 22.820312 13.996094 C 22.894531 13.996094 22.964844 13.96875 23.023438 13.921875 Z M 22.957031 13.945312 C 22.90625 13.972656 22.859375 13.90625 22.835938 13.835938 C 22.824219 13.90625 22.789062 13.972656 22.730469 13.957031 C 22.675781 13.9375 22.6875 13.882812 22.710938 13.828125 C 22.664062 13.867188 22.605469 13.882812 22.578125 13.839844 C 22.527344 13.757812 22.714844 13.671875 22.796875 13.695312 C 22.796875 13.703125 22.796875 13.710938 22.796875 13.71875 C 22.804688 13.714844 22.8125 13.710938 22.820312 13.707031 L 22.828125 13.722656 L 22.828125 13.714844 C 22.9375 13.734375 23.046875 13.898438 22.964844 13.945312 Z M 25.4375 16.03125 C 25.460938 16.226562 25.027344 16.574219 24.855469 16.5625 C 24.855469 16.480469 24.875 16.394531 24.917969 16.324219 L 24.957031 16.363281 C 24.96875 16.375 24.992188 16.375 25.003906 16.363281 C 25.011719 16.359375 25.015625 16.351562 25.015625 16.34375 C 25.015625 16.332031 25.011719 16.324219 25.003906 16.316406 L 24.953125 16.261719 C 24.972656 16.230469 24.992188 16.199219 25.015625 16.171875 L 25.101562 16.261719 C 25.117188 16.273438 25.136719 16.273438 25.148438 16.261719 C 25.152344 16.257812 25.15625 16.25 25.15625 16.242188 C 25.15625 16.234375 25.152344 16.226562 25.148438 16.21875 L 25.050781 16.117188 C 25.078125 16.085938 25.109375 16.058594 25.140625 16.03125 L 25.210938 16.101562 C 25.21875 16.109375 25.226562 16.113281 25.234375 16.113281 C 25.242188 16.113281 25.25 16.109375 25.257812 16.101562 C 25.261719 16.097656 25.265625 16.085938 25.265625 16.078125 C 25.265625 16.070312 25.261719 16.0625 25.257812 16.054688 L 25.191406 15.988281 C 25.230469 15.957031 25.277344 15.9375 25.328125 15.929688 L 25.347656 15.753906 L 25.390625 15.753906 L 25.398438 15.882812 L 25.539062 15.734375 L 25.574219 15.773438 L 25.460938 15.917969 L 25.675781 15.863281 L 25.675781 15.925781 Z M 12.105469 15.828125 C 12.105469 15.828125 12.410156 15.378906 12.683594 15.738281 C 12.519531 15.761719 12.351562 15.839844 12.386719 16.023438 C 12.441406 15.890625 12.585938 15.816406 12.726562 15.847656 C 12.824219 15.867188 12.792969 15.714844 12.792969 15.714844 C 12.792969 15.714844 12.851562 15.636719 12.894531 15.714844 C 12.941406 15.796875 12.953125 15.773438 12.976562 15.800781 C 12.984375 15.808594 12.992188 15.820312 12.992188 15.832031 C 12.992188 15.847656 12.984375 15.859375 12.976562 15.867188 C 12.957031 15.890625 12.835938 15.859375 12.824219 15.90625 C 12.804688 15.988281 12.765625 16.0625 12.707031 16.125 L 12.15625 16.125 C 12.15625 16.125 12.027344 15.976562 11.972656 15.910156 C 11.957031 15.890625 11.894531 15.75 12.039062 15.761719 Z M 9.8125 16.984375 L 27.703125 16.984375 C 27.53125 16.625 27.296875 16.292969 27.015625 16.007812 C 25.273438 13.589844 21.59375 12.113281 18.785156 12.109375 C 17.308594 12.089844 15.847656 12.402344 14.507812 13.023438 C 14.117188 13.199219 13.734375 13.398438 13.359375 13.613281 C 13.246094 13.671875 11.925781 14.523438 11.796875 14.660156 C 11.1875 15.207031 10.628906 15.8125 10.128906 16.464844 C 9.992188 16.617188 9.886719 16.796875 9.816406 16.992188 Z M 9.8125 16.984375 "/>
<path style=" stroke:none;fill-rule:evenodd;fill:rgb(92.941176%,12.941176%,14.117647%);fill-opacity:1;" d="M 24.5 39.089844 C 24.554688 39.523438 24.558594 39.964844 24.511719 40.402344 C 24.460938 40.964844 24.207031 41.492188 23.800781 41.882812 C 23.386719 42.261719 22.878906 42.523438 22.332031 42.640625 C 20.832031 42.957031 19.304688 43.132812 17.769531 43.167969 C 17.648438 43.167969 17.53125 43.191406 17.429688 43.1875 C 17.257812 43.183594 17.242188 43.167969 17.21875 43.046875 C 17.34375 42.976562 18.292969 42.769531 18.523438 42.710938 C 18.953125 42.601562 19.449219 42.488281 19.890625 42.375 C 20.351562 42.253906 20.777344 42.167969 21.21875 42.054688 C 21.433594 42.027344 21.636719 41.941406 21.804688 41.804688 C 22.1875 41.453125 22.214844 40.433594 20.964844 40.621094 C 20.484375 40.691406 19.984375 40.753906 19.507812 40.84375 C 19.015625 40.933594 18.519531 41.011719 18.03125 41.070312 C 17.65625 41.121094 16.746094 41.359375 16.601562 41.183594 C 16.636719 41.027344 16.929688 41 17.183594 40.9375 C 18.589844 40.59375 19.976562 40.183594 21.335938 39.699219 C 21.496094 39.570312 21.589844 39.382812 21.601562 39.179688 C 21.605469 38.972656 21.523438 38.777344 21.375 38.640625 C 21.027344 38.289062 19.945312 38.640625 19.203125 38.757812 C 18.238281 38.976562 17.257812 39.105469 16.273438 39.140625 C 16.304688 38.914062 16.738281 38.863281 16.949219 38.796875 C 17.222656 38.707031 17.449219 38.636719 17.71875 38.546875 C 18.777344 38.199219 19.855469 37.90625 20.945312 37.667969 C 22.007812 37.449219 22.414062 37.976562 22.636719 38.960938 C 22.695312 39.222656 22.707031 39.625 22.777344 39.839844 C 22.953125 40.378906 23.917969 40.332031 23.769531 39.410156 C 23.59375 38.339844 23.089844 37.136719 22.160156 36.855469 C 21.585938 36.75 20.996094 36.804688 20.453125 37.019531 C 19.871094 37.171875 19.386719 37.300781 18.832031 37.464844 C 18.277344 37.628906 17.800781 37.78125 17.273438 37.945312 C 16.78125 38.089844 16.183594 38.265625 15.722656 38.460938 C 15.476562 38.5625 15.300781 38.78125 15.246094 39.042969 C 15.191406 39.304688 15.265625 39.574219 15.453125 39.769531 C 15.925781 40.179688 16.542969 39.96875 17.132812 39.863281 L 19.757812 39.398438 C 20.039062 39.335938 20.320312 39.292969 20.605469 39.261719 L 17.898438 39.980469 C 17.222656 40.121094 16.5625 40.332031 15.933594 40.617188 C 15.632812 40.824219 15.515625 41.210938 15.648438 41.550781 C 15.78125 41.890625 16.132812 42.089844 16.492188 42.035156 C 17.066406 42.039062 20.527344 41.269531 21.085938 41.363281 C 21.039062 41.351562 17.472656 42.214844 16.980469 42.332031 C 15.78125 42.621094 16.175781 43.5625 16.464844 43.761719 C 16.941406 44.097656 18.117188 43.929688 18.785156 43.90625 C 20.292969 43.914062 21.796875 43.695312 23.246094 43.265625 C 23.46875 43.191406 23.683594 43.085938 23.878906 42.957031 C 24.019531 42.890625 24.152344 42.808594 24.269531 42.710938 L 24.445312 42.542969 C 25.039062 41.964844 25.410156 41.195312 25.496094 40.371094 C 26.9375 39.867188 28.304688 39.167969 29.566406 38.304688 C 30.769531 37.472656 31.871094 36.507812 32.863281 35.429688 C 32.933594 35.355469 32.960938 35.296875 33.023438 35.21875 C 33.453125 34.742188 33.847656 34.242188 34.207031 33.714844 C 34.640625 33.101562 35.039062 32.464844 35.402344 31.808594 C 35.78125 31.128906 36.109375 30.421875 36.386719 29.691406 C 36.699219 28.925781 36.941406 28.132812 37.109375 27.320312 L 36.210938 27.316406 C 35.726562 29.105469 34.945312 30.804688 33.894531 32.332031 C 33.695312 32.625 33.457031 32.878906 33.253906 33.167969 C 33.15625 33.308594 33.046875 33.4375 32.929688 33.5625 C 32.855469 33.644531 32.84375 33.683594 32.753906 33.765625 C 32.691406 33.828125 32.632812 33.890625 32.578125 33.964844 C 32.351562 34.226562 32.109375 34.476562 31.851562 34.707031 C 31.617188 34.957031 31.371094 35.191406 31.113281 35.414062 C 30.976562 35.511719 30.878906 35.621094 30.726562 35.746094 C 29.195312 37.015625 27.46875 38.027344 25.617188 38.742188 C 25.257812 38.878906 24.828125 38.960938 24.5 39.09375 "/>
<path style=" stroke:none;fill-rule:evenodd;fill:rgb(94.901961%,40.392157%,12.941176%);fill-opacity:1;" d="M 6.378906 36.347656 C 6.605469 36.484375 6.820312 36.636719 7.023438 36.804688 C 7.234375 36.960938 7.460938 37.101562 7.679688 37.246094 C 8.359375 37.695312 9.070312 38.09375 9.808594 38.433594 C 10.0625 38.585938 10.347656 38.675781 10.644531 38.691406 C 11.304688 38.804688 11.976562 38.867188 12.648438 38.886719 C 12.730469 38.632812 12.566406 38.652344 12.339844 38.574219 C 11.925781 38.433594 11.140625 38.144531 10.78125 37.976562 C 9.496094 37.40625 8.277344 36.6875 7.148438 35.839844 C 6.332031 35.21875 5.566406 34.535156 4.859375 33.789062 C 3.679688 32.5 2.710938 31.03125 1.996094 29.433594 C 1.84375 29.09375 1.710938 28.757812 1.582031 28.410156 C 1.5 28.203125 1.28125 27.453125 1.199219 27.324219 L 0.113281 27.3125 C 0.34375 28.484375 0.710938 29.628906 1.203125 30.71875 C 3.011719 34.75 6.179688 38.011719 10.148438 39.917969 C 10.949219 40.125 11.765625 40.253906 12.589844 40.304688 C 12.941406 40.351562 12.898438 40.160156 12.84375 40.085938 C 12.582031 39.953125 12.304688 39.847656 12.023438 39.769531 C 10.453125 39.179688 8.972656 38.375 7.621094 37.378906 C 7.179688 37.074219 6.761719 36.730469 6.378906 36.347656 "/>
<path style=" stroke:none;fill-rule:evenodd;fill:rgb(92.941176%,12.941176%,14.117647%);fill-opacity:1;" d="M 31.621094 8.683594 C 30.546875 7.75 29.371094 6.941406 28.121094 6.269531 C 27.855469 6.09375 27.558594 5.976562 27.246094 5.929688 C 26.5625 5.78125 25.867188 5.6875 25.167969 5.65625 C 25.09375 5.910156 25.210938 5.875 25.453125 5.96875 C 25.859375 6.125 26.582031 6.421875 26.929688 6.597656 C 28.386719 7.300781 29.746094 8.191406 30.976562 9.238281 L 31.917969 10.109375 C 32.164062 10.359375 32.339844 10.578125 32.59375 10.832031 C 32.8125 11.058594 33.007812 11.339844 33.226562 11.597656 C 34.53125 13.289062 35.496094 15.214844 36.070312 17.273438 L 37.1875 17.273438 C 36.621094 14.4375 35.378906 11.789062 33.5625 9.546875 C 32.5625 8.285156 31.398438 7.160156 30.105469 6.203125 C 29.226562 5.527344 28.261719 4.96875 27.234375 4.546875 C 26.585938 4.445312 25.921875 4.328125 25.28125 4.238281 C 25.023438 4.203125 24.878906 4.308594 25.074219 4.480469 C 25.210938 4.542969 25.339844 4.597656 25.480469 4.648438 C 25.753906 4.757812 26.011719 4.867188 26.273438 4.984375 C 27.902344 5.714844 29.414062 6.6875 30.753906 7.863281 C 30.867188 7.953125 30.945312 8.039062 31.050781 8.128906 C 31.265625 8.304688 31.433594 8.488281 31.625 8.675781 "/>
<path style=" stroke:none;fill-rule:evenodd;fill:rgb(100%,100%,100%);fill-opacity:1;" d="M 12.398438 15.550781 C 12.449219 15.375 12.328125 15.460938 12.386719 15.308594 C 12.277344 15.429688 12.398438 15.429688 12.398438 15.550781 M 12.476562 15.519531 C 12.589844 15.328125 12.410156 15.394531 12.503906 15.199219 C 12.316406 15.328125 12.496094 15.382812 12.476562 15.523438 Z M 15.273438 13.953125 C 15.273438 13.953125 15.535156 13.667969 15.75 13.667969 L 15.996094 14 C 15.996094 14 15.628906 14.128906 15.53125 14.324219 C 15.488281 14.28125 15.277344 13.953125 15.277344 13.953125 Z M 15.207031 13.953125 C 15.207031 13.953125 15.046875 14.039062 15.054688 13.875 C 15.0625 13.761719 15.167969 13.753906 15.242188 13.726562 C 15.199219 13.664062 15.011719 13.550781 15.226562 13.363281 C 15.328125 13.277344 15.367188 13.28125 15.433594 13.300781 C 15.523438 13.328125 15.585938 13.410156 15.585938 13.503906 L 15.636719 13.503906 C 15.664062 13.410156 15.703125 13.292969 15.835938 13.355469 C 15.875 13.367188 15.90625 13.398438 15.921875 13.4375 C 15.9375 13.476562 15.933594 13.515625 15.914062 13.550781 C 15.882812 13.59375 15.835938 13.617188 15.78125 13.613281 C 15.554688 13.648438 15.351562 13.769531 15.207031 13.953125 Z M 16.023438 14.046875 C 15.847656 14.101562 15.691406 14.207031 15.574219 14.351562 C 15.753906 14.296875 15.910156 14.191406 16.023438 14.046875 Z M 15.613281 14.136719 C 15.613281 14.136719 15.402344 13.882812 15.457031 13.859375 C 15.511719 13.835938 15.664062 14.066406 15.671875 14.09375 C 15.605469 14.035156 15.546875 13.972656 15.488281 13.90625 Z M 15.714844 14.0625 C 15.714844 14.0625 15.5 13.808594 15.554688 13.785156 C 15.609375 13.761719 15.761719 13.996094 15.769531 14.019531 C 15.707031 13.964844 15.644531 13.902344 15.589844 13.835938 Z M 15.839844 14.003906 C 15.839844 14.003906 15.625 13.75 15.679688 13.726562 C 15.738281 13.703125 15.894531 13.9375 15.898438 13.960938 C 15.835938 13.902344 15.777344 13.839844 15.722656 13.773438 Z M 15.503906 14.21875 C 15.503906 14.21875 15.289062 13.964844 15.34375 13.941406 C 15.398438 13.917969 15.550781 14.148438 15.558594 14.175781 C 15.492188 14.117188 15.433594 14.054688 15.375 13.988281 Z M 15.152344 13.695312 C 14.851562 13.441406 15.503906 13.007812 15.625 13.414062 C 15.84375 13.050781 16.199219 13.613281 15.808594 13.660156 C 15.882812 13.761719 15.984375 13.90625 16.074219 14.042969 C 15.964844 14.332031 15.527344 14.40625 15.527344 14.40625 L 15.226562 13.980469 C 15.082031 14.136719 14.839844 13.792969 15.152344 13.695312 Z M 16.875 15.71875 C 16.929688 15.585938 16.796875 15.613281 16.863281 15.484375 C 16.738281 15.59375 16.863281 15.621094 16.871094 15.71875 Z M 16.953125 15.691406 C 17.050781 15.488281 16.878906 15.542969 16.980469 15.375 C 16.792969 15.496094 16.972656 15.550781 16.949219 15.691406 Z M 17.035156 15.765625 L 17.089844 15.773438 C 17.140625 15.703125 17.195312 15.644531 17.257812 15.585938 C 17.238281 15.65625 17.226562 15.726562 17.230469 15.800781 L 17.347656 15.957031 C 17.277344 15.9375 17.199219 15.898438 17.128906 15.875 L 17.097656 15.914062 Z M 16.828125 15.753906 C 16.882812 15.753906 16.933594 15.753906 16.984375 15.761719 L 17.066406 15.945312 C 17.035156 15.984375 17 16.023438 16.960938 16.058594 Z M 16.59375 15.671875 C 16.640625 15.695312 16.722656 15.742188 16.742188 15.753906 L 16.785156 15.753906 L 16.929688 16.085938 C 16.894531 16.117188 16.859375 16.144531 16.820312 16.171875 Z M 16.480469 16.007812 C 16.496094 16.003906 16.511719 16.015625 16.519531 16.03125 C 16.523438 16.042969 16.523438 16.0625 16.511719 16.074219 C 16.5 16.085938 16.480469 16.09375 16.464844 16.085938 C 16.449219 16.078125 16.441406 16.0625 16.441406 16.046875 C 16.445312 16.027344 16.464844 16.011719 16.484375 16.011719 Z M 16.34375 16.160156 C 16.359375 16.035156 16.417969 15.921875 16.507812 15.839844 C 16.519531 15.785156 16.53125 15.730469 16.546875 15.679688 L 16.78125 16.195312 L 16.796875 16.304688 L 16.6875 16.238281 C 16.6875 16.238281 16.40625 16.246094 16.34375 16.167969 Z M 19.257812 13.375 L 19.257812 13.449219 C 19.273438 13.484375 19.304688 13.503906 19.339844 13.507812 C 19.390625 13.5 19.425781 13.460938 19.425781 13.414062 C 19.425781 13.363281 19.390625 13.324219 19.339844 13.320312 C 19.304688 13.324219 19.273438 13.347656 19.261719 13.382812 Z M 18.628906 13.765625 L 19.339844 13.765625 L 19.269531 13.882812 L 18.710938 13.882812 Z M 18.957031 13.167969 C 19.011719 13.035156 18.882812 13.0625 18.945312 12.929688 C 18.820312 13.046875 18.945312 13.070312 18.957031 13.171875 Z M 19.035156 13.136719 C 19.132812 12.9375 18.960938 12.992188 19.058594 12.816406 C 18.875 12.949219 19.054688 13.003906 19.035156 13.144531 Z M 19.34375 13.265625 C 19.425781 13.265625 19.492188 13.332031 19.492188 13.414062 C 19.492188 13.496094 19.425781 13.5625 19.34375 13.5625 C 19.316406 13.5625 19.285156 13.554688 19.261719 13.535156 L 19.261719 13.582031 C 19.261719 13.648438 19.207031 13.703125 19.140625 13.703125 L 18.816406 13.703125 C 18.75 13.699219 18.695312 13.648438 18.695312 13.582031 L 18.695312 13.222656 L 19.257812 13.222656 L 19.257812 13.285156 C 19.28125 13.269531 19.3125 13.261719 19.339844 13.261719 Z M 21.355469 14.914062 C 21.605469 14.914062 21.8125 15.027344 21.8125 15.167969 C 21.8125 15.308594 21.605469 15.421875 21.355469 15.421875 C 21.105469 15.421875 20.902344 15.3125 20.902344 15.167969 C 20.902344 15.027344 21.105469 14.917969 21.355469 14.917969 Z M 20.90625 15.34375 L 20.84375 15.339844 L 20.855469 15.390625 L 20.835938 15.453125 C 20.835938 15.453125 20.902344 15.457031 20.90625 15.472656 L 20.921875 15.535156 C 21.007812 15.574219 21.09375 15.609375 21.183594 15.640625 C 21.234375 15.621094 21.28125 15.589844 21.320312 15.558594 C 21.363281 15.585938 21.410156 15.609375 21.457031 15.628906 C 21.507812 15.644531 21.558594 15.644531 21.609375 15.628906 L 21.742188 15.542969 L 21.726562 15.46875 L 21.808594 15.40625 L 21.808594 15.359375 L 21.863281 15.378906 L 21.902344 15.300781 L 21.855469 15.261719 C 21.769531 15.351562 21.65625 15.414062 21.535156 15.4375 C 21.398438 15.472656 21.253906 15.476562 21.113281 15.445312 C 21.050781 15.421875 20.902344 15.355469 20.902344 15.355469 Z M 20.953125 15.59375 C 20.953125 15.59375 21.273438 15.6875 21.289062 15.6875 C 21.300781 15.6875 21.578125 15.671875 21.601562 15.664062 C 21.625 15.65625 21.789062 15.585938 21.789062 15.585938 L 21.652344 15.695312 L 21.390625 15.730469 L 21.183594 15.710938 L 21.046875 15.648438 Z M 20.910156 15.675781 C 21.042969 15.785156 21.207031 15.847656 21.378906 15.859375 C 21.46875 15.859375 21.558594 15.839844 21.640625 15.796875 C 21.679688 15.765625 21.785156 15.695312 21.785156 15.695312 C 21.40625 15.882812 21.292969 15.808594 20.914062 15.679688 Z M 21.355469 15.199219 C 21.363281 15.199219 21.371094 15.203125 21.375 15.207031 C 21.378906 15.210938 21.382812 15.21875 21.382812 15.222656 C 21.382812 15.230469 21.378906 15.238281 21.375 15.242188 C 21.367188 15.246094 21.363281 15.25 21.355469 15.25 C 21.34375 15.246094 21.328125 15.238281 21.324219 15.222656 C 21.332031 15.210938 21.34375 15.203125 21.355469 15.207031 Z M 21.4375 15.097656 C 21.453125 15.097656 21.46875 15.105469 21.476562 15.117188 C 21.480469 15.132812 21.480469 15.148438 21.46875 15.160156 C 21.460938 15.167969 21.445312 15.171875 21.429688 15.167969 C 21.417969 15.164062 21.410156 15.148438 21.40625 15.136719 C 21.40625 15.117188 21.421875 15.105469 21.4375 15.105469 Z M 21.488281 14.992188 C 21.5 14.996094 21.507812 15 21.511719 15.003906 C 21.519531 15.011719 21.523438 15.019531 21.527344 15.027344 C 21.527344 15.039062 21.519531 15.050781 21.511719 15.054688 C 21.507812 15.058594 21.5 15.0625 21.488281 15.0625 C 21.480469 15.0625 21.46875 15.058594 21.464844 15.054688 C 21.457031 15.046875 21.453125 15.039062 21.453125 15.027344 C 21.457031 15.011719 21.472656 15 21.488281 15 Z M 21.375 14.957031 C 21.402344 14.957031 21.425781 14.976562 21.425781 14.996094 C 21.421875 15.019531 21.398438 15.039062 21.375 15.035156 C 21.351562 15.035156 21.328125 15.019531 21.328125 14.996094 C 21.335938 14.976562 21.355469 14.960938 21.378906 14.964844 Z M 21.285156 15.019531 C 21.300781 15.019531 21.3125 15.027344 21.316406 15.042969 C 21.320312 15.054688 21.316406 15.066406 21.3125 15.078125 C 21.300781 15.085938 21.285156 15.089844 21.273438 15.085938 C 21.261719 15.078125 21.253906 15.066406 21.253906 15.054688 C 21.257812 15.039062 21.269531 15.027344 21.285156 15.027344 Z M 21.21875 15.132812 L 21.230469 15.132812 L 21.234375 15.144531 C 21.234375 15.152344 21.226562 15.160156 21.21875 15.160156 C 21.210938 15.160156 21.207031 15.160156 21.203125 15.160156 L 21.199219 15.148438 L 21.203125 15.136719 C 21.203125 15.136719 21.214844 15.136719 21.21875 15.136719 Z M 21.125 15.085938 C 21.132812 15.085938 21.136719 15.089844 21.144531 15.09375 C 21.148438 15.101562 21.152344 15.109375 21.152344 15.117188 C 21.152344 15.125 21.148438 15.132812 21.144531 15.136719 C 21.136719 15.144531 21.132812 15.148438 21.125 15.148438 C 21.117188 15.148438 21.105469 15.144531 21.101562 15.140625 C 21.097656 15.132812 21.09375 15.125 21.09375 15.117188 C 21.09375 15.109375 21.097656 15.101562 21.105469 15.097656 C 21.109375 15.089844 21.117188 15.089844 21.125 15.089844 Z M 21.152344 15.023438 C 21.171875 15.023438 21.183594 15.035156 21.183594 15.046875 C 21.183594 15.058594 21.167969 15.070312 21.152344 15.070312 C 21.132812 15.070312 21.121094 15.058594 21.121094 15.046875 C 21.121094 15.03125 21.136719 15.027344 21.15625 15.027344 Z M 21.023438 15.078125 C 21.039062 15.078125 21.050781 15.085938 21.058594 15.097656 C 21.0625 15.109375 21.058594 15.125 21.050781 15.132812 C 21.042969 15.144531 21.03125 15.148438 21.015625 15.144531 C 21.007812 15.136719 21.003906 15.128906 21 15.117188 C 21 15.101562 21.011719 15.085938 21.027344 15.082031 Z M 21.5625 15.125 C 21.574219 15.128906 21.585938 15.144531 21.585938 15.15625 C 21.582031 15.171875 21.570312 15.179688 21.558594 15.183594 C 21.546875 15.183594 21.539062 15.179688 21.53125 15.171875 C 21.527344 15.164062 21.527344 15.152344 21.53125 15.144531 C 21.539062 15.136719 21.546875 15.132812 21.558594 15.132812 Z M 21.359375 14.878906 C 21.640625 14.878906 21.867188 15.007812 21.867188 15.164062 C 21.871094 15.175781 21.871094 15.183594 21.867188 15.195312 C 21.90625 15.210938 21.96875 15.246094 21.96875 15.304688 C 21.96875 15.386719 21.964844 15.445312 21.949219 15.449219 C 21.921875 15.445312 21.894531 15.433594 21.867188 15.417969 C 21.863281 15.445312 21.859375 15.46875 21.859375 15.496094 L 21.859375 15.683594 C 21.738281 15.960938 21.132812 16.015625 20.875 15.71875 C 20.867188 15.652344 20.863281 15.582031 20.867188 15.515625 C 20.867188 15.515625 20.761719 15.515625 20.765625 15.476562 C 20.765625 15.441406 20.792969 15.417969 20.804688 15.390625 C 20.804688 15.375 20.757812 15.3125 20.765625 15.300781 C 20.792969 15.292969 20.820312 15.285156 20.847656 15.28125 L 20.898438 15.296875 C 20.863281 15.261719 20.84375 15.214844 20.84375 15.164062 C 20.847656 15.011719 21.082031 14.882812 21.359375 14.882812 Z M 22.515625 13.648438 C 22.515625 13.59375 22.582031 13.582031 22.652344 13.597656 C 22.589844 13.558594 22.546875 13.5 22.582031 13.457031 C 22.644531 13.382812 22.777344 13.542969 22.789062 13.625 L 22.742188 13.625 C 22.753906 13.628906 22.765625 13.636719 22.777344 13.648438 C 22.710938 13.734375 22.515625 13.75 22.515625 13.652344 Z M 23.050781 13.953125 C 22.988281 14.007812 22.90625 14.035156 22.820312 14.035156 C 22.609375 14.03125 22.441406 13.859375 22.441406 13.644531 C 22.441406 13.519531 22.5 13.402344 22.597656 13.328125 L 22.621094 13.363281 C 22.5 13.453125 22.453125 13.609375 22.5 13.75 C 22.542969 13.890625 22.671875 13.992188 22.820312 13.996094 C 22.894531 13.996094 22.964844 13.96875 23.023438 13.921875 Z M 22.957031 13.945312 C 22.90625 13.972656 22.859375 13.90625 22.835938 13.835938 C 22.824219 13.90625 22.789062 13.972656 22.730469 13.957031 C 22.675781 13.9375 22.6875 13.882812 22.710938 13.828125 C 22.664062 13.867188 22.605469 13.882812 22.578125 13.839844 C 22.527344 13.757812 22.714844 13.671875 22.796875 13.695312 C 22.796875 13.703125 22.796875 13.710938 22.796875 13.71875 C 22.804688 13.714844 22.8125 13.710938 22.820312 13.707031 L 22.828125 13.722656 L 22.828125 13.714844 C 22.9375 13.734375 23.046875 13.898438 22.964844 13.945312 Z M 25.4375 16.03125 C 25.460938 16.226562 25.027344 16.574219 24.855469 16.5625 C 24.855469 16.480469 24.875 16.394531 24.917969 16.324219 L 24.957031 16.363281 C 24.96875 16.375 24.992188 16.375 25.003906 16.363281 C 25.011719 16.359375 25.015625 16.351562 25.015625 16.34375 C 25.015625 16.332031 25.011719 16.324219 25.003906 16.316406 L 24.953125 16.261719 C 24.972656 16.230469 24.992188 16.199219 25.015625 16.171875 L 25.101562 16.261719 C 25.117188 16.273438 25.136719 16.273438 25.148438 16.261719 C 25.152344 16.257812 25.15625 16.25 25.15625 16.242188 C 25.15625 16.234375 25.152344 16.226562 25.148438 16.21875 L 25.050781 16.117188 C 25.078125 16.085938 25.109375 16.058594 25.140625 16.03125 L 25.210938 16.101562 C 25.21875 16.109375 25.226562 16.113281 25.234375 16.113281 C 25.242188 16.113281 25.25 16.109375 25.257812 16.101562 C 25.261719 16.097656 25.265625 16.085938 25.265625 16.078125 C 25.265625 16.070312 25.261719 16.0625 25.257812 16.054688 L 25.191406 15.988281 C 25.230469 15.957031 25.277344 15.9375 25.328125 15.929688 L 25.347656 15.753906 L 25.390625 15.753906 L 25.398438 15.882812 L 25.539062 15.734375 L 25.574219 15.773438 L 25.460938 15.917969 L 25.675781 15.863281 L 25.675781 15.925781 Z M 12.105469 15.828125 C 12.105469 15.828125 12.410156 15.378906 12.683594 15.738281 C 12.519531 15.761719 12.351562 15.839844 12.386719 16.023438 C 12.441406 15.890625 12.585938 15.816406 12.726562 15.847656 C 12.824219 15.867188 12.792969 15.714844 12.792969 15.714844 C 12.792969 15.714844 12.851562 15.636719 12.894531 15.714844 C 12.941406 15.796875 12.953125 15.773438 12.976562 15.800781 C 12.984375 15.808594 12.992188 15.820312 12.992188 15.832031 C 12.992188 15.847656 12.984375 15.859375 12.976562 15.867188 C 12.957031 15.890625 12.835938 15.859375 12.824219 15.90625 C 12.804688 15.988281 12.765625 16.0625 12.707031 16.125 L 12.15625 16.125 C 12.15625 16.125 12.027344 15.976562 11.972656 15.910156 C 11.957031 15.890625 11.894531 15.75 12.039062 15.761719 Z M 12.105469 15.828125 "/>
<path style=" stroke:none;fill-rule:evenodd;fill:rgb(94.901961%,40.392157%,12.941176%);fill-opacity:1;" d="M 25.375 21.488281 C 25.355469 22.007812 25.585938 22.5 25.988281 22.820312 C 26.207031 22.992188 26.480469 23.082031 26.757812 23.074219 C 27.320312 23.089844 27.835938 22.753906 28.046875 22.230469 C 28.152344 22.003906 28.203125 21.761719 28.199219 21.511719 L 28.199219 21.425781 C 28.222656 20.90625 27.980469 20.414062 27.558594 20.117188 C 27.332031 19.964844 27.066406 19.886719 26.796875 19.890625 C 26.410156 19.882812 26.039062 20.054688 25.792969 20.351562 C 25.515625 20.664062 25.367188 21.070312 25.375 21.488281 M 6.679688 21.519531 C 6.652344 22.0625 6.90625 22.582031 7.351562 22.890625 C 7.570312 23.035156 7.828125 23.113281 8.089844 23.109375 C 8.472656 23.109375 8.832031 22.9375 9.070312 22.644531 C 9.347656 22.351562 9.5 21.964844 9.507812 21.5625 L 9.507812 21.457031 C 9.515625 20.941406 9.269531 20.457031 8.851562 20.164062 C 8.640625 20.003906 8.382812 19.917969 8.117188 19.921875 C 7.667969 19.90625 7.242188 20.128906 6.996094 20.507812 C 6.785156 20.804688 6.675781 21.15625 6.679688 21.519531 Z M 31.300781 20.121094 C 31.226562 19.925781 31.035156 19.796875 30.828125 19.804688 C 30.554688 19.804688 30.417969 20 30.347656 20.246094 L 30.347656 20.359375 C 30.347656 20.710938 30.75 20.871094 31.03125 20.949219 C 31.410156 21.039062 31.75 21.257812 31.988281 21.574219 C 32.125 21.820312 32.191406 22.105469 32.175781 22.390625 C 32.1875 22.867188 31.933594 23.3125 31.515625 23.546875 C 31.285156 23.675781 31.027344 23.738281 30.761719 23.730469 C 30.421875 23.753906 30.089844 23.636719 29.839844 23.410156 C 29.585938 23.179688 29.4375 22.859375 29.425781 22.515625 L 29.398438 22.164062 L 29.5 22.0625 L 30.019531 22.0625 C 30.105469 22.0625 30.140625 22.15625 30.15625 22.226562 C 30.175781 22.300781 30.183594 22.394531 30.195312 22.480469 C 30.246094 22.773438 30.496094 22.984375 30.789062 22.988281 C 31.066406 23 31.3125 22.808594 31.371094 22.535156 L 31.382812 22.433594 L 31.382812 22.351562 C 31.382812 21.976562 31.054688 21.792969 30.742188 21.6875 C 30.339844 21.589844 29.980469 21.355469 29.726562 21.023438 C 29.617188 20.808594 29.566406 20.566406 29.574219 20.328125 C 29.574219 19.910156 29.777344 19.519531 30.117188 19.285156 C 30.34375 19.128906 30.613281 19.054688 30.886719 19.066406 L 30.914062 19.066406 C 31.496094 19.039062 32.007812 19.457031 32.097656 20.035156 L 32.097656 20.046875 L 32.113281 20.269531 L 32.113281 20.34375 L 32.011719 20.445312 L 31.472656 20.445312 C 31.332031 20.449219 31.308594 20.238281 31.300781 20.121094 Z M 26.816406 19.152344 C 27.613281 19.144531 28.339844 19.609375 28.675781 20.335938 C 29.234375 21.382812 28.957031 22.683594 28.019531 23.410156 C 27.65625 23.683594 27.207031 23.824219 26.75 23.8125 C 26.152344 23.832031 25.578125 23.570312 25.195312 23.105469 C 24.808594 22.648438 24.597656 22.066406 24.597656 21.464844 C 24.59375 20.742188 24.925781 20.054688 25.492188 19.609375 C 25.863281 19.300781 26.335938 19.140625 26.816406 19.152344 Z M 23.296875 21.449219 L 20.746094 21.449219 L 20.648438 21.347656 L 20.648438 20.828125 L 20.734375 20.738281 L 24.042969 20.738281 C 24.078125 20.738281 24.113281 20.753906 24.136719 20.785156 C 24.164062 20.8125 24.175781 20.847656 24.171875 20.882812 C 24.167969 21.457031 23.996094 22.019531 23.671875 22.492188 C 23.164062 23.289062 22.277344 23.757812 21.339844 23.734375 C 20.652344 23.757812 19.980469 23.5 19.484375 23.023438 C 18.875 22.4375 18.53125 21.625 18.539062 20.78125 L 18.539062 20.660156 C 18.515625 19.875 18.816406 19.117188 19.367188 18.5625 C 19.917969 18.007812 20.675781 17.710938 21.457031 17.746094 C 22.472656 17.734375 23.402344 18.3125 23.851562 19.226562 L 23.863281 19.246094 L 23.886719 19.382812 L 23.792969 19.480469 L 23.1875 19.480469 C 23.117188 19.46875 23.054688 19.425781 23.015625 19.367188 C 22.949219 19.292969 22.886719 19.214844 22.824219 19.136719 C 22.472656 18.722656 21.949219 18.488281 21.40625 18.507812 C 20.851562 18.496094 20.316406 18.722656 19.9375 19.132812 C 19.53125 19.558594 19.304688 20.128906 19.304688 20.722656 C 19.292969 21.40625 19.582031 22.058594 20.09375 22.507812 C 20.453125 22.824219 20.917969 22.996094 21.394531 22.980469 C 22.292969 22.933594 23.058594 22.316406 23.304688 21.449219 Z M 17.507812 19.320312 L 18.015625 19.320312 L 18.097656 19.410156 L 18.097656 23.644531 L 18.015625 23.730469 L 17.488281 23.730469 L 17.472656 23.726562 C 17.402344 23.695312 17.359375 23.625 17.367188 23.546875 L 17.367188 19.503906 C 17.367188 19.414062 17.410156 19.320312 17.511719 19.320312 Z M 17.507812 17.945312 L 18.015625 17.945312 L 18.097656 18.03125 L 18.097656 18.941406 L 18.015625 19.035156 L 17.488281 19.035156 L 17.472656 19.027344 C 17.402344 19 17.359375 18.929688 17.367188 18.851562 L 17.367188 18.125 C 17.367188 18.039062 17.414062 17.941406 17.515625 17.941406 Z M 13.867188 19.878906 C 14.226562 19.464844 14.746094 19.226562 15.292969 19.226562 L 15.316406 19.226562 C 15.722656 19.195312 16.125 19.332031 16.425781 19.609375 C 16.730469 19.886719 16.90625 20.277344 16.914062 20.691406 L 16.9375 21.058594 L 16.9375 23.625 L 16.84375 23.730469 L 16.300781 23.730469 L 16.207031 23.625 L 16.207031 21.015625 C 16.230469 20.613281 16.015625 20.234375 15.660156 20.050781 C 15.515625 20.003906 15.367188 19.976562 15.214844 19.96875 C 14.945312 19.941406 14.675781 20.03125 14.476562 20.21875 C 14.273438 20.402344 14.164062 20.664062 14.164062 20.9375 L 14.152344 21.15625 L 14.152344 23.625 L 14.054688 23.730469 L 13.539062 23.730469 L 13.445312 23.625 L 13.445312 20.976562 C 13.457031 20.609375 13.265625 20.261719 12.953125 20.074219 C 12.78125 20.011719 12.601562 19.972656 12.421875 19.964844 C 11.925781 19.960938 11.503906 20.324219 11.441406 20.820312 C 11.40625 20.976562 11.390625 21.140625 11.394531 21.304688 L 11.394531 23.644531 L 11.3125 23.734375 L 10.769531 23.734375 C 10.699219 23.703125 10.660156 23.632812 10.664062 23.554688 L 10.664062 19.535156 C 10.664062 19.453125 10.703125 19.347656 10.804688 19.347656 L 11.3125 19.347656 L 11.394531 19.441406 L 11.394531 19.648438 C 11.710938 19.378906 12.109375 19.234375 12.523438 19.234375 C 13.015625 19.253906 13.480469 19.464844 13.820312 19.828125 L 13.828125 19.835938 Z M 9.511719 19.757812 L 9.511719 19.722656 L 9.5 19.460938 L 9.503906 19.441406 C 9.527344 19.378906 9.566406 19.320312 9.640625 19.320312 L 10.148438 19.320312 L 10.230469 19.40625 L 10.230469 23.636719 L 10.148438 23.726562 L 9.597656 23.726562 L 9.5 23.621094 L 9.511719 23.3125 L 9.511719 23.269531 C 9.117188 23.648438 8.589844 23.855469 8.046875 23.84375 C 7.421875 23.867188 6.828125 23.582031 6.453125 23.078125 C 6.109375 22.640625 5.917969 22.105469 5.910156 21.546875 C 5.890625 20.78125 6.238281 20.050781 6.847656 19.589844 C 7.214844 19.3125 7.664062 19.171875 8.121094 19.183594 L 8.128906 19.183594 C 8.648438 19.191406 9.140625 19.398438 9.511719 19.761719 Z M 9.511719 19.757812 "/>
<path style=" stroke:none;fill-rule:nonzero;fill:rgb(100%,40%,0%);fill-opacity:1;" d="M 11.902344 24.496094 L 12.066406 24.496094 L 12.078125 24.503906 L 12.078125 25.628906 L 12.082031 25.636719 C 12.375 25.246094 12.542969 25.023438 12.585938 24.976562 L 12.769531 24.976562 L 12.78125 24.984375 L 12.292969 25.644531 C 12.308594 25.679688 12.328125 25.714844 12.355469 25.742188 L 12.890625 26.425781 L 12.890625 26.433594 L 12.878906 26.441406 L 12.683594 26.441406 C 12.664062 26.441406 12.621094 26.386719 12.546875 26.285156 L 12.082031 25.695312 L 12.078125 25.707031 L 12.078125 26.433594 L 12.066406 26.441406 L 11.902344 26.441406 C 11.894531 26.441406 11.886719 26.429688 11.886719 26.410156 L 11.886719 24.515625 C 11.890625 24.5 11.894531 24.496094 11.902344 24.496094 Z M 11.902344 24.496094 "/>
<path style=" stroke:none;fill-rule:nonzero;fill:rgb(100%,40%,0%);fill-opacity:1;" d="M 14.054688 24.496094 L 14.21875 24.496094 L 14.222656 24.503906 L 14.222656 24.792969 L 14.21875 24.804688 L 14.054688 24.804688 C 14.042969 24.804688 14.039062 24.789062 14.039062 24.773438 L 14.039062 24.527344 C 14.042969 24.5 14.046875 24.496094 14.054688 24.496094 Z M 14.054688 24.980469 L 14.21875 24.980469 L 14.222656 24.984375 L 14.222656 26.4375 L 14.21875 26.445312 L 14.054688 26.445312 C 14.042969 26.445312 14.039062 26.433594 14.039062 26.417969 L 14.039062 25.003906 C 14.039062 24.980469 14.046875 24.976562 14.054688 24.976562 Z M 14.054688 24.980469 "/>
<path style=" stroke:none;fill-rule:nonzero;fill:rgb(100%,40%,0%);fill-opacity:1;" d="M 15.652344 24.496094 L 15.816406 24.496094 L 15.824219 24.503906 L 15.824219 24.972656 L 15.847656 24.980469 L 16.082031 24.980469 L 16.089844 24.984375 L 16.089844 25.160156 L 16.078125 25.175781 L 15.832031 25.175781 L 15.824219 25.183594 L 15.824219 26.433594 L 15.808594 26.445312 L 15.652344 26.445312 L 15.640625 26.433594 L 15.640625 25.171875 L 15.394531 25.171875 L 15.382812 25.160156 L 15.382812 24.984375 L 15.394531 24.976562 L 15.628906 24.976562 L 15.648438 24.96875 L 15.648438 24.503906 Z M 15.652344 24.496094 "/>
<path style=" stroke:none;fill-rule:nonzero;fill:rgb(100%,40%,0%);fill-opacity:1;" d="M 17.984375 24.917969 C 18.234375 24.921875 18.460938 25.058594 18.582031 25.277344 C 18.605469 25.316406 18.625 25.363281 18.636719 25.40625 L 18.621094 25.417969 L 18.464844 25.417969 C 18.445312 25.417969 18.425781 25.390625 18.398438 25.339844 C 18.289062 25.167969 18.082031 25.078125 17.882812 25.113281 C 17.679688 25.148438 17.519531 25.300781 17.472656 25.503906 C 17.457031 25.566406 17.445312 25.628906 17.445312 25.691406 C 17.445312 25.898438 17.539062 26.089844 17.699219 26.214844 C 17.78125 26.261719 17.875 26.289062 17.96875 26.296875 C 18.152344 26.296875 18.324219 26.195312 18.414062 26.03125 C 18.421875 26.007812 18.433594 25.988281 18.445312 25.972656 L 18.636719 25.972656 C 18.640625 25.972656 18.644531 25.972656 18.644531 25.984375 C 18.613281 26.09375 18.554688 26.191406 18.480469 26.273438 C 18.351562 26.410156 18.167969 26.484375 17.980469 26.480469 C 17.695312 26.480469 17.4375 26.308594 17.328125 26.046875 C 17.277344 25.933594 17.25 25.8125 17.246094 25.6875 C 17.25 25.441406 17.363281 25.210938 17.554688 25.0625 C 17.679688 24.96875 17.828125 24.917969 17.984375 24.917969 Z M 17.984375 24.917969 "/>
<path style=" stroke:none;fill-rule:nonzero;fill:rgb(100%,40%,0%);fill-opacity:1;" d="M 19.808594 24.496094 L 19.972656 24.496094 L 19.984375 24.503906 L 19.984375 25.121094 L 19.992188 25.128906 C 20.089844 25.003906 20.246094 24.933594 20.40625 24.941406 L 20.421875 24.941406 C 20.664062 24.929688 20.878906 25.085938 20.945312 25.320312 C 20.964844 25.386719 20.976562 25.453125 20.976562 25.523438 L 20.976562 26.433594 L 20.960938 26.445312 L 20.804688 26.445312 L 20.792969 26.433594 L 20.792969 25.523438 C 20.804688 25.371094 20.71875 25.222656 20.578125 25.15625 C 20.519531 25.136719 20.460938 25.125 20.402344 25.121094 C 20.207031 25.109375 20.035156 25.242188 20 25.433594 C 19.984375 25.492188 19.976562 25.550781 19.980469 25.609375 L 19.980469 26.433594 L 19.972656 26.445312 L 19.808594 26.445312 C 19.800781 26.445312 19.792969 26.429688 19.792969 26.417969 L 19.792969 24.515625 C 19.796875 24.5 19.800781 24.496094 19.808594 24.496094 Z M 19.808594 24.496094 "/>
<path style=" stroke:none;fill-rule:nonzero;fill:rgb(100%,40%,0%);fill-opacity:1;" d="M 22.882812 24.929688 C 23.179688 24.929688 23.445312 25.132812 23.523438 25.421875 C 23.558594 25.53125 23.574219 25.644531 23.574219 25.757812 L 23.566406 25.765625 L 22.335938 25.765625 C 22.335938 25.765625 22.328125 25.765625 22.328125 25.777344 C 22.335938 25.933594 22.40625 26.074219 22.519531 26.179688 C 22.644531 26.289062 22.8125 26.328125 22.972656 26.289062 C 23.136719 26.246094 23.265625 26.132812 23.328125 25.976562 L 23.519531 25.976562 L 23.53125 25.984375 C 23.464844 26.171875 23.328125 26.328125 23.152344 26.417969 C 23.058594 26.460938 22.960938 26.484375 22.859375 26.484375 C 22.609375 26.480469 22.378906 26.347656 22.253906 26.132812 C 22.171875 25.996094 22.128906 25.839844 22.128906 25.679688 C 22.117188 25.476562 22.195312 25.277344 22.339844 25.132812 C 22.480469 24.992188 22.679688 24.917969 22.882812 24.929688 Z M 22.332031 25.59375 L 23.363281 25.59375 L 23.371094 25.582031 C 23.351562 25.472656 23.308594 25.367188 23.238281 25.28125 C 23.144531 25.164062 23.003906 25.101562 22.855469 25.105469 C 22.621094 25.097656 22.417969 25.257812 22.359375 25.484375 C 22.34375 25.519531 22.335938 25.558594 22.335938 25.601562 Z M 22.332031 25.59375 "/>
<path style=" stroke:none;fill-rule:nonzero;fill:rgb(100%,40%,0%);fill-opacity:1;" d="M 25.359375 24.941406 L 25.371094 24.941406 C 25.609375 24.933594 25.820312 25.09375 25.882812 25.324219 C 25.898438 25.386719 25.90625 25.449219 25.910156 25.515625 L 25.910156 26.425781 L 25.894531 26.4375 L 25.738281 26.4375 L 25.726562 26.425781 L 25.726562 25.523438 C 25.730469 25.386719 25.664062 25.253906 25.550781 25.171875 C 25.484375 25.140625 25.414062 25.125 25.339844 25.121094 C 25.136719 25.109375 24.953125 25.257812 24.925781 25.460938 C 24.917969 25.515625 24.914062 25.570312 24.914062 25.628906 L 24.914062 26.429688 L 24.90625 26.441406 L 24.742188 26.441406 C 24.734375 26.441406 24.730469 26.429688 24.730469 26.414062 L 24.730469 25.007812 C 24.730469 24.988281 24.738281 24.980469 24.742188 24.980469 L 24.90625 24.980469 L 24.914062 24.988281 L 24.914062 25.113281 L 24.925781 25.121094 C 25.039062 25.003906 25.195312 24.9375 25.359375 24.941406 Z M 25.359375 24.941406 "/>
<path style=" stroke:none;fill-rule:nonzero;fill:rgb(100%,100%,100%);fill-opacity:1;" d="M 48.292969 7.871094 L 48.324219 7.871094 C 49.925781 7.90625 51.441406 8.605469 52.507812 9.808594 L 52.542969 9.808594 L 52.542969 9.054688 L 52.507812 8.371094 C 52.542969 8.277344 52.582031 8.230469 52.617188 8.230469 L 53.929688 8.230469 L 53.996094 8.300781 L 53.996094 19.636719 L 53.929688 19.707031 L 52.617188 19.707031 L 52.507812 19.601562 L 52.542969 18.882812 L 52.542969 18.054688 L 52.507812 18.054688 C 51.40625 19.355469 49.773438 20.078125 48.078125 20.027344 C 46.425781 20.054688 44.847656 19.332031 43.789062 18.054688 C 42.890625 16.90625 42.371094 15.5 42.300781 14.039062 C 42.308594 12.019531 43.253906 10.125 44.855469 8.910156 C 45.871094 8.226562 47.070312 7.867188 48.292969 7.871094 Z M 43.894531 13.96875 C 43.882812 15.554688 44.652344 17.046875 45.953125 17.949219 C 46.640625 18.355469 47.421875 18.578125 48.21875 18.597656 C 49.371094 18.582031 50.460938 18.089844 51.234375 17.234375 C 52.027344 16.371094 52.492188 15.253906 52.542969 14.078125 L 52.542969 13.792969 C 52.503906 12.292969 51.769531 10.902344 50.558594 10.027344 C 49.882812 9.578125 49.097656 9.328125 48.289062 9.308594 C 46.933594 9.296875 45.65625 9.9375 44.851562 11.03125 C 44.246094 11.890625 43.910156 12.914062 43.894531 13.96875 Z M 43.894531 13.96875 "/>
<path style=" stroke:none;fill-rule:nonzero;fill:rgb(100%,100%,100%);fill-opacity:1;" d="M 61.347656 7.988281 C 62.660156 8.027344 63.90625 8.582031 64.820312 9.53125 L 65.066406 9.925781 L 65.136719 9.925781 C 66.144531 8.703125 67.636719 7.996094 69.214844 7.992188 L 69.25 7.992188 C 71.484375 7.992188 72.902344 9.234375 73.507812 11.71875 L 73.578125 12.722656 L 73.578125 19.613281 L 73.472656 19.71875 L 72.195312 19.71875 L 72.089844 19.613281 L 72.089844 12.582031 C 72.148438 11.351562 71.460938 10.207031 70.351562 9.679688 C 69.90625 9.53125 69.441406 9.445312 68.96875 9.429688 C 67.207031 9.429688 66.121094 10.410156 65.707031 12.371094 L 65.671875 12.988281 L 65.671875 19.617188 L 65.566406 19.722656 L 64.359375 19.722656 L 64.253906 19.617188 L 64.253906 12.472656 C 64.285156 11.34375 63.683594 10.289062 62.695312 9.746094 C 62.171875 9.550781 61.621094 9.441406 61.0625 9.421875 C 59.542969 9.363281 58.21875 10.457031 57.976562 11.96875 C 57.867188 12.425781 57.820312 12.898438 57.839844 13.367188 L 57.839844 19.644531 L 57.765625 19.71875 L 56.453125 19.71875 C 56.386719 19.695312 56.347656 19.621094 56.347656 19.5 L 56.347656 8.527344 C 56.363281 8.382812 56.402344 8.3125 56.453125 8.3125 L 57.765625 8.3125 L 57.839844 8.382812 L 57.839844 9.351562 L 57.90625 9.421875 C 58.820312 8.503906 60.054688 7.988281 61.347656 7.988281 Z M 61.347656 7.988281 "/>
<path style=" stroke:none;fill-rule:nonzero;fill:rgb(100%,100%,100%);fill-opacity:1;" d="M 76.035156 4.476562 L 77.347656 4.476562 L 77.417969 4.546875 L 77.417969 6.804688 L 77.347656 6.878906 L 76.035156 6.878906 C 75.964844 6.855469 75.929688 6.78125 75.929688 6.660156 L 75.929688 4.6875 C 75.949219 4.546875 75.980469 4.476562 76.035156 4.476562 Z M 76.035156 8.238281 L 77.347656 8.238281 L 77.417969 8.3125 L 77.417969 19.648438 L 77.347656 19.71875 L 76.035156 19.71875 C 75.964844 19.695312 75.929688 19.625 75.929688 19.503906 L 75.929688 8.457031 C 75.949219 8.3125 75.980469 8.238281 76.035156 8.238281 Z M 76.035156 8.238281 "/>
<path style=" stroke:none;fill-rule:nonzero;fill:rgb(100%,100%,100%);fill-opacity:1;" d="M 87.742188 3.9375 C 90.492188 3.878906 93.035156 5.394531 94.304688 7.847656 L 94.339844 8.023438 L 94.269531 8.09375 L 92.675781 8.09375 C 92.546875 8.09375 92.273438 7.816406 91.855469 7.265625 C 90.742188 6.097656 89.203125 5.433594 87.59375 5.433594 C 85.953125 5.433594 84.378906 6.078125 83.199219 7.230469 C 82.023438 8.457031 81.351562 10.085938 81.3125 11.792969 C 81.34375 13.746094 82.191406 15.59375 83.652344 16.882812 C 84.761719 17.769531 86.136719 18.25 87.554688 18.246094 C 90.328125 18.160156 92.707031 16.222656 93.367188 13.511719 L 93.339844 13.480469 L 85.859375 13.480469 L 85.753906 13.371094 L 85.753906 12.183594 L 85.824219 12.113281 L 95.109375 12.113281 C 95.15625 12.113281 95.179688 12.152344 95.179688 12.222656 C 95.125 13.734375 94.644531 15.203125 93.800781 16.453125 C 92.324219 18.519531 89.941406 19.738281 87.414062 19.71875 C 85.550781 19.742188 83.75 19.078125 82.34375 17.851562 C 80.734375 16.304688 79.800781 14.175781 79.757812 11.933594 L 79.757812 11.613281 C 79.78125 9.117188 80.976562 6.777344 82.980469 5.304688 C 84.402344 4.394531 86.054688 3.917969 87.742188 3.9375 Z M 87.742188 3.9375 "/>
<path style=" stroke:none;fill-rule:nonzero;fill:rgb(100%,100%,100%);fill-opacity:1;" d="M 103.523438 7.78125 C 105.644531 7.785156 107.589844 8.976562 108.5625 10.867188 C 109.046875 11.773438 109.316406 12.78125 109.34375 13.808594 C 109.332031 15.8125 108.386719 17.699219 106.789062 18.902344 C 105.769531 19.582031 104.574219 19.941406 103.351562 19.941406 C 101.761719 19.953125 100.242188 19.289062 99.167969 18.113281 C 98.160156 16.902344 97.585938 15.386719 97.535156 13.808594 C 97.578125 11.910156 98.460938 10.136719 99.945312 8.96875 C 100.980469 8.191406 102.234375 7.773438 103.523438 7.78125 Z M 99.132812 13.878906 C 99.125 15.386719 99.804688 16.8125 100.976562 17.75 C 102.011719 18.464844 103.3125 18.683594 104.523438 18.355469 C 105.738281 18.023438 106.75 17.175781 107.289062 16.03125 C 107.585938 15.378906 107.742188 14.667969 107.75 13.949219 L 107.75 13.703125 C 107.742188 12.191406 107.015625 10.777344 105.796875 9.898438 C 105.089844 9.472656 104.285156 9.238281 103.460938 9.214844 C 102.285156 9.207031 101.160156 9.703125 100.375 10.582031 C 99.5625 11.484375 99.121094 12.660156 99.132812 13.878906 Z M 99.132812 13.878906 "/>
<path style=" stroke:none;fill-rule:nonzero;fill:rgb(100%,100%,100%);fill-opacity:1;" d="M 115.625 7.558594 L 115.695312 7.558594 C 117.191406 7.457031 118.523438 8.511719 118.78125 10 L 118.816406 10.574219 L 118.816406 10.648438 L 118.710938 10.753906 L 117.292969 10.753906 C 117.203125 10.753906 117.132812 10.527344 117.078125 10.074219 C 116.820312 9.398438 116.164062 8.964844 115.445312 8.992188 C 114.617188 9 113.914062 9.609375 113.785156 10.429688 L 113.785156 10.789062 C 113.785156 11.679688 114.503906 12.3125 115.949219 12.695312 C 116.953125 12.914062 117.851562 13.472656 118.5 14.273438 C 118.863281 14.902344 119.035156 15.625 118.992188 16.351562 C 118.976562 17.5625 118.3125 18.667969 117.257812 19.253906 C 116.640625 19.5625 115.960938 19.722656 115.273438 19.722656 C 113.457031 19.722656 112.285156 18.707031 111.757812 16.671875 L 111.691406 15.84375 L 111.796875 15.738281 L 113.140625 15.738281 C 113.214844 15.738281 113.285156 16.046875 113.355469 16.667969 C 113.550781 17.613281 114.382812 18.285156 115.339844 18.28125 C 116.257812 18.324219 117.074219 17.707031 117.292969 16.808594 L 117.328125 16.492188 L 117.328125 16.238281 C 117.328125 15.285156 116.652344 14.59375 115.304688 14.160156 C 114.230469 13.933594 113.265625 13.339844 112.574219 12.476562 C 112.296875 11.933594 112.160156 11.328125 112.1875 10.714844 C 112.21875 9.667969 112.746094 8.695312 113.605469 8.101562 C 114.210938 7.726562 114.914062 7.539062 115.625 7.558594 Z M 115.625 7.558594 "/>
<path style=" stroke:none;fill-rule:nonzero;fill:rgb(100%,100%,100%);fill-opacity:1;" d="M 43.816406 24.464844 L 45.128906 24.464844 L 45.199219 24.539062 L 45.199219 32.714844 L 45.269531 32.789062 L 45.304688 32.789062 C 45.40625 32.617188 47.703125 29.839844 52.183594 24.464844 L 53.820312 24.464844 L 53.890625 24.539062 L 53.890625 24.578125 L 47.933594 31.824219 L 47.933594 31.859375 L 53.710938 39.601562 L 53.710938 39.675781 L 53.679688 39.710938 L 52.011719 39.710938 C 51.792969 39.511719 50.527344 37.875 48.214844 34.792969 L 46.871094 33.109375 C 46.222656 33.734375 45.660156 34.445312 45.203125 35.222656 L 45.203125 39.636719 L 45.128906 39.707031 L 43.816406 39.707031 C 43.746094 39.683594 43.710938 39.613281 43.710938 39.492188 L 43.710938 24.683594 C 43.730469 24.539062 43.765625 24.464844 43.816406 24.464844 Z M 43.816406 24.464844 "/>
<path style=" stroke:none;fill-rule:nonzero;fill:rgb(100%,100%,100%);fill-opacity:1;" d="M 56.347656 24.464844 L 57.660156 24.464844 L 57.730469 24.539062 L 57.730469 26.796875 L 57.660156 26.867188 L 56.347656 26.867188 C 56.277344 26.84375 56.238281 26.777344 56.238281 26.65625 L 56.238281 24.683594 C 56.253906 24.539062 56.289062 24.464844 56.347656 24.464844 Z M 56.347656 28.234375 L 57.660156 28.234375 L 57.730469 28.304688 L 57.730469 39.636719 L 57.660156 39.710938 L 56.347656 39.710938 C 56.277344 39.6875 56.238281 39.613281 56.238281 39.492188 L 56.238281 28.445312 C 56.253906 28.304688 56.289062 28.234375 56.347656 28.234375 Z M 56.347656 28.234375 "/>
<path style=" stroke:none;fill-rule:nonzero;fill:rgb(100%,100%,100%);fill-opacity:1;" d="M 62.308594 24.464844 L 63.65625 24.464844 L 63.726562 24.539062 L 63.726562 28.195312 L 63.902344 28.234375 L 65.816406 28.234375 L 65.886719 28.304688 L 65.886719 29.667969 L 65.78125 29.773438 L 63.792969 29.773438 L 63.726562 29.84375 L 63.726562 39.605469 L 63.617188 39.710938 L 62.34375 39.710938 L 62.238281 39.605469 L 62.238281 29.84375 L 62.164062 29.773438 L 60.144531 29.773438 L 60.074219 29.703125 L 60.074219 28.304688 L 60.144531 28.234375 L 62.058594 28.234375 L 62.234375 28.199219 L 62.234375 24.539062 Z M 62.308594 24.464844 "/>
<path style=" stroke:none;fill-rule:nonzero;fill:rgb(100%,100%,100%);fill-opacity:1;" d="M 74.230469 27.828125 L 74.261719 27.828125 C 76.265625 27.8125 78.121094 28.882812 79.121094 30.625 C 79.328125 30.929688 79.484375 31.269531 79.582031 31.625 L 79.476562 31.699219 L 78.128906 31.699219 C 77.980469 31.699219 77.804688 31.496094 77.597656 31.089844 C 76.816406 29.949219 75.53125 29.265625 74.15625 29.261719 C 72.195312 29.261719 70.824219 30.300781 70.046875 32.382812 C 69.90625 32.859375 69.835938 33.355469 69.828125 33.855469 C 69.816406 35.472656 70.582031 36.996094 71.886719 37.945312 C 72.5625 38.316406 73.316406 38.527344 74.089844 38.558594 C 75.582031 38.585938 76.96875 37.785156 77.699219 36.476562 C 77.84375 36.167969 77.9375 36.011719 77.984375 36.011719 L 79.507812 36.011719 C 79.554688 36.011719 79.578125 36.046875 79.578125 36.121094 C 79.304688 36.953125 78.84375 37.714844 78.234375 38.34375 C 77.15625 39.429688 75.683594 40.023438 74.15625 39.992188 C 71.882812 40.027344 69.808594 38.703125 68.871094 36.621094 C 68.46875 35.742188 68.25 34.789062 68.234375 33.824219 C 68.261719 31.890625 69.195312 30.082031 70.753906 28.945312 C 71.765625 28.214844 72.980469 27.824219 74.230469 27.828125 Z M 74.230469 27.828125 "/>
<path style=" stroke:none;fill-rule:nonzero;fill:rgb(100%,100%,100%);fill-opacity:1;" d="M 82.035156 24.464844 L 83.347656 24.464844 L 83.414062 24.539062 L 83.414062 29.378906 L 83.488281 29.449219 C 84.332031 28.453125 85.589844 27.910156 86.890625 27.980469 L 86.996094 27.980469 C 88.925781 27.851562 90.6875 29.070312 91.257812 30.925781 C 91.410156 31.4375 91.492188 31.96875 91.5 32.5 L 91.5 39.601562 L 91.394531 39.710938 L 90.121094 39.710938 L 90.015625 39.601562 L 90.015625 32.539062 C 90.078125 31.304688 89.371094 30.160156 88.246094 29.667969 C 87.796875 29.519531 87.332031 29.4375 86.859375 29.417969 C 85.320312 29.289062 83.921875 30.332031 83.597656 31.851562 C 83.472656 32.296875 83.414062 32.753906 83.421875 33.214844 L 83.421875 39.636719 L 83.355469 39.710938 L 82.042969 39.710938 C 81.96875 39.6875 81.933594 39.613281 81.933594 39.492188 L 81.933594 24.683594 C 81.945312 24.539062 81.984375 24.464844 82.035156 24.464844 Z M 82.035156 24.464844 "/>
<path style=" stroke:none;fill-rule:nonzero;fill:rgb(100%,100%,100%);fill-opacity:1;" d="M 99.984375 27.898438 C 102.414062 27.898438 104.164062 29.179688 105.234375 31.738281 C 105.503906 32.585938 105.648438 33.46875 105.660156 34.359375 L 105.550781 34.429688 L 95.519531 34.429688 C 95.46875 34.429688 95.445312 34.464844 95.445312 34.539062 C 95.523438 35.746094 96.085938 36.875 97.007812 37.660156 C 97.765625 38.285156 98.71875 38.625 99.699219 38.625 C 101.394531 38.652344 102.9375 37.644531 103.601562 36.078125 L 105.164062 36.078125 L 105.234375 36.144531 L 105.234375 36.183594 C 104.6875 37.671875 103.578125 38.882812 102.148438 39.554688 C 99.503906 40.726562 96.402344 39.785156 94.847656 37.335938 C 94.195312 36.265625 93.851562 35.039062 93.851562 33.785156 C 93.867188 31.882812 94.757812 30.097656 96.265625 28.945312 C 97.378906 28.242188 98.671875 27.878906 99.984375 27.898438 Z M 95.523438 33.105469 L 95.554688 33.136719 L 103.886719 33.136719 L 103.960938 33.066406 C 103.808594 32.191406 103.429688 31.375 102.863281 30.699219 C 102.085938 29.78125 100.941406 29.269531 99.742188 29.300781 C 97.882812 29.230469 96.214844 30.441406 95.699219 32.242188 C 95.589844 32.515625 95.53125 32.808594 95.519531 33.105469 Z M 95.523438 33.105469 "/>
<path style=" stroke:none;fill-rule:nonzero;fill:rgb(100%,100%,100%);fill-opacity:1;" d="M 113.113281 27.980469 L 113.183594 27.980469 C 115.101562 27.898438 116.828125 29.140625 117.367188 30.992188 C 117.503906 31.472656 117.574219 31.964844 117.578125 32.464844 L 117.578125 39.601562 L 117.472656 39.710938 L 116.195312 39.710938 L 116.089844 39.601562 L 116.089844 32.539062 C 116.132812 31.4375 115.589844 30.402344 114.671875 29.808594 C 114.136719 29.5625 113.554688 29.425781 112.96875 29.414062 C 111.332031 29.285156 109.871094 30.4375 109.601562 32.0625 C 109.523438 32.488281 109.488281 32.921875 109.496094 33.355469 L 109.496094 39.632812 L 109.421875 39.703125 L 108.109375 39.703125 C 108.039062 39.679688 108.003906 39.609375 108.003906 39.488281 L 108.003906 28.519531 C 108.023438 28.375 108.054688 28.304688 108.109375 28.304688 L 109.421875 28.304688 L 109.496094 28.375 L 109.496094 29.34375 L 109.5625 29.414062 C 110.511719 28.488281 111.789062 27.972656 113.113281 27.980469 Z M 113.113281 27.980469 "/>
</g>
</svg>
