<?xml version="1.0" encoding="UTF-8"?>
<svg xmlns="http://www.w3.org/2000/svg" xmlns:xlink="http://www.w3.org/1999/xlink" width="90pt" height="104pt" viewBox="0 0 90 104" version="1.1">
<g id="surface1">
<path style=" stroke:none;fill-rule:evenodd;fill:rgb(94.901961%,40.392157%,12.941176%);fill-opacity:1;" d="M 41.078125 3.34375 C 36.386719 3.792969 31.660156 6.027344 30.332031 9.347656 C 29.910156 10.398438 30.332031 11.171875 30.753906 12.660156 C 31.113281 13.632812 31.886719 14.402344 32.867188 14.757812 C 35.117188 15.785156 37.613281 16.164062 40.070312 15.859375 C 44.738281 15.417969 49.507812 13.089844 50.75 9.777344 C 51.628906 7.429688 50.265625 5.585938 48.289062 4.539062 C 46.054688 3.496094 43.570312 3.097656 41.117188 3.386719 M 27.566406 10.480469 C 24.203125 11.699219 21.007812 13.335938 18.054688 15.351562 C 16.292969 16.546875 14.609375 17.859375 13.019531 19.273438 C 9.535156 22.46875 6.582031 26.1875 4.273438 30.300781 C 2.410156 33.5 1.011719 36.953125 0.121094 40.539062 L 2.371094 40.539062 C 3.308594 37.355469 4.65625 34.304688 6.382812 31.464844 C 8.035156 28.792969 10.007812 26.328125 12.257812 24.125 C 14.074219 22.386719 14.109375 22.4375 15.742188 20.980469 C 18.238281 18.992188 20.9375 17.269531 23.804688 15.847656 C 25.320312 15.058594 26.898438 14.40625 28.527344 13.886719 C 29.269531 14.984375 30.3125 15.855469 31.523438 16.402344 C 35.644531 18.433594 41.402344 18.152344 45.535156 16.789062 C 48.167969 16.015625 50.609375 14.703125 52.707031 12.933594 C 54.640625 11.109375 56.785156 8.550781 55.875 5.40625 C 55.125 2.871094 52.609375 1.214844 49.769531 0.484375 C 43.019531 -1.203125 33.382812 1.320312 29.285156 6.613281 C 28.386719 7.734375 27.792969 9.066406 27.566406 10.480469 Z M 27.566406 10.480469 "/>
<path style=" stroke:none;fill-rule:evenodd;fill:rgb(94.901961%,40.392157%,12.941176%);fill-opacity:1;" d="M 76.898438 65.179688 L 68.320312 65.179688 C 67.929688 65.660156 67.65625 66.0625 67.265625 66.5625 C 66.34375 67.613281 65.277344 68.660156 64.273438 69.632812 C 62.367188 71.441406 60.242188 72.996094 57.933594 74.265625 C 55.671875 75.484375 53.222656 76.339844 50.6875 76.800781 C 43.269531 78.148438 35.621094 76.382812 29.5625 71.929688 C 29.085938 71.609375 28.632812 71.257812 28.199219 70.878906 L 26.941406 69.707031 C 26.507812 69.285156 26.179688 68.945312 25.71875 68.492188 C 25.253906 68.039062 23.898438 66.394531 23.457031 65.871094 C 22.863281 65.117188 22.914062 65.15625 21.734375 65.167969 C 19.621094 65.167969 16.21875 65.0625 14.414062 65.167969 C 14.414062 65.925781 15.996094 68.691406 16.410156 69.359375 C 17.191406 70.636719 18.078125 71.839844 19.0625 72.96875 C 19.601562 73.550781 20.042969 74.078125 20.582031 74.613281 C 32.109375 86.140625 51.851562 87.667969 65.195312 78.867188 C 69 76.425781 72.238281 73.210938 74.699219 69.433594 C 75.601562 68.132812 76.339844 66.722656 76.898438 65.242188 "/>
<path style=" stroke:none;fill-rule:evenodd;fill:rgb(94.901961%,40.392157%,12.941176%);fill-opacity:1;" d="M 14.457031 40.152344 C 16.980469 40.152344 20.042969 40.214844 22.503906 40.152344 C 23.128906 40.152344 23.171875 39.816406 23.921875 38.882812 C 25.539062 36.902344 27.375 35.101562 29.390625 33.515625 C 36.6875 28.074219 46.253906 26.636719 54.851562 29.691406 C 58.554688 31.121094 61.917969 33.304688 64.714844 36.105469 C 65.660156 36.96875 66.546875 37.894531 67.371094 38.875 C 67.601562 39.167969 67.761719 39.34375 67.960938 39.636719 C 68.160156 39.929688 68.160156 40.140625 68.761719 40.152344 C 70.464844 40.152344 75.777344 40.226562 76.875 40.152344 C 76.875 39.554688 75.152344 36.660156 74.761719 36.097656 C 68.984375 26.660156 57.332031 20.867188 45.671875 20.875 C 37.132812 20.757812 28.835938 23.703125 22.3125 29.179688 C 21.171875 30.136719 20.109375 31.1875 19.144531 32.320312 C 18.148438 33.441406 17.257812 34.648438 16.484375 35.929688 C 16.132812 36.511719 14.371094 39.457031 14.457031 40.121094 "/>
<path style=" stroke:none;fill-rule:evenodd;fill:rgb(94.901961%,40.392157%,12.941176%);fill-opacity:1;" d="M 30.523438 68.070312 C 30.523438 67.957031 30.734375 67.988281 30.871094 68.070312 C 30.765625 67.933594 30.722656 67.765625 30.871094 67.703125 C 31.019531 67.644531 31.230469 68.050781 31.175781 68.25 C 31.144531 68.253906 31.113281 68.253906 31.082031 68.25 C 31.105469 68.273438 31.125 68.300781 31.132812 68.335938 C 30.914062 68.449219 30.460938 68.335938 30.554688 68.09375 M 31.484375 69.246094 C 31.152344 69.320312 30.804688 69.207031 30.582031 68.949219 C 30.359375 68.691406 30.300781 68.335938 30.429688 68.019531 C 30.53125 67.742188 30.765625 67.53125 31.050781 67.453125 L 31.050781 67.558594 C 30.796875 67.625 30.59375 67.808594 30.5 68.050781 C 30.339844 68.464844 30.535156 68.925781 30.945312 69.097656 C 31.113281 69.160156 31.296875 69.160156 31.460938 69.097656 Z M 37.738281 66.308594 C 37.910156 66.3125 38.058594 66.429688 38.105469 66.59375 L 36.957031 67.519531 C 36.816406 67.460938 36.722656 67.328125 36.722656 67.183594 C 36.71875 67.078125 36.761719 66.972656 36.839844 66.898438 C 36.792969 66.839844 36.773438 66.765625 36.777344 66.6875 C 36.777344 66.480469 36.945312 66.308594 37.15625 66.308594 C 37.269531 66.308594 37.375 66.363281 37.441406 66.445312 C 37.503906 66.363281 37.601562 66.304688 37.703125 66.289062 Z M 37.421875 67.359375 L 38.136719 66.78125 L 38.984375 68.878906 L 38.4375 68.523438 L 38.636719 68.523438 L 38.636719 68.398438 L 38.222656 68.398438 L 38.023438 68.269531 L 38.4375 68.269531 L 38.4375 68.132812 L 37.820312 68.132812 L 37.609375 67.964844 L 38.167969 67.964844 L 38.167969 67.851562 L 37.398438 67.851562 L 37.242188 67.726562 L 37.96875 67.726562 L 37.96875 67.632812 L 37.105469 67.558594 L 37.25 67.433594 L 37.777344 67.507812 L 37.777344 67.390625 Z M 38.667969 73.414062 C 38.667969 73.414062 38.5625 73.230469 38.667969 73.136719 C 38.710938 73.121094 38.742188 73.089844 38.761719 73.050781 C 38.71875 72.972656 38.65625 72.902344 38.585938 72.851562 C 38.585938 72.851562 38.40625 72.671875 38.585938 72.757812 C 38.667969 72.804688 38.738281 72.875 38.785156 72.96875 C 38.785156 72.96875 38.984375 72.96875 39.039062 73.074219 C 39.3125 73.617188 39.386719 73.835938 39.566406 73.984375 C 39.742188 74.128906 40.019531 74.203125 40.738281 74.171875 C 40.324219 74.363281 39.855469 74.421875 39.40625 74.328125 C 38.722656 74.015625 38.699219 73.574219 38.699219 73.574219 C 38.738281 73.53125 38.765625 73.480469 38.785156 73.425781 C 38.792969 73.382812 38.792969 73.335938 38.785156 73.292969 C 38.785156 73.292969 38.667969 73.582031 38.667969 73.414062 Z M 41.097656 73.292969 C 41.097656 73.292969 41.308594 73.167969 41.289062 73.0625 C 41.265625 72.957031 41.222656 72.90625 41.234375 72.871094 C 41.320312 72.851562 41.410156 72.851562 41.5 72.871094 C 41.5 72.871094 41.710938 72.871094 41.5625 72.789062 C 41.46875 72.75 41.359375 72.75 41.265625 72.789062 C 41.152344 72.742188 41.027344 72.742188 40.917969 72.789062 C 40.78125 72.789062 40.492188 73.335938 39.933594 73.25 C 39.511719 73.152344 39.140625 72.910156 38.878906 72.566406 C 39.027344 72.996094 39.316406 73.363281 39.691406 73.617188 C 40.097656 73.785156 40.5625 73.730469 40.917969 73.46875 C 40.917969 73.34375 40.835938 73.136719 40.980469 73.050781 C 41.128906 72.96875 40.917969 73.382812 41.066406 73.292969 Z M 44.476562 68.976562 L 44.71875 69.128906 L 44.886719 68.628906 Z M 45.292969 68.722656 L 45.523438 68.816406 L 45.34375 69.191406 L 45.007812 69.128906 Z M 45.859375 68.890625 L 45.617188 69.203125 L 45.914062 69.285156 L 46.113281 68.953125 Z M 46.390625 68.890625 L 46.28125 69.191406 L 46.777344 68.945312 Z M 45.96875 68.324219 C 46.199219 67.871094 45.757812 68.070312 45.96875 67.527344 C 45.480469 67.945312 45.945312 68.03125 45.933594 68.367188 Z M 46.21875 68.230469 C 46.601562 67.445312 46 67.765625 46.324219 67.183594 C 45.765625 67.726562 46.273438 67.726562 46.1875 68.269531 Z M 44.191406 68.859375 C 44.472656 68.414062 45.042969 68.242188 45.523438 68.460938 C 45.886719 68.613281 46.28125 68.6875 46.671875 68.679688 C 46.671875 68.679688 47.234375 68.679688 46.96875 69.402344 C 46.441406 69.949219 44.179688 69.75 44.179688 69.402344 Z M 47.011719 73.835938 C 46.9375 73.835938 46.832031 73.835938 46.914062 73.699219 C 47.121094 73.503906 47.410156 73.421875 47.6875 73.480469 C 47.726562 73.414062 47.785156 73.371094 47.859375 73.355469 C 47.859375 73.355469 47.859375 73.511719 47.859375 73.511719 C 47.859375 73.511719 48.039062 73.367188 48.070312 73.375 C 48.101562 73.382812 48.207031 73.4375 48.21875 73.480469 C 48.25 73.578125 48.25 73.679688 48.21875 73.773438 C 48.171875 73.847656 48.097656 73.898438 48.015625 73.921875 C 47.96875 73.925781 47.921875 73.898438 47.898438 73.855469 C 47.898438 73.855469 47.996094 73.710938 47.964844 73.699219 C 47.933594 73.6875 47.835938 73.699219 47.828125 73.699219 L 47.828125 73.921875 C 47.828125 73.921875 47.828125 73.921875 47.742188 73.921875 C 47.691406 73.84375 47.664062 73.757812 47.65625 73.667969 C 47.410156 73.617188 47.15625 73.699219 46.980469 73.878906 Z M 48.070312 74.277344 C 47.996094 74.277344 47.890625 74.277344 47.972656 74.140625 C 48.179688 73.945312 48.464844 73.855469 48.742188 73.910156 C 48.785156 73.851562 48.847656 73.808594 48.914062 73.785156 C 48.914062 73.785156 48.914062 73.953125 48.914062 73.953125 C 48.914062 73.953125 49.09375 73.792969 49.125 73.816406 C 49.1875 73.863281 49.222656 73.9375 49.230469 74.015625 C 49.257812 74.105469 49.257812 74.203125 49.230469 74.296875 C 49.1875 74.375 49.117188 74.429688 49.027344 74.457031 C 48.980469 74.460938 48.933594 74.429688 48.921875 74.382812 C 48.921875 74.382812 49.007812 74.246094 48.921875 74.234375 C 48.839844 74.226562 48.796875 74.234375 48.796875 74.234375 C 48.796875 74.234375 48.796875 74.457031 48.796875 74.457031 C 48.796875 74.457031 48.796875 74.457031 48.710938 74.457031 C 48.671875 74.375 48.640625 74.292969 48.628906 74.203125 C 48.414062 74.148438 48.183594 74.191406 48.007812 74.320312 Z M 49.125 73.324219 C 49.1875 73.375 49.230469 73.480469 49.125 73.488281 C 48.816406 73.496094 48.53125 73.34375 48.363281 73.082031 C 48.289062 73.113281 48.207031 73.113281 48.132812 73.082031 C 48.132812 73.082031 48.175781 72.96875 48.175781 72.96875 C 48.175781 72.96875 47.921875 72.96875 47.898438 72.96875 C 47.875 72.902344 47.875 72.832031 47.898438 72.769531 C 47.898438 72.703125 48.039062 72.566406 48.121094 72.558594 C 48.210938 72.523438 48.308594 72.523438 48.394531 72.558594 C 48.425781 72.601562 48.425781 72.652344 48.394531 72.695312 C 48.394531 72.695312 48.21875 72.695312 48.238281 72.769531 C 48.257812 72.839844 48.3125 72.871094 48.34375 72.851562 L 48.53125 72.714844 C 48.53125 72.714844 48.53125 72.714844 48.53125 72.820312 C 48.507812 72.910156 48.464844 73 48.40625 73.074219 C 48.570312 73.265625 48.816406 73.375 49.070312 73.367188 Z M 53.984375 68.773438 C 55.210938 68.492188 56.375 69.632812 55.695312 70.496094 C 54.722656 71.730469 53.097656 68.976562 53.984375 68.773438 Z M 53.105469 68.523438 C 53.054688 68.523438 52.886719 68.765625 52.769531 68.765625 C 52.613281 68.753906 52.488281 68.636719 52.472656 68.480469 C 52.476562 68.34375 52.578125 68.230469 52.71875 68.207031 C 52.722656 68.058594 52.847656 67.933594 53 67.933594 C 53.171875 67.933594 53.234375 68.261719 53.234375 68.34375 C 53.234375 68.429688 53.707031 68.773438 53.65625 68.859375 C 53.601562 68.945312 53.054688 68.503906 53.105469 68.511719 Z M 54.367188 68.976562 L 54.976562 68.976562 L 54.722656 69.097656 L 55.199219 69.097656 L 55.019531 69.191406 L 55.421875 69.191406 L 55.242188 69.277344 L 55.609375 69.351562 L 54.808594 69.351562 L 54.871094 69.148438 L 54.503906 69.148438 L 54.628906 69.007812 L 54.269531 69.007812 Z M 53.085938 68.710938 C 53 68.871094 52.816406 68.949219 52.640625 68.910156 C 52.460938 68.875 52.328125 68.722656 52.316406 68.542969 C 52.320312 68.351562 52.460938 68.1875 52.652344 68.15625 C 52.648438 68.132812 52.648438 68.113281 52.652344 68.09375 C 52.664062 67.875 52.847656 67.703125 53.066406 67.703125 C 53.28125 67.703125 53.460938 67.878906 53.464844 68.09375 C 53.484375 68.160156 53.484375 68.226562 53.464844 68.292969 C 53.632812 68.433594 53.8125 68.550781 54.007812 68.648438 C 55.421875 68.398438 56.710938 69.621094 55.914062 70.628906 C 55.125 71.636719 53.632812 70.328125 53.644531 69.070312 C 53.507812 68.925781 53.332031 68.824219 53.140625 68.773438 Z M 61.378906 68.660156 C 61.398438 68.671875 61.40625 68.695312 61.40625 68.714844 C 61.40625 68.742188 61.398438 68.761719 61.378906 68.773438 L 61.136719 69.039062 C 61.136719 69.039062 61.0625 69.039062 61.019531 69.039062 C 60.976562 69.039062 60.925781 68.871094 61.019531 68.796875 L 61.15625 68.640625 C 61.199219 68.566406 61.335938 68.605469 61.378906 68.648438 Z M 61.117188 68.597656 L 60.945312 68.773438 C 60.789062 68.945312 60.695312 68.671875 60.777344 68.566406 L 60.863281 68.460938 C 60.976562 68.3125 61.230469 68.449219 61.117188 68.585938 Z M 60.945312 68.113281 C 60.980469 68.160156 60.980469 68.226562 60.945312 68.269531 L 60.621094 68.628906 C 60.574219 68.671875 60.503906 68.671875 60.460938 68.628906 C 60.382812 68.539062 60.382812 68.402344 60.460938 68.3125 L 60.652344 68.09375 C 60.703125 67.976562 60.851562 68.039062 60.945312 68.101562 Z M 60.578125 68.113281 L 60.40625 68.292969 C 60.246094 68.460938 60.152344 68.1875 60.238281 68.070312 L 60.320312 67.976562 C 60.4375 67.796875 60.695312 67.933594 60.578125 68.070312 Z M 60.40625 67.625 C 60.449219 67.664062 60.449219 67.734375 60.40625 67.777344 L 60.089844 68.132812 C 60.070312 68.160156 60.039062 68.167969 60.011719 68.167969 C 59.980469 68.167969 59.953125 68.160156 59.929688 68.132812 C 59.847656 68.042969 59.847656 67.902344 59.929688 67.808594 L 60.121094 67.601562 C 60.203125 67.535156 60.316406 67.527344 60.40625 67.582031 Z M 59.6875 67.183594 C 59.789062 67.179688 59.882812 67.230469 59.929688 67.320312 L 59.835938 67.320312 C 59.796875 67.277344 59.746094 67.25 59.6875 67.246094 C 59.582031 67.246094 59.5 67.328125 59.5 67.433594 C 59.5 67.535156 59.582031 67.625 59.6875 67.625 C 59.761719 67.621094 59.828125 67.574219 59.855469 67.507812 L 60.003906 67.507812 L 59.910156 67.625 C 59.859375 67.632812 59.8125 67.632812 59.761719 67.625 C 59.605469 67.625 59.476562 67.492188 59.476562 67.339844 C 59.476562 67.183594 59.605469 67.054688 59.761719 67.054688 Z M 61.800781 67.871094 C 61.828125 67.90625 61.828125 67.957031 61.800781 67.988281 L 61.558594 68.25 C 61.523438 68.277344 61.476562 68.277344 61.441406 68.25 C 61.441406 68.25 61.335938 68.082031 61.441406 68.007812 L 61.578125 67.851562 C 61.601562 67.726562 61.726562 67.789062 61.78125 67.828125 Z M 61.507812 67.726562 L 61.347656 67.902344 C 61.1875 68.070312 61.09375 67.796875 61.179688 67.691406 L 61.261719 67.589844 C 61.378906 67.496094 61.632812 67.632812 61.507812 67.726562 Z M 61.335938 67.234375 C 61.359375 67.25 61.371094 67.285156 61.371094 67.3125 C 61.371094 67.34375 61.359375 67.371094 61.335938 67.390625 L 61.019531 67.746094 C 61 67.769531 60.96875 67.785156 60.9375 67.785156 C 60.90625 67.785156 60.875 67.769531 60.851562 67.746094 C 60.789062 67.683594 60.714844 67.527344 60.851562 67.433594 L 61.042969 67.214844 C 61.09375 67.160156 61.273438 67.222656 61.335938 67.277344 Z M 60.96875 67.234375 L 60.808594 67.421875 C 60.652344 67.589844 60.554688 67.308594 60.640625 67.203125 L 60.726562 67.109375 C 60.851562 66.980469 61.09375 67.117188 60.96875 67.246094 Z M 60.851562 66.761719 C 60.875 66.78125 60.886719 66.8125 60.886719 66.84375 C 60.886719 66.871094 60.875 66.898438 60.851562 66.917969 L 60.523438 67.277344 C 60.480469 67.320312 60.410156 67.320312 60.363281 67.277344 C 60.285156 67.183594 60.285156 67.046875 60.363281 66.949219 L 60.554688 66.742188 C 60.554688 66.675781 60.734375 66.675781 60.851562 66.761719 Z M 60.132812 66.320312 C 60.238281 66.320312 60.332031 66.371094 60.382812 66.457031 L 60.277344 66.457031 C 60.242188 66.414062 60.1875 66.390625 60.132812 66.394531 C 60.082031 66.394531 60.035156 66.414062 60 66.449219 C 59.964844 66.488281 59.949219 66.535156 59.953125 66.582031 C 59.953125 66.683594 60.03125 66.769531 60.132812 66.773438 C 60.210938 66.773438 60.285156 66.722656 60.3125 66.644531 L 60.40625 66.644531 L 60.300781 66.761719 C 60.253906 66.773438 60.203125 66.773438 60.152344 66.761719 C 59.996094 66.761719 59.867188 66.636719 59.867188 66.476562 C 59.867188 66.324219 59.996094 66.199219 60.152344 66.199219 Z M 61.726562 68.164062 L 61.8125 68.070312 L 62.023438 68.34375 Z M 61.328125 68.984375 L 61.410156 68.890625 L 61.621094 69.160156 Z M 31.273438 69.117188 C 31.132812 69.117188 31.082031 68.953125 31.09375 68.773438 C 31.007812 68.933594 30.859375 69.039062 30.753906 68.945312 C 30.648438 68.847656 30.753906 68.753906 30.828125 68.648438 C 30.679688 68.648438 30.542969 68.648438 30.511719 68.554688 C 30.480469 68.460938 30.964844 68.3125 31.132812 68.429688 L 31.199219 68.429688 C 31.367188 68.628906 31.472656 69.089844 31.273438 69.117188 Z M 44.570312 76.761719 L 45.628906 76.761719 C 50.164062 76.582031 54.59375 75.359375 58.570312 73.1875 C 61.15625 71.746094 63.4375 69.824219 65.289062 67.527344 C 65.96875 66.820312 66.542969 66.023438 66.996094 65.15625 C 66.492188 65.15625 26.308594 65.0625 23.6875 65.15625 C 24.128906 65.992188 24.671875 66.765625 25.304688 67.464844 C 25.914062 68.207031 26.578125 68.910156 27.289062 69.558594 C 28.484375 70.730469 29.824219 71.746094 31.273438 72.578125 C 35.230469 75.152344 39.820312 76.597656 44.550781 76.761719 Z M 44.570312 76.761719 "/>
<path style=" stroke:none;fill-rule:evenodd;fill:rgb(94.901961%,40.392157%,12.941176%);fill-opacity:1;" d="M 30.046875 36.746094 C 30.164062 36.328125 29.878906 36.535156 30.046875 36.179688 C 29.785156 36.460938 30.046875 36.449219 30.046875 36.746094 M 30.226562 36.671875 C 30.511719 36.210938 30.078125 36.375 30.300781 35.917969 C 29.859375 36.210938 30.28125 36.335938 30.21875 36.671875 Z M 36.988281 32.953125 C 36.988281 32.953125 37.632812 32.289062 38.136719 32.289062 L 38.730469 33.066406 C 38.730469 33.066406 37.851562 33.382812 37.609375 33.839844 C 37.503906 33.734375 36.988281 32.953125 36.988281 32.953125 Z M 36.828125 32.953125 C 36.828125 32.953125 36.4375 33.171875 36.472656 32.773438 C 36.503906 32.375 36.734375 32.488281 36.914062 32.414062 C 36.820312 32.269531 36.367188 32 36.914062 31.570312 C 37.167969 31.359375 37.242188 31.359375 37.410156 31.421875 C 37.625 31.484375 37.773438 31.679688 37.777344 31.90625 L 37.90625 31.90625 C 37.96875 31.671875 38.074219 31.390625 38.382812 31.535156 C 38.476562 31.570312 38.546875 31.636719 38.585938 31.730469 C 38.621094 31.820312 38.617188 31.921875 38.574219 32.007812 C 38.496094 32.109375 38.378906 32.167969 38.253906 32.164062 C 37.695312 32.226562 37.179688 32.511719 36.828125 32.953125 Z M 38.804688 33.183594 C 38.386719 33.316406 38.023438 33.566406 37.746094 33.90625 C 38.167969 33.761719 38.539062 33.496094 38.804688 33.140625 Z M 37.746094 33.394531 C 37.746094 33.394531 37.230469 32.792969 37.367188 32.742188 C 37.503906 32.6875 37.875 33.234375 37.894531 33.289062 C 37.914062 33.339844 37.453125 32.855469 37.453125 32.855469 Z M 37.988281 33.226562 C 37.988281 33.226562 37.472656 32.625 37.609375 32.5625 C 37.746094 32.5 38.117188 33.058594 38.125 33.121094 C 37.972656 32.984375 37.828125 32.835938 37.695312 32.679688 Z M 38.347656 33.140625 C 38.347656 33.140625 37.832031 32.53125 37.96875 32.480469 C 38.105469 32.425781 38.476562 32.972656 38.488281 33.035156 C 38.335938 32.894531 38.191406 32.75 38.054688 32.59375 Z M 37.535156 33.640625 C 37.535156 33.640625 37.019531 33.046875 37.15625 32.984375 C 37.292969 32.921875 37.652344 33.476562 37.671875 33.535156 C 37.519531 33.402344 37.375 33.257812 37.242188 33.097656 Z M 36.691406 32.40625 C 35.960938 31.800781 37.535156 30.769531 37.832031 31.738281 C 38.347656 30.875 39.207031 32.207031 38.273438 32.3125 L 38.921875 33.226562 C 38.65625 33.90625 37.601562 34.074219 37.601562 34.074219 L 36.871094 33.023438 C 36.554688 33.394531 35.941406 32.585938 36.691406 32.351562 Z M 40.855469 37.195312 C 40.980469 36.882812 40.664062 36.945312 40.855469 36.628906 C 40.515625 36.851562 40.78125 36.902344 40.855469 37.144531 Z M 41.035156 37.132812 C 41.277344 36.660156 40.867188 36.785156 41.097656 36.367188 C 40.65625 36.617188 41.085938 36.746094 41.035156 37.082031 Z M 41.234375 37.300781 L 41.382812 37.300781 C 41.5 37.144531 41.632812 36.996094 41.773438 36.859375 C 41.726562 37.023438 41.707031 37.191406 41.710938 37.363281 L 41.992188 37.742188 L 41.46875 37.554688 L 41.394531 37.636719 Z M 40.75 37.300781 L 41.128906 37.300781 L 41.328125 37.742188 L 41.078125 37.992188 Z M 40.175781 37.113281 L 40.546875 37.3125 L 40.644531 37.3125 L 40.992188 38.097656 C 40.90625 38.171875 40.8125 38.238281 40.71875 38.296875 Z M 39.902344 37.90625 C 39.953125 37.90625 39.996094 37.949219 39.996094 38 C 39.996094 38.054688 39.953125 38.097656 39.902344 38.097656 C 39.851562 38.097656 39.808594 38.054688 39.808594 38 C 39.761719 37.976562 39.742188 37.917969 39.773438 37.871094 C 39.796875 37.828125 39.855469 37.808594 39.902344 37.832031 Z M 39.566406 38.273438 C 39.605469 37.976562 39.75 37.699219 39.976562 37.5 C 40.003906 37.371094 40.039062 37.246094 40.082031 37.121094 L 40.632812 38.339844 L 40.632812 38.601562 L 40.417969 38.378906 C 40.417969 38.378906 39.722656 38.378906 39.566406 38.203125 Z M 46.609375 31.664062 L 46.609375 31.839844 C 46.652344 31.9375 46.757812 31.988281 46.859375 31.96875 C 46.960938 31.945312 47.035156 31.855469 47.035156 31.75 C 47.035156 31.648438 46.960938 31.558594 46.859375 31.535156 C 46.757812 31.515625 46.652344 31.570312 46.609375 31.664062 Z M 45.089844 32.585938 L 46.8125 32.585938 L 46.640625 32.855469 L 45.292969 32.855469 Z M 45.882812 31.167969 C 46.019531 30.855469 45.691406 30.917969 45.882812 30.605469 C 45.554688 30.800781 45.851562 30.863281 45.882812 31.09375 Z M 46.0625 31.042969 C 46.304688 30.574219 45.894531 30.695312 46.136719 30.289062 C 45.683594 30.574219 46.113281 30.695312 46.0625 31.042969 Z M 46.8125 31.335938 C 46.984375 31.367188 47.109375 31.515625 47.109375 31.6875 C 47.109375 31.863281 46.984375 32.007812 46.8125 32.042969 C 46.742188 32.042969 46.671875 32.019531 46.609375 31.976562 L 46.609375 32.089844 C 46.609375 32.25 46.484375 32.382812 46.324219 32.382812 L 45.546875 32.382812 C 45.382812 32.382812 45.261719 32.25 45.261719 32.089844 L 45.261719 31.230469 L 46.609375 31.230469 L 46.609375 31.410156 C 46.667969 31.363281 46.738281 31.332031 46.8125 31.328125 Z M 51.683594 35.234375 C 52.285156 35.234375 52.738281 35.496094 52.738281 35.835938 C 52.738281 36.171875 52.242188 36.441406 51.683594 36.441406 C 51.121094 36.441406 50.625 36.171875 50.625 35.835938 C 50.625 35.496094 51.066406 35.234375 51.683594 35.234375 Z M 50.625 36.285156 L 50.476562 36.285156 L 50.476562 36.546875 C 50.476562 36.546875 50.636719 36.546875 50.644531 36.546875 L 50.644531 36.703125 C 50.855469 36.796875 51.070312 36.882812 51.289062 36.953125 C 51.40625 36.902344 51.519531 36.832031 51.617188 36.753906 C 51.722656 36.820312 51.832031 36.882812 51.945312 36.933594 C 52.066406 36.964844 52.191406 36.964844 52.316406 36.933594 L 52.632812 36.722656 L 52.632812 36.546875 L 52.832031 36.386719 L 52.832031 36.285156 L 52.96875 36.285156 L 53.066406 36.097656 L 52.9375 36.003906 C 52.730469 36.207031 52.46875 36.351562 52.179688 36.410156 C 51.832031 36.496094 51.46875 36.496094 51.121094 36.410156 Z M 50.742188 36.882812 C 50.742188 36.882812 51.511719 37.113281 51.554688 37.113281 L 52.304688 37.050781 L 52.757812 36.859375 L 52.433594 37.121094 L 51.789062 37.195312 L 51.289062 37.195312 L 50.953125 37.050781 Z M 50.636719 37.070312 C 50.960938 37.328125 51.351562 37.484375 51.765625 37.511719 C 51.988281 37.5 52.207031 37.441406 52.398438 37.332031 C 52.496094 37.25 52.738281 37.089844 52.738281 37.089844 C 51.800781 37.511719 51.523438 37.332031 50.605469 37.039062 Z M 51.695312 35.949219 C 51.695312 35.949219 51.757812 35.949219 51.757812 36.003906 C 51.757812 36.039062 51.726562 36.066406 51.695312 36.066406 C 51.65625 36.066406 51.625 36.039062 51.617188 36.003906 C 51.617188 36.003906 51.640625 35.917969 51.683594 35.917969 Z M 51.894531 35.707031 C 51.894531 35.707031 51.957031 35.707031 51.957031 35.792969 C 51.957031 35.875 51.957031 35.875 51.894531 35.875 C 51.851562 35.867188 51.816406 35.835938 51.820312 35.792969 C 51.804688 35.765625 51.804688 35.738281 51.8125 35.714844 C 51.828125 35.691406 51.855469 35.675781 51.882812 35.675781 Z M 52.011719 35.464844 C 52.03125 35.460938 52.054688 35.46875 52.074219 35.484375 C 52.089844 35.496094 52.101562 35.519531 52.105469 35.539062 C 52.105469 35.5625 52.09375 35.589844 52.078125 35.601562 C 52.054688 35.621094 52.035156 35.628906 52.011719 35.625 C 51.960938 35.625 51.925781 35.585938 51.925781 35.539062 C 51.917969 35.515625 51.921875 35.492188 51.9375 35.46875 C 51.949219 35.449219 51.976562 35.4375 52 35.433594 Z M 51.734375 35.402344 C 51.800781 35.402344 51.851562 35.402344 51.851562 35.488281 C 51.851562 35.570312 51.851562 35.570312 51.734375 35.570312 C 51.617188 35.570312 51.617188 35.570312 51.617188 35.488281 C 51.617188 35.402344 51.664062 35.371094 51.726562 35.371094 Z M 51.511719 35.539062 C 51.554688 35.542969 51.59375 35.578125 51.59375 35.625 C 51.59375 35.664062 51.554688 35.699219 51.511719 35.699219 C 51.472656 35.699219 51.4375 35.664062 51.4375 35.625 C 51.429688 35.597656 51.429688 35.574219 51.441406 35.550781 C 51.453125 35.53125 51.476562 35.511719 51.5 35.507812 Z M 51.34375 35.761719 Z M 51.121094 35.644531 C 51.160156 35.648438 51.183594 35.679688 51.183594 35.71875 C 51.183594 35.71875 51.183594 35.800781 51.121094 35.800781 C 51.078125 35.796875 51.046875 35.761719 51.046875 35.71875 C 51.046875 35.679688 51.074219 35.648438 51.109375 35.644531 Z M 51.195312 35.496094 C 51.21875 35.484375 51.246094 35.484375 51.269531 35.496094 C 51.265625 35.53125 51.234375 35.5625 51.195312 35.5625 C 51.140625 35.5625 51.109375 35.5625 51.109375 35.496094 C 51.109375 35.433594 51.132812 35.496094 51.183594 35.496094 Z M 50.878906 35.632812 C 50.898438 35.632812 50.921875 35.644531 50.933594 35.660156 C 50.949219 35.675781 50.957031 35.699219 50.953125 35.71875 C 50.953125 35.757812 50.921875 35.792969 50.878906 35.792969 C 50.84375 35.785156 50.816406 35.753906 50.816406 35.71875 C 50.804688 35.664062 50.835938 35.632812 50.867188 35.632812 Z M 52.179688 35.75 C 52.210938 35.753906 52.234375 35.785156 52.230469 35.820312 C 52.226562 35.851562 52.195312 35.875 52.164062 35.875 C 52.128906 35.871094 52.105469 35.84375 52.105469 35.8125 C 52.109375 35.78125 52.132812 35.753906 52.167969 35.75 Z M 51.695312 35.152344 C 52.367188 35.152344 52.929688 35.457031 52.929688 35.835938 C 52.929688 35.835938 52.929688 35.835938 52.929688 35.90625 C 52.929688 35.980469 53.171875 36.023438 53.171875 36.171875 C 53.171875 36.316406 53.171875 36.503906 53.117188 36.503906 C 53.050781 36.492188 52.988281 36.472656 52.929688 36.441406 C 52.921875 36.496094 52.921875 36.550781 52.929688 36.609375 L 52.929688 37.058594 C 52.632812 37.722656 51.183594 37.84375 50.570312 37.144531 C 50.550781 36.984375 50.550781 36.828125 50.570312 36.671875 C 50.570312 36.671875 50.320312 36.671875 50.328125 36.578125 C 50.339844 36.480469 50.425781 36.398438 50.425781 36.367188 C 50.425781 36.335938 50.308594 36.191406 50.339844 36.160156 C 50.40625 36.148438 50.472656 36.148438 50.539062 36.160156 L 50.65625 36.160156 C 50.570312 36.078125 50.523438 35.96875 50.519531 35.855469 C 50.445312 35.457031 50.992188 35.152344 51.683594 35.152344 Z M 54.511719 32.246094 C 54.511719 32.109375 54.671875 32.089844 54.839844 32.121094 C 54.691406 32.042969 54.585938 31.90625 54.671875 31.800781 C 54.757812 31.695312 55.144531 31.988281 55.167969 32.183594 L 55.050781 32.183594 C 55.082031 32.179688 55.113281 32.179688 55.144531 32.183594 C 54.945312 32.4375 54.511719 32.46875 54.511719 32.246094 Z M 55.800781 32.972656 C 55.644531 33.09375 55.453125 33.160156 55.25 33.160156 C 54.855469 33.148438 54.507812 32.890625 54.382812 32.511719 C 54.265625 32.136719 54.394531 31.722656 54.714844 31.484375 L 54.765625 31.570312 C 54.480469 31.78125 54.367188 32.144531 54.476562 32.484375 C 54.582031 32.820312 54.898438 33.050781 55.25 33.058594 C 55.425781 33.054688 55.601562 32.996094 55.738281 32.890625 Z M 55.578125 32.972656 C 55.453125 33.046875 55.335938 32.890625 55.28125 32.710938 C 55.28125 32.890625 55.167969 33.046875 55.03125 32.992188 C 54.894531 32.941406 54.933594 32.824219 55.03125 32.6875 C 54.914062 32.785156 54.777344 32.824219 54.703125 32.6875 C 54.628906 32.550781 55.03125 32.300781 55.242188 32.34375 C 55.242188 32.34375 55.242188 32.34375 55.242188 32.40625 L 55.304688 32.40625 C 55.472656 32.449219 55.738281 32.835938 55.566406 32.953125 Z M 61.558594 37.90625 C 61.621094 38.371094 60.566406 39.195312 60.164062 39.167969 C 60.160156 38.96875 60.207031 38.773438 60.3125 38.601562 L 60.40625 38.695312 C 60.4375 38.726562 60.484375 38.730469 60.519531 38.699219 C 60.550781 38.671875 60.554688 38.621094 60.523438 38.589844 L 60.394531 38.464844 C 60.394531 38.390625 60.492188 38.316406 60.546875 38.242188 L 60.757812 38.464844 C 60.757812 38.507812 60.792969 38.542969 60.835938 38.546875 C 60.882812 38.546875 60.921875 38.515625 60.925781 38.472656 C 60.929688 38.425781 60.894531 38.386719 60.851562 38.378906 L 60.628906 38.148438 L 60.832031 37.9375 L 61 38.105469 C 61.027344 38.136719 61.078125 38.140625 61.109375 38.113281 C 61.140625 38.082031 61.144531 38.035156 61.117188 38 L 60.957031 37.84375 C 61.046875 37.769531 61.164062 37.722656 61.285156 37.710938 L 61.285156 37.289062 L 61.390625 37.289062 L 61.390625 37.59375 L 61.726562 37.25 L 61.90625 37.332031 L 61.609375 37.679688 L 62.128906 37.542969 L 62.128906 37.691406 Z M 29.371094 37.425781 C 29.371094 37.425781 30.121094 36.375 30.777344 37.21875 C 30.386719 37.269531 29.972656 37.460938 30.058594 37.886719 C 30.199219 37.574219 30.539062 37.398438 30.882812 37.46875 C 31.113281 37.46875 31.050781 37.15625 31.050781 37.15625 C 31.050781 37.15625 31.175781 36.976562 31.28125 37.15625 C 31.335938 37.234375 31.402344 37.300781 31.484375 37.355469 C 31.527344 37.398438 31.527344 37.472656 31.484375 37.523438 C 31.484375 37.574219 31.132812 37.523438 31.113281 37.605469 C 31.0625 37.796875 30.96875 37.976562 30.839844 38.128906 L 29.476562 38.128906 L 29.03125 37.617188 C 29.03125 37.617188 28.84375 37.25 29.199219 37.269531 Z M 23.847656 40.171875 L 66.996094 40.171875 C 66.570312 39.320312 66.007812 38.539062 65.339844 37.855469 C 61.117188 32.132812 52.230469 28.644531 45.460938 28.625 C 41.902344 28.582031 38.375 29.316406 35.140625 30.78125 C 34.179688 31.195312 33.242188 31.65625 32.328125 32.164062 C 32.054688 32.300781 28.863281 34.335938 28.558594 34.640625 C 27.085938 35.9375 25.730469 37.371094 24.523438 38.914062 C 24.210938 39.28125 23.96875 39.699219 23.816406 40.152344 Z M 23.847656 40.171875 "/>
<path style=" stroke:none;fill-rule:evenodd;fill:rgb(92.941176%,12.941176%,14.117647%);fill-opacity:1;" d="M 59.257812 92.472656 C 59.382812 93.515625 59.382812 94.570312 59.257812 95.617188 C 59.125 96.953125 58.515625 98.199219 57.53125 99.125 C 56.539062 100.023438 55.316406 100.644531 53.996094 100.917969 C 50.371094 101.644531 46.691406 102.046875 43 102.113281 C 42.730469 102.125 42.453125 102.125 42.183594 102.113281 C 41.773438 102.113281 41.730469 102.113281 41.667969 101.78125 C 41.972656 101.613281 44.265625 101.117188 44.835938 100.980469 C 45.894531 100.71875 47.074219 100.457031 48.132812 100.1875 C 49.1875 99.914062 50.246094 99.691406 51.300781 99.429688 C 51.820312 99.363281 52.3125 99.160156 52.726562 98.84375 C 53.644531 97.992188 53.699219 95.59375 50.699219 96.035156 C 49.527344 96.199219 48.3125 96.347656 47.167969 96.558594 C 46.03125 96.769531 44.78125 96.945312 43.621094 97.105469 C 42.699219 97.230469 40.449219 97.785156 40.15625 97.367188 C 40.238281 97 40.949219 96.925781 41.5625 96.777344 C 42.914062 96.464844 51.066406 94.285156 51.585938 93.855469 C 51.972656 93.554688 52.203125 93.109375 52.226562 92.625 C 52.242188 92.144531 52.046875 91.675781 51.695312 91.351562 C 50.855469 90.507812 48.238281 91.351562 46.410156 91.625 C 45.300781 91.78125 39.964844 92.878906 39.332031 92.523438 C 39.417969 91.988281 40.460938 91.875 40.972656 91.71875 L 42.894531 91.183594 C 45.449219 90.347656 48.046875 89.652344 50.679688 89.085938 C 53.234375 88.5625 54.21875 89.820312 54.757812 92.144531 C 54.902344 92.777344 54.933594 93.707031 55.105469 94.242188 C 55.527344 95.511719 57.851562 95.40625 57.492188 93.195312 C 57.089844 90.65625 55.851562 87.804688 53.613281 87.136719 C 52.226562 86.886719 50.796875 87.019531 49.484375 87.527344 C 48.089844 87.878906 46.90625 88.195312 45.578125 88.574219 C 44.242188 88.953125 43.074219 89.367188 41.835938 89.734375 C 40.566406 90.082031 39.316406 90.492188 38.085938 90.960938 C 37.496094 91.203125 37.070312 91.71875 36.9375 92.335938 C 36.808594 92.957031 37 93.597656 37.441406 94.054688 C 38.585938 95.101562 40.070312 94.539062 41.5 94.285156 L 47.835938 93.238281 C 48.5 93.082031 49.175781 92.960938 49.855469 92.878906 L 43.316406 94.578125 C 42.34375 94.859375 39.386719 95.46875 38.574219 96.089844 C 37.039062 97.25 37.714844 99.410156 39.921875 99.429688 C 41.296875 99.429688 49.664062 97.625 51.003906 97.835938 C 50.898438 97.835938 42.289062 99.859375 41.109375 100.132812 C 38.199219 100.8125 39.152344 103.035156 39.859375 103.515625 C 41.003906 104.316406 43.84375 103.90625 45.460938 103.863281 C 48.945312 103.757812 53.453125 103.359375 56.226562 102.3125 C 56.765625 102.136719 57.28125 101.890625 57.753906 101.578125 C 58.097656 101.429688 58.417969 101.230469 58.707031 100.992188 L 59.128906 100.601562 C 60.554688 99.238281 61.445312 97.414062 61.652344 95.457031 C 64.0625 94.945312 69.453125 91.945312 71.488281 90.550781 C 74.382812 88.59375 77.050781 86.316406 79.441406 83.773438 C 79.609375 83.59375 79.675781 83.457031 79.84375 83.269531 C 80.875 82.148438 81.828125 80.960938 82.699219 79.714844 C 83.742188 78.261719 84.707031 76.75 85.582031 75.1875 C 86.5 73.578125 87.296875 71.898438 87.957031 70.167969 C 88.71875 68.367188 89.304688 66.496094 89.710938 64.582031 L 87.523438 64.582031 C 86.371094 68.828125 84.5 72.847656 81.976562 76.464844 C 81.492188 77.171875 80.921875 77.765625 80.4375 78.449219 C 80.195312 78.773438 79.933594 79.085938 79.652344 79.378906 C 79.472656 79.578125 79.433594 79.675781 79.230469 79.875 C 79.082031 80.003906 78.9375 80.148438 78.808594 80.304688 C 78.261719 80.929688 77.675781 81.519531 77.054688 82.074219 C 76.695312 82.398438 75.640625 83.507812 75.226562 83.761719 C 74.816406 84.011719 74.65625 84.253906 74.300781 84.550781 C 70.578125 87.554688 66.390625 89.949219 61.90625 91.644531 C 61.050781 91.957031 60.003906 92.15625 59.222656 92.472656 "/>
<path style=" stroke:none;fill-rule:evenodd;fill:rgb(94.901961%,40.392157%,12.941176%);fill-opacity:1;" d="M 15.511719 85.984375 C 16.058594 86.289062 16.582031 86.640625 17.074219 87.03125 C 17.582031 87.398438 18.128906 87.734375 18.648438 88.078125 C 20.289062 89.144531 22.011719 90.089844 23.792969 90.898438 C 24.40625 91.253906 25.089844 91.464844 25.800781 91.507812 C 27.40625 91.765625 29.023438 91.921875 30.648438 91.964844 C 30.851562 91.371094 30.449219 91.414062 29.898438 91.222656 C 28.84375 90.886719 27.015625 90.175781 26.148438 89.808594 C 23.039062 88.460938 20.09375 86.765625 17.371094 84.757812 C 15.402344 83.28125 13.554688 81.648438 11.84375 79.882812 C 8.996094 76.835938 6.660156 73.355469 4.925781 69.570312 C 4.554688 68.765625 4.238281 67.964844 3.871094 67.148438 C 3.679688 66.65625 3.152344 64.882812 2.949219 64.574219 L 0.382812 64.574219 C 0.949219 67.351562 1.835938 70.0625 3.023438 72.640625 C 7.398438 82.210938 15.042969 89.933594 24.605469 94.441406 C 25.601562 94.933594 28.914062 95.144531 30.511719 95.351562 C 31.355469 95.457031 31.25 95.007812 31.113281 94.828125 C 30.492188 94.511719 29.832031 94.261719 29.160156 94.074219 C 25.394531 92.6875 21.835938 90.785156 18.597656 88.425781 C 17.523438 87.699219 16.515625 86.886719 15.585938 85.984375 "/>
<path style=" stroke:none;fill-rule:evenodd;fill:rgb(92.941176%,12.941176%,14.117647%);fill-opacity:1;" d="M 76.445312 20.480469 C 73.84375 18.269531 71.011719 16.355469 67.992188 14.769531 C 67.355469 14.347656 66.636719 14.074219 65.878906 13.960938 C 65.015625 13.832031 61.472656 13.132812 60.875 13.3125 C 60.683594 13.90625 60.96875 13.824219 61.546875 14.042969 C 62.527344 14.421875 64.28125 15.089844 65.121094 15.542969 C 68.621094 17.214844 71.894531 19.332031 74.859375 21.832031 L 77.140625 23.925781 C 77.71875 24.527344 78.199219 25.046875 78.757812 25.644531 C 79.316406 26.246094 79.8125 26.839844 80.296875 27.449219 C 83.4375 31.445312 85.765625 36.007812 87.15625 40.882812 L 89.871094 40.882812 C 88.507812 34.148438 85.511719 27.84375 81.132812 22.523438 C 79.925781 21.042969 78.625 19.644531 77.234375 18.332031 C 75.835938 17.003906 74.347656 15.765625 72.789062 14.632812 C 71.617188 13.800781 67.445312 10.960938 65.859375 10.710938 C 64.273438 10.460938 62.691406 10.199219 61.136719 9.976562 C 60.523438 9.894531 60.164062 10.15625 60.652344 10.554688 C 60.964844 10.707031 61.292969 10.839844 61.621094 10.953125 C 62.285156 11.214844 62.914062 11.476562 63.546875 11.75 C 67.46875 13.480469 71.105469 15.78125 74.351562 18.570312 C 74.625 18.792969 74.816406 18.992188 75.070312 19.210938 C 75.550781 19.617188 76.007812 20.046875 76.445312 20.5 "/>
<path style=" stroke:none;fill-rule:evenodd;fill:rgb(100%,100%,100%);fill-opacity:1;" d="M 30.046875 36.746094 C 30.164062 36.328125 29.878906 36.535156 30.046875 36.179688 C 29.785156 36.460938 30.046875 36.449219 30.046875 36.746094 M 30.226562 36.671875 C 30.511719 36.210938 30.078125 36.375 30.300781 35.917969 C 29.859375 36.210938 30.28125 36.335938 30.21875 36.671875 Z M 36.988281 32.953125 C 36.988281 32.953125 37.632812 32.289062 38.136719 32.289062 L 38.730469 33.066406 C 38.730469 33.066406 37.851562 33.382812 37.609375 33.839844 C 37.503906 33.734375 36.988281 32.953125 36.988281 32.953125 Z M 36.828125 32.953125 C 36.828125 32.953125 36.4375 33.171875 36.472656 32.773438 C 36.503906 32.375 36.734375 32.488281 36.914062 32.414062 C 36.820312 32.269531 36.367188 32 36.914062 31.570312 C 37.167969 31.359375 37.242188 31.359375 37.410156 31.421875 C 37.625 31.484375 37.773438 31.679688 37.777344 31.90625 L 37.90625 31.90625 C 37.96875 31.671875 38.074219 31.390625 38.382812 31.535156 C 38.476562 31.570312 38.546875 31.636719 38.585938 31.730469 C 38.621094 31.820312 38.617188 31.921875 38.574219 32.007812 C 38.496094 32.109375 38.378906 32.167969 38.253906 32.164062 C 37.695312 32.226562 37.179688 32.511719 36.828125 32.953125 Z M 38.804688 33.183594 C 38.386719 33.316406 38.023438 33.566406 37.746094 33.90625 C 38.167969 33.761719 38.539062 33.496094 38.804688 33.140625 Z M 37.746094 33.394531 C 37.746094 33.394531 37.230469 32.792969 37.367188 32.742188 C 37.503906 32.6875 37.875 33.234375 37.894531 33.289062 C 37.914062 33.339844 37.453125 32.855469 37.453125 32.855469 Z M 37.988281 33.226562 C 37.988281 33.226562 37.472656 32.625 37.609375 32.5625 C 37.746094 32.5 38.117188 33.058594 38.125 33.121094 C 37.972656 32.984375 37.828125 32.835938 37.695312 32.679688 Z M 38.347656 33.140625 C 38.347656 33.140625 37.832031 32.53125 37.96875 32.480469 C 38.105469 32.425781 38.476562 32.972656 38.488281 33.035156 C 38.335938 32.894531 38.191406 32.75 38.054688 32.59375 Z M 37.535156 33.640625 C 37.535156 33.640625 37.019531 33.046875 37.15625 32.984375 C 37.292969 32.921875 37.652344 33.476562 37.671875 33.535156 C 37.519531 33.402344 37.375 33.257812 37.242188 33.097656 Z M 36.691406 32.40625 C 35.960938 31.800781 37.535156 30.769531 37.832031 31.738281 C 38.347656 30.875 39.207031 32.207031 38.273438 32.3125 L 38.921875 33.226562 C 38.65625 33.90625 37.601562 34.074219 37.601562 34.074219 L 36.871094 33.023438 C 36.554688 33.394531 35.941406 32.585938 36.691406 32.351562 Z M 40.855469 37.195312 C 40.980469 36.882812 40.664062 36.945312 40.855469 36.628906 C 40.515625 36.851562 40.78125 36.902344 40.855469 37.144531 Z M 41.035156 37.132812 C 41.277344 36.660156 40.867188 36.785156 41.097656 36.367188 C 40.65625 36.617188 41.085938 36.746094 41.035156 37.082031 Z M 41.234375 37.300781 L 41.382812 37.300781 C 41.5 37.144531 41.632812 36.996094 41.773438 36.859375 C 41.726562 37.023438 41.707031 37.191406 41.710938 37.363281 L 41.992188 37.742188 L 41.46875 37.554688 L 41.394531 37.636719 Z M 40.75 37.300781 L 41.128906 37.300781 L 41.328125 37.742188 L 41.078125 37.992188 Z M 40.175781 37.113281 L 40.546875 37.3125 L 40.644531 37.3125 L 40.992188 38.097656 C 40.90625 38.171875 40.8125 38.238281 40.71875 38.296875 Z M 39.902344 37.90625 C 39.953125 37.90625 39.996094 37.949219 39.996094 38 C 39.996094 38.054688 39.953125 38.097656 39.902344 38.097656 C 39.851562 38.097656 39.808594 38.054688 39.808594 38 C 39.761719 37.976562 39.742188 37.917969 39.773438 37.871094 C 39.796875 37.828125 39.855469 37.808594 39.902344 37.832031 Z M 39.566406 38.273438 C 39.605469 37.976562 39.75 37.699219 39.976562 37.5 C 40.003906 37.371094 40.039062 37.246094 40.082031 37.121094 L 40.632812 38.339844 L 40.632812 38.601562 L 40.417969 38.378906 C 40.417969 38.378906 39.722656 38.378906 39.566406 38.203125 Z M 46.609375 31.664062 L 46.609375 31.839844 C 46.652344 31.9375 46.757812 31.988281 46.859375 31.96875 C 46.960938 31.945312 47.035156 31.855469 47.035156 31.75 C 47.035156 31.648438 46.960938 31.558594 46.859375 31.535156 C 46.757812 31.515625 46.652344 31.570312 46.609375 31.664062 Z M 45.089844 32.585938 L 46.8125 32.585938 L 46.640625 32.855469 L 45.292969 32.855469 Z M 45.882812 31.167969 C 46.019531 30.855469 45.691406 30.917969 45.882812 30.605469 C 45.554688 30.800781 45.851562 30.863281 45.882812 31.09375 Z M 46.0625 31.042969 C 46.304688 30.574219 45.894531 30.695312 46.136719 30.289062 C 45.683594 30.574219 46.113281 30.695312 46.0625 31.042969 Z M 46.8125 31.335938 C 46.984375 31.367188 47.109375 31.515625 47.109375 31.6875 C 47.109375 31.863281 46.984375 32.007812 46.8125 32.042969 C 46.742188 32.042969 46.671875 32.019531 46.609375 31.976562 L 46.609375 32.089844 C 46.609375 32.25 46.484375 32.382812 46.324219 32.382812 L 45.546875 32.382812 C 45.382812 32.382812 45.261719 32.25 45.261719 32.089844 L 45.261719 31.230469 L 46.609375 31.230469 L 46.609375 31.410156 C 46.667969 31.363281 46.738281 31.332031 46.8125 31.328125 Z M 51.683594 35.234375 C 52.285156 35.234375 52.738281 35.496094 52.738281 35.835938 C 52.738281 36.171875 52.242188 36.441406 51.683594 36.441406 C 51.121094 36.441406 50.625 36.171875 50.625 35.835938 C 50.625 35.496094 51.066406 35.234375 51.683594 35.234375 Z M 50.625 36.285156 L 50.476562 36.285156 L 50.476562 36.546875 C 50.476562 36.546875 50.636719 36.546875 50.644531 36.546875 L 50.644531 36.703125 C 50.855469 36.796875 51.070312 36.882812 51.289062 36.953125 C 51.40625 36.902344 51.519531 36.832031 51.617188 36.753906 C 51.722656 36.820312 51.832031 36.882812 51.945312 36.933594 C 52.066406 36.964844 52.191406 36.964844 52.316406 36.933594 L 52.632812 36.722656 L 52.632812 36.546875 L 52.832031 36.386719 L 52.832031 36.285156 L 52.96875 36.285156 L 53.066406 36.097656 L 52.9375 36.003906 C 52.730469 36.207031 52.46875 36.351562 52.179688 36.410156 C 51.832031 36.496094 51.46875 36.496094 51.121094 36.410156 Z M 50.742188 36.882812 C 50.742188 36.882812 51.511719 37.113281 51.554688 37.113281 L 52.304688 37.050781 L 52.757812 36.859375 L 52.433594 37.121094 L 51.789062 37.195312 L 51.289062 37.195312 L 50.953125 37.050781 Z M 50.636719 37.070312 C 50.960938 37.328125 51.351562 37.484375 51.765625 37.511719 C 51.988281 37.5 52.207031 37.441406 52.398438 37.332031 C 52.496094 37.25 52.738281 37.089844 52.738281 37.089844 C 51.800781 37.511719 51.523438 37.332031 50.605469 37.039062 Z M 51.695312 35.949219 C 51.695312 35.949219 51.757812 35.949219 51.757812 36.003906 C 51.757812 36.039062 51.726562 36.066406 51.695312 36.066406 C 51.65625 36.066406 51.625 36.039062 51.617188 36.003906 C 51.617188 36.003906 51.640625 35.917969 51.683594 35.917969 Z M 51.894531 35.707031 C 51.894531 35.707031 51.957031 35.707031 51.957031 35.792969 C 51.957031 35.875 51.957031 35.875 51.894531 35.875 C 51.851562 35.867188 51.816406 35.835938 51.820312 35.792969 C 51.804688 35.765625 51.804688 35.738281 51.8125 35.714844 C 51.828125 35.691406 51.855469 35.675781 51.882812 35.675781 Z M 52.011719 35.464844 C 52.03125 35.460938 52.054688 35.46875 52.074219 35.484375 C 52.089844 35.496094 52.101562 35.519531 52.105469 35.539062 C 52.105469 35.5625 52.09375 35.589844 52.078125 35.601562 C 52.054688 35.621094 52.035156 35.628906 52.011719 35.625 C 51.960938 35.625 51.925781 35.585938 51.925781 35.539062 C 51.917969 35.515625 51.921875 35.492188 51.9375 35.46875 C 51.949219 35.449219 51.976562 35.4375 52 35.433594 Z M 51.734375 35.402344 C 51.800781 35.402344 51.851562 35.402344 51.851562 35.488281 C 51.851562 35.570312 51.851562 35.570312 51.734375 35.570312 C 51.617188 35.570312 51.617188 35.570312 51.617188 35.488281 C 51.617188 35.402344 51.664062 35.371094 51.726562 35.371094 Z M 51.511719 35.539062 C 51.554688 35.542969 51.59375 35.578125 51.59375 35.625 C 51.59375 35.664062 51.554688 35.699219 51.511719 35.699219 C 51.472656 35.699219 51.4375 35.664062 51.4375 35.625 C 51.429688 35.597656 51.429688 35.574219 51.441406 35.550781 C 51.453125 35.53125 51.476562 35.511719 51.5 35.507812 Z M 51.34375 35.761719 Z M 51.121094 35.644531 C 51.160156 35.648438 51.183594 35.679688 51.183594 35.71875 C 51.183594 35.71875 51.183594 35.800781 51.121094 35.800781 C 51.078125 35.796875 51.046875 35.761719 51.046875 35.71875 C 51.046875 35.679688 51.074219 35.648438 51.109375 35.644531 Z M 51.195312 35.496094 C 51.21875 35.484375 51.246094 35.484375 51.269531 35.496094 C 51.265625 35.53125 51.234375 35.5625 51.195312 35.5625 C 51.140625 35.5625 51.109375 35.5625 51.109375 35.496094 C 51.109375 35.433594 51.132812 35.496094 51.183594 35.496094 Z M 50.878906 35.632812 C 50.898438 35.632812 50.921875 35.644531 50.933594 35.660156 C 50.949219 35.675781 50.957031 35.699219 50.953125 35.71875 C 50.953125 35.757812 50.921875 35.792969 50.878906 35.792969 C 50.84375 35.785156 50.816406 35.753906 50.816406 35.71875 C 50.804688 35.664062 50.835938 35.632812 50.867188 35.632812 Z M 52.179688 35.75 C 52.210938 35.753906 52.234375 35.785156 52.230469 35.820312 C 52.226562 35.851562 52.195312 35.875 52.164062 35.875 C 52.128906 35.871094 52.105469 35.84375 52.105469 35.8125 C 52.109375 35.78125 52.132812 35.753906 52.167969 35.75 Z M 51.695312 35.152344 C 52.367188 35.152344 52.929688 35.457031 52.929688 35.835938 C 52.929688 35.835938 52.929688 35.835938 52.929688 35.90625 C 52.929688 35.980469 53.171875 36.023438 53.171875 36.171875 C 53.171875 36.316406 53.171875 36.503906 53.117188 36.503906 C 53.050781 36.492188 52.988281 36.472656 52.929688 36.441406 C 52.921875 36.496094 52.921875 36.550781 52.929688 36.609375 L 52.929688 37.058594 C 52.632812 37.722656 51.183594 37.84375 50.570312 37.144531 C 50.550781 36.984375 50.550781 36.828125 50.570312 36.671875 C 50.570312 36.671875 50.320312 36.671875 50.328125 36.578125 C 50.339844 36.480469 50.425781 36.398438 50.425781 36.367188 C 50.425781 36.335938 50.308594 36.191406 50.339844 36.160156 C 50.40625 36.148438 50.472656 36.148438 50.539062 36.160156 L 50.65625 36.160156 C 50.570312 36.078125 50.523438 35.96875 50.519531 35.855469 C 50.445312 35.457031 50.992188 35.152344 51.683594 35.152344 Z M 54.511719 32.246094 C 54.511719 32.109375 54.671875 32.089844 54.839844 32.121094 C 54.691406 32.042969 54.585938 31.90625 54.671875 31.800781 C 54.757812 31.695312 55.144531 31.988281 55.167969 32.183594 L 55.050781 32.183594 C 55.082031 32.179688 55.113281 32.179688 55.144531 32.183594 C 54.945312 32.4375 54.511719 32.46875 54.511719 32.246094 Z M 55.800781 32.972656 C 55.644531 33.09375 55.453125 33.160156 55.25 33.160156 C 54.855469 33.148438 54.507812 32.890625 54.382812 32.511719 C 54.265625 32.136719 54.394531 31.722656 54.714844 31.484375 L 54.765625 31.570312 C 54.480469 31.78125 54.367188 32.144531 54.476562 32.484375 C 54.582031 32.820312 54.898438 33.050781 55.25 33.058594 C 55.425781 33.054688 55.601562 32.996094 55.738281 32.890625 Z M 55.578125 32.972656 C 55.453125 33.046875 55.335938 32.890625 55.28125 32.710938 C 55.28125 32.890625 55.167969 33.046875 55.03125 32.992188 C 54.894531 32.941406 54.933594 32.824219 55.03125 32.6875 C 54.914062 32.785156 54.777344 32.824219 54.703125 32.6875 C 54.628906 32.550781 55.03125 32.300781 55.242188 32.34375 C 55.242188 32.34375 55.242188 32.34375 55.242188 32.40625 L 55.304688 32.40625 C 55.472656 32.449219 55.738281 32.835938 55.566406 32.953125 Z M 61.558594 37.90625 C 61.621094 38.371094 60.566406 39.195312 60.164062 39.167969 C 60.160156 38.96875 60.207031 38.773438 60.3125 38.601562 L 60.40625 38.695312 C 60.4375 38.726562 60.484375 38.730469 60.519531 38.699219 C 60.550781 38.671875 60.554688 38.621094 60.523438 38.589844 L 60.394531 38.464844 C 60.394531 38.390625 60.492188 38.316406 60.546875 38.242188 L 60.757812 38.464844 C 60.757812 38.507812 60.792969 38.542969 60.835938 38.546875 C 60.882812 38.546875 60.921875 38.515625 60.925781 38.472656 C 60.929688 38.425781 60.894531 38.386719 60.851562 38.378906 L 60.628906 38.148438 L 60.832031 37.9375 L 61 38.105469 C 61.027344 38.136719 61.078125 38.140625 61.109375 38.113281 C 61.140625 38.082031 61.144531 38.035156 61.117188 38 L 60.957031 37.84375 C 61.046875 37.769531 61.164062 37.722656 61.285156 37.710938 L 61.285156 37.289062 L 61.390625 37.289062 L 61.390625 37.59375 L 61.726562 37.25 L 61.90625 37.332031 L 61.609375 37.679688 L 62.128906 37.542969 L 62.128906 37.691406 Z M 29.371094 37.425781 C 29.371094 37.425781 30.121094 36.375 30.777344 37.21875 C 30.386719 37.269531 29.972656 37.460938 30.058594 37.886719 C 30.199219 37.574219 30.539062 37.398438 30.882812 37.46875 C 31.113281 37.46875 31.050781 37.15625 31.050781 37.15625 C 31.050781 37.15625 31.175781 36.976562 31.28125 37.15625 C 31.335938 37.234375 31.402344 37.300781 31.484375 37.355469 C 31.527344 37.398438 31.527344 37.472656 31.484375 37.523438 C 31.484375 37.574219 31.132812 37.523438 31.113281 37.605469 C 31.0625 37.796875 30.96875 37.976562 30.839844 38.128906 L 29.476562 38.128906 L 29.03125 37.617188 C 29.03125 37.617188 28.84375 37.25 29.199219 37.269531 Z M 29.371094 37.425781 "/>
<path style=" stroke:none;fill-rule:evenodd;fill:rgb(94.901961%,40.392157%,12.941176%);fill-opacity:1;" d="M 61.367188 50.796875 C 61.324219 52.019531 61.867188 53.1875 62.839844 53.945312 C 63.367188 54.347656 64.027344 54.554688 64.695312 54.542969 C 66.074219 54.605469 67.34375 53.804688 67.867188 52.539062 C 68.109375 52.011719 68.230469 51.433594 68.222656 50.851562 L 68.222656 50.640625 C 68.273438 49.421875 67.695312 48.257812 66.679688 47.5625 C 65.335938 46.667969 63.53125 46.90625 62.453125 48.105469 C 61.796875 48.847656 61.441406 49.8125 61.464844 50.796875 M 16.335938 50.871094 C 16.257812 52.140625 16.832031 53.355469 17.867188 54.101562 C 18.398438 54.449219 19.019531 54.632812 19.652344 54.625 C 20.558594 54.640625 21.425781 54.253906 22.019531 53.574219 C 22.679688 52.882812 23.054688 51.964844 23.078125 51.007812 L 23.078125 50.757812 C 23.085938 49.542969 22.496094 48.394531 21.492188 47.699219 C 20.972656 47.324219 20.351562 47.125 19.714844 47.132812 C 18.636719 47.105469 17.617188 47.625 17.011719 48.515625 C 16.511719 49.203125 16.242188 50.023438 16.238281 50.871094 Z M 75.640625 47.5625 C 75.46875 47.128906 75.054688 46.835938 74.585938 46.816406 C 73.917969 46.816406 73.601562 47.269531 73.421875 47.863281 L 73.421875 48.136719 C 73.421875 48.988281 74.394531 49.351562 75.070312 49.542969 C 75.964844 49.742188 76.765625 50.242188 77.328125 50.957031 C 77.660156 51.558594 77.808594 52.246094 77.75 52.929688 C 77.773438 54.066406 77.152344 55.121094 76.148438 55.664062 C 75.597656 55.972656 74.96875 56.121094 74.339844 56.105469 C 73.527344 56.164062 72.71875 55.890625 72.109375 55.347656 C 71.496094 54.808594 71.140625 54.042969 71.105469 53.234375 L 71.03125 52.402344 L 71.277344 52.152344 L 72.578125 52.152344 C 72.796875 52.152344 72.871094 52.371094 72.914062 52.550781 C 72.953125 52.753906 72.980469 52.953125 73 53.160156 C 73.128906 53.84375 73.730469 54.351562 74.4375 54.363281 C 75.097656 54.390625 75.683594 53.953125 75.839844 53.316406 L 75.839844 52.84375 C 75.839844 51.953125 75.046875 51.523438 74.300781 51.28125 C 73.320312 51.046875 72.453125 50.488281 71.839844 49.699219 C 71.582031 49.1875 71.457031 48.625 71.476562 48.054688 C 71.472656 47.070312 71.964844 46.144531 72.789062 45.589844 C 73.332031 45.21875 73.984375 45.039062 74.648438 45.066406 L 74.710938 45.066406 C 76.117188 45.003906 77.347656 45.992188 77.570312 47.375 L 77.570312 48.074219 L 77.339844 48.316406 L 76.09375 48.316406 C 75.753906 48.335938 75.691406 47.8125 75.640625 47.5625 Z M 64.84375 45.265625 C 66.75 45.261719 68.488281 46.351562 69.304688 48.0625 C 69.75 48.886719 69.984375 49.804688 69.988281 50.734375 C 70.042969 52.550781 69.199219 54.273438 67.726562 55.347656 C 66.835938 55.996094 65.757812 56.328125 64.652344 56.300781 C 63.214844 56.34375 61.832031 55.726562 60.914062 54.625 C 59.980469 53.539062 59.46875 52.164062 59.46875 50.734375 C 59.453125 49.03125 60.234375 47.410156 61.578125 46.34375 C 62.496094 45.601562 63.660156 45.21875 64.84375 45.265625 Z M 56.394531 50.695312 L 50.191406 50.695312 L 49.949219 50.457031 L 49.949219 49.226562 L 50.160156 49.019531 L 58.144531 49.019531 C 58.234375 49.015625 58.320312 49.054688 58.382812 49.121094 C 58.445312 49.1875 58.472656 49.273438 58.464844 49.363281 C 58.453125 50.726562 58.027344 52.050781 57.25 53.167969 C 56.015625 55.054688 53.882812 56.164062 51.617188 56.105469 C 49.949219 56.167969 48.324219 55.558594 47.117188 54.417969 C 45.648438 53.035156 44.828125 51.117188 44.84375 49.113281 L 44.84375 48.863281 C 44.792969 46.621094 45.855469 44.5 47.6875 43.191406 C 48.921875 42.324219 50.40625 41.886719 51.914062 41.957031 C 54.351562 41.921875 56.597656 43.277344 57.679688 45.445312 L 57.679688 45.769531 L 57.460938 46 L 56.078125 46 C 55.898438 45.972656 55.742188 45.875 55.640625 45.726562 C 55.484375 45.558594 55.335938 45.371094 55.1875 45.191406 C 54.335938 44.207031 53.074219 43.65625 51.765625 43.703125 C 50.429688 43.671875 49.144531 44.207031 48.226562 45.171875 C 47.234375 46.183594 46.6875 47.535156 46.695312 48.945312 C 46.679688 50.550781 47.375 52.085938 48.597656 53.136719 C 49.472656 53.898438 50.605469 54.296875 51.765625 54.257812 C 53.234375 54.230469 54.609375 53.53125 55.484375 52.359375 C 55.882812 51.871094 56.179688 51.304688 56.351562 50.695312 Z M 42.382812 45.71875 L 43.609375 45.71875 L 43.8125 45.925781 L 43.8125 55.945312 L 43.609375 56.15625 L 42.300781 56.15625 C 42.132812 56.078125 42.03125 55.910156 42.046875 55.726562 L 42.046875 46.105469 C 42.046875 45.894531 42.140625 45.71875 42.382812 45.71875 Z M 42.382812 42.457031 L 43.609375 42.457031 L 43.8125 42.667969 L 43.8125 44.773438 L 43.609375 44.980469 L 42.300781 44.980469 C 42.132812 44.90625 42.03125 44.738281 42.046875 44.554688 L 42.046875 42.835938 C 42.046875 42.636719 42.140625 42.402344 42.382812 42.402344 Z M 33.585938 47.046875 C 34.460938 46.0625 35.71875 45.5 37.039062 45.496094 C 38.023438 45.421875 38.992188 45.753906 39.722656 46.40625 C 40.449219 47.0625 40.875 47.988281 40.898438 48.96875 L 40.960938 49.835938 L 40.960938 55.914062 L 40.726562 56.15625 L 39.460938 56.15625 L 39.226562 55.914062 L 39.226562 49.667969 C 39.28125 48.71875 38.761719 47.824219 37.90625 47.394531 C 37.5625 47.277344 37.210938 47.210938 36.851562 47.195312 C 36.199219 47.136719 35.554688 47.351562 35.074219 47.789062 C 34.597656 48.230469 34.328125 48.851562 34.335938 49.5 L 34.335938 55.863281 L 34.105469 56.105469 L 32.804688 56.105469 L 32.570312 55.863281 L 32.570312 49.574219 C 32.589844 48.714844 32.144531 47.917969 31.398438 47.480469 C 30.992188 47.328125 30.558594 47.242188 30.121094 47.226562 C 28.925781 47.199219 27.902344 48.066406 27.746094 49.238281 C 27.660156 49.617188 27.625 50.003906 27.640625 50.390625 L 27.640625 55.925781 L 27.429688 56.136719 L 26.128906 56.136719 C 25.953125 56.066406 25.847656 55.890625 25.863281 55.707031 L 25.863281 46.167969 C 25.863281 45.957031 25.96875 45.726562 26.210938 45.726562 L 27.4375 45.726562 L 27.640625 45.9375 L 27.640625 46.429688 C 28.402344 45.789062 29.367188 45.445312 30.363281 45.445312 C 31.566406 45.472656 32.710938 45.976562 33.53125 46.847656 Z M 23.078125 46.765625 L 23.078125 46.042969 C 23.128906 45.894531 23.222656 45.75 23.394531 45.75 L 24.617188 45.75 L 24.816406 45.957031 L 24.816406 55.882812 L 24.617188 56.09375 L 23.277344 56.09375 L 23.046875 55.851562 L 23.046875 55.011719 C 22.09375 55.914062 20.820312 56.40625 19.503906 56.375 C 18.003906 56.429688 16.570312 55.757812 15.660156 54.574219 C 14.847656 53.539062 14.394531 52.269531 14.371094 50.957031 C 14.328125 49.140625 15.167969 47.410156 16.632812 46.3125 C 17.523438 45.667969 18.601562 45.335938 19.703125 45.359375 C 20.96875 45.378906 22.175781 45.882812 23.078125 46.765625 Z M 23.078125 46.765625 "/>
<path style=" stroke:none;fill-rule:nonzero;fill:rgb(100%,40%,0%);fill-opacity:1;" d="M 28.84375 57.90625 L 29.234375 57.90625 L 29.234375 60.566406 C 29.933594 59.644531 30.289062 59.125 30.4375 59.007812 L 30.890625 59.007812 L 29.722656 60.566406 C 29.753906 60.652344 29.804688 60.730469 29.867188 60.796875 L 31.273438 62.484375 L 30.796875 62.484375 C 30.796875 62.484375 30.648438 62.359375 30.46875 62.117188 L 29.347656 60.722656 L 29.347656 62.484375 L 28.84375 62.484375 C 28.832031 62.46875 28.832031 62.445312 28.84375 62.421875 L 28.84375 57.96875 C 28.84375 57.96875 28.820312 57.90625 28.84375 57.90625 Z M 28.84375 57.90625 "/>
<path style=" stroke:none;fill-rule:nonzero;fill:rgb(100%,40%,0%);fill-opacity:1;" d="M 34.042969 57.90625 L 34.441406 57.90625 L 34.441406 58.597656 L 34.050781 58.597656 C 34.050781 58.597656 34.050781 58.597656 34.050781 58.523438 L 34.050781 57.925781 C 34.050781 57.925781 34.019531 57.90625 34.042969 57.90625 Z M 34.042969 59.050781 L 34.441406 59.050781 L 34.441406 62.484375 L 34.050781 62.484375 C 34.039062 62.46875 34.039062 62.445312 34.050781 62.421875 L 34.050781 59.070312 C 34.050781 59.070312 34.019531 59.050781 34.042969 59.050781 Z M 34.042969 59.050781 "/>
<path style=" stroke:none;fill-rule:nonzero;fill:rgb(100%,40%,0%);fill-opacity:1;" d="M 37.894531 57.90625 L 38.296875 57.90625 L 38.296875 59.019531 L 38.921875 59.019531 L 38.921875 59.433594 L 38.328125 59.433594 L 38.328125 62.484375 L 37.949219 62.484375 L 37.949219 59.539062 L 37.355469 59.539062 L 37.355469 59.113281 L 37.96875 59.113281 L 37.96875 57.925781 Z M 37.894531 57.90625 "/>
<path style=" stroke:none;fill-rule:nonzero;fill:rgb(100%,40%,0%);fill-opacity:1;" d="M 43.527344 58.921875 C 44.128906 58.921875 44.679688 59.246094 44.960938 59.769531 C 45.023438 59.867188 45.070312 59.96875 45.101562 60.074219 L 44.699219 60.074219 C 44.699219 60.074219 44.601562 60.011719 44.550781 59.898438 C 44.28125 59.484375 43.789062 59.273438 43.300781 59.359375 C 42.8125 59.441406 42.421875 59.804688 42.3125 60.285156 C 42.273438 60.433594 42.25 60.582031 42.246094 60.734375 C 42.199219 61.09375 42.3125 61.457031 42.550781 61.730469 C 42.792969 62 43.140625 62.152344 43.507812 62.148438 C 43.945312 62.144531 44.351562 61.90625 44.5625 61.523438 C 44.5625 61.429688 44.625 61.386719 44.632812 61.386719 L 45.089844 61.386719 C 45.011719 61.636719 44.875 61.867188 44.6875 62.054688 C 44.378906 62.382812 43.9375 62.566406 43.484375 62.558594 C 42.796875 62.5625 42.175781 62.144531 41.921875 61.511719 C 41.800781 61.246094 41.734375 60.953125 41.730469 60.660156 C 41.730469 60.085938 42.003906 59.542969 42.46875 59.195312 C 42.78125 58.992188 43.15625 58.894531 43.527344 58.921875 Z M 43.527344 58.921875 "/>
<path style=" stroke:none;fill-rule:nonzero;fill:rgb(100%,40%,0%);fill-opacity:1;" d="M 47.933594 57.90625 L 48.320312 57.90625 L 48.320312 59.371094 C 48.578125 59.058594 48.976562 58.894531 49.375 58.933594 C 49.957031 58.894531 50.480469 59.269531 50.636719 59.824219 C 50.683594 59.976562 50.710938 60.136719 50.710938 60.296875 L 50.710938 62.484375 L 50.289062 62.484375 L 50.289062 60.390625 C 50.308594 60.023438 50.097656 59.679688 49.761719 59.53125 C 49.628906 59.484375 49.496094 59.453125 49.355469 59.445312 C 48.886719 59.410156 48.46875 59.734375 48.386719 60.191406 C 48.351562 60.324219 48.332031 60.460938 48.332031 60.597656 L 48.332031 62.484375 L 47.941406 62.484375 C 47.933594 62.46875 47.933594 62.445312 47.941406 62.421875 L 47.941406 57.96875 C 47.941406 57.96875 47.921875 57.90625 47.933594 57.90625 Z M 47.933594 57.90625 "/>
<path style=" stroke:none;fill-rule:nonzero;fill:rgb(100%,40%,0%);fill-opacity:1;" d="M 55.347656 58.945312 C 56.066406 58.945312 56.703125 59.417969 56.898438 60.109375 C 56.980469 60.363281 57.023438 60.632812 57.027344 60.902344 L 54.027344 60.902344 C 54.046875 61.265625 54.207031 61.605469 54.480469 61.847656 C 54.777344 62.097656 55.175781 62.195312 55.554688 62.113281 C 55.933594 62.035156 56.257812 61.785156 56.425781 61.4375 L 56.878906 61.4375 C 56.726562 61.894531 56.402344 62.273438 55.96875 62.484375 C 55.75 62.589844 55.507812 62.644531 55.261719 62.644531 C 54.664062 62.640625 54.109375 62.328125 53.804688 61.816406 C 53.613281 61.496094 53.511719 61.136719 53.507812 60.765625 C 53.492188 60.285156 53.675781 59.816406 54.019531 59.480469 C 54.367188 59.140625 54.839844 58.960938 55.324219 58.988281 Z M 54.027344 60.527344 L 56.511719 60.527344 C 56.460938 60.261719 56.347656 60.011719 56.183594 59.804688 C 55.953125 59.53125 55.609375 59.371094 55.25 59.382812 C 54.691406 59.363281 54.195312 59.734375 54.058594 60.277344 C 54.03125 60.355469 54.019531 60.441406 54.027344 60.527344 Z M 54.027344 60.527344 "/>
<path style=" stroke:none;fill-rule:nonzero;fill:rgb(100%,40%,0%);fill-opacity:1;" d="M 61.335938 58.976562 C 61.914062 58.957031 62.425781 59.332031 62.570312 59.886719 C 62.613281 60.03125 62.632812 60.175781 62.632812 60.328125 L 62.632812 62.484375 L 62.253906 62.484375 L 62.253906 60.390625 C 62.273438 60.0625 62.109375 59.75 61.832031 59.570312 C 61.679688 59.496094 61.507812 59.453125 61.335938 59.445312 C 60.820312 59.386719 60.351562 59.742188 60.277344 60.253906 C 60.269531 60.382812 60.269531 60.515625 60.277344 60.640625 L 60.277344 62.484375 L 59.890625 62.484375 C 59.878906 62.5 59.859375 62.507812 59.84375 62.507812 C 59.824219 62.507812 59.808594 62.5 59.792969 62.484375 L 59.792969 59.128906 C 59.792969 59.128906 59.792969 59.070312 59.792969 59.070312 L 60.183594 59.070312 L 60.183594 59.339844 C 60.5 59.0625 60.917969 58.929688 61.335938 58.976562 Z M 61.335938 58.976562 "/>
</g>
</svg>
