<?xml version="1.0" encoding="UTF-8"?>
<svg xmlns="http://www.w3.org/2000/svg" xmlns:xlink="http://www.w3.org/1999/xlink" width="136pt" height="50pt" viewBox="0 0 136 50" version="1.1">
<g id="surface1">
<path style=" stroke:none;fill-rule:evenodd;fill:rgb(94.901961%,40.392157%,12.941176%);fill-opacity:1;" d="M 19.390625 1.640625 C 17.167969 1.851562 14.933594 2.925781 14.300781 4.527344 C 14.101562 5.03125 14.324219 5.398438 14.503906 6.113281 C 14.667969 6.578125 15.027344 6.945312 15.484375 7.117188 C 16.550781 7.609375 17.730469 7.792969 18.894531 7.644531 C 21.105469 7.433594 23.359375 6.316406 23.949219 4.726562 C 24.292969 3.707031 23.78125 2.59375 22.785156 2.195312 C 21.726562 1.699219 20.550781 1.507812 19.390625 1.644531 M 12.992188 5.066406 C 11.402344 5.652344 9.886719 6.441406 8.488281 7.40625 C 7.65625 7.980469 6.859375 8.609375 6.105469 9.289062 C 4.457031 10.820312 3.058594 12.609375 1.960938 14.582031 C 1.082031 16.121094 0.417969 17.773438 -0.00390625 19.5 L 1.058594 19.511719 C 1.503906 17.984375 2.144531 16.519531 2.960938 15.15625 C 3.746094 13.878906 4.679688 12.703125 5.742188 11.648438 C 6.605469 10.816406 6.617188 10.835938 7.394531 10.152344 C 8.578125 9.199219 9.855469 8.371094 11.214844 7.6875 C 11.929688 7.3125 12.679688 6.996094 13.449219 6.746094 C 13.800781 7.273438 14.292969 7.691406 14.867188 7.953125 C 16.984375 8.824219 19.339844 8.890625 21.5 8.144531 C 22.75 7.765625 23.90625 7.132812 24.898438 6.28125 C 25.8125 5.40625 26.824219 4.179688 26.390625 2.667969 C 25.898438 1.433594 24.804688 0.539062 23.5 0.308594 C 20.308594 -0.546875 15.757812 0.667969 13.808594 3.207031 C 13.382812 3.746094 13.101562 4.386719 12.992188 5.066406 Z M 12.992188 5.066406 "/>
<path style=" stroke:none;fill-rule:evenodd;fill:rgb(94.901961%,40.392157%,12.941176%);fill-opacity:1;" d="M 36.351562 31.320312 L 32.285156 31.320312 C 32.097656 31.550781 31.976562 31.746094 31.773438 31.988281 C 31.339844 32.515625 30.839844 32.972656 30.359375 33.460938 C 29.449219 34.328125 28.433594 35.078125 27.335938 35.6875 C 26.257812 36.269531 25.101562 36.679688 23.898438 36.902344 C 20.394531 37.539062 16.78125 36.691406 13.917969 34.5625 C 13.691406 34.402344 13.476562 34.230469 13.273438 34.042969 L 12.675781 33.480469 C 12.472656 33.277344 12.316406 33.113281 12.09375 32.898438 C 11.835938 32.644531 11.238281 31.917969 11.023438 31.640625 C 10.746094 31.277344 10.773438 31.300781 10.210938 31.300781 C 9.214844 31.300781 7.597656 31.253906 6.75 31.308594 C 6.96875 32.015625 7.289062 32.6875 7.695312 33.308594 C 8.066406 33.925781 8.496094 34.507812 8.96875 35.050781 C 9.222656 35.332031 9.4375 35.582031 9.6875 35.839844 C 15.144531 41.367188 24.492188 42.105469 30.808594 37.882812 C 32.613281 36.707031 34.148438 35.160156 35.3125 33.339844 C 35.738281 32.710938 36.085938 32.03125 36.351562 31.320312 "/>
<path style=" stroke:none;fill-rule:evenodd;fill:rgb(94.901961%,40.392157%,12.941176%);fill-opacity:1;" d="M 6.785156 19.3125 C 7.980469 19.3125 9.433594 19.339844 10.597656 19.3125 C 10.890625 19.304688 10.914062 19.152344 11.265625 18.703125 C 12.035156 17.753906 12.902344 16.890625 13.855469 16.125 C 17.3125 13.515625 21.84375 12.824219 25.914062 14.292969 C 27.667969 14.980469 29.257812 16.027344 30.585938 17.367188 C 31.03125 17.785156 31.453125 18.234375 31.835938 18.707031 C 31.949219 18.84375 32.023438 18.933594 32.117188 19.070312 C 32.25 19.261719 32.210938 19.316406 32.492188 19.320312 C 33.296875 19.328125 35.8125 19.355469 36.328125 19.308594 C 36.082031 18.625 35.753906 17.972656 35.351562 17.367188 C 32.617188 12.847656 27.101562 10.054688 21.582031 10.058594 C 17.539062 10 13.609375 11.414062 10.519531 14.042969 C 9.976562 14.5 9.472656 15.007812 9.015625 15.554688 C 8.539062 16.09375 8.109375 16.671875 7.734375 17.289062 C 7.316406 17.914062 6.996094 18.597656 6.777344 19.316406 "/>
<path style=" stroke:none;fill-rule:evenodd;fill:rgb(94.901961%,40.392157%,12.941176%);fill-opacity:1;" d="M 14.390625 32.714844 C 14.414062 32.65625 14.492188 32.671875 14.558594 32.714844 C 14.507812 32.648438 14.488281 32.570312 14.542969 32.539062 C 14.636719 32.484375 14.714844 32.707031 14.691406 32.800781 C 14.671875 32.796875 14.65625 32.792969 14.640625 32.785156 C 14.652344 32.796875 14.660156 32.808594 14.667969 32.824219 C 14.5625 32.878906 14.351562 32.8125 14.386719 32.710938 M 14.828125 33.261719 C 14.738281 33.289062 14.636719 33.285156 14.546875 33.25 C 14.324219 33.15625 14.21875 32.898438 14.308594 32.675781 C 14.359375 32.542969 14.46875 32.441406 14.605469 32.402344 L 14.613281 32.453125 C 14.496094 32.488281 14.398438 32.574219 14.355469 32.691406 C 14.273438 32.890625 14.367188 33.121094 14.566406 33.203125 C 14.644531 33.234375 14.730469 33.238281 14.8125 33.214844 Z M 17.789062 31.855469 C 17.871094 31.855469 17.941406 31.910156 17.964844 31.992188 L 17.417969 32.4375 C 17.363281 32.410156 17.324219 32.359375 17.3125 32.300781 C 17.300781 32.242188 17.324219 32.179688 17.367188 32.136719 C 17.347656 32.109375 17.335938 32.074219 17.335938 32.035156 C 17.335938 31.960938 17.382812 31.894531 17.453125 31.867188 C 17.523438 31.84375 17.605469 31.863281 17.652344 31.921875 C 17.6875 31.878906 17.738281 31.855469 17.792969 31.859375 Z M 17.640625 32.351562 L 17.980469 32.078125 L 18.378906 33.078125 L 18.117188 32.910156 L 18.210938 32.902344 L 18.210938 32.839844 L 18.019531 32.847656 L 17.925781 32.785156 L 18.121094 32.792969 L 18.121094 32.730469 L 17.847656 32.730469 L 17.753906 32.660156 L 18.019531 32.660156 L 18.03125 32.605469 L 17.648438 32.601562 L 17.574219 32.535156 L 17.914062 32.554688 L 17.921875 32.507812 L 17.515625 32.472656 L 17.582031 32.414062 L 17.832031 32.449219 L 17.851562 32.394531 Z M 18.230469 35.277344 C 18.230469 35.277344 18.179688 35.183594 18.246094 35.140625 C 18.261719 35.132812 18.277344 35.117188 18.292969 35.101562 C 18.269531 35.066406 18.242188 35.03125 18.207031 35.007812 C 18.207031 35.007812 18.117188 34.921875 18.214844 34.964844 C 18.257812 34.988281 18.292969 35.023438 18.3125 35.066406 C 18.359375 35.054688 18.40625 35.074219 18.433594 35.113281 C 18.5625 35.378906 18.59375 35.480469 18.679688 35.550781 C 18.765625 35.625 18.894531 35.65625 19.238281 35.640625 C 19.039062 35.734375 18.816406 35.761719 18.605469 35.71875 C 18.277344 35.566406 18.273438 35.355469 18.273438 35.355469 C 18.289062 35.335938 18.300781 35.3125 18.308594 35.285156 C 18.316406 35.265625 18.320312 35.242188 18.316406 35.21875 C 18.316406 35.21875 18.25 35.355469 18.234375 35.273438 Z M 19.378906 35.214844 C 19.378906 35.214844 19.480469 35.15625 19.472656 35.101562 C 19.464844 35.050781 19.445312 35.027344 19.449219 35.007812 C 19.492188 34.996094 19.535156 34.996094 19.578125 35.003906 C 19.578125 35.003906 19.671875 34.996094 19.605469 34.964844 C 19.558594 34.945312 19.507812 34.945312 19.464844 34.964844 C 19.414062 34.933594 19.355469 34.921875 19.300781 34.9375 C 19.238281 34.957031 19.101562 35.199219 18.832031 35.164062 C 18.640625 35.113281 18.472656 34.996094 18.351562 34.835938 C 18.421875 35.042969 18.558594 35.222656 18.742188 35.34375 C 18.933594 35.421875 19.152344 35.394531 19.316406 35.273438 C 19.300781 35.210938 19.277344 35.109375 19.347656 35.070312 C 19.347656 35.078125 19.316406 35.261719 19.382812 35.21875 Z M 20.980469 33.144531 L 21.09375 33.222656 L 21.179688 32.980469 Z M 21.367188 33.023438 L 21.476562 33.070312 L 21.390625 33.257812 L 21.25 33.222656 Z M 21.636719 33.101562 L 21.523438 33.257812 L 21.664062 33.296875 L 21.757812 33.136719 Z M 21.886719 33.125 L 21.839844 33.273438 L 22.070312 33.152344 Z M 21.6875 32.855469 C 21.800781 32.636719 21.585938 32.734375 21.667969 32.476562 C 21.472656 32.652344 21.699219 32.695312 21.691406 32.855469 Z M 21.808594 32.808594 C 21.984375 32.433594 21.699219 32.589844 21.855469 32.300781 C 21.609375 32.527344 21.847656 32.527344 21.8125 32.808594 Z M 20.84375 33.109375 C 20.980469 32.898438 21.246094 32.820312 21.476562 32.921875 C 21.929688 33.058594 22.023438 33.027344 22.023438 33.027344 C 22.023438 33.027344 22.289062 33.042969 22.160156 33.375 C 21.914062 33.632812 20.839844 33.539062 20.839844 33.355469 Z M 22.183594 35.5 C 22.144531 35.5 22.097656 35.484375 22.136719 35.4375 C 22.234375 35.339844 22.371094 35.300781 22.503906 35.328125 C 22.519531 35.296875 22.546875 35.277344 22.582031 35.265625 C 22.601562 35.265625 22.558594 35.34375 22.574219 35.347656 C 22.585938 35.347656 22.65625 35.273438 22.671875 35.277344 C 22.703125 35.292969 22.738281 35.3125 22.742188 35.332031 C 22.757812 35.375 22.757812 35.425781 22.742188 35.46875 C 22.722656 35.503906 22.6875 35.527344 22.648438 35.539062 C 22.628906 35.542969 22.605469 35.53125 22.597656 35.507812 C 22.597656 35.507812 22.644531 35.441406 22.625 35.4375 C 22.605469 35.433594 22.566406 35.425781 22.5625 35.441406 L 22.550781 35.542969 C 22.550781 35.542969 22.535156 35.546875 22.507812 35.519531 C 22.488281 35.480469 22.476562 35.441406 22.472656 35.398438 C 22.367188 35.386719 22.261719 35.425781 22.183594 35.5 Z M 22.667969 35.710938 C 22.632812 35.710938 22.582031 35.695312 22.625 35.648438 C 22.71875 35.550781 22.855469 35.511719 22.988281 35.539062 C 23.007812 35.507812 23.035156 35.488281 23.066406 35.476562 C 23.085938 35.476562 23.046875 35.554688 23.058594 35.554688 C 23.070312 35.558594 23.140625 35.484375 23.15625 35.488281 C 23.191406 35.5 23.222656 35.523438 23.230469 35.542969 C 23.246094 35.585938 23.246094 35.636719 23.230469 35.679688 C 23.207031 35.714844 23.175781 35.738281 23.136719 35.75 C 23.113281 35.753906 23.09375 35.738281 23.085938 35.71875 C 23.085938 35.71875 23.128906 35.652344 23.109375 35.648438 C 23.089844 35.648438 23.050781 35.636719 23.050781 35.652344 L 23.035156 35.753906 C 23.035156 35.753906 23.019531 35.753906 22.996094 35.730469 C 22.976562 35.695312 22.960938 35.652344 22.957031 35.609375 C 22.851562 35.597656 22.746094 35.636719 22.671875 35.710938 Z M 23.171875 35.253906 C 23.203125 35.277344 23.222656 35.332031 23.15625 35.335938 C 23.011719 35.335938 22.875 35.261719 22.792969 35.140625 C 22.757812 35.152344 22.71875 35.144531 22.6875 35.128906 C 22.671875 35.117188 22.765625 35.085938 22.753906 35.074219 C 22.746094 35.058594 22.636719 35.066406 22.628906 35.050781 C 22.613281 35.019531 22.605469 34.988281 22.613281 34.957031 C 22.628906 34.925781 22.679688 34.863281 22.71875 34.851562 C 22.761719 34.839844 22.808594 34.847656 22.84375 34.871094 C 22.863281 34.886719 22.871094 34.910156 22.859375 34.933594 C 22.859375 34.933594 22.773438 34.953125 22.789062 34.96875 C 22.800781 34.984375 22.824219 35.023438 22.839844 35.011719 L 22.925781 34.945312 C 22.925781 34.945312 22.941406 34.949219 22.9375 34.992188 C 22.925781 35.035156 22.90625 35.078125 22.878906 35.113281 C 22.953125 35.203125 23.0625 35.253906 23.175781 35.25 Z M 25.5 33.046875 C 26.078125 32.910156 26.628906 33.457031 26.308594 33.871094 C 25.851562 34.46875 25.082031 33.144531 25.503906 33.042969 Z M 25.082031 32.925781 C 25.054688 32.949219 24.976562 33.039062 24.921875 33.039062 C 24.847656 33.035156 24.792969 32.976562 24.785156 32.90625 C 24.785156 32.839844 24.832031 32.78125 24.898438 32.773438 L 24.898438 32.75 C 24.898438 32.675781 24.960938 32.617188 25.035156 32.617188 C 25.113281 32.617188 25.144531 32.773438 25.144531 32.8125 C 25.144531 32.855469 25.371094 33.023438 25.34375 33.058594 C 25.292969 33.125 25.0625 32.921875 25.085938 32.921875 Z M 25.679688 33.144531 L 25.96875 33.144531 L 25.855469 33.203125 L 26.078125 33.214844 L 25.992188 33.257812 L 26.179688 33.28125 L 26.09375 33.320312 L 26.269531 33.355469 L 25.890625 33.355469 L 25.917969 33.261719 L 25.746094 33.246094 L 25.804688 33.175781 L 25.636719 33.1875 Z M 25.078125 33.015625 C 25.042969 33.082031 24.976562 33.121094 24.902344 33.121094 C 24.796875 33.128906 24.707031 33.054688 24.699219 32.949219 C 24.691406 32.84375 24.765625 32.753906 24.871094 32.746094 C 24.871094 32.734375 24.871094 32.722656 24.871094 32.714844 C 24.878906 32.613281 24.960938 32.53125 25.0625 32.53125 C 25.164062 32.53125 25.25 32.613281 25.257812 32.714844 C 25.257812 32.746094 25.246094 32.78125 25.230469 32.808594 C 25.308594 32.875 25.394531 32.933594 25.484375 32.980469 C 26.15625 32.859375 26.765625 33.445312 26.390625 33.929688 C 26.019531 34.414062 25.308594 33.78125 25.3125 33.175781 C 25.257812 33.105469 25.1875 33.046875 25.105469 33.015625 Z M 29.007812 32.988281 C 29.015625 32.996094 29.019531 33.007812 29.019531 33.015625 C 29.019531 33.027344 29.015625 33.035156 29.007812 33.042969 L 28.894531 33.167969 C 28.878906 33.183594 28.855469 33.183594 28.839844 33.167969 C 28.804688 33.140625 28.796875 33.09375 28.824219 33.054688 L 28.886719 32.980469 C 28.925781 32.953125 28.972656 32.957031 29.007812 32.988281 Z M 28.878906 32.957031 L 28.800781 33.042969 C 28.726562 33.125 28.679688 32.992188 28.722656 32.941406 L 28.761719 32.894531 C 28.8125 32.828125 28.933594 32.894531 28.875 32.957031 Z M 28.800781 32.722656 C 28.820312 32.746094 28.820312 32.777344 28.800781 32.800781 L 28.644531 32.972656 C 28.625 32.992188 28.589844 32.992188 28.570312 32.972656 C 28.523438 32.933594 28.515625 32.867188 28.546875 32.816406 L 28.636719 32.714844 C 28.679688 32.667969 28.765625 32.695312 28.796875 32.726562 Z M 28.621094 32.710938 L 28.542969 32.796875 C 28.472656 32.875 28.425781 32.742188 28.464844 32.691406 L 28.503906 32.644531 C 28.554688 32.582031 28.675781 32.648438 28.621094 32.710938 Z M 28.542969 32.476562 C 28.554688 32.484375 28.558594 32.5 28.558594 32.515625 C 28.558594 32.527344 28.554688 32.542969 28.542969 32.550781 L 28.390625 32.722656 C 28.367188 32.742188 28.335938 32.742188 28.3125 32.722656 C 28.269531 32.683594 28.257812 32.617188 28.289062 32.570312 L 28.382812 32.464844 C 28.425781 32.421875 28.507812 32.449219 28.539062 32.476562 Z M 28.199219 32.261719 C 28.25 32.261719 28.292969 32.285156 28.316406 32.328125 L 28.269531 32.34375 C 28.253906 32.320312 28.226562 32.308594 28.199219 32.308594 C 28.160156 32.320312 28.136719 32.355469 28.136719 32.398438 C 28.136719 32.4375 28.160156 32.476562 28.199219 32.488281 C 28.238281 32.488281 28.269531 32.464844 28.285156 32.433594 L 28.328125 32.441406 C 28.328125 32.449219 28.324219 32.457031 28.320312 32.464844 L 28.34375 32.488281 L 28.296875 32.539062 L 28.269531 32.515625 C 28.25 32.527344 28.226562 32.535156 28.199219 32.535156 C 28.148438 32.539062 28.101562 32.511719 28.074219 32.46875 C 28.046875 32.425781 28.046875 32.371094 28.074219 32.328125 C 28.101562 32.28125 28.148438 32.257812 28.199219 32.261719 Z M 29.191406 32.597656 C 29.207031 32.609375 29.207031 32.636719 29.191406 32.652344 L 29.078125 32.777344 C 29.066406 32.789062 29.039062 32.789062 29.027344 32.777344 C 28.992188 32.75 28.984375 32.699219 29.007812 32.664062 L 29.074219 32.589844 C 29.109375 32.554688 29.167969 32.574219 29.195312 32.597656 Z M 29.066406 32.5625 L 28.984375 32.652344 C 28.914062 32.730469 28.867188 32.597656 28.910156 32.546875 L 28.949219 32.5 C 29 32.4375 29.121094 32.5 29.066406 32.566406 Z M 28.984375 32.332031 C 29.003906 32.351562 29.003906 32.386719 28.984375 32.40625 L 28.832031 32.578125 C 28.8125 32.597656 28.777344 32.597656 28.757812 32.578125 C 28.710938 32.539062 28.703125 32.472656 28.734375 32.421875 L 28.828125 32.320312 C 28.871094 32.277344 28.953125 32.300781 28.984375 32.332031 Z M 28.808594 32.316406 L 28.730469 32.402344 C 28.65625 32.484375 28.609375 32.351562 28.652344 32.300781 L 28.691406 32.253906 C 28.746094 32.1875 28.867188 32.253906 28.808594 32.316406 Z M 28.730469 32.082031 C 28.738281 32.09375 28.746094 32.105469 28.746094 32.121094 C 28.746094 32.136719 28.738281 32.148438 28.730469 32.160156 L 28.574219 32.328125 C 28.566406 32.339844 28.550781 32.34375 28.535156 32.34375 C 28.523438 32.34375 28.507812 32.339844 28.5 32.328125 C 28.453125 32.289062 28.445312 32.226562 28.476562 32.175781 L 28.566406 32.074219 C 28.613281 32.035156 28.683594 32.039062 28.726562 32.085938 Z M 28.390625 31.867188 C 28.4375 31.867188 28.480469 31.894531 28.503906 31.933594 L 28.457031 31.949219 C 28.433594 31.910156 28.382812 31.898438 28.34375 31.914062 C 28.300781 31.933594 28.277344 31.980469 28.289062 32.027344 C 28.300781 32.070312 28.34375 32.097656 28.390625 32.09375 C 28.425781 32.09375 28.457031 32.074219 28.472656 32.039062 L 28.519531 32.050781 L 28.507812 32.070312 L 28.53125 32.09375 L 28.484375 32.144531 L 28.457031 32.121094 C 28.4375 32.136719 28.414062 32.140625 28.390625 32.140625 C 28.3125 32.140625 28.253906 32.082031 28.253906 32.003906 C 28.253906 31.929688 28.3125 31.867188 28.390625 31.867188 Z M 29.136719 32.757812 L 29.179688 32.710938 L 29.277344 32.84375 Z M 28.949219 33.152344 L 28.992188 33.105469 L 29.089844 33.234375 Z M 14.734375 33.214844 C 14.667969 33.222656 14.640625 33.132812 14.652344 33.046875 C 14.609375 33.121094 14.539062 33.171875 14.492188 33.128906 C 14.441406 33.085938 14.476562 33.035156 14.523438 32.988281 C 14.457031 33.007812 14.390625 33 14.378906 32.941406 C 14.355469 32.835938 14.589844 32.828125 14.671875 32.882812 C 14.664062 32.890625 14.660156 32.898438 14.652344 32.90625 C 14.664062 32.902344 14.675781 32.902344 14.683594 32.902344 L 14.683594 32.921875 L 14.691406 32.917969 C 14.796875 32.980469 14.84375 33.203125 14.738281 33.214844 Z M 21.03125 36.882812 L 21.546875 36.882812 C 23.695312 36.796875 25.792969 36.210938 27.671875 35.164062 C 28.898438 34.476562 29.976562 33.554688 30.855469 32.449219 C 31.175781 32.109375 31.445312 31.726562 31.660156 31.3125 C 31.421875 31.289062 12.394531 31.269531 11.160156 31.304688 C 11.367188 31.707031 11.625 32.078125 11.925781 32.417969 C 12.21875 32.769531 12.53125 33.101562 12.867188 33.414062 C 13.433594 33.980469 14.070312 34.46875 14.761719 34.875 C 16.632812 36.109375 18.800781 36.804688 21.035156 36.882812 Z M 21.03125 36.882812 "/>
<path style=" stroke:none;fill-rule:evenodd;fill:rgb(94.901961%,40.392157%,12.941176%);fill-opacity:1;" d="M 14.167969 17.671875 C 14.222656 17.46875 14.085938 17.574219 14.152344 17.398438 C 14.027344 17.535156 14.167969 17.535156 14.167969 17.671875 M 14.253906 17.636719 C 14.386719 17.417969 14.179688 17.496094 14.289062 17.273438 C 14.074219 17.417969 14.277344 17.484375 14.253906 17.640625 Z M 17.457031 15.855469 C 17.457031 15.855469 17.757812 15.535156 18 15.535156 L 18.28125 15.910156 C 18.28125 15.910156 17.863281 16.058594 17.75 16.28125 C 17.699219 16.230469 17.457031 15.855469 17.457031 15.855469 Z M 17.378906 15.855469 C 17.378906 15.855469 17.195312 15.957031 17.207031 15.769531 C 17.214844 15.640625 17.335938 15.628906 17.421875 15.597656 C 17.371094 15.527344 17.15625 15.394531 17.402344 15.1875 C 17.519531 15.085938 17.5625 15.09375 17.636719 15.117188 C 17.742188 15.148438 17.8125 15.242188 17.8125 15.347656 L 17.871094 15.347656 C 17.902344 15.238281 17.949219 15.105469 18.097656 15.175781 C 18.140625 15.191406 18.175781 15.222656 18.195312 15.269531 C 18.210938 15.3125 18.207031 15.359375 18.183594 15.402344 C 18.148438 15.449219 18.09375 15.476562 18.035156 15.472656 C 17.777344 15.511719 17.539062 15.648438 17.378906 15.855469 Z M 18.3125 15.964844 C 18.109375 16.027344 17.933594 16.148438 17.800781 16.3125 C 18 16.25 18.179688 16.128906 18.3125 15.964844 Z M 17.84375 16.066406 C 17.84375 16.066406 17.601562 15.777344 17.664062 15.75 C 17.726562 15.722656 17.902344 15.988281 17.910156 16.015625 C 17.835938 15.953125 17.769531 15.882812 17.703125 15.804688 Z M 17.960938 15.984375 C 17.960938 15.984375 17.714844 15.695312 17.777344 15.667969 C 17.84375 15.640625 18.015625 15.90625 18.023438 15.933594 C 18.03125 15.960938 17.816406 15.726562 17.816406 15.726562 Z M 18.105469 15.917969 C 18.105469 15.917969 17.859375 15.628906 17.921875 15.601562 C 17.988281 15.574219 18.164062 15.839844 18.167969 15.867188 C 18.175781 15.894531 17.964844 15.65625 17.964844 15.65625 Z M 17.71875 16.160156 C 17.71875 16.160156 17.472656 15.871094 17.535156 15.84375 C 17.597656 15.816406 17.773438 16.082031 17.78125 16.109375 C 17.789062 16.136719 17.574219 15.898438 17.574219 15.898438 Z M 17.316406 15.566406 C 16.96875 15.277344 17.71875 14.785156 17.855469 15.246094 C 18.105469 14.832031 18.511719 15.472656 18.066406 15.527344 C 18.148438 15.640625 18.265625 15.804688 18.371094 15.960938 C 18.246094 16.289062 17.746094 16.371094 17.746094 16.371094 L 17.40625 15.890625 C 17.234375 16.066406 16.957031 15.675781 17.316406 15.566406 Z M 19.285156 17.867188 C 19.347656 17.714844 19.195312 17.746094 19.269531 17.597656 C 19.125 17.722656 19.273438 17.753906 19.28125 17.867188 Z M 19.371094 17.835938 C 19.484375 17.605469 19.289062 17.667969 19.402344 17.472656 C 19.1875 17.613281 19.394531 17.671875 19.367188 17.835938 Z M 19.464844 17.917969 L 19.53125 17.925781 C 19.585938 17.851562 19.648438 17.78125 19.71875 17.714844 C 19.695312 17.792969 19.6875 17.875 19.6875 17.957031 L 19.824219 18.136719 C 19.742188 18.113281 19.652344 18.070312 19.574219 18.042969 L 19.539062 18.085938 Z M 19.230469 17.90625 C 19.289062 17.90625 19.355469 17.90625 19.410156 17.914062 L 19.503906 18.125 C 19.464844 18.171875 19.425781 18.210938 19.382812 18.25 Z M 18.960938 17.8125 C 19.015625 17.839844 19.109375 17.890625 19.132812 17.90625 L 19.179688 17.90625 L 19.347656 18.28125 C 19.308594 18.316406 19.261719 18.351562 19.21875 18.382812 Z M 18.832031 18.195312 C 18.851562 18.191406 18.867188 18.203125 18.875 18.21875 C 18.882812 18.238281 18.878906 18.257812 18.867188 18.269531 C 18.855469 18.285156 18.835938 18.289062 18.816406 18.28125 C 18.800781 18.277344 18.789062 18.257812 18.789062 18.238281 C 18.789062 18.214844 18.8125 18.199219 18.835938 18.199219 Z M 18.675781 18.367188 C 18.691406 18.226562 18.757812 18.09375 18.863281 17.996094 C 18.875 17.929688 18.898438 17.855469 18.910156 17.816406 L 19.175781 18.402344 L 19.195312 18.527344 L 19.070312 18.449219 C 19.070312 18.449219 18.746094 18.457031 18.675781 18.371094 Z M 22.007812 15.195312 L 22.007812 15.28125 C 22.023438 15.316406 22.0625 15.34375 22.101562 15.34375 C 22.15625 15.335938 22.195312 15.292969 22.195312 15.238281 C 22.195312 15.183594 22.15625 15.140625 22.101562 15.132812 C 22.0625 15.136719 22.027344 15.164062 22.011719 15.203125 Z M 21.289062 15.640625 L 22.101562 15.640625 L 22.019531 15.769531 L 21.382812 15.769531 Z M 21.664062 14.960938 C 21.726562 14.808594 21.578125 14.839844 21.648438 14.6875 C 21.507812 14.820312 21.652344 14.847656 21.664062 14.964844 Z M 21.75 14.925781 C 21.863281 14.699219 21.667969 14.761719 21.78125 14.5625 C 21.570312 14.710938 21.773438 14.773438 21.75 14.933594 Z M 22.105469 15.070312 C 22.195312 15.070312 22.273438 15.144531 22.273438 15.238281 C 22.273438 15.332031 22.195312 15.40625 22.105469 15.40625 C 22.070312 15.40625 22.039062 15.398438 22.011719 15.378906 L 22.011719 15.429688 C 22.011719 15.503906 21.949219 15.566406 21.871094 15.566406 L 21.503906 15.566406 C 21.429688 15.566406 21.367188 15.503906 21.367188 15.429688 L 21.367188 15.019531 L 22.011719 15.019531 L 22.011719 15.101562 C 22.039062 15.082031 22.070312 15.074219 22.105469 15.074219 Z M 24.410156 16.945312 C 24.695312 16.945312 24.929688 17.074219 24.929688 17.234375 C 24.929688 17.390625 24.695312 17.523438 24.410156 17.523438 C 24.121094 17.523438 23.890625 17.394531 23.890625 17.234375 C 23.890625 17.074219 24.125 16.949219 24.410156 16.949219 Z M 23.894531 17.433594 L 23.824219 17.425781 L 23.835938 17.484375 L 23.816406 17.554688 C 23.816406 17.554688 23.890625 17.5625 23.894531 17.578125 C 23.898438 17.589844 23.914062 17.652344 23.914062 17.652344 C 23.914062 17.652344 24.1875 17.769531 24.21875 17.769531 C 24.273438 17.746094 24.328125 17.714844 24.375 17.675781 C 24.425781 17.707031 24.476562 17.734375 24.53125 17.757812 C 24.585938 17.773438 24.648438 17.773438 24.703125 17.757812 L 24.855469 17.65625 L 24.839844 17.574219 L 24.933594 17.5 L 24.933594 17.449219 L 24.996094 17.46875 L 25.039062 17.382812 L 24.984375 17.335938 C 24.886719 17.4375 24.757812 17.503906 24.621094 17.53125 C 24.464844 17.574219 24.296875 17.574219 24.136719 17.539062 C 24.066406 17.515625 23.894531 17.4375 23.894531 17.4375 Z M 23.949219 17.714844 C 23.949219 17.714844 24.316406 17.824219 24.332031 17.824219 C 24.351562 17.824219 24.664062 17.804688 24.691406 17.796875 C 24.714844 17.789062 24.90625 17.707031 24.90625 17.707031 L 24.75 17.832031 L 24.445312 17.871094 L 24.207031 17.847656 L 24.050781 17.777344 Z M 23.902344 17.808594 C 24.054688 17.933594 24.238281 18.003906 24.433594 18.019531 C 24.535156 18.019531 24.636719 17.996094 24.730469 17.949219 C 24.777344 17.910156 24.894531 17.832031 24.894531 17.832031 C 24.464844 18.042969 24.335938 17.960938 23.902344 17.816406 Z M 24.410156 17.269531 C 24.425781 17.269531 24.441406 17.28125 24.441406 17.296875 C 24.441406 17.304688 24.4375 17.3125 24.429688 17.316406 C 24.425781 17.320312 24.417969 17.324219 24.410156 17.324219 C 24.394531 17.324219 24.378906 17.3125 24.375 17.296875 C 24.382812 17.28125 24.394531 17.273438 24.410156 17.277344 Z M 24.503906 17.152344 C 24.519531 17.152344 24.535156 17.160156 24.546875 17.175781 C 24.554688 17.1875 24.550781 17.207031 24.539062 17.222656 C 24.53125 17.234375 24.511719 17.238281 24.496094 17.234375 C 24.480469 17.226562 24.46875 17.210938 24.46875 17.195312 C 24.46875 17.175781 24.484375 17.160156 24.503906 17.160156 Z M 24.5625 17.035156 C 24.570312 17.035156 24.582031 17.039062 24.589844 17.046875 C 24.597656 17.054688 24.601562 17.066406 24.605469 17.074219 C 24.601562 17.085938 24.597656 17.097656 24.589844 17.101562 C 24.582031 17.109375 24.570312 17.113281 24.5625 17.113281 C 24.539062 17.113281 24.519531 17.097656 24.519531 17.074219 C 24.523438 17.054688 24.542969 17.042969 24.5625 17.042969 Z M 24.425781 17.003906 C 24.457031 17.003906 24.484375 17.023438 24.484375 17.046875 C 24.480469 17.074219 24.453125 17.09375 24.425781 17.089844 C 24.402344 17.09375 24.375 17.074219 24.371094 17.046875 C 24.378906 17.023438 24.40625 17.007812 24.429688 17.011719 Z M 24.328125 17.074219 C 24.34375 17.074219 24.355469 17.082031 24.363281 17.097656 C 24.367188 17.113281 24.363281 17.128906 24.355469 17.140625 C 24.34375 17.148438 24.328125 17.152344 24.3125 17.148438 C 24.300781 17.140625 24.289062 17.128906 24.289062 17.113281 C 24.292969 17.09375 24.308594 17.082031 24.328125 17.082031 Z M 24.25 17.203125 C 24.253906 17.199219 24.257812 17.203125 24.261719 17.207031 C 24.265625 17.210938 24.269531 17.214844 24.269531 17.21875 C 24.269531 17.230469 24.257812 17.238281 24.25 17.238281 C 24.242188 17.238281 24.238281 17.234375 24.234375 17.234375 C 24.230469 17.230469 24.230469 17.222656 24.226562 17.21875 C 24.230469 17.214844 24.230469 17.210938 24.234375 17.207031 C 24.238281 17.203125 24.242188 17.199219 24.25 17.203125 Z M 24.140625 17.148438 C 24.160156 17.148438 24.171875 17.164062 24.171875 17.183594 C 24.171875 17.203125 24.160156 17.21875 24.140625 17.21875 C 24.121094 17.21875 24.105469 17.203125 24.109375 17.183594 C 24.105469 17.164062 24.121094 17.148438 24.140625 17.148438 Z M 24.175781 17.078125 C 24.195312 17.078125 24.210938 17.089844 24.210938 17.101562 C 24.210938 17.117188 24.195312 17.128906 24.175781 17.128906 C 24.152344 17.128906 24.136719 17.117188 24.136719 17.101562 C 24.136719 17.089844 24.152344 17.078125 24.175781 17.078125 Z M 24.027344 17.140625 C 24.042969 17.140625 24.058594 17.148438 24.066406 17.160156 C 24.070312 17.175781 24.070312 17.191406 24.058594 17.203125 C 24.050781 17.214844 24.03125 17.21875 24.019531 17.214844 C 24.003906 17.207031 23.996094 17.195312 23.996094 17.179688 C 23.992188 17.160156 24.007812 17.144531 24.027344 17.140625 Z M 24.640625 17.195312 C 24.65625 17.199219 24.667969 17.210938 24.667969 17.230469 C 24.664062 17.246094 24.652344 17.257812 24.636719 17.257812 C 24.617188 17.257812 24.605469 17.242188 24.605469 17.226562 C 24.609375 17.210938 24.625 17.199219 24.640625 17.203125 Z M 24.410156 16.914062 C 24.734375 16.914062 24.992188 17.058594 24.992188 17.238281 C 24.996094 17.25 24.996094 17.261719 24.992188 17.273438 C 25.035156 17.289062 25.109375 17.332031 25.109375 17.398438 C 25.109375 17.492188 25.101562 17.558594 25.085938 17.5625 C 25.050781 17.554688 25.019531 17.542969 24.992188 17.527344 C 24.984375 17.554688 24.984375 17.585938 24.984375 17.613281 L 24.984375 17.828125 C 24.84375 18.144531 24.152344 18.203125 23.859375 17.867188 C 23.847656 17.789062 23.84375 17.714844 23.847656 17.636719 C 23.847656 17.636719 23.726562 17.632812 23.730469 17.59375 C 23.746094 17.558594 23.761719 17.527344 23.777344 17.496094 C 23.777344 17.476562 23.722656 17.410156 23.734375 17.398438 C 23.765625 17.386719 23.796875 17.378906 23.828125 17.375 L 23.882812 17.390625 C 23.84375 17.351562 23.820312 17.296875 23.820312 17.242188 C 23.824219 17.058594 24.089844 16.914062 24.410156 16.914062 Z M 25.730469 15.515625 C 25.730469 15.453125 25.808594 15.441406 25.886719 15.457031 C 25.816406 15.414062 25.769531 15.347656 25.808594 15.300781 C 25.878906 15.214844 26.03125 15.394531 26.042969 15.488281 C 26.023438 15.488281 26.007812 15.488281 25.992188 15.488281 C 26.003906 15.496094 26.019531 15.503906 26.03125 15.515625 C 25.953125 15.609375 25.730469 15.625 25.730469 15.515625 Z M 26.34375 15.863281 C 26.269531 15.925781 26.175781 15.957031 26.082031 15.957031 C 25.839844 15.953125 25.644531 15.753906 25.648438 15.511719 C 25.648438 15.367188 25.714844 15.234375 25.824219 15.152344 L 25.851562 15.191406 C 25.753906 15.265625 25.695312 15.386719 25.699219 15.511719 C 25.695312 15.726562 25.867188 15.90625 26.082031 15.910156 C 26.167969 15.910156 26.25 15.878906 26.3125 15.828125 Z M 26.238281 15.855469 C 26.179688 15.886719 26.125 15.8125 26.097656 15.730469 C 26.085938 15.8125 26.042969 15.886719 25.980469 15.867188 C 25.917969 15.84375 25.929688 15.785156 25.957031 15.71875 C 25.902344 15.765625 25.835938 15.78125 25.804688 15.734375 C 25.746094 15.640625 25.960938 15.542969 26.054688 15.570312 C 26.054688 15.578125 26.050781 15.589844 26.050781 15.597656 C 26.058594 15.59375 26.066406 15.585938 26.078125 15.582031 L 26.085938 15.601562 L 26.085938 15.59375 C 26.210938 15.613281 26.335938 15.800781 26.242188 15.855469 Z M 29.070312 18.222656 C 29.097656 18.445312 28.601562 18.84375 28.40625 18.828125 C 28.40625 18.730469 28.429688 18.636719 28.480469 18.558594 L 28.523438 18.601562 C 28.539062 18.617188 28.5625 18.617188 28.578125 18.601562 C 28.585938 18.597656 28.589844 18.585938 28.589844 18.578125 C 28.589844 18.566406 28.585938 18.554688 28.578125 18.550781 L 28.519531 18.488281 C 28.539062 18.453125 28.5625 18.417969 28.589844 18.382812 L 28.691406 18.488281 C 28.703125 18.5 28.726562 18.5 28.742188 18.488281 C 28.757812 18.472656 28.757812 18.449219 28.746094 18.4375 L 28.636719 18.324219 C 28.667969 18.289062 28.703125 18.253906 28.734375 18.222656 L 28.816406 18.304688 C 28.820312 18.3125 28.832031 18.316406 28.839844 18.316406 C 28.851562 18.316406 28.859375 18.3125 28.867188 18.304688 C 28.882812 18.289062 28.882812 18.265625 28.867188 18.25 L 28.792969 18.175781 C 28.839844 18.136719 28.890625 18.117188 28.949219 18.109375 L 28.972656 17.910156 L 29.019531 17.910156 L 29.027344 18.054688 L 29.1875 17.886719 L 29.230469 17.929688 L 29.101562 18.09375 L 29.34375 18.035156 L 29.34375 18.105469 Z M 13.832031 17.992188 C 13.832031 17.992188 14.183594 17.484375 14.496094 17.890625 C 14.308594 17.917969 14.113281 18.007812 14.15625 18.214844 C 14.21875 18.0625 14.382812 17.976562 14.542969 18.011719 C 14.65625 18.035156 14.621094 17.863281 14.621094 17.863281 C 14.621094 17.863281 14.6875 17.773438 14.738281 17.863281 C 14.785156 17.949219 14.804688 17.929688 14.828125 17.957031 C 14.851562 17.976562 14.851562 18.015625 14.828125 18.035156 C 14.808594 18.0625 14.667969 18.027344 14.65625 18.078125 C 14.632812 18.171875 14.585938 18.253906 14.523438 18.328125 L 13.890625 18.328125 C 13.890625 18.328125 13.746094 18.160156 13.679688 18.082031 C 13.664062 18.0625 13.59375 17.902344 13.757812 17.914062 Z M 11.210938 19.308594 L 31.660156 19.308594 C 31.460938 18.898438 31.195312 18.523438 30.875 18.199219 C 28.882812 15.449219 24.675781 13.773438 21.464844 13.765625 C 19.78125 13.742188 18.109375 14.097656 16.578125 14.800781 C 16.128906 15.003906 15.691406 15.226562 15.265625 15.472656 C 15.136719 15.539062 13.625 16.507812 13.480469 16.660156 C 12.785156 17.28125 12.144531 17.96875 11.574219 18.710938 C 11.417969 18.886719 11.296875 19.089844 11.214844 19.3125 Z M 11.210938 19.308594 "/>
<path style=" stroke:none;fill-rule:evenodd;fill:rgb(92.941176%,12.941176%,14.117647%);fill-opacity:1;" d="M 27.996094 44.421875 C 28.058594 44.917969 28.0625 45.417969 28.007812 45.914062 C 27.949219 46.554688 27.660156 47.152344 27.195312 47.597656 C 26.722656 48.027344 26.140625 48.324219 25.515625 48.457031 C 23.800781 48.816406 22.054688 49.015625 20.300781 49.054688 C 20.164062 49.058594 20.027344 49.082031 19.914062 49.078125 C 19.71875 49.070312 19.699219 49.054688 19.671875 48.917969 C 19.816406 48.835938 20.898438 48.601562 21.164062 48.535156 C 21.652344 48.410156 22.21875 48.28125 22.722656 48.152344 C 23.25 48.015625 23.738281 47.917969 24.242188 47.789062 C 24.488281 47.757812 24.71875 47.660156 24.914062 47.503906 C 25.351562 47.101562 25.382812 45.949219 23.953125 46.160156 C 23.402344 46.238281 22.832031 46.3125 22.289062 46.414062 C 21.726562 46.515625 21.15625 46.601562 20.601562 46.671875 C 20.171875 46.730469 19.128906 47 18.964844 46.800781 C 19.003906 46.621094 19.339844 46.589844 19.632812 46.519531 C 21.238281 46.132812 22.820312 45.660156 24.378906 45.113281 C 24.558594 44.96875 24.667969 44.753906 24.679688 44.519531 C 24.6875 44.289062 24.59375 44.066406 24.421875 43.910156 C 24.027344 43.507812 22.789062 43.910156 21.9375 44.042969 C 20.835938 44.292969 19.714844 44.4375 18.589844 44.476562 C 18.628906 44.21875 19.125 44.164062 19.363281 44.085938 C 19.675781 43.984375 19.933594 43.90625 20.242188 43.804688 C 21.453125 43.40625 22.683594 43.074219 23.929688 42.804688 C 25.144531 42.554688 25.609375 43.15625 25.863281 44.273438 C 25.929688 44.574219 25.945312 45.027344 26.027344 45.277344 C 26.226562 45.886719 27.324219 45.835938 27.160156 44.789062 C 26.964844 43.570312 26.382812 42.203125 25.320312 41.882812 C 24.664062 41.761719 23.988281 41.828125 23.367188 42.070312 C 22.703125 42.242188 22.148438 42.390625 21.515625 42.578125 C 20.882812 42.761719 20.335938 42.9375 19.734375 43.121094 C 19.171875 43.289062 18.488281 43.488281 17.960938 43.707031 C 17.683594 43.824219 17.476562 44.074219 17.417969 44.371094 C 17.355469 44.667969 17.441406 44.976562 17.652344 45.195312 C 18.195312 45.664062 18.898438 45.421875 19.574219 45.304688 L 22.578125 44.773438 C 22.898438 44.707031 23.222656 44.652344 23.546875 44.621094 L 20.453125 45.4375 C 19.679688 45.59375 18.925781 45.835938 18.207031 46.160156 C 17.480469 46.726562 17.800781 47.757812 18.84375 47.769531 C 19.5 47.777344 23.457031 46.902344 24.09375 47.007812 C 24.042969 46.992188 19.964844 47.976562 19.40625 48.105469 C 18.03125 48.433594 18.484375 49.5 18.816406 49.730469 C 19.359375 50.113281 20.703125 49.921875 21.464844 49.894531 C 23.191406 49.902344 24.910156 49.65625 26.566406 49.167969 C 26.820312 49.082031 27.0625 48.964844 27.289062 48.816406 C 27.449219 48.742188 27.601562 48.648438 27.738281 48.535156 L 27.9375 48.34375 C 28.613281 47.691406 29.035156 46.816406 29.136719 45.878906 C 30.785156 45.300781 32.347656 44.511719 33.789062 43.527344 C 35.160156 42.582031 36.425781 41.488281 37.554688 40.261719 C 37.636719 40.175781 37.667969 40.109375 37.742188 40.019531 C 38.230469 39.480469 38.679688 38.910156 39.09375 38.3125 C 39.585938 37.617188 40.042969 36.894531 40.457031 36.148438 C 40.890625 35.375 41.265625 34.570312 41.582031 33.738281 C 41.941406 32.871094 42.21875 31.96875 42.410156 31.046875 L 41.382812 31.039062 C 40.832031 33.078125 39.933594 35.007812 38.734375 36.742188 C 38.507812 37.078125 38.234375 37.367188 38.003906 37.695312 C 37.890625 37.851562 37.765625 38 37.632812 38.140625 C 37.546875 38.234375 37.53125 38.28125 37.433594 38.375 C 37.359375 38.441406 37.289062 38.519531 37.230469 38.597656 C 36.96875 38.898438 36.691406 39.179688 36.398438 39.445312 C 36.246094 39.601562 35.726562 40.121094 35.554688 40.242188 C 35.398438 40.355469 35.285156 40.480469 35.113281 40.621094 C 33.359375 42.0625 31.386719 43.214844 29.269531 44.027344 C 28.863281 44.179688 28.371094 44.273438 27.996094 44.425781 "/>
<path style=" stroke:none;fill-rule:evenodd;fill:rgb(94.901961%,40.392157%,12.941176%);fill-opacity:1;" d="M 7.289062 41.308594 C 7.546875 41.460938 7.792969 41.636719 8.023438 41.828125 C 8.265625 42.003906 8.523438 42.164062 8.773438 42.332031 C 9.550781 42.84375 10.363281 43.296875 11.207031 43.683594 C 11.496094 43.855469 11.824219 43.957031 12.160156 43.976562 C 12.917969 44.101562 13.6875 44.175781 14.453125 44.199219 C 14.546875 43.910156 14.359375 43.929688 14.101562 43.839844 C 13.625 43.679688 12.730469 43.355469 12.320312 43.164062 C 10.851562 42.515625 9.457031 41.699219 8.167969 40.734375 C 7.234375 40.027344 6.359375 39.246094 5.550781 38.394531 C 4.203125 36.933594 3.097656 35.261719 2.277344 33.445312 C 2.105469 33.058594 1.953125 32.675781 1.804688 32.28125 C 1.710938 32.046875 1.460938 31.195312 1.367188 31.046875 L 0.125 31.039062 C 0.390625 32.375 0.808594 33.671875 1.371094 34.910156 C 3.445312 39.5 7.066406 43.207031 11.59375 45.367188 C 12.507812 45.601562 13.445312 45.746094 14.386719 45.804688 C 14.789062 45.859375 14.738281 45.640625 14.675781 45.554688 C 14.375 45.40625 14.0625 45.285156 13.738281 45.195312 C 11.945312 44.527344 10.253906 43.613281 8.707031 42.480469 C 8.199219 42.132812 7.726562 41.742188 7.289062 41.308594 "/>
<path style=" stroke:none;fill-rule:evenodd;fill:rgb(92.941176%,12.941176%,14.117647%);fill-opacity:1;" d="M 36.136719 9.867188 C 34.910156 8.808594 33.570312 7.890625 32.140625 7.125 C 31.839844 6.925781 31.5 6.792969 31.144531 6.738281 C 30.363281 6.570312 29.570312 6.464844 28.769531 6.425781 C 28.683594 6.714844 28.820312 6.675781 29.09375 6.78125 C 29.5625 6.960938 30.386719 7.296875 30.785156 7.496094 C 32.441406 8.300781 33.992188 9.308594 35.394531 10.503906 L 36.472656 11.492188 C 36.753906 11.777344 36.953125 12.027344 37.242188 12.316406 C 37.496094 12.570312 37.71875 12.890625 37.96875 13.183594 C 39.457031 15.101562 40.558594 17.292969 41.21875 19.632812 L 42.5 19.632812 C 41.851562 16.410156 40.429688 13.398438 38.355469 10.855469 C 37.785156 10.140625 37.167969 9.460938 36.507812 8.824219 C 35.847656 8.1875 35.144531 7.597656 34.40625 7.050781 C 33.398438 6.28125 32.296875 5.648438 31.125 5.167969 C 30.382812 5.050781 29.628906 4.917969 28.890625 4.816406 C 28.597656 4.777344 28.429688 4.898438 28.65625 5.09375 C 28.808594 5.164062 28.960938 5.226562 29.117188 5.28125 C 29.429688 5.40625 29.726562 5.53125 30.027344 5.664062 C 31.886719 6.492188 33.609375 7.597656 35.148438 8.9375 C 35.277344 9.042969 35.363281 9.140625 35.484375 9.242188 C 35.730469 9.445312 35.921875 9.652344 36.140625 9.863281 "/>
<path style=" stroke:none;fill-rule:evenodd;fill:rgb(100%,100%,100%);fill-opacity:1;" d="M 14.167969 17.671875 C 14.222656 17.46875 14.085938 17.574219 14.152344 17.398438 C 14.027344 17.535156 14.167969 17.535156 14.167969 17.671875 M 14.253906 17.636719 C 14.386719 17.417969 14.179688 17.496094 14.289062 17.273438 C 14.074219 17.417969 14.277344 17.484375 14.253906 17.640625 Z M 17.457031 15.855469 C 17.457031 15.855469 17.757812 15.535156 18 15.535156 L 18.28125 15.910156 C 18.28125 15.910156 17.863281 16.058594 17.75 16.28125 C 17.699219 16.230469 17.457031 15.855469 17.457031 15.855469 Z M 17.378906 15.855469 C 17.378906 15.855469 17.195312 15.957031 17.207031 15.769531 C 17.214844 15.640625 17.335938 15.628906 17.421875 15.597656 C 17.371094 15.527344 17.15625 15.394531 17.402344 15.1875 C 17.519531 15.085938 17.5625 15.09375 17.636719 15.117188 C 17.742188 15.148438 17.8125 15.242188 17.8125 15.347656 L 17.871094 15.347656 C 17.902344 15.238281 17.949219 15.105469 18.097656 15.175781 C 18.140625 15.191406 18.175781 15.222656 18.195312 15.269531 C 18.210938 15.3125 18.207031 15.359375 18.183594 15.402344 C 18.148438 15.449219 18.09375 15.476562 18.035156 15.472656 C 17.777344 15.511719 17.539062 15.648438 17.378906 15.855469 Z M 18.3125 15.964844 C 18.109375 16.027344 17.933594 16.148438 17.800781 16.3125 C 18 16.25 18.179688 16.128906 18.3125 15.964844 Z M 17.84375 16.066406 C 17.84375 16.066406 17.601562 15.777344 17.664062 15.75 C 17.726562 15.722656 17.902344 15.988281 17.910156 16.015625 C 17.835938 15.953125 17.769531 15.882812 17.703125 15.804688 Z M 17.960938 15.984375 C 17.960938 15.984375 17.714844 15.695312 17.777344 15.667969 C 17.84375 15.640625 18.015625 15.90625 18.023438 15.933594 C 18.03125 15.960938 17.816406 15.726562 17.816406 15.726562 Z M 18.105469 15.917969 C 18.105469 15.917969 17.859375 15.628906 17.921875 15.601562 C 17.988281 15.574219 18.164062 15.839844 18.167969 15.867188 C 18.175781 15.894531 17.964844 15.65625 17.964844 15.65625 Z M 17.71875 16.160156 C 17.71875 16.160156 17.472656 15.871094 17.535156 15.84375 C 17.597656 15.816406 17.773438 16.082031 17.78125 16.109375 C 17.789062 16.136719 17.574219 15.898438 17.574219 15.898438 Z M 17.316406 15.566406 C 16.96875 15.277344 17.71875 14.785156 17.855469 15.246094 C 18.105469 14.832031 18.511719 15.472656 18.066406 15.527344 C 18.148438 15.640625 18.265625 15.804688 18.371094 15.960938 C 18.246094 16.289062 17.746094 16.371094 17.746094 16.371094 L 17.40625 15.890625 C 17.234375 16.066406 16.957031 15.675781 17.316406 15.566406 Z M 19.285156 17.867188 C 19.347656 17.714844 19.195312 17.746094 19.269531 17.597656 C 19.125 17.722656 19.273438 17.753906 19.28125 17.867188 Z M 19.371094 17.835938 C 19.484375 17.605469 19.289062 17.667969 19.402344 17.472656 C 19.1875 17.613281 19.394531 17.671875 19.367188 17.835938 Z M 19.464844 17.917969 L 19.53125 17.925781 C 19.585938 17.851562 19.648438 17.78125 19.71875 17.714844 C 19.695312 17.792969 19.6875 17.875 19.6875 17.957031 L 19.824219 18.136719 C 19.742188 18.113281 19.652344 18.070312 19.574219 18.042969 L 19.539062 18.085938 Z M 19.230469 17.90625 C 19.289062 17.90625 19.355469 17.90625 19.410156 17.914062 L 19.503906 18.125 C 19.464844 18.171875 19.425781 18.210938 19.382812 18.25 Z M 18.960938 17.8125 C 19.015625 17.839844 19.109375 17.890625 19.132812 17.90625 L 19.179688 17.90625 L 19.347656 18.28125 C 19.308594 18.316406 19.261719 18.351562 19.21875 18.382812 Z M 18.832031 18.195312 C 18.851562 18.191406 18.867188 18.203125 18.875 18.21875 C 18.882812 18.238281 18.878906 18.257812 18.867188 18.269531 C 18.855469 18.285156 18.835938 18.289062 18.816406 18.28125 C 18.800781 18.277344 18.789062 18.257812 18.789062 18.238281 C 18.789062 18.214844 18.8125 18.199219 18.835938 18.199219 Z M 18.675781 18.367188 C 18.691406 18.226562 18.757812 18.09375 18.863281 17.996094 C 18.875 17.929688 18.898438 17.855469 18.910156 17.816406 L 19.175781 18.402344 L 19.195312 18.527344 L 19.070312 18.449219 C 19.070312 18.449219 18.746094 18.457031 18.675781 18.371094 Z M 22.007812 15.195312 L 22.007812 15.28125 C 22.023438 15.316406 22.0625 15.34375 22.101562 15.34375 C 22.15625 15.335938 22.195312 15.292969 22.195312 15.238281 C 22.195312 15.183594 22.15625 15.140625 22.101562 15.132812 C 22.0625 15.136719 22.027344 15.164062 22.011719 15.203125 Z M 21.289062 15.640625 L 22.101562 15.640625 L 22.019531 15.769531 L 21.382812 15.769531 Z M 21.664062 14.960938 C 21.726562 14.808594 21.578125 14.839844 21.648438 14.6875 C 21.507812 14.820312 21.652344 14.847656 21.664062 14.964844 Z M 21.75 14.925781 C 21.863281 14.699219 21.667969 14.761719 21.78125 14.5625 C 21.570312 14.710938 21.773438 14.773438 21.75 14.933594 Z M 22.105469 15.070312 C 22.195312 15.070312 22.273438 15.144531 22.273438 15.238281 C 22.273438 15.332031 22.195312 15.40625 22.105469 15.40625 C 22.070312 15.40625 22.039062 15.398438 22.011719 15.378906 L 22.011719 15.429688 C 22.011719 15.503906 21.949219 15.566406 21.871094 15.566406 L 21.503906 15.566406 C 21.429688 15.566406 21.367188 15.503906 21.367188 15.429688 L 21.367188 15.019531 L 22.011719 15.019531 L 22.011719 15.101562 C 22.039062 15.082031 22.070312 15.074219 22.105469 15.074219 Z M 24.410156 16.945312 C 24.695312 16.945312 24.929688 17.074219 24.929688 17.234375 C 24.929688 17.390625 24.695312 17.523438 24.410156 17.523438 C 24.121094 17.523438 23.890625 17.394531 23.890625 17.234375 C 23.890625 17.074219 24.125 16.949219 24.410156 16.949219 Z M 23.894531 17.433594 L 23.824219 17.425781 L 23.835938 17.484375 L 23.816406 17.554688 C 23.816406 17.554688 23.890625 17.5625 23.894531 17.578125 C 23.898438 17.589844 23.914062 17.652344 23.914062 17.652344 C 23.914062 17.652344 24.1875 17.769531 24.21875 17.769531 C 24.273438 17.746094 24.328125 17.714844 24.375 17.675781 C 24.425781 17.707031 24.476562 17.734375 24.53125 17.757812 C 24.585938 17.773438 24.648438 17.773438 24.703125 17.757812 L 24.855469 17.65625 L 24.839844 17.574219 L 24.933594 17.5 L 24.933594 17.449219 L 24.996094 17.46875 L 25.039062 17.382812 L 24.984375 17.335938 C 24.886719 17.4375 24.757812 17.503906 24.621094 17.53125 C 24.464844 17.574219 24.296875 17.574219 24.136719 17.539062 C 24.066406 17.515625 23.894531 17.4375 23.894531 17.4375 Z M 23.949219 17.714844 C 23.949219 17.714844 24.316406 17.824219 24.332031 17.824219 C 24.351562 17.824219 24.664062 17.804688 24.691406 17.796875 C 24.714844 17.789062 24.90625 17.707031 24.90625 17.707031 L 24.75 17.832031 L 24.445312 17.871094 L 24.207031 17.847656 L 24.050781 17.777344 Z M 23.902344 17.808594 C 24.054688 17.933594 24.238281 18.003906 24.433594 18.019531 C 24.535156 18.019531 24.636719 17.996094 24.730469 17.949219 C 24.777344 17.910156 24.894531 17.832031 24.894531 17.832031 C 24.464844 18.042969 24.335938 17.960938 23.902344 17.816406 Z M 24.410156 17.269531 C 24.425781 17.269531 24.441406 17.28125 24.441406 17.296875 C 24.441406 17.304688 24.4375 17.3125 24.429688 17.316406 C 24.425781 17.320312 24.417969 17.324219 24.410156 17.324219 C 24.394531 17.324219 24.378906 17.3125 24.375 17.296875 C 24.382812 17.28125 24.394531 17.273438 24.410156 17.277344 Z M 24.503906 17.152344 C 24.519531 17.152344 24.535156 17.160156 24.546875 17.175781 C 24.554688 17.1875 24.550781 17.207031 24.539062 17.222656 C 24.53125 17.234375 24.511719 17.238281 24.496094 17.234375 C 24.480469 17.226562 24.46875 17.210938 24.46875 17.195312 C 24.46875 17.175781 24.484375 17.160156 24.503906 17.160156 Z M 24.5625 17.035156 C 24.570312 17.035156 24.582031 17.039062 24.589844 17.046875 C 24.597656 17.054688 24.601562 17.066406 24.605469 17.074219 C 24.601562 17.085938 24.597656 17.097656 24.589844 17.101562 C 24.582031 17.109375 24.570312 17.113281 24.5625 17.113281 C 24.539062 17.113281 24.519531 17.097656 24.519531 17.074219 C 24.523438 17.054688 24.542969 17.042969 24.5625 17.042969 Z M 24.425781 17.003906 C 24.457031 17.003906 24.484375 17.023438 24.484375 17.046875 C 24.480469 17.074219 24.453125 17.09375 24.425781 17.089844 C 24.402344 17.09375 24.375 17.074219 24.371094 17.046875 C 24.378906 17.023438 24.40625 17.007812 24.429688 17.011719 Z M 24.328125 17.074219 C 24.34375 17.074219 24.355469 17.082031 24.363281 17.097656 C 24.367188 17.113281 24.363281 17.128906 24.355469 17.140625 C 24.34375 17.148438 24.328125 17.152344 24.3125 17.148438 C 24.300781 17.140625 24.289062 17.128906 24.289062 17.113281 C 24.292969 17.09375 24.308594 17.082031 24.328125 17.082031 Z M 24.25 17.203125 C 24.253906 17.199219 24.257812 17.203125 24.261719 17.207031 C 24.265625 17.210938 24.269531 17.214844 24.269531 17.21875 C 24.269531 17.230469 24.257812 17.238281 24.25 17.238281 C 24.242188 17.238281 24.238281 17.234375 24.234375 17.234375 C 24.230469 17.230469 24.230469 17.222656 24.226562 17.21875 C 24.230469 17.214844 24.230469 17.210938 24.234375 17.207031 C 24.238281 17.203125 24.242188 17.199219 24.25 17.203125 Z M 24.140625 17.148438 C 24.160156 17.148438 24.171875 17.164062 24.171875 17.183594 C 24.171875 17.203125 24.160156 17.21875 24.140625 17.21875 C 24.121094 17.21875 24.105469 17.203125 24.109375 17.183594 C 24.105469 17.164062 24.121094 17.148438 24.140625 17.148438 Z M 24.175781 17.078125 C 24.195312 17.078125 24.210938 17.089844 24.210938 17.101562 C 24.210938 17.117188 24.195312 17.128906 24.175781 17.128906 C 24.152344 17.128906 24.136719 17.117188 24.136719 17.101562 C 24.136719 17.089844 24.152344 17.078125 24.175781 17.078125 Z M 24.027344 17.140625 C 24.042969 17.140625 24.058594 17.148438 24.066406 17.160156 C 24.070312 17.175781 24.070312 17.191406 24.058594 17.203125 C 24.050781 17.214844 24.03125 17.21875 24.019531 17.214844 C 24.003906 17.207031 23.996094 17.195312 23.996094 17.179688 C 23.992188 17.160156 24.007812 17.144531 24.027344 17.140625 Z M 24.640625 17.195312 C 24.65625 17.199219 24.667969 17.210938 24.667969 17.230469 C 24.664062 17.246094 24.652344 17.257812 24.636719 17.257812 C 24.617188 17.257812 24.605469 17.242188 24.605469 17.226562 C 24.609375 17.210938 24.625 17.199219 24.640625 17.203125 Z M 24.410156 16.914062 C 24.734375 16.914062 24.992188 17.058594 24.992188 17.238281 C 24.996094 17.25 24.996094 17.261719 24.992188 17.273438 C 25.035156 17.289062 25.109375 17.332031 25.109375 17.398438 C 25.109375 17.492188 25.101562 17.558594 25.085938 17.5625 C 25.050781 17.554688 25.019531 17.542969 24.992188 17.527344 C 24.984375 17.554688 24.984375 17.585938 24.984375 17.613281 L 24.984375 17.828125 C 24.84375 18.144531 24.152344 18.203125 23.859375 17.867188 C 23.847656 17.789062 23.84375 17.714844 23.847656 17.636719 C 23.847656 17.636719 23.726562 17.632812 23.730469 17.59375 C 23.746094 17.558594 23.761719 17.527344 23.777344 17.496094 C 23.777344 17.476562 23.722656 17.410156 23.734375 17.398438 C 23.765625 17.386719 23.796875 17.378906 23.828125 17.375 L 23.882812 17.390625 C 23.84375 17.351562 23.820312 17.296875 23.820312 17.242188 C 23.824219 17.058594 24.089844 16.914062 24.410156 16.914062 Z M 25.730469 15.515625 C 25.730469 15.453125 25.808594 15.441406 25.886719 15.457031 C 25.816406 15.414062 25.769531 15.347656 25.808594 15.300781 C 25.878906 15.214844 26.03125 15.394531 26.042969 15.488281 C 26.023438 15.488281 26.007812 15.488281 25.992188 15.488281 C 26.003906 15.496094 26.019531 15.503906 26.03125 15.515625 C 25.953125 15.609375 25.730469 15.625 25.730469 15.515625 Z M 26.34375 15.863281 C 26.269531 15.925781 26.175781 15.957031 26.082031 15.957031 C 25.839844 15.953125 25.644531 15.753906 25.648438 15.511719 C 25.648438 15.367188 25.714844 15.234375 25.824219 15.152344 L 25.851562 15.191406 C 25.753906 15.265625 25.695312 15.386719 25.699219 15.511719 C 25.695312 15.726562 25.867188 15.90625 26.082031 15.910156 C 26.167969 15.910156 26.25 15.878906 26.3125 15.828125 Z M 26.238281 15.855469 C 26.179688 15.886719 26.125 15.8125 26.097656 15.730469 C 26.085938 15.8125 26.042969 15.886719 25.980469 15.867188 C 25.917969 15.84375 25.929688 15.785156 25.957031 15.71875 C 25.902344 15.765625 25.835938 15.78125 25.804688 15.734375 C 25.746094 15.640625 25.960938 15.542969 26.054688 15.570312 C 26.054688 15.578125 26.050781 15.589844 26.050781 15.597656 C 26.058594 15.59375 26.066406 15.585938 26.078125 15.582031 L 26.085938 15.601562 L 26.085938 15.59375 C 26.210938 15.613281 26.335938 15.800781 26.242188 15.855469 Z M 29.070312 18.222656 C 29.097656 18.445312 28.601562 18.84375 28.40625 18.828125 C 28.40625 18.730469 28.429688 18.636719 28.480469 18.558594 L 28.523438 18.601562 C 28.539062 18.617188 28.5625 18.617188 28.578125 18.601562 C 28.585938 18.597656 28.589844 18.585938 28.589844 18.578125 C 28.589844 18.566406 28.585938 18.554688 28.578125 18.550781 L 28.519531 18.488281 C 28.539062 18.453125 28.5625 18.417969 28.589844 18.382812 L 28.691406 18.488281 C 28.703125 18.5 28.726562 18.5 28.742188 18.488281 C 28.757812 18.472656 28.757812 18.449219 28.746094 18.4375 L 28.636719 18.324219 C 28.667969 18.289062 28.703125 18.253906 28.734375 18.222656 L 28.816406 18.304688 C 28.820312 18.3125 28.832031 18.316406 28.839844 18.316406 C 28.851562 18.316406 28.859375 18.3125 28.867188 18.304688 C 28.882812 18.289062 28.882812 18.265625 28.867188 18.25 L 28.792969 18.175781 C 28.839844 18.136719 28.890625 18.117188 28.949219 18.109375 L 28.972656 17.910156 L 29.019531 17.910156 L 29.027344 18.054688 L 29.1875 17.886719 L 29.230469 17.929688 L 29.101562 18.09375 L 29.34375 18.035156 L 29.34375 18.105469 Z M 13.832031 17.992188 C 13.832031 17.992188 14.183594 17.484375 14.496094 17.890625 C 14.308594 17.917969 14.113281 18.007812 14.15625 18.214844 C 14.21875 18.0625 14.382812 17.976562 14.542969 18.011719 C 14.65625 18.035156 14.621094 17.863281 14.621094 17.863281 C 14.621094 17.863281 14.6875 17.773438 14.738281 17.863281 C 14.785156 17.949219 14.804688 17.929688 14.828125 17.957031 C 14.851562 17.976562 14.851562 18.015625 14.828125 18.035156 C 14.808594 18.0625 14.667969 18.027344 14.65625 18.078125 C 14.632812 18.171875 14.585938 18.253906 14.523438 18.328125 L 13.890625 18.328125 C 13.890625 18.328125 13.746094 18.160156 13.679688 18.082031 C 13.664062 18.0625 13.59375 17.902344 13.757812 17.914062 Z M 13.832031 17.992188 "/>
<path style=" stroke:none;fill-rule:evenodd;fill:rgb(94.901961%,40.392157%,12.941176%);fill-opacity:1;" d="M 29 24.421875 C 28.976562 25.007812 29.234375 25.570312 29.695312 25.933594 C 29.945312 26.128906 30.257812 26.230469 30.574219 26.222656 C 31.214844 26.242188 31.804688 25.859375 32.046875 25.261719 C 32.164062 25.007812 32.226562 24.730469 32.222656 24.449219 L 32.222656 24.347656 C 32.246094 23.757812 31.96875 23.199219 31.488281 22.863281 C 31.230469 22.6875 30.925781 22.597656 30.617188 22.601562 C 30.175781 22.59375 29.753906 22.789062 29.46875 23.128906 C 29.15625 23.484375 28.988281 23.945312 29 24.421875 M 7.628906 24.457031 C 7.601562 25.078125 7.894531 25.667969 8.402344 26.011719 C 8.652344 26.179688 8.945312 26.265625 9.246094 26.261719 C 9.679688 26.261719 10.09375 26.070312 10.367188 25.734375 C 10.679688 25.398438 10.859375 24.960938 10.867188 24.503906 L 10.867188 24.382812 C 10.875 23.796875 10.59375 23.25 10.117188 22.914062 C 9.875 22.734375 9.578125 22.636719 9.277344 22.640625 C 8.761719 22.625 8.277344 22.875 7.992188 23.304688 C 7.753906 23.640625 7.628906 24.042969 7.628906 24.457031 Z M 35.769531 22.867188 C 35.683594 22.644531 35.46875 22.5 35.230469 22.507812 C 34.917969 22.507812 34.761719 22.726562 34.679688 23.003906 L 34.679688 23.132812 C 34.679688 23.535156 35.140625 23.714844 35.460938 23.804688 C 35.898438 23.90625 36.285156 24.15625 36.554688 24.511719 C 36.714844 24.796875 36.789062 25.117188 36.773438 25.441406 C 36.785156 25.988281 36.492188 26.492188 36.015625 26.753906 C 35.753906 26.902344 35.457031 26.972656 35.15625 26.964844 C 34.773438 26.992188 34.390625 26.859375 34.101562 26.601562 C 33.816406 26.339844 33.644531 25.976562 33.628906 25.585938 L 33.597656 25.1875 L 33.710938 25.070312 L 34.304688 25.070312 C 34.410156 25.070312 34.445312 25.175781 34.464844 25.257812 C 34.484375 25.351562 34.496094 25.449219 34.507812 25.546875 C 34.566406 25.878906 34.851562 26.121094 35.1875 26.125 C 35.503906 26.136719 35.78125 25.917969 35.851562 25.609375 L 35.863281 25.492188 L 35.863281 25.398438 C 35.863281 24.972656 35.488281 24.765625 35.132812 24.644531 C 34.671875 24.535156 34.261719 24.269531 33.972656 23.890625 C 33.847656 23.648438 33.789062 23.375 33.800781 23.101562 C 33.796875 22.628906 34.03125 22.1875 34.417969 21.917969 C 34.679688 21.742188 34.988281 21.65625 35.300781 21.667969 L 35.328125 21.667969 C 35.996094 21.636719 36.578125 22.113281 36.683594 22.773438 L 36.683594 22.785156 L 36.699219 23.039062 L 36.699219 23.121094 L 36.585938 23.238281 L 35.96875 23.238281 C 35.808594 23.238281 35.78125 22.996094 35.769531 22.867188 Z M 30.644531 21.765625 C 31.554688 21.757812 32.386719 22.28125 32.773438 23.109375 C 33.410156 24.300781 33.09375 25.78125 32.023438 26.601562 C 31.605469 26.914062 31.09375 27.074219 30.570312 27.058594 C 29.886719 27.082031 29.230469 26.785156 28.792969 26.257812 C 28.351562 25.738281 28.109375 25.074219 28.109375 24.390625 C 28.109375 23.566406 28.484375 22.789062 29.132812 22.285156 C 29.558594 21.933594 30.09375 21.75 30.644531 21.765625 Z M 26.621094 24.375 L 23.707031 24.375 L 23.59375 24.257812 L 23.59375 23.667969 L 23.691406 23.566406 L 27.472656 23.566406 C 27.515625 23.566406 27.554688 23.585938 27.582031 23.617188 C 27.609375 23.648438 27.625 23.6875 27.621094 23.730469 C 27.617188 24.382812 27.417969 25.023438 27.046875 25.558594 C 26.464844 26.464844 25.453125 27 24.382812 26.96875 C 23.59375 26.996094 22.832031 26.707031 22.261719 26.160156 C 21.566406 25.5 21.175781 24.578125 21.183594 23.613281 L 21.183594 23.480469 C 21.15625 22.585938 21.5 21.722656 22.128906 21.09375 C 22.761719 20.464844 23.625 20.128906 24.515625 20.167969 C 25.671875 20.152344 26.738281 20.808594 27.253906 21.851562 L 27.265625 21.871094 L 27.292969 22.027344 L 27.1875 22.136719 L 26.496094 22.136719 C 26.414062 22.125 26.339844 22.078125 26.292969 22.007812 C 26.21875 21.925781 26.148438 21.835938 26.074219 21.75 C 25.671875 21.277344 25.078125 21.011719 24.457031 21.035156 C 23.824219 21.019531 23.210938 21.277344 22.777344 21.742188 C 22.3125 22.226562 22.050781 22.875 22.054688 23.550781 C 22.042969 24.328125 22.371094 25.070312 22.957031 25.578125 C 23.367188 25.941406 23.898438 26.132812 24.445312 26.117188 C 25.46875 26.0625 26.34375 25.363281 26.628906 24.375 Z M 20.007812 21.957031 L 20.585938 21.957031 L 20.679688 22.054688 L 20.679688 26.867188 L 20.585938 26.96875 L 19.988281 26.96875 L 19.96875 26.960938 C 19.886719 26.925781 19.839844 26.84375 19.847656 26.757812 L 19.847656 22.164062 C 19.847656 22.066406 19.898438 21.957031 20.011719 21.957031 Z M 20.007812 20.390625 L 20.585938 20.390625 L 20.679688 20.492188 L 20.679688 21.527344 L 20.585938 21.632812 L 19.984375 21.632812 L 19.964844 21.625 C 19.886719 21.589844 19.835938 21.507812 19.84375 21.421875 L 19.84375 20.601562 C 19.847656 20.5 19.898438 20.390625 20.011719 20.390625 Z M 15.84375 22.59375 C 16.257812 22.125 16.851562 21.851562 17.476562 21.851562 L 17.496094 21.851562 C 17.960938 21.816406 18.421875 21.972656 18.765625 22.289062 C 19.113281 22.601562 19.3125 23.046875 19.324219 23.515625 L 19.351562 23.933594 L 19.351562 26.851562 L 19.242188 26.96875 L 18.625 26.96875 L 18.515625 26.851562 L 18.515625 23.882812 C 18.542969 23.425781 18.296875 22.996094 17.890625 22.789062 C 17.726562 22.734375 17.554688 22.703125 17.382812 22.695312 C 17.074219 22.664062 16.769531 22.769531 16.539062 22.980469 C 16.3125 23.1875 16.183594 23.488281 16.1875 23.796875 L 16.171875 24.046875 L 16.171875 26.851562 L 16.0625 26.96875 L 15.472656 26.96875 L 15.363281 26.851562 L 15.363281 23.839844 C 15.375 23.417969 15.160156 23.027344 14.800781 22.8125 C 14.605469 22.742188 14.402344 22.699219 14.195312 22.691406 C 13.632812 22.679688 13.148438 23.097656 13.074219 23.660156 C 13.03125 23.84375 13.015625 24.027344 13.019531 24.210938 L 13.019531 26.871094 L 12.925781 26.96875 L 12.328125 26.96875 L 12.308594 26.964844 C 12.226562 26.929688 12.179688 26.847656 12.1875 26.761719 L 12.1875 22.195312 C 12.1875 22.101562 12.234375 21.984375 12.347656 21.984375 L 12.929688 21.984375 L 13.023438 22.089844 L 13.023438 22.324219 C 13.382812 22.019531 13.839844 21.851562 14.3125 21.855469 C 14.875 21.875 15.40625 22.117188 15.792969 22.527344 L 15.804688 22.539062 Z M 10.867188 22.457031 L 10.867188 22.417969 L 10.851562 22.113281 L 10.859375 22.089844 C 10.886719 22.019531 10.929688 21.953125 11.015625 21.953125 L 11.59375 21.953125 L 11.6875 22.054688 L 11.6875 26.863281 L 11.59375 26.964844 L 10.964844 26.964844 L 10.851562 26.84375 L 10.867188 26.496094 L 10.867188 26.445312 C 10.417969 26.878906 9.8125 27.113281 9.191406 27.097656 C 8.480469 27.125 7.800781 26.800781 7.371094 26.230469 C 6.980469 25.734375 6.761719 25.121094 6.75 24.488281 C 6.726562 23.613281 7.128906 22.785156 7.824219 22.261719 C 8.242188 21.949219 8.753906 21.789062 9.277344 21.800781 L 9.289062 21.800781 C 9.878906 21.8125 10.441406 22.046875 10.867188 22.457031 Z M 10.867188 22.457031 "/>
<path style=" stroke:none;fill-rule:nonzero;fill:rgb(100%,40%,0%);fill-opacity:1;" d="M 13.597656 27.839844 L 13.785156 27.839844 L 13.796875 27.847656 L 13.796875 29.125 L 13.804688 29.136719 C 14.136719 28.691406 14.328125 28.441406 14.378906 28.382812 L 14.589844 28.382812 L 14.601562 28.394531 L 14.042969 29.144531 C 14.0625 29.1875 14.085938 29.222656 14.117188 29.253906 L 14.726562 30.03125 L 14.726562 30.039062 L 14.714844 30.050781 L 14.492188 30.050781 C 14.46875 30.050781 14.417969 29.988281 14.335938 29.871094 L 13.804688 29.203125 L 13.796875 29.214844 L 13.796875 30.039062 L 13.785156 30.050781 L 13.597656 30.050781 C 13.589844 30.050781 13.582031 30.035156 13.582031 30.015625 L 13.582031 27.863281 C 13.585938 27.84375 13.589844 27.839844 13.597656 27.839844 Z M 13.597656 27.839844 "/>
<path style=" stroke:none;fill-rule:nonzero;fill:rgb(100%,40%,0%);fill-opacity:1;" d="M 16.058594 27.839844 L 16.246094 27.839844 L 16.253906 27.847656 L 16.253906 28.175781 L 16.246094 28.1875 L 16.058594 28.1875 C 16.046875 28.1875 16.042969 28.171875 16.042969 28.15625 L 16.042969 27.875 C 16.046875 27.84375 16.050781 27.839844 16.058594 27.839844 Z M 16.058594 28.386719 L 16.246094 28.386719 L 16.253906 28.394531 L 16.253906 30.042969 L 16.246094 30.054688 L 16.058594 30.054688 C 16.046875 30.054688 16.042969 30.039062 16.042969 30.023438 L 16.042969 28.414062 C 16.046875 28.390625 16.050781 28.382812 16.058594 28.382812 Z M 16.058594 28.386719 "/>
<path style=" stroke:none;fill-rule:nonzero;fill:rgb(100%,40%,0%);fill-opacity:1;" d="M 17.886719 27.839844 L 18.074219 27.839844 L 18.082031 27.847656 L 18.082031 28.378906 L 18.109375 28.386719 L 18.375 28.386719 L 18.386719 28.394531 L 18.386719 28.59375 L 18.371094 28.609375 L 18.089844 28.609375 L 18.082031 28.621094 L 18.082031 30.039062 L 18.066406 30.054688 L 17.886719 30.054688 L 17.871094 30.039062 L 17.871094 28.605469 L 17.589844 28.605469 L 17.578125 28.59375 L 17.578125 28.390625 L 17.589844 28.382812 L 17.859375 28.382812 L 17.882812 28.375 L 17.882812 27.84375 Z M 17.886719 27.839844 "/>
<path style=" stroke:none;fill-rule:nonzero;fill:rgb(100%,40%,0%);fill-opacity:1;" d="M 20.550781 28.320312 L 20.554688 28.320312 C 20.839844 28.320312 21.101562 28.476562 21.238281 28.726562 C 21.265625 28.773438 21.289062 28.824219 21.300781 28.875 L 21.285156 28.886719 L 21.097656 28.886719 C 21.078125 28.886719 21.054688 28.855469 21.023438 28.796875 C 20.894531 28.601562 20.664062 28.5 20.433594 28.539062 C 20.203125 28.582031 20.019531 28.753906 19.964844 28.984375 C 19.945312 29.054688 19.933594 29.125 19.933594 29.199219 C 19.933594 29.429688 20.039062 29.652344 20.222656 29.792969 C 20.316406 29.847656 20.421875 29.875 20.53125 29.882812 C 20.742188 29.882812 20.941406 29.765625 21.039062 29.578125 C 21.058594 29.535156 21.074219 29.511719 21.078125 29.511719 L 21.292969 29.511719 C 21.300781 29.511719 21.304688 29.511719 21.304688 29.527344 C 21.265625 29.648438 21.203125 29.757812 21.117188 29.851562 C 20.96875 30.007812 20.757812 30.09375 20.542969 30.089844 C 20.222656 30.09375 19.929688 29.898438 19.800781 29.601562 C 19.742188 29.472656 19.710938 29.332031 19.707031 29.195312 C 19.710938 28.914062 19.84375 28.652344 20.0625 28.484375 C 20.203125 28.378906 20.375 28.320312 20.550781 28.320312 Z M 20.550781 28.320312 "/>
<path style=" stroke:none;fill-rule:nonzero;fill:rgb(100%,40%,0%);fill-opacity:1;" d="M 22.636719 27.839844 L 22.824219 27.839844 L 22.835938 27.847656 L 22.835938 28.550781 L 22.84375 28.5625 C 22.960938 28.417969 23.136719 28.339844 23.320312 28.347656 L 23.335938 28.347656 C 23.609375 28.332031 23.859375 28.511719 23.933594 28.777344 C 23.957031 28.851562 23.96875 28.929688 23.96875 29.007812 L 23.96875 30.042969 L 23.953125 30.058594 L 23.773438 30.058594 L 23.757812 30.042969 L 23.757812 29.007812 C 23.769531 28.828125 23.671875 28.664062 23.511719 28.589844 C 23.449219 28.566406 23.382812 28.554688 23.316406 28.550781 C 23.097656 28.535156 22.898438 28.6875 22.859375 28.90625 C 22.839844 28.972656 22.832031 29.039062 22.835938 29.105469 L 22.835938 30.039062 L 22.824219 30.050781 L 22.636719 30.050781 C 22.628906 30.050781 22.621094 30.035156 22.621094 30.019531 L 22.621094 27.863281 C 22.625 27.84375 22.628906 27.839844 22.636719 27.839844 Z M 22.636719 27.839844 "/>
<path style=" stroke:none;fill-rule:nonzero;fill:rgb(100%,40%,0%);fill-opacity:1;" d="M 26.148438 28.332031 C 26.488281 28.332031 26.789062 28.558594 26.882812 28.890625 C 26.921875 29.015625 26.941406 29.140625 26.941406 29.273438 L 26.929688 29.28125 L 25.523438 29.28125 C 25.519531 29.28125 25.515625 29.28125 25.515625 29.296875 C 25.527344 29.472656 25.605469 29.632812 25.734375 29.75 C 25.878906 29.875 26.070312 29.921875 26.253906 29.875 C 26.4375 29.828125 26.589844 29.699219 26.660156 29.523438 L 26.878906 29.523438 L 26.890625 29.53125 C 26.8125 29.746094 26.660156 29.921875 26.457031 30.023438 C 26.351562 30.070312 26.238281 30.097656 26.121094 30.097656 C 25.839844 30.09375 25.574219 29.945312 25.429688 29.699219 C 25.339844 29.542969 25.289062 29.363281 25.289062 29.183594 C 25.292969 28.910156 25.417969 28.648438 25.628906 28.480469 C 25.785156 28.378906 25.964844 28.328125 26.148438 28.332031 Z M 25.519531 29.085938 L 26.695312 29.085938 L 26.703125 29.074219 C 26.683594 28.949219 26.628906 28.828125 26.550781 28.730469 C 26.445312 28.597656 26.28125 28.523438 26.113281 28.527344 C 25.847656 28.519531 25.613281 28.699219 25.546875 28.957031 C 25.527344 28.996094 25.519531 29.042969 25.519531 29.089844 Z M 25.519531 29.085938 "/>
<path style=" stroke:none;fill-rule:nonzero;fill:rgb(100%,40%,0%);fill-opacity:1;" d="M 28.980469 28.34375 L 28.992188 28.34375 C 29.265625 28.335938 29.507812 28.515625 29.578125 28.78125 C 29.597656 28.851562 29.605469 28.921875 29.609375 28.996094 L 29.609375 30.03125 L 29.59375 30.046875 L 29.414062 30.046875 L 29.398438 30.03125 L 29.398438 29.007812 C 29.40625 28.847656 29.328125 28.699219 29.199219 28.609375 C 29.125 28.574219 29.042969 28.554688 28.960938 28.550781 C 28.726562 28.535156 28.519531 28.703125 28.488281 28.9375 C 28.476562 29 28.472656 29.0625 28.472656 29.125 L 28.472656 30.039062 L 28.464844 30.050781 L 28.277344 30.050781 C 28.265625 30.050781 28.261719 30.035156 28.261719 30.019531 L 28.261719 28.417969 C 28.261719 28.398438 28.269531 28.386719 28.277344 28.386719 L 28.464844 28.386719 L 28.472656 28.398438 L 28.472656 28.539062 L 28.484375 28.546875 C 28.613281 28.414062 28.792969 28.34375 28.980469 28.34375 Z M 28.980469 28.34375 "/>
<path style=" stroke:none;fill-rule:nonzero;fill:rgb(0%,0%,0%);fill-opacity:1;" d="M 55.191406 8.945312 L 55.230469 8.945312 C 57.058594 8.984375 58.789062 9.78125 60.011719 11.148438 L 60.050781 11.148438 L 60.050781 10.292969 L 60.011719 9.515625 C 60.050781 9.410156 60.09375 9.355469 60.132812 9.355469 L 61.632812 9.355469 L 61.710938 9.4375 L 61.710938 22.316406 L 61.632812 22.398438 L 60.132812 22.398438 L 60.011719 22.277344 L 60.050781 21.460938 L 60.050781 20.519531 L 60.011719 20.519531 C 58.746094 21.996094 56.882812 22.820312 54.945312 22.761719 C 53.058594 22.792969 51.257812 21.972656 50.042969 20.519531 C 49.015625 19.214844 48.417969 17.617188 48.339844 15.953125 C 48.347656 13.660156 49.429688 11.5 51.257812 10.125 C 52.425781 9.347656 53.792969 8.9375 55.191406 8.945312 Z M 50.164062 15.875 C 50.152344 17.683594 51.035156 19.378906 52.515625 20.402344 C 53.304688 20.863281 54.195312 21.113281 55.109375 21.136719 C 56.421875 21.121094 57.667969 20.558594 58.554688 19.585938 C 59.460938 18.609375 59.992188 17.335938 60.050781 16 L 60.050781 15.675781 C 60.003906 13.96875 59.164062 12.382812 57.78125 11.394531 C 57.007812 10.882812 56.109375 10.601562 55.1875 10.578125 C 53.644531 10.566406 52.183594 11.289062 51.257812 12.535156 C 50.566406 13.511719 50.183594 14.675781 50.164062 15.875 Z M 50.164062 15.875 "/>
<path style=" stroke:none;fill-rule:nonzero;fill:rgb(0%,0%,0%);fill-opacity:1;" d="M 70.113281 9.078125 C 71.613281 9.121094 73.035156 9.75 74.082031 10.832031 L 74.363281 11.28125 L 74.445312 11.28125 C 75.597656 9.890625 77.304688 9.082031 79.105469 9.078125 L 79.144531 9.078125 C 81.699219 9.078125 83.324219 10.492188 84.011719 13.316406 L 84.09375 14.457031 L 84.09375 22.285156 L 83.972656 22.40625 L 82.511719 22.40625 L 82.390625 22.285156 L 82.390625 14.296875 C 82.457031 12.894531 81.671875 11.589844 80.40625 10.996094 C 79.894531 10.828125 79.363281 10.730469 78.824219 10.710938 C 76.8125 10.710938 75.570312 11.828125 75.097656 14.054688 L 75.054688 14.75 L 75.054688 22.285156 L 74.933594 22.40625 L 73.554688 22.40625 L 73.433594 22.285156 L 73.433594 14.175781 C 73.46875 12.886719 72.777344 11.6875 71.652344 11.078125 C 71.054688 10.855469 70.425781 10.730469 69.789062 10.710938 C 68.054688 10.640625 66.539062 11.882812 66.261719 13.605469 C 66.136719 14.125 66.082031 14.660156 66.101562 15.195312 L 66.101562 22.328125 L 66.019531 22.410156 L 64.519531 22.410156 C 64.441406 22.382812 64.398438 22.300781 64.398438 22.164062 L 64.398438 9.691406 C 64.417969 9.527344 64.460938 9.445312 64.519531 9.445312 L 66.019531 9.445312 L 66.101562 9.527344 L 66.101562 10.628906 L 66.179688 10.710938 C 67.226562 9.664062 68.640625 9.078125 70.113281 9.078125 Z M 70.113281 9.078125 "/>
<path style=" stroke:none;fill-rule:nonzero;fill:rgb(0%,0%,0%);fill-opacity:1;" d="M 86.898438 5.085938 L 88.394531 5.085938 L 88.476562 5.167969 L 88.476562 7.734375 L 88.394531 7.816406 L 86.898438 7.816406 C 86.816406 7.789062 86.777344 7.707031 86.777344 7.570312 L 86.777344 5.328125 C 86.796875 5.167969 86.839844 5.085938 86.898438 5.085938 Z M 86.898438 9.363281 L 88.394531 9.363281 L 88.476562 9.445312 L 88.476562 22.328125 L 88.394531 22.410156 L 86.898438 22.410156 C 86.816406 22.382812 86.777344 22.300781 86.777344 22.164062 L 86.777344 9.609375 C 86.796875 9.445312 86.839844 9.363281 86.898438 9.363281 Z M 86.898438 9.363281 "/>
<path style=" stroke:none;fill-rule:nonzero;fill:rgb(0%,0%,0%);fill-opacity:1;" d="M 100.28125 4.472656 C 103.414062 4.40625 106.316406 6.128906 107.777344 8.917969 L 107.816406 9.121094 L 107.738281 9.203125 L 105.914062 9.203125 C 105.769531 9.203125 105.457031 8.886719 104.976562 8.261719 C 103.703125 6.929688 101.945312 6.175781 100.109375 6.179688 C 98.234375 6.179688 96.433594 6.910156 95.085938 8.21875 C 93.746094 9.613281 92.976562 11.460938 92.933594 13.398438 C 92.96875 15.621094 93.9375 17.726562 95.605469 19.183594 C 96.875 20.195312 98.449219 20.738281 100.066406 20.734375 C 102.117188 20.683594 104.042969 19.730469 105.332031 18.125 C 105.996094 17.316406 106.464844 16.371094 106.710938 15.351562 L 106.679688 15.320312 L 98.128906 15.320312 L 98.007812 15.195312 L 98.007812 13.847656 L 98.089844 13.765625 L 108.703125 13.765625 C 108.757812 13.765625 108.785156 13.808594 108.785156 13.890625 C 108.722656 15.609375 108.171875 17.277344 107.207031 18.699219 C 105.515625 21.050781 102.796875 22.433594 99.910156 22.410156 C 97.785156 22.4375 95.726562 21.683594 94.117188 20.289062 C 92.277344 18.535156 91.214844 16.113281 91.160156 13.5625 L 91.160156 13.195312 C 91.1875 10.351562 92.558594 7.691406 94.84375 6.023438 C 96.46875 4.988281 98.359375 4.453125 100.28125 4.472656 Z M 100.28125 4.472656 "/>
<path style=" stroke:none;fill-rule:nonzero;fill:rgb(0%,0%,0%);fill-opacity:1;" d="M 118.320312 8.84375 C 120.738281 8.84375 122.957031 10.195312 124.078125 12.351562 C 124.632812 13.378906 124.9375 14.523438 124.96875 15.691406 C 124.957031 17.976562 123.875 20.121094 122.050781 21.480469 C 120.882812 22.253906 119.515625 22.664062 118.121094 22.664062 C 116.304688 22.675781 114.570312 21.921875 113.339844 20.585938 C 112.191406 19.207031 111.53125 17.484375 111.472656 15.691406 C 111.523438 13.53125 112.535156 11.511719 114.230469 10.1875 C 115.414062 9.304688 116.847656 8.835938 118.320312 8.84375 Z M 113.296875 15.773438 C 113.289062 17.488281 114.066406 19.113281 115.402344 20.175781 C 116.589844 20.988281 118.070312 21.238281 119.457031 20.863281 C 120.84375 20.488281 121.996094 19.523438 122.617188 18.222656 C 122.957031 17.480469 123.136719 16.671875 123.144531 15.855469 L 123.144531 15.574219 C 123.132812 13.855469 122.304688 12.25 120.914062 11.25 C 120.105469 10.765625 119.183594 10.5 118.242188 10.476562 C 116.898438 10.464844 115.617188 11.027344 114.714844 12.027344 C 113.789062 13.050781 113.285156 14.390625 113.296875 15.773438 Z M 113.296875 15.773438 "/>
<path style=" stroke:none;fill-rule:nonzero;fill:rgb(0%,0%,0%);fill-opacity:1;" d="M 132.148438 8.589844 L 132.230469 8.589844 C 133.9375 8.472656 135.457031 9.667969 135.757812 11.363281 L 135.796875 12.015625 L 135.796875 12.097656 L 135.675781 12.21875 L 134.054688 12.21875 C 133.953125 12.21875 133.871094 11.960938 133.8125 11.445312 C 133.515625 10.675781 132.765625 10.183594 131.945312 10.21875 C 131 10.222656 130.195312 10.914062 130.042969 11.851562 L 130.042969 12.257812 C 130.042969 13.269531 130.867188 13.992188 132.515625 14.425781 C 133.660156 14.671875 134.691406 15.304688 135.433594 16.21875 C 135.847656 16.933594 136.046875 17.753906 136 18.582031 C 135.976562 19.960938 135.21875 21.222656 134.015625 21.882812 C 133.308594 22.234375 132.53125 22.414062 131.746094 22.414062 C 129.671875 22.414062 128.332031 21.257812 127.730469 18.949219 L 127.652344 18.007812 L 127.773438 17.886719 L 129.3125 17.886719 C 129.394531 17.886719 129.472656 18.238281 129.554688 18.945312 C 129.785156 20.019531 130.730469 20.785156 131.824219 20.777344 C 132.871094 20.828125 133.800781 20.125 134.054688 19.105469 L 134.09375 18.742188 L 134.09375 18.457031 C 134.09375 17.371094 133.324219 16.585938 131.785156 16.09375 C 130.148438 15.570312 129.109375 14.933594 128.664062 14.179688 C 128.34375 13.5625 128.191406 12.875 128.21875 12.179688 C 128.257812 10.984375 128.859375 9.878906 129.839844 9.207031 C 130.535156 8.78125 131.335938 8.566406 132.148438 8.589844 Z M 132.148438 8.589844 "/>
<path style=" stroke:none;fill-rule:nonzero;fill:rgb(0%,0%,0%);fill-opacity:1;" d="M 50.078125 27.804688 L 51.578125 27.804688 L 51.65625 27.886719 L 51.65625 37.179688 L 51.738281 37.261719 L 51.777344 37.261719 C 51.894531 37.066406 54.515625 33.914062 59.640625 27.804688 L 61.507812 27.804688 L 61.589844 27.886719 L 61.589844 27.933594 L 54.78125 36.167969 L 54.78125 36.207031 L 61.386719 45.007812 L 61.386719 45.089844 L 61.347656 45.128906 L 59.441406 45.128906 C 59.191406 44.90625 57.746094 43.042969 55.105469 39.542969 L 53.566406 37.628906 C 52.824219 38.339844 52.183594 39.148438 51.660156 40.03125 L 51.660156 45.046875 L 51.578125 45.128906 L 50.082031 45.128906 C 50 45.101562 49.960938 45.019531 49.960938 44.882812 L 49.960938 28.050781 C 49.976562 27.886719 50.019531 27.804688 50.078125 27.804688 Z M 50.078125 27.804688 "/>
<path style=" stroke:none;fill-rule:nonzero;fill:rgb(0%,0%,0%);fill-opacity:1;" d="M 64.394531 27.804688 L 65.890625 27.804688 L 65.96875 27.886719 L 65.96875 30.453125 L 65.890625 30.535156 L 64.394531 30.535156 C 64.3125 30.507812 64.269531 30.429688 64.269531 30.292969 L 64.269531 28.050781 C 64.292969 27.886719 64.332031 27.804688 64.394531 27.804688 Z M 64.394531 32.085938 L 65.890625 32.085938 L 65.96875 32.167969 L 65.96875 45.046875 L 65.890625 45.128906 L 64.394531 45.128906 C 64.3125 45.101562 64.269531 45.019531 64.269531 44.882812 L 64.269531 32.328125 C 64.292969 32.167969 64.332031 32.085938 64.394531 32.085938 Z M 64.394531 32.085938 "/>
<path style=" stroke:none;fill-rule:nonzero;fill:rgb(0%,0%,0%);fill-opacity:1;" d="M 71.210938 27.804688 L 72.753906 27.804688 L 72.832031 27.886719 L 72.832031 32.042969 L 73.035156 32.085938 L 75.222656 32.085938 L 75.304688 32.167969 L 75.304688 33.714844 L 75.183594 33.835938 L 72.910156 33.835938 L 72.832031 33.917969 L 72.832031 45.007812 L 72.707031 45.128906 L 71.25 45.128906 L 71.128906 45.007812 L 71.128906 33.917969 L 71.046875 33.835938 L 68.738281 33.835938 L 68.65625 33.757812 L 68.65625 32.167969 L 68.738281 32.085938 L 70.925781 32.085938 L 71.128906 32.046875 L 71.128906 27.886719 Z M 71.210938 27.804688 "/>
<path style=" stroke:none;fill-rule:nonzero;fill:rgb(0%,0%,0%);fill-opacity:1;" d="M 84.835938 31.625 L 84.875 31.625 C 87.160156 31.605469 89.277344 32.820312 90.425781 34.804688 C 90.664062 35.152344 90.839844 35.539062 90.953125 35.941406 L 90.832031 36.023438 L 89.292969 36.023438 C 89.125 36.023438 88.921875 35.792969 88.683594 35.332031 C 87.792969 34.035156 86.324219 33.257812 84.753906 33.253906 C 82.511719 33.253906 80.945312 34.4375 80.054688 36.800781 C 79.898438 37.34375 79.816406 37.90625 79.808594 38.472656 C 79.796875 40.3125 80.671875 42.050781 82.160156 43.121094 C 82.933594 43.542969 83.792969 43.78125 84.675781 43.816406 C 86.378906 43.847656 87.964844 42.941406 88.804688 41.449219 C 88.96875 41.097656 89.074219 40.921875 89.128906 40.921875 L 90.871094 40.921875 C 90.925781 40.921875 90.953125 40.960938 90.953125 41.042969 C 90.636719 41.992188 90.109375 42.855469 89.414062 43.570312 C 88.175781 44.804688 86.496094 45.484375 84.753906 45.445312 C 82.160156 45.488281 79.792969 43.984375 78.714844 41.613281 C 78.253906 40.617188 78.003906 39.535156 77.984375 38.433594 C 78.019531 36.234375 79.085938 34.179688 80.863281 32.890625 C 82.023438 32.0625 83.410156 31.621094 84.835938 31.625 Z M 84.835938 31.625 "/>
<path style=" stroke:none;fill-rule:nonzero;fill:rgb(0%,0%,0%);fill-opacity:1;" d="M 93.757812 27.804688 L 95.257812 27.804688 L 95.335938 27.886719 L 95.335938 33.390625 L 95.417969 33.472656 C 96.386719 32.335938 97.824219 31.71875 99.308594 31.800781 L 99.429688 31.800781 C 101.625 31.648438 103.640625 33.03125 104.296875 35.144531 C 104.472656 35.726562 104.566406 36.328125 104.578125 36.9375 L 104.578125 45.007812 L 104.457031 45.128906 L 102.996094 45.128906 L 102.875 45.007812 L 102.875 36.976562 C 102.945312 35.570312 102.136719 34.269531 100.851562 33.714844 C 100.339844 33.546875 99.804688 33.453125 99.269531 33.433594 C 97.511719 33.285156 95.917969 34.46875 95.542969 36.203125 C 95.402344 36.707031 95.332031 37.226562 95.339844 37.75 L 95.339844 45.046875 L 95.261719 45.128906 L 93.761719 45.128906 C 93.679688 45.101562 93.640625 45.019531 93.640625 44.882812 L 93.640625 28.050781 C 93.65625 27.886719 93.699219 27.804688 93.757812 27.804688 Z M 93.757812 27.804688 "/>
<path style=" stroke:none;fill-rule:nonzero;fill:rgb(0%,0%,0%);fill-opacity:1;" d="M 114.273438 31.707031 C 117.050781 31.707031 119.050781 33.164062 120.273438 36.070312 C 120.582031 37.03125 120.746094 38.035156 120.757812 39.046875 L 120.636719 39.128906 L 109.167969 39.128906 C 109.113281 39.128906 109.085938 39.167969 109.085938 39.25 C 109.175781 40.628906 109.820312 41.90625 110.871094 42.796875 C 111.738281 43.507812 112.828125 43.894531 113.949219 43.894531 C 115.878906 43.929688 117.640625 42.785156 118.40625 41.003906 L 120.191406 41.003906 L 120.273438 41.082031 L 120.273438 41.125 C 119.644531 42.820312 118.375 44.195312 116.746094 44.957031 C 113.722656 46.289062 110.183594 45.21875 108.398438 42.429688 C 107.652344 41.214844 107.261719 39.820312 107.261719 38.394531 C 107.28125 36.226562 108.300781 34.195312 110.019531 32.890625 C 111.292969 32.09375 112.769531 31.683594 114.273438 31.707031 Z M 109.167969 37.621094 L 109.207031 37.660156 L 118.730469 37.660156 L 118.8125 37.578125 C 118.640625 36.585938 118.207031 35.65625 117.558594 34.886719 C 116.667969 33.84375 115.355469 33.261719 113.992188 33.296875 C 111.871094 33.214844 109.964844 34.59375 109.371094 36.640625 C 109.25 36.953125 109.179688 37.285156 109.167969 37.621094 Z M 109.167969 37.621094 "/>
<path style=" stroke:none;fill-rule:nonzero;fill:rgb(0%,0%,0%);fill-opacity:1;" d="M 129.277344 31.800781 L 129.359375 31.800781 C 131.542969 31.703125 133.515625 33.113281 134.140625 35.222656 C 134.296875 35.769531 134.378906 36.332031 134.382812 36.894531 L 134.382812 45.007812 L 134.261719 45.128906 L 132.800781 45.128906 L 132.679688 45.007812 L 132.679688 36.976562 C 132.726562 35.726562 132.109375 34.546875 131.058594 33.878906 C 130.449219 33.597656 129.785156 33.445312 129.113281 33.429688 C 127.25 33.28125 125.578125 34.585938 125.265625 36.441406 C 125.175781 36.925781 125.136719 37.417969 125.144531 37.910156 L 125.144531 45.042969 L 125.0625 45.125 L 123.566406 45.125 C 123.484375 45.097656 123.445312 45.015625 123.445312 44.878906 L 123.445312 32.410156 C 123.464844 32.246094 123.503906 32.167969 123.566406 32.167969 L 125.0625 32.167969 L 125.144531 32.246094 L 125.144531 33.347656 L 125.222656 33.429688 C 126.3125 32.375 127.765625 31.789062 129.277344 31.800781 Z M 129.277344 31.800781 "/>
</g>
</svg>
