<?xml version="1.0" encoding="UTF-8"?>
<svg xmlns="http://www.w3.org/2000/svg" xmlns:xlink="http://www.w3.org/1999/xlink" width="177pt" height="61pt" viewBox="0 0 177 61" version="1.1">
<g id="surface1">
<path style=" stroke:none;fill-rule:evenodd;fill:rgb(94.901961%,40.392157%,12.941176%);fill-opacity:1;" d="M 23.816406 1.957031 C 21.09375 2.214844 18.351562 3.527344 17.574219 5.484375 C 17.328125 6.097656 17.601562 6.550781 17.824219 7.425781 C 18.023438 7.992188 18.464844 8.441406 19.027344 8.652344 C 20.335938 9.253906 21.785156 9.476562 23.214844 9.300781 C 25.921875 9.039062 28.695312 7.675781 29.414062 5.734375 C 29.84375 4.484375 29.214844 3.121094 27.992188 2.632812 C 26.691406 2.023438 25.25 1.789062 23.824219 1.957031 M 15.976562 6.144531 C 14.019531 6.859375 12.15625 7.816406 10.4375 8.996094 C 9.414062 9.699219 8.4375 10.46875 7.515625 11.296875 C 5.492188 13.171875 3.777344 15.355469 2.433594 17.765625 C 1.351562 19.644531 0.539062 21.667969 0.0195312 23.773438 L 1.324219 23.789062 C 2.375 20.140625 4.355469 16.828125 7.066406 14.175781 C 8.125 13.15625 8.140625 13.183594 9.09375 12.351562 C 10.542969 11.183594 12.113281 10.171875 13.777344 9.335938 C 14.660156 8.875 15.578125 8.492188 16.523438 8.1875 C 16.957031 8.828125 17.558594 9.339844 18.265625 9.664062 C 20.859375 10.726562 23.753906 10.808594 26.402344 9.890625 C 27.9375 9.4375 29.355469 8.664062 30.574219 7.628906 C 31.695312 6.558594 32.941406 5.054688 32.40625 3.210938 C 31.800781 1.699219 30.460938 0.609375 28.859375 0.328125 C 24.941406 -0.714844 19.355469 0.765625 16.964844 3.871094 C 16.441406 4.527344 16.097656 5.3125 15.96875 6.144531 Z M 15.976562 6.144531 "/>
<path style=" stroke:none;fill-rule:evenodd;fill:rgb(94.901961%,40.392157%,12.941176%);fill-opacity:1;" d="M 44.636719 38.222656 L 39.648438 38.222656 C 39.417969 38.507812 39.265625 38.746094 39.019531 39.042969 C 38.484375 39.683594 37.867188 40.242188 37.28125 40.835938 C 36.164062 41.898438 34.917969 42.8125 33.570312 43.558594 C 32.25 44.269531 30.828125 44.769531 29.355469 45.042969 C 25.050781 45.824219 20.621094 44.789062 17.105469 42.183594 C 16.828125 41.992188 16.5625 41.78125 16.3125 41.554688 L 15.578125 40.863281 C 15.328125 40.617188 15.140625 40.414062 14.867188 40.152344 C 14.550781 39.84375 13.8125 38.953125 13.554688 38.617188 C 13.207031 38.171875 13.242188 38.199219 12.554688 38.199219 C 11.328125 38.199219 9.347656 38.144531 8.304688 38.207031 C 8.578125 39.074219 8.96875 39.894531 9.464844 40.65625 C 9.925781 41.40625 10.449219 42.117188 11.03125 42.78125 C 11.34375 43.125 11.605469 43.429688 11.914062 43.746094 C 18.609375 50.5 30.082031 51.402344 37.835938 46.242188 C 40.050781 44.804688 41.9375 42.914062 43.363281 40.695312 C 43.886719 39.921875 44.3125 39.09375 44.640625 38.222656 "/>
<path style=" stroke:none;fill-rule:evenodd;fill:rgb(94.901961%,40.392157%,12.941176%);fill-opacity:1;" d="M 8.351562 23.546875 C 9.816406 23.546875 11.597656 23.582031 13.03125 23.546875 C 13.386719 23.542969 13.417969 23.355469 13.847656 22.808594 C 14.792969 21.648438 15.859375 20.589844 17.027344 19.65625 C 21.269531 16.464844 26.832031 15.625 31.828125 17.417969 C 33.980469 18.257812 35.933594 19.535156 37.5625 21.175781 C 38.109375 21.679688 38.625 22.226562 39.097656 22.800781 C 39.234375 22.96875 39.328125 23.078125 39.441406 23.246094 C 39.605469 23.476562 39.558594 23.546875 39.90625 23.546875 C 40.894531 23.5625 43.984375 23.59375 44.617188 23.535156 C 44.316406 22.699219 43.914062 21.902344 43.421875 21.160156 C 40.0625 15.640625 33.292969 12.230469 26.519531 12.230469 C 21.554688 12.164062 16.734375 13.894531 12.945312 17.105469 C 12.277344 17.664062 11.660156 18.285156 11.097656 18.953125 C 10.511719 19.609375 9.984375 20.320312 9.527344 21.074219 C 9.015625 21.835938 8.621094 22.671875 8.351562 23.546875 "/>
<path style=" stroke:none;fill-rule:evenodd;fill:rgb(94.901961%,40.392157%,12.941176%);fill-opacity:1;" d="M 17.683594 39.925781 C 17.710938 39.855469 17.808594 39.875 17.890625 39.925781 C 17.828125 39.847656 17.800781 39.75 17.871094 39.710938 C 17.984375 39.648438 18.082031 39.914062 18.050781 40.03125 C 18.027344 40.027344 18.007812 40.019531 17.988281 40.011719 C 18.003906 40.027344 18.015625 40.042969 18.023438 40.0625 C 17.894531 40.128906 17.632812 40.046875 17.679688 39.921875 M 18.222656 40.59375 C 18.109375 40.628906 17.988281 40.625 17.878906 40.578125 C 17.746094 40.527344 17.640625 40.421875 17.585938 40.289062 C 17.53125 40.15625 17.53125 40.007812 17.585938 39.878906 C 17.644531 39.714844 17.78125 39.59375 17.945312 39.546875 L 17.957031 39.605469 C 17.8125 39.648438 17.695312 39.757812 17.636719 39.898438 C 17.539062 40.144531 17.65625 40.421875 17.898438 40.523438 C 17.996094 40.5625 18.101562 40.566406 18.199219 40.539062 Z M 21.855469 38.878906 C 21.957031 38.878906 22.042969 38.945312 22.070312 39.042969 L 21.398438 39.585938 C 21.316406 39.550781 21.265625 39.472656 21.265625 39.382812 C 21.34375 39.308594 21.359375 39.1875 21.296875 39.097656 C 21.296875 39.007812 21.355469 38.921875 21.441406 38.890625 C 21.53125 38.859375 21.628906 38.886719 21.6875 38.957031 C 21.730469 38.90625 21.792969 38.878906 21.859375 38.882812 Z M 21.671875 39.484375 L 22.089844 39.148438 L 22.578125 40.371094 L 22.261719 40.167969 L 22.378906 40.160156 L 22.378906 40.082031 L 22.140625 40.089844 L 22.027344 40.011719 L 22.265625 40.023438 L 22.265625 39.949219 L 21.933594 39.949219 L 21.820312 39.863281 L 22.144531 39.863281 L 22.15625 39.796875 L 21.6875 39.789062 L 21.59375 39.710938 L 22.015625 39.734375 L 22.023438 39.675781 L 21.523438 39.632812 L 21.609375 39.5625 L 21.914062 39.605469 L 21.9375 39.535156 Z M 22.394531 43.054688 C 22.394531 43.054688 22.332031 42.941406 22.414062 42.894531 C 22.4375 42.878906 22.457031 42.863281 22.472656 42.84375 C 22.445312 42.796875 22.410156 42.757812 22.367188 42.730469 C 22.367188 42.730469 22.257812 42.621094 22.375 42.675781 C 22.429688 42.703125 22.472656 42.746094 22.496094 42.800781 C 22.550781 42.789062 22.609375 42.8125 22.644531 42.859375 C 22.804688 43.179688 22.84375 43.308594 22.949219 43.394531 C 23.054688 43.480469 23.210938 43.523438 23.632812 43.503906 C 23.390625 43.617188 23.117188 43.652344 22.855469 43.597656 C 22.457031 43.414062 22.449219 43.152344 22.449219 43.152344 C 22.46875 43.128906 22.484375 43.097656 22.492188 43.070312 C 22.503906 43.042969 22.507812 43.015625 22.5 42.988281 C 22.5 42.988281 22.417969 43.15625 22.398438 43.058594 Z M 23.808594 42.984375 C 23.808594 42.984375 23.929688 42.910156 23.917969 42.84375 C 23.902344 42.78125 23.882812 42.753906 23.886719 42.734375 C 23.9375 42.722656 23.992188 42.71875 24.042969 42.730469 C 24.042969 42.730469 24.164062 42.71875 24.074219 42.683594 C 24.023438 42.65625 23.957031 42.65625 23.902344 42.683594 C 23.847656 42.644531 23.773438 42.632812 23.707031 42.648438 C 23.628906 42.675781 23.460938 42.96875 23.132812 42.925781 C 22.894531 42.859375 22.6875 42.71875 22.542969 42.523438 C 22.628906 42.777344 22.796875 42.996094 23.019531 43.144531 C 23.253906 43.242188 23.523438 43.207031 23.726562 43.058594 C 23.707031 42.980469 23.679688 42.859375 23.765625 42.8125 C 23.769531 42.8125 23.730469 43.042969 23.8125 42.984375 Z M 25.769531 40.453125 L 25.910156 40.546875 L 26.015625 40.253906 Z M 26.246094 40.304688 L 26.382812 40.359375 L 26.277344 40.589844 L 26.101562 40.550781 Z M 26.578125 40.402344 L 26.4375 40.589844 L 26.609375 40.636719 L 26.726562 40.441406 Z M 26.882812 40.429688 L 26.824219 40.609375 L 27.109375 40.460938 Z M 26.640625 40.097656 C 26.777344 39.832031 26.511719 39.949219 26.613281 39.632812 C 26.375 39.851562 26.652344 39.902344 26.644531 40.097656 Z M 26.785156 40.042969 C 27.003906 39.582031 26.65625 39.773438 26.84375 39.417969 C 26.539062 39.699219 26.835938 39.699219 26.792969 40.039062 Z M 25.605469 40.410156 C 25.769531 40.152344 26.097656 40.054688 26.378906 40.179688 C 26.9375 40.347656 27.050781 40.308594 27.050781 40.308594 C 27.050781 40.308594 27.378906 40.328125 27.222656 40.734375 C 26.917969 41.050781 25.597656 40.933594 25.601562 40.707031 Z M 27.246094 43.332031 C 27.203125 43.332031 27.140625 43.308594 27.191406 43.25 C 27.308594 43.136719 27.476562 43.085938 27.640625 43.121094 C 27.660156 43.082031 27.695312 43.054688 27.738281 43.046875 C 27.757812 43.046875 27.710938 43.140625 27.726562 43.144531 C 27.742188 43.144531 27.828125 43.050781 27.847656 43.058594 C 27.886719 43.074219 27.929688 43.101562 27.933594 43.125 C 27.953125 43.179688 27.953125 43.238281 27.933594 43.292969 C 27.910156 43.335938 27.867188 43.363281 27.820312 43.378906 C 27.792969 43.382812 27.769531 43.367188 27.757812 43.339844 C 27.757812 43.339844 27.8125 43.257812 27.789062 43.253906 C 27.765625 43.25 27.71875 43.242188 27.714844 43.253906 L 27.695312 43.378906 C 27.695312 43.378906 27.679688 43.378906 27.648438 43.351562 C 27.621094 43.304688 27.605469 43.253906 27.601562 43.203125 C 27.472656 43.191406 27.34375 43.238281 27.25 43.328125 Z M 27.84375 43.589844 C 27.796875 43.589844 27.738281 43.566406 27.789062 43.507812 C 27.90625 43.394531 28.074219 43.34375 28.234375 43.375 C 28.257812 43.339844 28.292969 43.3125 28.332031 43.300781 C 28.355469 43.300781 28.304688 43.398438 28.324219 43.398438 C 28.339844 43.398438 28.421875 43.308594 28.441406 43.316406 C 28.480469 43.332031 28.523438 43.359375 28.53125 43.382812 C 28.550781 43.4375 28.550781 43.496094 28.53125 43.550781 C 28.507812 43.59375 28.464844 43.621094 28.417969 43.636719 C 28.390625 43.640625 28.363281 43.625 28.355469 43.597656 C 28.355469 43.597656 28.410156 43.515625 28.386719 43.511719 C 28.363281 43.507812 28.3125 43.496094 28.3125 43.515625 L 28.292969 43.640625 C 28.292969 43.640625 28.277344 43.648438 28.246094 43.613281 C 28.21875 43.566406 28.203125 43.515625 28.199219 43.464844 C 28.070312 43.453125 27.941406 43.496094 27.847656 43.585938 Z M 28.460938 43.027344 C 28.5 43.058594 28.523438 43.125 28.441406 43.132812 C 28.265625 43.132812 28.097656 43.042969 28 42.890625 C 27.953125 42.902344 27.90625 42.898438 27.867188 42.875 C 27.847656 42.863281 27.960938 42.824219 27.949219 42.808594 C 27.9375 42.792969 27.804688 42.800781 27.792969 42.78125 C 27.773438 42.746094 27.765625 42.703125 27.773438 42.664062 C 27.792969 42.628906 27.855469 42.550781 27.902344 42.539062 C 27.957031 42.527344 28.011719 42.535156 28.058594 42.5625 C 28.082031 42.578125 28.089844 42.613281 28.078125 42.640625 C 28.078125 42.640625 27.972656 42.660156 27.988281 42.679688 C 28.003906 42.699219 28.035156 42.746094 28.050781 42.734375 L 28.15625 42.648438 C 28.15625 42.648438 28.175781 42.660156 28.175781 42.710938 C 28.160156 42.765625 28.132812 42.816406 28.097656 42.859375 C 28.191406 42.964844 28.324219 43.027344 28.46875 43.023438 Z M 31.324219 40.328125 C 32.03125 40.164062 32.710938 40.832031 32.316406 41.339844 C 31.75 42.070312 30.804688 40.453125 31.324219 40.328125 Z M 30.808594 40.179688 C 30.78125 40.210938 30.683594 40.320312 30.613281 40.320312 C 30.523438 40.3125 30.453125 40.246094 30.445312 40.15625 C 30.445312 40.078125 30.503906 40.007812 30.585938 39.996094 L 30.585938 39.96875 C 30.585938 39.875 30.664062 39.804688 30.753906 39.804688 C 30.847656 39.804688 30.886719 39.996094 30.886719 40.046875 C 30.886719 40.097656 31.167969 40.300781 31.128906 40.347656 C 31.0625 40.429688 30.78125 40.175781 30.808594 40.179688 Z M 31.542969 40.449219 L 31.898438 40.449219 L 31.753906 40.519531 L 32.027344 40.535156 L 31.921875 40.589844 L 32.152344 40.617188 L 32.050781 40.664062 L 32.265625 40.707031 L 31.800781 40.707031 L 31.832031 40.589844 L 31.621094 40.570312 L 31.695312 40.488281 L 31.488281 40.5 Z M 30.796875 40.292969 C 30.75 40.390625 30.640625 40.445312 30.535156 40.421875 C 30.429688 40.398438 30.351562 40.304688 30.347656 40.195312 C 30.347656 40.078125 30.433594 39.980469 30.546875 39.964844 C 30.546875 39.953125 30.546875 39.9375 30.546875 39.925781 C 30.546875 39.796875 30.652344 39.691406 30.785156 39.691406 C 30.914062 39.691406 31.019531 39.796875 31.019531 39.925781 C 31.019531 39.96875 31.007812 40.007812 30.988281 40.042969 C 31.085938 40.125 31.1875 40.195312 31.300781 40.253906 C 32.121094 40.101562 32.871094 40.820312 32.414062 41.414062 C 31.957031 42.003906 31.082031 41.230469 31.089844 40.492188 C 31.023438 40.402344 30.933594 40.335938 30.832031 40.296875 Z M 35.621094 40.261719 C 35.632812 40.269531 35.636719 40.285156 35.636719 40.296875 C 35.636719 40.308594 35.632812 40.320312 35.621094 40.332031 L 35.484375 40.484375 C 35.464844 40.503906 35.4375 40.503906 35.417969 40.484375 C 35.375 40.449219 35.367188 40.390625 35.394531 40.34375 L 35.476562 40.253906 C 35.519531 40.222656 35.578125 40.226562 35.621094 40.261719 Z M 35.464844 40.222656 L 35.371094 40.328125 C 35.277344 40.429688 35.222656 40.265625 35.273438 40.203125 L 35.320312 40.144531 C 35.382812 40.066406 35.53125 40.144531 35.457031 40.222656 Z M 35.367188 39.9375 C 35.394531 39.964844 35.394531 40.007812 35.367188 40.03125 L 35.179688 40.242188 C 35.152344 40.265625 35.113281 40.265625 35.085938 40.242188 C 35.03125 40.195312 35.019531 40.113281 35.058594 40.054688 L 35.171875 39.929688 C 35.230469 39.871094 35.324219 39.902344 35.363281 39.9375 Z M 35.152344 39.921875 L 35.054688 40.027344 C 34.964844 40.125 34.910156 39.964844 34.960938 39.902344 L 35.007812 39.84375 C 35.070312 39.765625 35.21875 39.84375 35.148438 39.921875 Z M 35.054688 39.636719 C 35.078125 39.664062 35.078125 39.703125 35.054688 39.730469 L 34.867188 39.9375 C 34.839844 39.960938 34.796875 39.960938 34.773438 39.9375 C 34.71875 39.890625 34.707031 39.808594 34.746094 39.75 L 34.859375 39.625 C 34.910156 39.566406 35.011719 39.601562 35.050781 39.636719 Z M 34.636719 39.375 C 34.695312 39.375 34.75 39.40625 34.78125 39.457031 L 34.722656 39.472656 C 34.703125 39.445312 34.671875 39.429688 34.636719 39.429688 C 34.578125 39.425781 34.523438 39.46875 34.515625 39.527344 C 34.507812 39.585938 34.542969 39.644531 34.601562 39.65625 C 34.660156 39.671875 34.71875 39.640625 34.738281 39.582031 L 34.792969 39.59375 C 34.792969 39.605469 34.785156 39.613281 34.78125 39.621094 L 34.8125 39.648438 L 34.753906 39.714844 L 34.722656 39.683594 C 34.660156 39.71875 34.585938 39.714844 34.53125 39.671875 C 34.476562 39.625 34.457031 39.550781 34.480469 39.484375 C 34.503906 39.417969 34.566406 39.375 34.636719 39.375 Z M 35.855469 39.78125 C 35.863281 39.792969 35.867188 39.804688 35.867188 39.816406 C 35.867188 39.828125 35.863281 39.839844 35.855469 39.851562 L 35.714844 40.003906 C 35.695312 40.019531 35.667969 40.019531 35.648438 40.003906 C 35.609375 39.96875 35.597656 39.910156 35.628906 39.867188 L 35.707031 39.773438 C 35.75 39.738281 35.8125 39.742188 35.851562 39.78125 Z M 35.6875 39.742188 L 35.59375 39.851562 C 35.503906 39.949219 35.445312 39.785156 35.496094 39.722656 L 35.542969 39.667969 C 35.613281 39.59375 35.761719 39.667969 35.6875 39.742188 Z M 35.589844 39.457031 C 35.601562 39.46875 35.609375 39.488281 35.609375 39.503906 C 35.609375 39.523438 35.601562 39.539062 35.589844 39.550781 L 35.402344 39.761719 C 35.375 39.785156 35.335938 39.785156 35.308594 39.761719 C 35.253906 39.714844 35.242188 39.632812 35.28125 39.570312 L 35.390625 39.445312 C 35.457031 39.390625 35.554688 39.421875 35.59375 39.457031 Z M 35.375 39.441406 L 35.277344 39.546875 C 35.1875 39.644531 35.132812 39.484375 35.183594 39.421875 L 35.230469 39.363281 C 35.300781 39.285156 35.449219 39.363281 35.378906 39.441406 Z M 35.277344 39.15625 C 35.300781 39.179688 35.300781 39.222656 35.277344 39.25 L 35.089844 39.457031 C 35.078125 39.46875 35.058594 39.476562 35.042969 39.476562 C 35.023438 39.476562 35.007812 39.46875 34.996094 39.457031 C 34.941406 39.410156 34.929688 39.328125 34.96875 39.269531 L 35.082031 39.144531 C 35.140625 39.097656 35.226562 39.101562 35.28125 39.15625 Z M 34.859375 38.894531 C 34.917969 38.894531 34.972656 38.925781 35.003906 38.972656 L 34.945312 38.992188 C 34.914062 38.960938 34.867188 38.949219 34.828125 38.964844 C 34.785156 38.980469 34.757812 39.015625 34.75 39.0625 C 34.757812 39.109375 34.792969 39.144531 34.839844 39.152344 C 34.886719 39.164062 34.9375 39.144531 34.960938 39.101562 L 35.015625 39.113281 L 35.007812 39.140625 L 35.035156 39.171875 L 34.976562 39.234375 L 34.945312 39.203125 C 34.882812 39.238281 34.808594 39.234375 34.753906 39.1875 C 34.699219 39.144531 34.679688 39.070312 34.703125 39.003906 C 34.726562 38.9375 34.789062 38.894531 34.859375 38.894531 Z M 35.777344 39.980469 L 35.828125 39.925781 L 35.949219 40.085938 Z M 35.550781 40.460938 L 35.597656 40.402344 L 35.71875 40.566406 Z M 18.113281 40.539062 C 18.035156 40.550781 18 40.441406 18.011719 40.332031 C 17.960938 40.425781 17.878906 40.488281 17.816406 40.433594 C 17.753906 40.382812 17.796875 40.320312 17.859375 40.261719 C 17.773438 40.285156 17.691406 40.273438 17.675781 40.203125 C 17.648438 40.078125 17.933594 40.066406 18.035156 40.132812 C 18.03125 40.144531 18.023438 40.15625 18.015625 40.164062 C 18.027344 40.160156 18.039062 40.15625 18.054688 40.15625 L 18.054688 40.179688 L 18.058594 40.175781 C 18.179688 40.253906 18.238281 40.519531 18.113281 40.539062 Z M 25.84375 45.023438 L 26.476562 45.023438 C 29.109375 44.917969 31.679688 44.199219 33.988281 42.925781 C 35.492188 42.082031 36.816406 40.957031 37.894531 39.609375 C 38.285156 39.195312 38.621094 38.726562 38.882812 38.222656 C 38.589844 38.191406 15.238281 38.164062 13.730469 38.210938 C 13.984375 38.703125 14.296875 39.15625 14.664062 39.566406 C 15.023438 39.996094 15.40625 40.398438 15.816406 40.777344 C 16.515625 41.472656 17.296875 42.070312 18.144531 42.566406 C 20.4375 44.074219 23.097656 44.921875 25.835938 45.023438 Z M 25.84375 45.023438 "/>
<path style=" stroke:none;fill-rule:evenodd;fill:rgb(94.901961%,40.392157%,12.941176%);fill-opacity:1;" d="M 17.410156 21.546875 C 17.476562 21.300781 17.3125 21.425781 17.394531 21.214844 C 17.238281 21.382812 17.410156 21.378906 17.410156 21.546875 M 17.515625 21.507812 C 17.679688 21.238281 17.425781 21.332031 17.558594 21.0625 C 17.296875 21.238281 17.546875 21.3125 17.515625 21.507812 Z M 21.445312 19.328125 C 21.445312 19.328125 21.816406 18.9375 22.117188 18.933594 L 22.460938 19.394531 C 22.460938 19.394531 21.949219 19.578125 21.808594 19.847656 C 21.746094 19.78125 21.445312 19.328125 21.445312 19.328125 Z M 21.347656 19.328125 C 21.347656 19.328125 21.125 19.453125 21.140625 19.222656 C 21.152344 19.0625 21.296875 19.054688 21.402344 19.015625 C 21.34375 18.925781 21.078125 18.765625 21.378906 18.515625 C 21.527344 18.390625 21.574219 18.394531 21.667969 18.429688 C 21.792969 18.464844 21.882812 18.578125 21.882812 18.710938 L 21.960938 18.710938 C 22 18.574219 22.054688 18.410156 22.238281 18.496094 C 22.292969 18.515625 22.335938 18.558594 22.355469 18.609375 C 22.375 18.664062 22.371094 18.722656 22.34375 18.773438 C 22.300781 18.832031 22.234375 18.863281 22.160156 18.863281 C 21.816406 18.910156 21.703125 18.996094 21.347656 19.324219 Z M 22.496094 19.464844 C 22.25 19.535156 22.03125 19.683594 21.871094 19.886719 C 22.117188 19.808594 22.332031 19.664062 22.496094 19.464844 Z M 21.921875 19.585938 C 21.921875 19.585938 21.621094 19.234375 21.699219 19.199219 C 21.777344 19.167969 21.992188 19.492188 22 19.527344 C 21.910156 19.445312 21.828125 19.359375 21.75 19.269531 Z M 22.0625 19.484375 C 22.0625 19.484375 21.761719 19.132812 21.839844 19.097656 C 21.917969 19.066406 22.132812 19.390625 22.140625 19.425781 C 22.050781 19.347656 21.964844 19.261719 21.886719 19.167969 Z M 22.238281 19.40625 C 22.238281 19.40625 21.9375 19.050781 22.019531 19.019531 C 22.097656 18.984375 22.3125 19.308594 22.320312 19.34375 C 22.230469 19.265625 22.144531 19.179688 22.066406 19.085938 Z M 21.765625 19.699219 C 21.765625 19.699219 21.464844 19.347656 21.542969 19.3125 C 21.621094 19.277344 21.835938 19.605469 21.84375 19.640625 C 21.753906 19.558594 21.667969 19.472656 21.589844 19.382812 Z M 21.277344 18.976562 C 20.847656 18.621094 21.765625 18.019531 21.9375 18.582031 C 22.242188 18.078125 22.742188 18.863281 22.195312 18.925781 C 22.292969 19.0625 22.4375 19.265625 22.566406 19.457031 C 22.414062 19.859375 21.800781 19.957031 21.800781 19.957031 L 21.382812 19.371094 C 21.171875 19.578125 20.832031 19.109375 21.273438 18.972656 Z M 23.6875 21.789062 C 23.765625 21.597656 23.582031 21.640625 23.671875 21.457031 C 23.496094 21.609375 23.671875 21.648438 23.6875 21.785156 Z M 23.792969 21.746094 C 23.933594 21.46875 23.695312 21.542969 23.832031 21.304688 C 23.574219 21.476562 23.824219 21.546875 23.792969 21.742188 Z M 23.910156 21.851562 L 23.992188 21.859375 C 24.0625 21.765625 24.140625 21.679688 24.222656 21.601562 C 24.195312 21.695312 24.183594 21.796875 24.183594 21.894531 L 24.351562 22.117188 C 24.25 22.089844 24.144531 22.035156 24.042969 22.003906 C 24.03125 22.019531 24.015625 22.035156 24.003906 22.054688 Z M 23.621094 21.832031 C 23.695312 21.832031 23.777344 21.832031 23.84375 21.84375 L 23.960938 22.101562 C 23.914062 22.15625 23.863281 22.207031 23.808594 22.253906 Z M 23.296875 21.722656 C 23.359375 21.757812 23.472656 21.820312 23.503906 21.839844 L 23.5625 21.832031 L 23.769531 22.292969 C 23.71875 22.335938 23.664062 22.378906 23.605469 22.414062 Z M 23.132812 22.191406 C 23.164062 22.191406 23.191406 22.21875 23.191406 22.25 C 23.191406 22.28125 23.164062 22.304688 23.132812 22.304688 C 23.101562 22.304688 23.078125 22.28125 23.078125 22.25 C 23.078125 22.21875 23.101562 22.191406 23.132812 22.191406 Z M 22.941406 22.402344 C 22.960938 22.230469 23.046875 22.070312 23.175781 21.949219 C 23.191406 21.875 23.214844 21.804688 23.238281 21.730469 L 23.558594 22.445312 L 23.582031 22.597656 L 23.433594 22.5 C 23.433594 22.5 23.027344 22.503906 22.9375 22.402344 Z M 27.03125 18.527344 L 27.03125 18.628906 C 27.054688 18.683594 27.117188 18.714844 27.175781 18.703125 C 27.234375 18.691406 27.273438 18.640625 27.273438 18.578125 C 27.273438 18.519531 27.234375 18.46875 27.175781 18.457031 C 27.117188 18.445312 27.054688 18.472656 27.03125 18.527344 Z M 26.148438 19.070312 L 27.148438 19.070312 L 27.046875 19.226562 L 26.269531 19.226562 Z M 26.609375 18.242188 C 26.6875 18.054688 26.5 18.09375 26.589844 17.910156 C 26.417969 18.0625 26.597656 18.097656 26.613281 18.238281 Z M 26.714844 18.199219 C 26.855469 17.921875 26.613281 18 26.753906 17.757812 C 26.5 17.925781 26.746094 18.003906 26.714844 18.199219 Z M 27.148438 18.371094 C 27.261719 18.371094 27.355469 18.464844 27.355469 18.578125 C 27.355469 18.695312 27.261719 18.785156 27.148438 18.785156 C 27.109375 18.785156 27.066406 18.773438 27.035156 18.75 L 27.035156 18.8125 C 27.03125 18.90625 26.957031 18.980469 26.863281 18.980469 L 26.414062 18.980469 C 26.320312 18.980469 26.246094 18.90625 26.246094 18.8125 L 26.246094 18.300781 L 27.035156 18.300781 L 27.035156 18.40625 C 27.066406 18.382812 27.109375 18.371094 27.152344 18.371094 Z M 29.976562 20.664062 C 30.328125 20.664062 30.613281 20.824219 30.613281 21.015625 C 30.613281 21.210938 30.328125 21.371094 29.976562 21.371094 C 29.625 21.371094 29.339844 21.210938 29.339844 21.015625 C 29.339844 20.820312 29.628906 20.660156 29.980469 20.660156 Z M 29.347656 21.261719 L 29.261719 21.253906 L 29.273438 21.328125 L 29.25 21.410156 C 29.25 21.410156 29.339844 21.417969 29.347656 21.4375 C 29.355469 21.457031 29.371094 21.527344 29.371094 21.527344 C 29.371094 21.527344 29.707031 21.671875 29.742188 21.671875 C 29.8125 21.644531 29.875 21.605469 29.9375 21.558594 C 30 21.597656 30.0625 21.628906 30.128906 21.660156 C 30.195312 21.679688 30.269531 21.679688 30.339844 21.660156 L 30.527344 21.535156 L 30.503906 21.433594 L 30.621094 21.339844 L 30.621094 21.28125 L 30.699219 21.308594 L 30.753906 21.199219 L 30.683594 21.144531 C 30.5625 21.265625 30.40625 21.347656 30.238281 21.382812 C 30.042969 21.433594 29.839844 21.4375 29.644531 21.390625 C 29.558594 21.355469 29.347656 21.257812 29.347656 21.257812 Z M 29.414062 21.605469 C 29.414062 21.605469 29.863281 21.742188 29.886719 21.742188 C 29.90625 21.742188 30.292969 21.714844 30.324219 21.707031 C 30.355469 21.699219 30.585938 21.597656 30.585938 21.597656 L 30.398438 21.75 L 30.023438 21.796875 L 29.734375 21.765625 L 29.539062 21.679688 Z M 29.355469 21.722656 C 29.542969 21.871094 29.769531 21.960938 30.007812 21.976562 C 30.132812 21.980469 30.257812 21.949219 30.371094 21.890625 C 30.429688 21.84375 30.570312 21.75 30.570312 21.75 C 30.050781 21.996094 29.890625 21.898438 29.359375 21.722656 Z M 29.980469 21.0625 C 29.988281 21.0625 30 21.0625 30.003906 21.070312 C 30.011719 21.078125 30.019531 21.085938 30.019531 21.09375 C 30.019531 21.105469 30.011719 21.113281 30.003906 21.121094 C 29.996094 21.125 29.988281 21.128906 29.980469 21.128906 C 29.960938 21.125 29.949219 21.113281 29.945312 21.097656 C 29.949219 21.078125 29.960938 21.0625 29.980469 21.0625 Z M 30.09375 20.921875 C 30.105469 20.921875 30.117188 20.925781 30.125 20.9375 C 30.132812 20.945312 30.136719 20.957031 30.136719 20.96875 C 30.136719 20.996094 30.117188 21.019531 30.09375 21.019531 C 30.066406 21.019531 30.050781 20.996094 30.050781 20.96875 C 30.050781 20.957031 30.054688 20.945312 30.0625 20.9375 C 30.070312 20.925781 30.082031 20.921875 30.097656 20.921875 Z M 30.164062 20.777344 C 30.179688 20.777344 30.191406 20.78125 30.203125 20.789062 C 30.210938 20.800781 30.21875 20.8125 30.21875 20.824219 C 30.21875 20.851562 30.195312 20.875 30.164062 20.875 C 30.136719 20.875 30.113281 20.851562 30.113281 20.824219 C 30.113281 20.8125 30.121094 20.800781 30.132812 20.789062 C 30.140625 20.78125 30.15625 20.777344 30.167969 20.777344 Z M 30.003906 20.738281 C 30.035156 20.734375 30.066406 20.757812 30.070312 20.792969 C 30.066406 20.824219 30.035156 20.847656 30.003906 20.84375 C 29.96875 20.847656 29.941406 20.824219 29.933594 20.792969 C 29.9375 20.765625 29.96875 20.742188 30.003906 20.742188 Z M 29.878906 20.824219 C 29.902344 20.824219 29.921875 20.84375 29.921875 20.871094 C 29.921875 20.894531 29.902344 20.917969 29.878906 20.917969 C 29.851562 20.917969 29.832031 20.894531 29.832031 20.871094 C 29.832031 20.84375 29.851562 20.824219 29.878906 20.824219 Z M 29.78125 20.96875 C 29.792969 20.972656 29.800781 20.980469 29.800781 20.996094 C 29.800781 21.007812 29.789062 21.015625 29.777344 21.015625 C 29.765625 21.015625 29.753906 21.003906 29.753906 20.992188 C 29.753906 20.984375 29.757812 20.980469 29.765625 20.976562 C 29.769531 20.972656 29.777344 20.96875 29.78125 20.972656 Z M 29.648438 20.902344 C 29.65625 20.90625 29.667969 20.910156 29.675781 20.917969 C 29.683594 20.925781 29.6875 20.9375 29.6875 20.949219 C 29.6875 20.96875 29.667969 20.988281 29.648438 20.988281 C 29.625 20.988281 29.609375 20.96875 29.609375 20.949219 C 29.605469 20.9375 29.613281 20.925781 29.621094 20.917969 C 29.628906 20.910156 29.636719 20.90625 29.648438 20.90625 Z M 29.6875 20.816406 C 29.714844 20.816406 29.734375 20.832031 29.734375 20.851562 C 29.734375 20.867188 29.714844 20.882812 29.6875 20.882812 C 29.664062 20.882812 29.640625 20.867188 29.640625 20.851562 C 29.640625 20.832031 29.664062 20.820312 29.691406 20.820312 Z M 29.507812 20.898438 C 29.519531 20.898438 29.53125 20.902344 29.539062 20.910156 C 29.546875 20.921875 29.550781 20.933594 29.550781 20.941406 C 29.554688 20.960938 29.546875 20.976562 29.53125 20.984375 C 29.519531 20.992188 29.5 20.992188 29.488281 20.984375 C 29.472656 20.976562 29.464844 20.960938 29.46875 20.941406 C 29.46875 20.917969 29.488281 20.898438 29.511719 20.898438 Z M 30.261719 20.964844 C 30.28125 20.964844 30.300781 20.980469 30.300781 21.003906 C 30.300781 21.023438 30.28125 21.039062 30.261719 21.039062 C 30.238281 21.039062 30.222656 21.023438 30.222656 21.003906 C 30.222656 20.980469 30.238281 20.964844 30.261719 20.964844 Z M 29.980469 20.613281 C 30.375 20.613281 30.699219 20.792969 30.699219 21.011719 C 30.699219 21.023438 30.699219 21.039062 30.699219 21.054688 C 30.746094 21.074219 30.839844 21.125 30.839844 21.207031 C 30.839844 21.320312 30.828125 21.402344 30.808594 21.40625 C 30.769531 21.398438 30.730469 21.382812 30.695312 21.367188 C 30.6875 21.398438 30.683594 21.433594 30.683594 21.46875 L 30.683594 21.730469 C 30.511719 22.121094 29.667969 22.191406 29.304688 21.777344 C 29.289062 21.6875 29.285156 21.59375 29.289062 21.5 C 29.289062 21.5 29.136719 21.5 29.148438 21.445312 C 29.164062 21.40625 29.183594 21.363281 29.203125 21.324219 C 29.203125 21.304688 29.136719 21.21875 29.152344 21.210938 C 29.1875 21.195312 29.226562 21.183594 29.265625 21.179688 L 29.328125 21.195312 C 29.28125 21.148438 29.257812 21.082031 29.253906 21.015625 C 29.265625 20.796875 29.585938 20.613281 29.980469 20.613281 Z M 31.605469 18.90625 C 31.605469 18.832031 31.703125 18.816406 31.800781 18.832031 C 31.714844 18.785156 31.652344 18.703125 31.703125 18.644531 C 31.785156 18.539062 31.976562 18.757812 31.988281 18.871094 C 31.964844 18.875 31.945312 18.875 31.925781 18.871094 C 31.941406 18.882812 31.960938 18.894531 31.976562 18.910156 C 31.878906 19.027344 31.605469 19.042969 31.605469 18.910156 Z M 32.355469 19.332031 C 32.265625 19.40625 32.15625 19.445312 32.039062 19.449219 C 31.894531 19.445312 31.757812 19.386719 31.660156 19.285156 C 31.558594 19.183594 31.503906 19.042969 31.507812 18.902344 C 31.503906 18.726562 31.585938 18.566406 31.722656 18.460938 L 31.753906 18.511719 C 31.636719 18.605469 31.566406 18.75 31.566406 18.902344 C 31.5625 19.164062 31.773438 19.382812 32.039062 19.386719 C 32.140625 19.386719 32.242188 19.351562 32.324219 19.289062 Z M 32.226562 19.320312 C 32.15625 19.363281 32.089844 19.269531 32.058594 19.167969 C 32.042969 19.273438 31.988281 19.363281 31.910156 19.335938 C 31.832031 19.308594 31.851562 19.234375 31.886719 19.15625 C 31.816406 19.210938 31.734375 19.234375 31.695312 19.171875 C 31.625 19.058594 31.886719 18.941406 32.003906 18.972656 C 32.003906 18.984375 32 19 31.996094 19.011719 C 32.007812 19 32.019531 18.992188 32.03125 18.988281 L 32.042969 19.011719 L 32.042969 19.003906 C 32.1875 19.03125 32.34375 19.257812 32.226562 19.324219 Z M 35.707031 22.214844 C 35.738281 22.488281 35.132812 22.972656 34.890625 22.953125 C 34.886719 22.835938 34.917969 22.722656 34.976562 22.625 L 35.035156 22.679688 C 35.050781 22.699219 35.082031 22.699219 35.097656 22.679688 C 35.117188 22.664062 35.117188 22.632812 35.101562 22.617188 L 35.027344 22.539062 C 35.054688 22.496094 35.085938 22.453125 35.113281 22.410156 L 35.238281 22.539062 C 35.246094 22.546875 35.257812 22.554688 35.269531 22.554688 C 35.28125 22.554688 35.292969 22.546875 35.304688 22.539062 C 35.3125 22.53125 35.316406 22.519531 35.316406 22.507812 C 35.316406 22.496094 35.3125 22.484375 35.304688 22.476562 L 35.171875 22.339844 C 35.207031 22.296875 35.246094 22.253906 35.289062 22.214844 L 35.382812 22.316406 C 35.390625 22.324219 35.402344 22.328125 35.417969 22.328125 C 35.429688 22.328125 35.441406 22.324219 35.449219 22.316406 C 35.46875 22.296875 35.46875 22.265625 35.449219 22.25 L 35.359375 22.15625 C 35.414062 22.113281 35.480469 22.085938 35.550781 22.078125 L 35.578125 21.832031 L 35.636719 21.832031 L 35.648438 22.007812 L 35.84375 21.804688 L 35.894531 21.859375 L 35.726562 22.054688 L 36.03125 21.996094 L 36.03125 22.078125 Z M 17 21.933594 C 17 21.933594 17.433594 21.3125 17.820312 21.808594 C 17.589844 21.839844 17.347656 21.953125 17.398438 22.207031 C 17.476562 22.019531 17.675781 21.917969 17.875 21.957031 C 18.011719 21.984375 17.972656 21.773438 17.972656 21.773438 C 17.972656 21.773438 18.050781 21.667969 18.113281 21.773438 C 18.175781 21.878906 18.199219 21.859375 18.226562 21.890625 C 18.242188 21.902344 18.25 21.917969 18.25 21.9375 C 18.25 21.957031 18.242188 21.976562 18.226562 21.988281 C 18.199219 22.019531 18.027344 21.976562 18.015625 22.039062 C 17.984375 22.152344 17.929688 22.253906 17.855469 22.34375 L 17.078125 22.34375 C 17.078125 22.34375 16.898438 22.140625 16.816406 22.042969 C 16.796875 22.019531 16.710938 21.824219 16.914062 21.839844 Z M 13.785156 23.542969 L 38.878906 23.542969 C 38.632812 23.039062 38.308594 22.582031 37.917969 22.183594 C 35.46875 18.828125 30.304688 16.78125 26.363281 16.769531 C 24.296875 16.742188 22.25 17.171875 20.367188 18.035156 C 19.816406 18.28125 19.28125 18.554688 18.757812 18.855469 C 18.597656 18.9375 16.746094 20.125 16.570312 20.304688 C 15.710938 21.066406 14.925781 21.90625 14.222656 22.8125 C 14.03125 23.027344 13.882812 23.277344 13.785156 23.546875 Z M 13.785156 23.542969 "/>
<path style=" stroke:none;fill-rule:evenodd;fill:rgb(92.941176%,12.941176%,14.117647%);fill-opacity:1;" d="M 34.382812 54.234375 C 34.457031 54.839844 34.460938 55.449219 34.398438 56.054688 C 34.324219 56.839844 33.96875 57.570312 33.398438 58.109375 C 32.816406 58.636719 32.105469 59 31.339844 59.160156 C 29.234375 59.597656 27.089844 59.84375 24.9375 59.890625 C 24.769531 59.898438 24.601562 59.925781 24.460938 59.921875 C 24.222656 59.914062 24.199219 59.890625 24.164062 59.726562 C 24.34375 59.625 25.671875 59.339844 25.996094 59.257812 C 26.59375 59.101562 27.289062 58.949219 27.910156 58.789062 C 28.554688 58.625 29.15625 58.5 29.773438 58.34375 C 30.074219 58.304688 30.359375 58.1875 30.601562 58 C 31.132812 57.503906 31.175781 56.097656 29.421875 56.355469 C 28.746094 56.453125 28.042969 56.542969 27.375 56.664062 C 26.6875 56.792969 25.984375 56.894531 25.308594 56.984375 C 24.777344 57.054688 23.5 57.382812 23.296875 57.140625 C 23.347656 56.921875 23.757812 56.878906 24.117188 56.792969 C 26.085938 56.320312 28.03125 55.746094 29.945312 55.074219 C 30.167969 54.902344 30.304688 54.636719 30.316406 54.355469 C 30.324219 54.070312 30.210938 53.796875 30.003906 53.605469 C 29.519531 53.113281 28 53.605469 26.953125 53.765625 C 25.601562 54.074219 24.226562 54.253906 22.84375 54.296875 C 22.890625 53.984375 23.5 53.914062 23.796875 53.820312 C 24.179688 53.699219 24.492188 53.601562 24.875 53.476562 C 26.359375 52.988281 27.867188 52.578125 29.394531 52.25 C 30.890625 51.945312 31.457031 52.679688 31.765625 54.046875 C 31.851562 54.414062 31.871094 54.964844 31.972656 55.273438 C 32.214844 56.015625 33.5625 55.953125 33.359375 54.675781 C 33.125 53.1875 32.40625 51.515625 31.101562 51.125 C 30.296875 50.976562 29.464844 51.054688 28.703125 51.355469 C 27.890625 51.5625 27.210938 51.746094 26.433594 51.972656 C 25.65625 52.195312 24.984375 52.414062 24.246094 52.636719 C 23.550781 52.84375 22.71875 53.085938 22.070312 53.355469 C 21.726562 53.496094 21.476562 53.800781 21.402344 54.164062 C 21.324219 54.527344 21.433594 54.902344 21.691406 55.171875 C 22.359375 55.746094 23.222656 55.449219 24.050781 55.304688 L 27.734375 54.65625 C 28.128906 54.574219 28.527344 54.511719 28.925781 54.46875 L 25.121094 55.464844 C 24.171875 55.65625 23.246094 55.949219 22.363281 56.347656 C 21.472656 57.039062 21.867188 58.296875 23.148438 58.3125 C 23.953125 58.324219 28.8125 57.253906 29.59375 57.378906 C 29.53125 57.363281 24.523438 58.5625 23.839844 58.726562 C 22.148438 59.125 22.707031 60.425781 23.109375 60.710938 C 23.777344 61.175781 25.429688 60.941406 26.367188 60.910156 C 28.484375 60.917969 30.59375 60.617188 32.625 60.023438 C 32.9375 59.917969 33.234375 59.773438 33.511719 59.589844 C 33.710938 59.5 33.894531 59.386719 34.0625 59.246094 L 34.308594 59.015625 C 35.136719 58.214844 35.65625 57.148438 35.78125 56.003906 C 37.800781 55.296875 39.722656 54.332031 41.492188 53.128906 C 43.175781 51.976562 44.726562 50.644531 46.113281 49.152344 C 46.214844 49.042969 46.25 48.964844 46.34375 48.855469 C 46.941406 48.195312 47.496094 47.5 48.003906 46.769531 C 48.605469 45.917969 49.164062 45.035156 49.675781 44.125 C 50.207031 43.179688 50.667969 42.195312 51.054688 41.179688 C 51.496094 40.117188 51.835938 39.015625 52.074219 37.890625 L 50.800781 37.882812 C 50.125 40.375 49.027344 42.734375 47.554688 44.855469 C 47.273438 45.265625 46.941406 45.617188 46.660156 46.015625 C 46.515625 46.207031 46.363281 46.390625 46.199219 46.5625 C 46.097656 46.675781 46.074219 46.734375 45.957031 46.847656 C 45.867188 46.933594 45.78125 47.023438 45.707031 47.125 C 45.386719 47.488281 45.042969 47.832031 44.683594 48.160156 C 44.5 48.347656 43.863281 48.980469 43.652344 49.132812 C 43.460938 49.269531 43.324219 49.417969 43.109375 49.59375 C 40.957031 51.355469 38.53125 52.761719 35.933594 53.753906 C 35.433594 53.941406 34.828125 54.054688 34.371094 54.242188 "/>
<path style=" stroke:none;fill-rule:evenodd;fill:rgb(94.901961%,40.392157%,12.941176%);fill-opacity:1;" d="M 8.964844 50.425781 C 9.285156 50.617188 9.585938 50.828125 9.871094 51.0625 C 10.164062 51.277344 10.484375 51.472656 10.789062 51.679688 C 11.742188 52.304688 12.742188 52.855469 13.777344 53.332031 C 14.132812 53.539062 14.53125 53.664062 14.945312 53.6875 C 15.878906 53.839844 16.816406 53.929688 17.761719 53.957031 C 17.878906 53.605469 17.648438 53.632812 17.324219 53.523438 C 16.742188 53.324219 15.648438 52.929688 15.148438 52.695312 C 13.34375 51.902344 11.628906 50.90625 10.046875 49.726562 C 8.902344 48.863281 7.828125 47.90625 6.839844 46.871094 C 5.179688 45.082031 3.820312 43.042969 2.8125 40.820312 C 2.601562 40.351562 2.417969 39.882812 2.230469 39.402344 C 2.117188 39.109375 1.8125 38.070312 1.695312 37.890625 L 0.175781 37.882812 C 0.503906 39.511719 1.015625 41.101562 1.707031 42.613281 C 4.25 48.222656 8.691406 52.746094 14.25 55.386719 C 15.375 55.671875 16.523438 55.851562 17.679688 55.921875 C 18.171875 55.988281 18.109375 55.71875 18.03125 55.617188 C 17.664062 55.433594 17.28125 55.285156 16.882812 55.179688 C 14.683594 54.363281 12.605469 53.246094 10.710938 51.859375 C 10.085938 51.433594 9.5 50.957031 8.964844 50.425781 "/>
<path style=" stroke:none;fill-rule:evenodd;fill:rgb(92.941176%,12.941176%,14.117647%);fill-opacity:1;" d="M 44.375 12.007812 C 42.867188 10.714844 41.222656 9.589844 39.46875 8.65625 C 39.101562 8.414062 38.683594 8.253906 38.246094 8.1875 C 37.285156 7.980469 36.3125 7.851562 35.332031 7.804688 C 35.226562 8.15625 35.394531 8.109375 35.726562 8.234375 C 36.300781 8.457031 37.316406 8.871094 37.800781 9.113281 C 39.839844 10.09375 41.742188 11.332031 43.464844 12.792969 L 44.785156 14.003906 C 45.128906 14.347656 45.371094 14.65625 45.730469 15.007812 C 46.042969 15.316406 46.316406 15.710938 46.621094 16.066406 C 48.445312 18.410156 49.800781 21.085938 50.609375 23.945312 L 52.183594 23.945312 C 51.386719 20.007812 49.640625 16.328125 47.097656 13.222656 C 46.394531 12.347656 45.636719 11.523438 44.828125 10.746094 C 44.015625 9.96875 43.152344 9.246094 42.246094 8.582031 C 41.015625 7.640625 39.664062 6.867188 38.226562 6.28125 C 37.316406 6.136719 36.390625 5.976562 35.484375 5.851562 C 35.125 5.800781 34.917969 5.949219 35.199219 6.1875 C 35.382812 6.273438 35.574219 6.351562 35.765625 6.417969 C 36.148438 6.570312 36.515625 6.722656 36.882812 6.875 C 39.15625 7.894531 41.269531 9.242188 43.152344 10.875 C 43.3125 11.007812 43.421875 11.125 43.570312 11.25 C 43.871094 11.5 44.105469 11.75 44.375 12.007812 "/>
<path style=" stroke:none;fill-rule:evenodd;fill:rgb(100%,100%,100%);fill-opacity:1;" d="M 17.410156 21.546875 C 17.476562 21.300781 17.3125 21.425781 17.394531 21.214844 C 17.238281 21.382812 17.410156 21.378906 17.410156 21.546875 M 17.515625 21.507812 C 17.679688 21.238281 17.425781 21.332031 17.558594 21.0625 C 17.296875 21.238281 17.546875 21.3125 17.515625 21.507812 Z M 21.445312 19.328125 C 21.445312 19.328125 21.816406 18.9375 22.117188 18.933594 L 22.460938 19.394531 C 22.460938 19.394531 21.949219 19.578125 21.808594 19.847656 C 21.746094 19.78125 21.445312 19.328125 21.445312 19.328125 Z M 21.347656 19.328125 C 21.347656 19.328125 21.125 19.453125 21.140625 19.222656 C 21.152344 19.0625 21.296875 19.054688 21.402344 19.015625 C 21.34375 18.925781 21.078125 18.765625 21.378906 18.515625 C 21.527344 18.390625 21.574219 18.394531 21.667969 18.429688 C 21.792969 18.464844 21.882812 18.578125 21.882812 18.710938 L 21.960938 18.710938 C 22 18.574219 22.054688 18.410156 22.238281 18.496094 C 22.292969 18.515625 22.335938 18.558594 22.355469 18.609375 C 22.375 18.664062 22.371094 18.722656 22.34375 18.773438 C 22.300781 18.832031 22.234375 18.863281 22.160156 18.863281 C 21.816406 18.910156 21.703125 18.996094 21.347656 19.324219 Z M 22.496094 19.464844 C 22.25 19.535156 22.03125 19.683594 21.871094 19.886719 C 22.117188 19.808594 22.332031 19.664062 22.496094 19.464844 Z M 21.921875 19.585938 C 21.921875 19.585938 21.621094 19.234375 21.699219 19.199219 C 21.777344 19.167969 21.992188 19.492188 22 19.527344 C 21.910156 19.445312 21.828125 19.359375 21.75 19.269531 Z M 22.0625 19.484375 C 22.0625 19.484375 21.761719 19.132812 21.839844 19.097656 C 21.917969 19.066406 22.132812 19.390625 22.140625 19.425781 C 22.050781 19.347656 21.964844 19.261719 21.886719 19.167969 Z M 22.238281 19.40625 C 22.238281 19.40625 21.9375 19.050781 22.019531 19.019531 C 22.097656 18.984375 22.3125 19.308594 22.320312 19.34375 C 22.230469 19.265625 22.144531 19.179688 22.066406 19.085938 Z M 21.765625 19.699219 C 21.765625 19.699219 21.464844 19.347656 21.542969 19.3125 C 21.621094 19.277344 21.835938 19.605469 21.84375 19.640625 C 21.753906 19.558594 21.667969 19.472656 21.589844 19.382812 Z M 21.277344 18.976562 C 20.847656 18.621094 21.765625 18.019531 21.9375 18.582031 C 22.242188 18.078125 22.742188 18.863281 22.195312 18.925781 C 22.292969 19.0625 22.4375 19.265625 22.566406 19.457031 C 22.414062 19.859375 21.800781 19.957031 21.800781 19.957031 L 21.382812 19.371094 C 21.171875 19.578125 20.832031 19.109375 21.273438 18.972656 Z M 23.6875 21.789062 C 23.765625 21.597656 23.582031 21.640625 23.671875 21.457031 C 23.496094 21.609375 23.671875 21.648438 23.6875 21.785156 Z M 23.792969 21.746094 C 23.933594 21.46875 23.695312 21.542969 23.832031 21.304688 C 23.574219 21.476562 23.824219 21.546875 23.792969 21.742188 Z M 23.910156 21.851562 L 23.992188 21.859375 C 24.0625 21.765625 24.140625 21.679688 24.222656 21.601562 C 24.195312 21.695312 24.183594 21.796875 24.183594 21.894531 L 24.351562 22.117188 C 24.25 22.089844 24.144531 22.035156 24.042969 22.003906 C 24.03125 22.019531 24.015625 22.035156 24.003906 22.054688 Z M 23.621094 21.832031 C 23.695312 21.832031 23.777344 21.832031 23.84375 21.84375 L 23.960938 22.101562 C 23.914062 22.15625 23.863281 22.207031 23.808594 22.253906 Z M 23.296875 21.722656 C 23.359375 21.757812 23.472656 21.820312 23.503906 21.839844 L 23.5625 21.832031 L 23.769531 22.292969 C 23.71875 22.335938 23.664062 22.378906 23.605469 22.414062 Z M 23.132812 22.191406 C 23.164062 22.191406 23.191406 22.21875 23.191406 22.25 C 23.191406 22.28125 23.164062 22.304688 23.132812 22.304688 C 23.101562 22.304688 23.078125 22.28125 23.078125 22.25 C 23.078125 22.21875 23.101562 22.191406 23.132812 22.191406 Z M 22.941406 22.402344 C 22.960938 22.230469 23.046875 22.070312 23.175781 21.949219 C 23.191406 21.875 23.214844 21.804688 23.238281 21.730469 L 23.558594 22.445312 L 23.582031 22.597656 L 23.433594 22.5 C 23.433594 22.5 23.027344 22.503906 22.9375 22.402344 Z M 27.03125 18.527344 L 27.03125 18.628906 C 27.054688 18.683594 27.117188 18.714844 27.175781 18.703125 C 27.234375 18.691406 27.273438 18.640625 27.273438 18.578125 C 27.273438 18.519531 27.234375 18.46875 27.175781 18.457031 C 27.117188 18.445312 27.054688 18.472656 27.03125 18.527344 Z M 26.148438 19.070312 L 27.148438 19.070312 L 27.046875 19.226562 L 26.269531 19.226562 Z M 26.609375 18.242188 C 26.6875 18.054688 26.5 18.09375 26.589844 17.910156 C 26.417969 18.0625 26.597656 18.097656 26.613281 18.238281 Z M 26.714844 18.199219 C 26.855469 17.921875 26.613281 18 26.753906 17.757812 C 26.5 17.925781 26.746094 18.003906 26.714844 18.199219 Z M 27.148438 18.371094 C 27.261719 18.371094 27.355469 18.464844 27.355469 18.578125 C 27.355469 18.695312 27.261719 18.785156 27.148438 18.785156 C 27.109375 18.785156 27.066406 18.773438 27.035156 18.75 L 27.035156 18.8125 C 27.03125 18.90625 26.957031 18.980469 26.863281 18.980469 L 26.414062 18.980469 C 26.320312 18.980469 26.246094 18.90625 26.246094 18.8125 L 26.246094 18.300781 L 27.035156 18.300781 L 27.035156 18.40625 C 27.066406 18.382812 27.109375 18.371094 27.152344 18.371094 Z M 29.976562 20.664062 C 30.328125 20.664062 30.613281 20.824219 30.613281 21.015625 C 30.613281 21.210938 30.328125 21.371094 29.976562 21.371094 C 29.625 21.371094 29.339844 21.210938 29.339844 21.015625 C 29.339844 20.820312 29.628906 20.660156 29.980469 20.660156 Z M 29.347656 21.261719 L 29.261719 21.253906 L 29.273438 21.328125 L 29.25 21.410156 C 29.25 21.410156 29.339844 21.417969 29.347656 21.4375 C 29.355469 21.457031 29.371094 21.527344 29.371094 21.527344 C 29.371094 21.527344 29.707031 21.671875 29.742188 21.671875 C 29.8125 21.644531 29.875 21.605469 29.9375 21.558594 C 30 21.597656 30.0625 21.628906 30.128906 21.660156 C 30.195312 21.679688 30.269531 21.679688 30.339844 21.660156 L 30.527344 21.535156 L 30.503906 21.433594 L 30.621094 21.339844 L 30.621094 21.28125 L 30.699219 21.308594 L 30.753906 21.199219 L 30.683594 21.144531 C 30.5625 21.265625 30.40625 21.347656 30.238281 21.382812 C 30.042969 21.433594 29.839844 21.4375 29.644531 21.390625 C 29.558594 21.355469 29.347656 21.257812 29.347656 21.257812 Z M 29.414062 21.605469 C 29.414062 21.605469 29.863281 21.742188 29.886719 21.742188 C 29.90625 21.742188 30.292969 21.714844 30.324219 21.707031 C 30.355469 21.699219 30.585938 21.597656 30.585938 21.597656 L 30.398438 21.75 L 30.023438 21.796875 L 29.734375 21.765625 L 29.539062 21.679688 Z M 29.355469 21.722656 C 29.542969 21.871094 29.769531 21.960938 30.007812 21.976562 C 30.132812 21.980469 30.257812 21.949219 30.371094 21.890625 C 30.429688 21.84375 30.570312 21.75 30.570312 21.75 C 30.050781 21.996094 29.890625 21.898438 29.359375 21.722656 Z M 29.980469 21.0625 C 29.988281 21.0625 30 21.0625 30.003906 21.070312 C 30.011719 21.078125 30.019531 21.085938 30.019531 21.09375 C 30.019531 21.105469 30.011719 21.113281 30.003906 21.121094 C 29.996094 21.125 29.988281 21.128906 29.980469 21.128906 C 29.960938 21.125 29.949219 21.113281 29.945312 21.097656 C 29.949219 21.078125 29.960938 21.0625 29.980469 21.0625 Z M 30.09375 20.921875 C 30.105469 20.921875 30.117188 20.925781 30.125 20.9375 C 30.132812 20.945312 30.136719 20.957031 30.136719 20.96875 C 30.136719 20.996094 30.117188 21.019531 30.09375 21.019531 C 30.066406 21.019531 30.050781 20.996094 30.050781 20.96875 C 30.050781 20.957031 30.054688 20.945312 30.0625 20.9375 C 30.070312 20.925781 30.082031 20.921875 30.097656 20.921875 Z M 30.164062 20.777344 C 30.179688 20.777344 30.191406 20.78125 30.203125 20.789062 C 30.210938 20.800781 30.21875 20.8125 30.21875 20.824219 C 30.21875 20.851562 30.195312 20.875 30.164062 20.875 C 30.136719 20.875 30.113281 20.851562 30.113281 20.824219 C 30.113281 20.8125 30.121094 20.800781 30.132812 20.789062 C 30.140625 20.78125 30.15625 20.777344 30.167969 20.777344 Z M 30.003906 20.738281 C 30.035156 20.734375 30.066406 20.757812 30.070312 20.792969 C 30.066406 20.824219 30.035156 20.847656 30.003906 20.84375 C 29.96875 20.847656 29.941406 20.824219 29.933594 20.792969 C 29.9375 20.765625 29.96875 20.742188 30.003906 20.742188 Z M 29.878906 20.824219 C 29.902344 20.824219 29.921875 20.84375 29.921875 20.871094 C 29.921875 20.894531 29.902344 20.917969 29.878906 20.917969 C 29.851562 20.917969 29.832031 20.894531 29.832031 20.871094 C 29.832031 20.84375 29.851562 20.824219 29.878906 20.824219 Z M 29.78125 20.96875 C 29.792969 20.972656 29.800781 20.980469 29.800781 20.996094 C 29.800781 21.007812 29.789062 21.015625 29.777344 21.015625 C 29.765625 21.015625 29.753906 21.003906 29.753906 20.992188 C 29.753906 20.984375 29.757812 20.980469 29.765625 20.976562 C 29.769531 20.972656 29.777344 20.96875 29.78125 20.972656 Z M 29.648438 20.902344 C 29.65625 20.90625 29.667969 20.910156 29.675781 20.917969 C 29.683594 20.925781 29.6875 20.9375 29.6875 20.949219 C 29.6875 20.96875 29.667969 20.988281 29.648438 20.988281 C 29.625 20.988281 29.609375 20.96875 29.609375 20.949219 C 29.605469 20.9375 29.613281 20.925781 29.621094 20.917969 C 29.628906 20.910156 29.636719 20.90625 29.648438 20.90625 Z M 29.6875 20.816406 C 29.714844 20.816406 29.734375 20.832031 29.734375 20.851562 C 29.734375 20.867188 29.714844 20.882812 29.6875 20.882812 C 29.664062 20.882812 29.640625 20.867188 29.640625 20.851562 C 29.640625 20.832031 29.664062 20.820312 29.691406 20.820312 Z M 29.507812 20.898438 C 29.519531 20.898438 29.53125 20.902344 29.539062 20.910156 C 29.546875 20.921875 29.550781 20.933594 29.550781 20.941406 C 29.554688 20.960938 29.546875 20.976562 29.53125 20.984375 C 29.519531 20.992188 29.5 20.992188 29.488281 20.984375 C 29.472656 20.976562 29.464844 20.960938 29.46875 20.941406 C 29.46875 20.917969 29.488281 20.898438 29.511719 20.898438 Z M 30.261719 20.964844 C 30.28125 20.964844 30.300781 20.980469 30.300781 21.003906 C 30.300781 21.023438 30.28125 21.039062 30.261719 21.039062 C 30.238281 21.039062 30.222656 21.023438 30.222656 21.003906 C 30.222656 20.980469 30.238281 20.964844 30.261719 20.964844 Z M 29.980469 20.613281 C 30.375 20.613281 30.699219 20.792969 30.699219 21.011719 C 30.699219 21.023438 30.699219 21.039062 30.699219 21.054688 C 30.746094 21.074219 30.839844 21.125 30.839844 21.207031 C 30.839844 21.320312 30.828125 21.402344 30.808594 21.40625 C 30.769531 21.398438 30.730469 21.382812 30.695312 21.367188 C 30.6875 21.398438 30.683594 21.433594 30.683594 21.46875 L 30.683594 21.730469 C 30.511719 22.121094 29.667969 22.191406 29.304688 21.777344 C 29.289062 21.6875 29.285156 21.59375 29.289062 21.5 C 29.289062 21.5 29.136719 21.5 29.148438 21.445312 C 29.164062 21.40625 29.183594 21.363281 29.203125 21.324219 C 29.203125 21.304688 29.136719 21.21875 29.152344 21.210938 C 29.1875 21.195312 29.226562 21.183594 29.265625 21.179688 L 29.328125 21.195312 C 29.28125 21.148438 29.257812 21.082031 29.253906 21.015625 C 29.265625 20.796875 29.585938 20.613281 29.980469 20.613281 Z M 31.605469 18.90625 C 31.605469 18.832031 31.703125 18.816406 31.800781 18.832031 C 31.714844 18.785156 31.652344 18.703125 31.703125 18.644531 C 31.785156 18.539062 31.976562 18.757812 31.988281 18.871094 C 31.964844 18.875 31.945312 18.875 31.925781 18.871094 C 31.941406 18.882812 31.960938 18.894531 31.976562 18.910156 C 31.878906 19.027344 31.605469 19.042969 31.605469 18.910156 Z M 32.355469 19.332031 C 32.265625 19.40625 32.15625 19.445312 32.039062 19.449219 C 31.894531 19.445312 31.757812 19.386719 31.660156 19.285156 C 31.558594 19.183594 31.503906 19.042969 31.507812 18.902344 C 31.503906 18.726562 31.585938 18.566406 31.722656 18.460938 L 31.753906 18.511719 C 31.636719 18.605469 31.566406 18.75 31.566406 18.902344 C 31.5625 19.164062 31.773438 19.382812 32.039062 19.386719 C 32.140625 19.386719 32.242188 19.351562 32.324219 19.289062 Z M 32.226562 19.320312 C 32.15625 19.363281 32.089844 19.269531 32.058594 19.167969 C 32.042969 19.273438 31.988281 19.363281 31.910156 19.335938 C 31.832031 19.308594 31.851562 19.234375 31.886719 19.15625 C 31.816406 19.210938 31.734375 19.234375 31.695312 19.171875 C 31.625 19.058594 31.886719 18.941406 32.003906 18.972656 C 32.003906 18.984375 32 19 31.996094 19.011719 C 32.007812 19 32.019531 18.992188 32.03125 18.988281 L 32.042969 19.011719 L 32.042969 19.003906 C 32.1875 19.03125 32.34375 19.257812 32.226562 19.324219 Z M 35.707031 22.214844 C 35.738281 22.488281 35.132812 22.972656 34.890625 22.953125 C 34.886719 22.835938 34.917969 22.722656 34.976562 22.625 L 35.035156 22.679688 C 35.050781 22.699219 35.082031 22.699219 35.097656 22.679688 C 35.117188 22.664062 35.117188 22.632812 35.101562 22.617188 L 35.027344 22.539062 C 35.054688 22.496094 35.085938 22.453125 35.113281 22.410156 L 35.238281 22.539062 C 35.246094 22.546875 35.257812 22.554688 35.269531 22.554688 C 35.28125 22.554688 35.292969 22.546875 35.304688 22.539062 C 35.3125 22.53125 35.316406 22.519531 35.316406 22.507812 C 35.316406 22.496094 35.3125 22.484375 35.304688 22.476562 L 35.171875 22.339844 C 35.207031 22.296875 35.246094 22.253906 35.289062 22.214844 L 35.382812 22.316406 C 35.390625 22.324219 35.402344 22.328125 35.417969 22.328125 C 35.429688 22.328125 35.441406 22.324219 35.449219 22.316406 C 35.46875 22.296875 35.46875 22.265625 35.449219 22.25 L 35.359375 22.15625 C 35.414062 22.113281 35.480469 22.085938 35.550781 22.078125 L 35.578125 21.832031 L 35.636719 21.832031 L 35.648438 22.007812 L 35.84375 21.804688 L 35.894531 21.859375 L 35.726562 22.054688 L 36.03125 21.996094 L 36.03125 22.078125 Z M 17 21.933594 C 17 21.933594 17.433594 21.3125 17.820312 21.808594 C 17.589844 21.839844 17.347656 21.953125 17.398438 22.207031 C 17.476562 22.019531 17.675781 21.917969 17.875 21.957031 C 18.011719 21.984375 17.972656 21.773438 17.972656 21.773438 C 17.972656 21.773438 18.050781 21.667969 18.113281 21.773438 C 18.175781 21.878906 18.199219 21.859375 18.226562 21.890625 C 18.242188 21.902344 18.25 21.917969 18.25 21.9375 C 18.25 21.957031 18.242188 21.976562 18.226562 21.988281 C 18.199219 22.019531 18.027344 21.976562 18.015625 22.039062 C 17.984375 22.152344 17.929688 22.253906 17.855469 22.34375 L 17.078125 22.34375 C 17.078125 22.34375 16.898438 22.140625 16.816406 22.042969 C 16.796875 22.019531 16.710938 21.824219 16.914062 21.839844 Z M 17 21.933594 "/>
<path style=" stroke:none;fill-rule:evenodd;fill:rgb(94.901961%,40.392157%,12.941176%);fill-opacity:1;" d="M 35.613281 29.792969 C 35.582031 30.511719 35.902344 31.199219 36.464844 31.640625 C 36.773438 31.878906 37.15625 32.003906 37.546875 31.992188 C 38.335938 32.019531 39.054688 31.550781 39.355469 30.820312 C 39.5 30.511719 39.570312 30.171875 39.566406 29.828125 L 39.566406 29.699219 C 39.59375 28.984375 39.257812 28.300781 38.667969 27.890625 C 37.875 27.363281 36.816406 27.5 36.1875 28.214844 C 35.804688 28.648438 35.601562 29.210938 35.613281 29.792969 M 9.386719 29.835938 C 9.347656 30.59375 9.707031 31.3125 10.335938 31.738281 C 10.640625 31.941406 11 32.042969 11.367188 32.039062 C 11.902344 32.042969 12.40625 31.808594 12.746094 31.398438 C 13.128906 30.988281 13.347656 30.453125 13.359375 29.890625 L 13.359375 29.746094 C 13.367188 29.03125 13.023438 28.359375 12.441406 27.953125 C 12.140625 27.730469 11.777344 27.613281 11.40625 27.617188 C 10.777344 27.597656 10.183594 27.90625 9.832031 28.429688 C 9.539062 28.839844 9.382812 29.332031 9.386719 29.835938 Z M 43.921875 27.894531 C 43.820312 27.621094 43.550781 27.445312 43.257812 27.457031 C 42.875 27.457031 42.683594 27.71875 42.585938 28.058594 L 42.585938 28.21875 C 42.585938 28.714844 43.152344 28.929688 43.542969 29.042969 C 44.078125 29.164062 44.554688 29.46875 44.886719 29.90625 C 45.082031 30.253906 45.171875 30.648438 45.15625 31.042969 C 45.167969 31.710938 44.808594 32.328125 44.226562 32.648438 C 43.902344 32.824219 43.539062 32.914062 43.171875 32.902344 C 42.699219 32.9375 42.230469 32.777344 41.875 32.460938 C 41.523438 32.144531 41.3125 31.695312 41.292969 31.21875 L 41.253906 30.734375 L 41.398438 30.585938 L 42.121094 30.585938 C 42.253906 30.585938 42.292969 30.71875 42.316406 30.816406 C 42.339844 30.933594 42.359375 31.054688 42.371094 31.171875 C 42.445312 31.578125 42.792969 31.871094 43.203125 31.875 C 43.59375 31.890625 43.9375 31.625 44.019531 31.246094 L 44.035156 31.105469 L 44.035156 30.988281 C 44.035156 30.472656 43.578125 30.21875 43.140625 30.070312 C 42.574219 29.933594 42.070312 29.609375 41.710938 29.148438 C 41.5625 28.851562 41.488281 28.519531 41.503906 28.1875 C 41.5 27.605469 41.785156 27.066406 42.261719 26.738281 C 42.582031 26.523438 42.960938 26.417969 43.34375 26.433594 L 43.382812 26.433594 C 44.199219 26.394531 44.917969 26.976562 45.046875 27.785156 L 45.046875 27.796875 L 45.066406 28.109375 L 45.066406 28.207031 L 44.929688 28.347656 L 44.167969 28.347656 C 43.96875 28.347656 43.9375 28.050781 43.921875 27.894531 Z M 37.632812 26.546875 C 38.75 26.535156 39.769531 27.179688 40.246094 28.191406 C 41.027344 29.648438 40.636719 31.457031 39.328125 32.457031 C 38.8125 32.839844 38.183594 33.035156 37.542969 33.019531 C 36.703125 33.042969 35.898438 32.683594 35.359375 32.035156 C 34.820312 31.398438 34.523438 30.589844 34.523438 29.753906 C 34.519531 28.75 34.976562 27.800781 35.765625 27.183594 C 36.292969 26.753906 36.953125 26.527344 37.632812 26.546875 Z M 32.695312 29.734375 L 29.117188 29.734375 L 28.976562 29.59375 L 28.976562 28.871094 L 29.097656 28.75 L 33.734375 28.75 C 33.789062 28.75 33.835938 28.769531 33.871094 28.808594 C 33.90625 28.847656 33.921875 28.898438 33.917969 28.949219 C 33.914062 29.746094 33.667969 30.527344 33.210938 31.183594 C 32.496094 32.285156 31.257812 32.9375 29.945312 32.902344 C 28.980469 32.9375 28.042969 32.582031 27.34375 31.914062 C 26.492188 31.105469 26.015625 29.984375 26.023438 28.808594 L 26.023438 28.644531 C 25.988281 27.554688 26.410156 26.5 27.183594 25.730469 C 27.957031 24.964844 29.015625 24.554688 30.105469 24.601562 C 31.527344 24.582031 32.832031 25.382812 33.464844 26.660156 L 33.476562 26.679688 L 33.511719 26.871094 L 33.382812 27.007812 L 32.535156 27.007812 C 32.433594 26.992188 32.34375 26.933594 32.285156 26.847656 C 32.195312 26.75 32.105469 26.640625 32.019531 26.535156 C 31.523438 25.957031 30.792969 25.632812 30.03125 25.660156 C 29.253906 25.640625 28.503906 25.953125 27.972656 26.523438 C 27.398438 27.117188 27.082031 27.910156 27.085938 28.738281 C 27.070312 29.683594 27.476562 30.59375 28.191406 31.214844 C 28.695312 31.652344 29.347656 31.886719 30.015625 31.867188 C 31.273438 31.808594 32.355469 30.949219 32.703125 29.734375 Z M 24.582031 26.78125 L 25.292969 26.78125 L 25.40625 26.902344 L 25.40625 32.78125 L 25.292969 32.902344 L 24.554688 32.902344 L 24.53125 32.894531 C 24.433594 32.855469 24.375 32.753906 24.382812 32.648438 L 24.382812 27.035156 C 24.382812 26.917969 24.441406 26.78125 24.582031 26.78125 Z M 24.582031 24.867188 L 25.292969 24.867188 L 25.40625 24.992188 L 25.40625 26.257812 L 25.292969 26.382812 L 24.554688 26.382812 L 24.53125 26.375 C 24.429688 26.335938 24.371094 26.234375 24.378906 26.125 L 24.378906 25.125 C 24.382812 25.003906 24.441406 24.871094 24.582031 24.871094 Z M 19.464844 27.5625 C 19.972656 26.984375 20.707031 26.65625 21.472656 26.652344 L 21.492188 26.652344 C 22.0625 26.609375 22.625 26.800781 23.050781 27.183594 C 23.476562 27.570312 23.722656 28.113281 23.734375 28.683594 L 23.769531 29.199219 L 23.769531 32.765625 L 23.632812 32.90625 L 22.878906 32.90625 L 22.742188 32.765625 L 22.742188 29.132812 C 22.777344 28.570312 22.476562 28.046875 21.976562 27.792969 C 21.773438 27.726562 21.5625 27.6875 21.351562 27.675781 C 20.972656 27.644531 20.597656 27.769531 20.320312 28.03125 C 20.042969 28.289062 19.886719 28.652344 19.890625 29.03125 L 19.871094 29.335938 L 19.871094 32.761719 L 19.734375 32.90625 L 19.015625 32.90625 L 18.878906 32.761719 L 18.878906 29.082031 C 18.894531 28.570312 18.632812 28.089844 18.191406 27.832031 C 17.953125 27.742188 17.703125 27.691406 17.449219 27.679688 C 16.753906 27.664062 16.160156 28.175781 16.070312 28.867188 C 16.019531 29.085938 15.996094 29.3125 16.003906 29.539062 L 16.003906 32.785156 L 15.890625 32.910156 L 15.152344 32.910156 L 15.128906 32.898438 C 15.03125 32.859375 14.96875 32.757812 14.980469 32.652344 L 14.980469 27.074219 C 14.980469 26.957031 15.039062 26.816406 15.179688 26.816406 L 15.890625 26.816406 L 16.003906 26.941406 L 16.003906 27.230469 C 16.449219 26.855469 17.007812 26.652344 17.589844 26.65625 C 18.28125 26.679688 18.933594 26.976562 19.40625 27.480469 L 19.417969 27.492188 Z M 13.359375 27.394531 L 13.359375 27.347656 L 13.339844 26.972656 L 13.347656 26.945312 C 13.382812 26.859375 13.4375 26.777344 13.539062 26.777344 L 14.25 26.777344 L 14.363281 26.898438 L 14.363281 32.773438 L 14.25 32.898438 L 13.476562 32.898438 L 13.335938 32.753906 L 13.359375 32.328125 L 13.359375 32.265625 C 12.804688 32.796875 12.066406 33.082031 11.300781 33.0625 C 10.429688 33.09375 9.597656 32.699219 9.070312 32.003906 C 8.585938 31.398438 8.316406 30.648438 8.304688 29.875 C 8.277344 28.804688 8.769531 27.789062 9.621094 27.152344 C 10.136719 26.773438 10.765625 26.574219 11.40625 26.59375 L 11.425781 26.59375 C 12.148438 26.605469 12.839844 26.890625 13.359375 27.394531 Z M 13.359375 27.394531 "/>
<path style=" stroke:none;fill-rule:nonzero;fill:rgb(100%,40%,0%);fill-opacity:1;" d="M 16.710938 33.957031 L 16.941406 33.957031 L 16.953125 33.96875 L 16.953125 35.53125 L 16.964844 35.542969 C 17.371094 35 17.605469 34.691406 17.664062 34.621094 L 17.929688 34.621094 L 17.941406 34.636719 L 17.941406 34.644531 L 17.253906 35.566406 C 17.273438 35.617188 17.304688 35.660156 17.34375 35.699219 L 18.089844 36.648438 L 18.089844 36.65625 L 18.078125 36.667969 L 17.800781 36.667969 C 17.777344 36.667969 17.714844 36.597656 17.613281 36.453125 L 16.960938 35.636719 L 16.945312 35.648438 L 16.945312 36.65625 L 16.933594 36.667969 L 16.707031 36.667969 C 16.691406 36.667969 16.6875 36.652344 16.6875 36.628906 L 16.6875 34 C 16.695312 33.976562 16.699219 33.957031 16.710938 33.957031 Z M 16.710938 33.957031 "/>
<path style=" stroke:none;fill-rule:nonzero;fill:rgb(100%,40%,0%);fill-opacity:1;" d="M 19.730469 33.957031 L 19.960938 33.957031 L 19.972656 33.96875 L 19.972656 34.371094 L 19.960938 34.382812 L 19.730469 34.382812 C 19.71875 34.382812 19.710938 34.367188 19.710938 34.34375 L 19.710938 34 C 19.714844 33.976562 19.722656 33.957031 19.730469 33.957031 Z M 19.730469 34.625 L 19.960938 34.625 L 19.972656 34.636719 L 19.972656 36.652344 L 19.960938 36.664062 L 19.730469 36.664062 C 19.71875 36.664062 19.710938 36.648438 19.710938 36.625 L 19.710938 34.667969 C 19.714844 34.644531 19.722656 34.632812 19.730469 34.632812 Z M 19.730469 34.625 "/>
<path style=" stroke:none;fill-rule:nonzero;fill:rgb(100%,40%,0%);fill-opacity:1;" d="M 21.972656 33.957031 L 22.203125 33.957031 L 22.214844 33.96875 L 22.214844 34.617188 L 22.246094 34.625 L 22.574219 34.625 L 22.585938 34.636719 L 22.585938 34.878906 L 22.570312 34.898438 L 22.226562 34.898438 L 22.214844 34.910156 L 22.214844 36.644531 L 22.195312 36.664062 L 21.972656 36.664062 L 21.957031 36.644531 L 21.957031 34.917969 L 21.945312 34.90625 L 21.601562 34.90625 L 21.589844 34.890625 L 21.589844 34.644531 L 21.601562 34.632812 L 21.929688 34.632812 L 21.960938 34.625 L 21.960938 33.976562 Z M 21.972656 33.957031 "/>
<path style=" stroke:none;fill-rule:nonzero;fill:rgb(100%,40%,0%);fill-opacity:1;" d="M 25.242188 34.558594 L 25.25 34.558594 C 25.597656 34.558594 25.917969 34.75 26.085938 35.054688 C 26.121094 35.109375 26.148438 35.171875 26.164062 35.234375 L 26.148438 35.246094 L 25.917969 35.246094 C 25.890625 35.246094 25.859375 35.210938 25.824219 35.136719 C 25.695312 34.9375 25.472656 34.816406 25.234375 34.8125 C 24.898438 34.8125 24.601562 35.042969 24.523438 35.367188 C 24.5 35.453125 24.488281 35.542969 24.488281 35.628906 C 24.484375 35.914062 24.617188 36.183594 24.84375 36.355469 C 24.957031 36.421875 25.089844 36.460938 25.222656 36.464844 C 25.480469 36.46875 25.722656 36.324219 25.84375 36.09375 C 25.867188 36.039062 25.882812 36.011719 25.894531 36.011719 L 26.15625 36.011719 C 26.164062 36.011719 26.167969 36.019531 26.167969 36.03125 C 26.121094 36.179688 26.042969 36.3125 25.9375 36.425781 C 25.753906 36.617188 25.5 36.722656 25.234375 36.714844 C 24.839844 36.71875 24.480469 36.484375 24.328125 36.117188 C 24.253906 35.960938 24.214844 35.792969 24.210938 35.621094 C 24.214844 35.28125 24.375 34.960938 24.644531 34.753906 C 24.820312 34.625 25.027344 34.558594 25.242188 34.558594 Z M 25.242188 34.558594 "/>
<path style=" stroke:none;fill-rule:nonzero;fill:rgb(100%,40%,0%);fill-opacity:1;" d="M 27.804688 33.957031 L 28.035156 33.957031 L 28.046875 33.96875 L 28.046875 34.828125 L 28.058594 34.84375 C 28.199219 34.664062 28.417969 34.570312 28.644531 34.582031 L 28.664062 34.582031 C 29 34.558594 29.304688 34.777344 29.394531 35.101562 C 29.421875 35.195312 29.4375 35.289062 29.4375 35.382812 L 29.4375 36.648438 L 29.421875 36.667969 L 29.199219 36.667969 L 29.183594 36.648438 L 29.183594 35.394531 C 29.195312 35.179688 29.074219 34.976562 28.878906 34.886719 C 28.800781 34.859375 28.71875 34.84375 28.636719 34.839844 C 28.367188 34.820312 28.125 35.007812 28.078125 35.273438 C 28.054688 35.351562 28.042969 35.433594 28.046875 35.515625 L 28.046875 36.65625 L 28.035156 36.671875 L 27.804688 36.671875 C 27.792969 36.671875 27.785156 36.652344 27.785156 36.632812 L 27.785156 34 C 27.789062 33.976562 27.796875 33.957031 27.804688 33.957031 Z M 27.804688 33.957031 "/>
<path style=" stroke:none;fill-rule:nonzero;fill:rgb(100%,40%,0%);fill-opacity:1;" d="M 32.113281 34.570312 C 32.53125 34.570312 32.902344 34.851562 33.015625 35.253906 C 33.0625 35.40625 33.089844 35.5625 33.089844 35.71875 L 33.070312 35.730469 L 31.34375 35.730469 C 31.335938 35.730469 31.332031 35.738281 31.332031 35.75 C 31.34375 35.964844 31.441406 36.164062 31.597656 36.304688 C 31.777344 36.457031 32.015625 36.511719 32.238281 36.457031 C 32.464844 36.402344 32.648438 36.242188 32.738281 36.023438 L 33.003906 36.023438 L 33.015625 36.039062 L 33.015625 36.042969 C 32.925781 36.304688 32.734375 36.519531 32.484375 36.644531 C 32.355469 36.703125 32.21875 36.734375 32.074219 36.734375 C 31.726562 36.730469 31.40625 36.546875 31.226562 36.25 C 31.113281 36.058594 31.054688 35.839844 31.054688 35.617188 C 31.058594 35.28125 31.210938 34.964844 31.46875 34.757812 C 31.660156 34.632812 31.886719 34.566406 32.113281 34.570312 Z M 31.34375 35.492188 L 31.347656 35.496094 L 32.785156 35.496094 L 32.796875 35.484375 C 32.773438 35.332031 32.707031 35.183594 32.609375 35.0625 C 32.476562 34.902344 32.277344 34.8125 32.070312 34.816406 C 31.746094 34.804688 31.457031 35.023438 31.371094 35.339844 C 31.355469 35.390625 31.34375 35.441406 31.34375 35.496094 Z M 31.34375 35.492188 "/>
<path style=" stroke:none;fill-rule:nonzero;fill:rgb(100%,40%,0%);fill-opacity:1;" d="M 35.589844 34.585938 L 35.601562 34.585938 C 35.9375 34.574219 36.234375 34.796875 36.324219 35.121094 C 36.347656 35.207031 36.359375 35.292969 36.359375 35.382812 L 36.359375 36.648438 L 36.339844 36.667969 L 36.121094 36.667969 L 36.105469 36.648438 L 36.105469 35.394531 C 36.113281 35.203125 36.019531 35.019531 35.859375 34.910156 C 35.765625 34.867188 35.667969 34.84375 35.566406 34.839844 C 35.277344 34.820312 35.027344 35.027344 34.984375 35.3125 C 34.972656 35.386719 34.964844 35.464844 34.96875 35.542969 L 34.96875 36.65625 L 34.957031 36.671875 L 34.726562 36.671875 C 34.714844 36.671875 34.707031 36.652344 34.707031 36.632812 L 34.707031 34.675781 C 34.707031 34.652344 34.714844 34.636719 34.726562 34.636719 L 34.957031 34.636719 L 34.96875 34.652344 L 34.96875 34.824219 L 34.980469 34.835938 C 35.140625 34.675781 35.363281 34.585938 35.589844 34.585938 Z M 35.589844 34.585938 "/>
<path style=" stroke:none;fill-rule:nonzero;fill:rgb(0%,0%,0%);fill-opacity:1;" d="M 72.777344 9.890625 L 72.828125 9.890625 C 75.1875 9.941406 77.417969 10.960938 78.996094 12.71875 L 79.046875 12.71875 L 79.046875 11.617188 L 78.996094 10.625 C 79.046875 10.484375 79.101562 10.414062 79.152344 10.414062 L 81.085938 10.414062 L 81.191406 10.519531 L 81.191406 27.054688 L 81.085938 27.160156 L 79.152344 27.160156 L 78.996094 27.003906 L 79.046875 25.957031 L 79.046875 24.753906 L 78.996094 24.753906 C 77.359375 26.648438 74.960938 27.703125 72.464844 27.628906 C 70.03125 27.671875 67.707031 26.617188 66.140625 24.753906 C 64.8125 23.078125 64.046875 21.027344 63.941406 18.890625 C 63.957031 15.945312 65.351562 13.175781 67.707031 11.414062 C 69.210938 10.414062 70.976562 9.882812 72.777344 9.890625 Z M 66.296875 18.789062 C 66.28125 21.109375 67.417969 23.285156 69.328125 24.597656 C 70.347656 25.1875 71.496094 25.507812 72.671875 25.539062 C 74.363281 25.519531 75.972656 24.800781 77.113281 23.550781 C 78.285156 22.296875 78.96875 20.664062 79.046875 18.949219 L 79.046875 18.53125 C 78.988281 16.339844 77.902344 14.300781 76.117188 13.03125 C 75.121094 12.378906 73.964844 12.015625 72.773438 11.984375 C 70.78125 11.964844 68.898438 12.898438 67.703125 14.496094 C 66.8125 15.753906 66.324219 17.246094 66.296875 18.789062 Z M 66.296875 18.789062 "/>
<path style=" stroke:none;fill-rule:nonzero;fill:rgb(0%,0%,0%);fill-opacity:1;" d="M 92.019531 10.0625 C 93.953125 10.117188 95.789062 10.925781 97.136719 12.3125 L 97.5 12.886719 L 97.605469 12.886719 C 99.09375 11.101562 101.292969 10.066406 103.617188 10.0625 L 103.667969 10.0625 C 106.960938 10.0625 109.050781 11.875 109.941406 15.503906 L 110.042969 16.96875 L 110.042969 27.015625 L 109.886719 27.171875 L 108.007812 27.171875 L 107.851562 27.015625 L 107.851562 16.761719 C 107.9375 14.957031 106.925781 13.28125 105.292969 12.523438 C 104.632812 12.304688 103.945312 12.179688 103.253906 12.15625 C 100.65625 12.15625 99.054688 13.585938 98.445312 16.445312 L 98.394531 17.335938 L 98.394531 27.015625 L 98.238281 27.171875 L 96.460938 27.171875 L 96.304688 27.015625 L 96.304688 16.601562 C 96.34375 14.949219 95.457031 13.414062 94.003906 12.625 C 93.234375 12.339844 92.421875 12.183594 91.601562 12.15625 C 89.257812 12.15625 87.742188 13.394531 87.054688 15.871094 C 86.894531 16.539062 86.824219 17.222656 86.84375 17.910156 L 86.84375 27.070312 L 86.742188 27.171875 L 84.808594 27.171875 C 84.703125 27.140625 84.652344 27.035156 84.652344 26.859375 L 84.652344 10.847656 C 84.675781 10.636719 84.730469 10.53125 84.808594 10.53125 L 86.738281 10.53125 L 86.84375 10.636719 L 86.84375 12.050781 L 86.949219 12.15625 C 88.296875 10.8125 90.121094 10.0625 92.019531 10.0625 Z M 92.019531 10.0625 "/>
<path style=" stroke:none;fill-rule:nonzero;fill:rgb(0%,0%,0%);fill-opacity:1;" d="M 113.664062 4.933594 L 115.597656 4.933594 L 115.699219 5.039062 L 115.699219 8.335938 L 115.597656 8.441406 L 113.664062 8.441406 C 113.558594 8.40625 113.507812 8.300781 113.507812 8.125 L 113.507812 5.25 C 113.53125 5.039062 113.585938 4.933594 113.664062 4.933594 Z M 113.664062 10.429688 L 115.597656 10.429688 L 115.699219 10.53125 L 115.699219 27.070312 L 115.597656 27.171875 L 113.664062 27.171875 C 113.558594 27.140625 113.507812 27.035156 113.507812 26.859375 L 113.507812 10.742188 C 113.53125 10.53125 113.585938 10.429688 113.664062 10.429688 Z M 113.664062 10.429688 "/>
<path style=" stroke:none;fill-rule:nonzero;fill:rgb(0%,0%,0%);fill-opacity:1;" d="M 130.917969 4.148438 C 134.957031 4.066406 138.699219 6.273438 140.585938 9.851562 L 140.636719 10.113281 L 140.535156 10.21875 L 138.183594 10.21875 C 138 10.21875 137.597656 9.816406 136.980469 9.015625 C 135.339844 7.304688 133.074219 6.339844 130.710938 6.347656 C 128.292969 6.34375 125.96875 7.28125 124.230469 8.964844 C 122.503906 10.75 121.515625 13.125 121.460938 15.609375 C 121.503906 18.464844 122.753906 21.164062 124.90625 23.039062 C 126.539062 24.332031 128.566406 25.035156 130.648438 25.027344 C 133.292969 24.964844 135.777344 23.738281 137.441406 21.679688 C 138.296875 20.644531 138.902344 19.425781 139.21875 18.121094 L 139.167969 18.066406 L 128.140625 18.066406 L 127.984375 17.910156 L 127.984375 16.1875 L 128.089844 16.082031 L 141.78125 16.082031 C 141.851562 16.082031 141.886719 16.132812 141.886719 16.238281 C 141.800781 18.449219 141.09375 20.589844 139.847656 22.414062 C 137.667969 25.429688 134.160156 27.207031 130.441406 27.175781 C 127.703125 27.210938 125.050781 26.242188 122.976562 24.453125 C 120.605469 22.199219 119.230469 19.09375 119.160156 15.820312 L 119.160156 15.347656 C 119.199219 11.699219 120.964844 8.28125 123.914062 6.136719 C 126.007812 4.8125 128.441406 4.121094 130.917969 4.148438 Z M 130.917969 4.148438 "/>
<path style=" stroke:none;fill-rule:nonzero;fill:rgb(0%,0%,0%);fill-opacity:1;" d="M 154.183594 9.761719 C 157.300781 9.757812 160.160156 11.492188 161.605469 14.261719 C 162.320312 15.582031 162.714844 17.050781 162.753906 18.550781 C 162.734375 21.484375 161.339844 24.238281 158.988281 25.984375 C 157.484375 26.976562 155.722656 27.503906 153.921875 27.5 C 151.582031 27.519531 149.34375 26.550781 147.753906 24.832031 C 146.273438 23.066406 145.425781 20.855469 145.351562 18.550781 C 145.414062 15.78125 146.71875 13.1875 148.902344 11.488281 C 150.429688 10.355469 152.28125 9.75 154.183594 9.761719 Z M 147.703125 18.660156 C 147.691406 20.863281 148.695312 22.945312 150.421875 24.3125 C 151.953125 25.351562 153.859375 25.671875 155.648438 25.191406 C 157.433594 24.707031 158.921875 23.46875 159.722656 21.800781 C 160.164062 20.847656 160.394531 19.8125 160.402344 18.765625 L 160.402344 18.398438 C 160.386719 16.195312 159.320312 14.132812 157.53125 12.851562 C 156.488281 12.226562 155.300781 11.886719 154.085938 11.855469 C 152.355469 11.839844 150.703125 12.5625 149.539062 13.84375 C 148.34375 15.160156 147.6875 16.878906 147.703125 18.660156 Z M 147.703125 18.660156 "/>
<path style=" stroke:none;fill-rule:nonzero;fill:rgb(0%,0%,0%);fill-opacity:1;" d="M 172.011719 9.433594 L 172.117188 9.433594 C 174.320312 9.28125 176.28125 10.816406 176.664062 12.992188 L 176.714844 13.828125 L 176.714844 13.933594 L 176.558594 14.089844 L 174.46875 14.089844 C 174.335938 14.089844 174.238281 13.757812 174.15625 13.097656 C 173.773438 12.113281 172.804688 11.480469 171.75 11.527344 C 170.53125 11.53125 169.492188 12.414062 169.296875 13.621094 L 169.296875 14.144531 C 169.296875 15.445312 170.359375 16.371094 172.484375 16.917969 C 173.960938 17.234375 175.289062 18.046875 176.246094 19.21875 C 176.78125 20.136719 177.035156 21.191406 176.976562 22.253906 C 176.949219 24.023438 175.96875 25.644531 174.414062 26.492188 C 173.507812 26.941406 172.503906 27.171875 171.492188 27.171875 C 168.816406 27.171875 167.09375 25.6875 166.320312 22.722656 L 166.21875 21.519531 L 166.375 21.363281 L 168.359375 21.363281 C 168.464844 21.363281 168.570312 21.816406 168.675781 22.722656 C 168.96875 24.105469 170.191406 25.089844 171.601562 25.078125 C 172.945312 25.136719 174.148438 24.242188 174.472656 22.933594 L 174.523438 22.460938 L 174.523438 22.09375 C 174.523438 20.699219 173.53125 19.6875 171.546875 19.058594 C 169.4375 18.390625 168.097656 17.570312 167.527344 16.601562 C 167.113281 15.808594 166.917969 14.925781 166.953125 14.035156 C 167 12.503906 167.777344 11.082031 169.042969 10.21875 C 169.9375 9.675781 170.96875 9.40625 172.011719 9.433594 Z M 172.011719 9.433594 "/>
<path style=" stroke:none;fill-rule:nonzero;fill:rgb(0%,0%,0%);fill-opacity:1;" d="M 66.1875 34.101562 L 68.121094 34.101562 L 68.226562 34.207031 L 68.226562 46.136719 L 68.332031 46.242188 L 68.382812 46.242188 C 68.53125 45.988281 71.910156 41.941406 78.519531 34.101562 L 80.921875 34.101562 L 81.027344 34.207031 L 81.027344 34.257812 L 72.25 44.828125 L 72.25 44.882812 L 80.765625 56.1875 L 80.765625 56.292969 L 80.714844 56.34375 L 78.257812 56.34375 C 77.9375 56.054688 76.074219 53.664062 72.667969 49.175781 L 70.683594 46.714844 C 69.726562 47.628906 68.898438 48.664062 68.226562 49.800781 L 68.226562 56.242188 L 68.121094 56.347656 L 66.1875 56.347656 C 66.082031 56.3125 66.03125 56.207031 66.03125 56.035156 L 66.03125 34.417969 C 66.054688 34.207031 66.109375 34.101562 66.1875 34.101562 Z M 66.1875 34.101562 "/>
<path style=" stroke:none;fill-rule:nonzero;fill:rgb(0%,0%,0%);fill-opacity:1;" d="M 84.644531 34.101562 L 86.578125 34.101562 L 86.683594 34.207031 L 86.683594 37.503906 L 86.578125 37.609375 L 84.644531 37.609375 C 84.539062 37.574219 84.488281 37.46875 84.488281 37.292969 L 84.488281 34.417969 C 84.515625 34.207031 84.566406 34.101562 84.644531 34.101562 Z M 84.644531 39.59375 L 86.578125 39.59375 L 86.683594 39.699219 L 86.683594 56.234375 L 86.578125 56.34375 L 84.644531 56.34375 C 84.539062 56.308594 84.488281 56.203125 84.488281 56.027344 L 84.488281 39.910156 C 84.515625 39.699219 84.566406 39.59375 84.644531 39.59375 Z M 84.644531 39.59375 "/>
<path style=" stroke:none;fill-rule:nonzero;fill:rgb(0%,0%,0%);fill-opacity:1;" d="M 93.433594 34.101562 L 95.421875 34.101562 L 95.523438 34.207031 L 95.523438 39.542969 L 95.785156 39.59375 L 98.605469 39.59375 L 98.710938 39.699219 L 98.710938 41.6875 L 98.554688 41.847656 L 95.628906 41.847656 L 95.523438 41.949219 L 95.523438 56.183594 L 95.367188 56.34375 L 93.488281 56.34375 L 93.328125 56.183594 L 93.328125 41.949219 L 93.226562 41.847656 L 90.246094 41.847656 L 90.140625 41.742188 L 90.140625 39.699219 L 90.246094 39.59375 L 93.066406 39.59375 L 93.328125 39.539062 L 93.328125 34.207031 Z M 93.433594 34.101562 "/>
<path style=" stroke:none;fill-rule:nonzero;fill:rgb(0%,0%,0%);fill-opacity:1;" d="M 111.003906 39.007812 L 111.054688 39.007812 C 114 38.980469 116.734375 40.539062 118.214844 43.089844 C 118.519531 43.539062 118.746094 44.03125 118.894531 44.554688 L 118.738281 44.660156 L 116.75 44.660156 C 116.535156 44.660156 116.273438 44.363281 115.96875 43.769531 C 114.816406 42.101562 112.921875 41.105469 110.898438 41.101562 C 108.007812 41.101562 105.988281 42.617188 104.835938 45.652344 C 104.636719 46.351562 104.53125 47.074219 104.523438 47.800781 C 104.503906 50.164062 105.636719 52.386719 107.554688 53.765625 C 108.550781 54.304688 109.660156 54.609375 110.792969 54.652344 C 112.992188 54.695312 115.035156 53.53125 116.125 51.621094 C 116.332031 51.160156 116.46875 50.9375 116.542969 50.9375 L 118.789062 50.9375 C 118.859375 50.9375 118.894531 50.988281 118.894531 51.09375 C 118.484375 52.3125 117.804688 53.421875 116.90625 54.339844 C 115.316406 55.925781 113.144531 56.796875 110.898438 56.746094 C 107.554688 56.800781 104.5 54.871094 103.109375 51.828125 C 102.515625 50.546875 102.195312 49.15625 102.167969 47.746094 C 102.214844 44.917969 103.589844 42.28125 105.878906 40.628906 C 107.375 39.5625 109.167969 38.996094 111.003906 39.007812 Z M 111.003906 39.007812 "/>
<path style=" stroke:none;fill-rule:nonzero;fill:rgb(0%,0%,0%);fill-opacity:1;" d="M 122.507812 34.101562 L 124.445312 34.101562 L 124.546875 34.207031 L 124.546875 41.269531 L 124.652344 41.375 C 125.898438 39.917969 127.753906 39.125 129.667969 39.230469 L 129.824219 39.230469 C 132.65625 39.03125 135.25 40.808594 136.097656 43.519531 C 136.328125 44.265625 136.449219 45.042969 136.460938 45.820312 L 136.460938 56.183594 L 136.304688 56.339844 L 134.425781 56.339844 L 134.269531 56.183594 L 134.269531 45.875 C 134.359375 44.070312 133.316406 42.398438 131.65625 41.6875 C 130.996094 41.472656 130.308594 41.347656 129.617188 41.324219 C 127.351562 41.132812 125.292969 42.652344 124.808594 44.878906 C 124.625 45.527344 124.539062 46.199219 124.546875 46.871094 L 124.546875 56.234375 L 124.445312 56.34375 L 122.507812 56.34375 C 122.40625 56.308594 122.355469 56.203125 122.355469 56.027344 L 122.355469 34.417969 C 122.378906 34.207031 122.433594 34.101562 122.507812 34.101562 Z M 122.507812 34.101562 "/>
<path style=" stroke:none;fill-rule:nonzero;fill:rgb(0%,0%,0%);fill-opacity:1;" d="M 148.960938 39.113281 C 152.542969 39.113281 155.121094 40.980469 156.695312 44.710938 C 157.097656 45.945312 157.308594 47.234375 157.324219 48.53125 L 157.167969 48.636719 L 142.378906 48.636719 C 142.308594 48.636719 142.273438 48.6875 142.273438 48.792969 C 142.386719 50.5625 143.21875 52.207031 144.570312 53.34375 C 145.695312 54.257812 147.097656 54.757812 148.542969 54.757812 C 151.03125 54.796875 153.296875 53.332031 154.285156 51.042969 L 156.582031 51.042969 L 156.6875 51.148438 L 156.6875 51.199219 C 155.878906 53.375 154.25 55.140625 152.152344 56.121094 C 148.257812 57.832031 143.695312 56.457031 141.390625 52.875 C 140.429688 51.320312 139.925781 49.527344 139.925781 47.699219 C 139.949219 44.917969 141.261719 42.308594 143.480469 40.632812 C 145.125 39.613281 147.027344 39.082031 148.960938 39.113281 Z M 142.378906 46.703125 L 142.429688 46.753906 L 154.710938 46.753906 L 154.816406 46.652344 C 154.597656 45.375 154.035156 44.183594 153.195312 43.199219 C 152.050781 41.863281 150.363281 41.113281 148.601562 41.160156 C 145.867188 41.050781 143.410156 42.820312 142.644531 45.449219 C 142.488281 45.847656 142.398438 46.273438 142.378906 46.699219 Z M 142.378906 46.703125 "/>
<path style=" stroke:none;fill-rule:nonzero;fill:rgb(0%,0%,0%);fill-opacity:1;" d="M 168.308594 39.230469 L 168.414062 39.230469 C 171.230469 39.105469 173.773438 40.917969 174.578125 43.625 C 174.78125 44.324219 174.886719 45.042969 174.894531 45.769531 L 174.894531 56.183594 L 174.738281 56.34375 L 172.855469 56.34375 L 172.699219 56.183594 L 172.699219 45.875 C 172.757812 44.273438 171.960938 42.757812 170.605469 41.898438 C 169.820312 41.539062 168.964844 41.34375 168.097656 41.324219 C 165.691406 41.128906 163.535156 42.8125 163.132812 45.195312 C 163.019531 45.816406 162.96875 46.449219 162.976562 47.082031 L 162.976562 56.238281 L 162.875 56.34375 L 160.941406 56.34375 C 160.835938 56.308594 160.785156 56.203125 160.785156 56.027344 L 160.785156 40.015625 C 160.808594 39.804688 160.859375 39.699219 160.941406 39.699219 L 162.875 39.699219 L 162.976562 39.804688 L 162.976562 41.21875 L 163.082031 41.324219 C 164.484375 39.96875 166.359375 39.21875 168.308594 39.230469 Z M 168.308594 39.230469 "/>
</g>
</svg>
